solid ascii
  facet normal 0.000000e+000 1.000000e+000 0.000000e+000
    outer loop
      vertex   1.288358e+002 7.270000e+001 1.557403e+001
      vertex   1.377000e+002 7.270000e+001 1.100000e+001
      vertex   1.289500e+002 7.270000e+001 1.500000e+001
    endloop
  endfacet
  facet normal 1.000000e+000 0.000000e+000 -0.000000e+000
    outer loop
      vertex   1.412000e+002 6.170000e+001 1.500000e+001
      vertex   1.412000e+002 6.920000e+001 1.100000e+001
      vertex   1.412000e+002 6.920000e+001 1.900000e+001
    endloop
  endfacet
  facet normal 0.000000e+000 0.000000e+000 -1.000000e+000
    outer loop
      vertex   1.377000e+002 7.270000e+001 1.100000e+001
      vertex   1.412000e+002 5.420000e+001 1.100000e+001
      vertex   1.227000e+002 7.270000e+001 1.100000e+001
    endloop
  endfacet
  facet normal 1.000000e+000 0.000000e+000 0.000000e+000
    outer loop
      vertex   1.412000e+002 6.170000e+001 1.500000e+001
      vertex   1.412000e+002 5.420000e+001 1.900000e+001
      vertex   1.412000e+002 5.420000e+001 1.100000e+001
    endloop
  endfacet
  facet normal 7.071068e-001 7.071068e-001 -0.000000e+000
    outer loop
      vertex   1.394500e+002 7.095000e+001 1.500000e+001
      vertex   1.377000e+002 7.270000e+001 1.100000e+001
      vertex   1.377000e+002 7.270000e+001 1.900000e+001
    endloop
  endfacet
  facet normal 0.000000e+000 0.000000e+000 -1.000000e+000
    outer loop
      vertex   1.412000e+002 5.420000e+001 1.100000e+001
      vertex   1.397000e+002 5.270000e+001 1.100000e+001
      vertex   1.227000e+002 7.270000e+001 1.100000e+001
    endloop
  endfacet
  facet normal 7.071068e-001 7.071068e-001 0.000000e+000
    outer loop
      vertex   1.394500e+002 7.095000e+001 1.500000e+001
      vertex   1.412000e+002 6.920000e+001 1.900000e+001
      vertex   1.412000e+002 6.920000e+001 1.100000e+001
    endloop
  endfacet
  facet normal 7.071068e-001 7.071068e-001 0.000000e+000
    outer loop
      vertex   1.394500e+002 7.095000e+001 1.500000e+001
      vertex   1.412000e+002 6.920000e+001 1.100000e+001
      vertex   1.377000e+002 7.270000e+001 1.100000e+001
    endloop
  endfacet
  facet normal 7.071068e-001 -7.071068e-001 0.000000e+000
    outer loop
      vertex   1.404500e+002 5.345000e+001 1.500000e+001
      vertex   1.397000e+002 5.270000e+001 1.900000e+001
      vertex   1.397000e+002 5.270000e+001 1.100000e+001
    endloop
  endfacet
  facet normal 7.071068e-001 -7.071068e-001 0.000000e+000
    outer loop
      vertex   1.404500e+002 5.345000e+001 1.500000e+001
      vertex   1.397000e+002 5.270000e+001 1.100000e+001
      vertex   1.412000e+002 5.420000e+001 1.100000e+001
    endloop
  endfacet
  facet normal 7.071068e-001 -7.071068e-001 0.000000e+000
    outer loop
      vertex   1.404500e+002 5.345000e+001 1.500000e+001
      vertex   1.412000e+002 5.420000e+001 1.100000e+001
      vertex   1.412000e+002 5.420000e+001 1.900000e+001
    endloop
  endfacet
  facet normal 0.000000e+000 0.000000e+000 -1.000000e+000
    outer loop
      vertex   1.397000e+002 5.270000e+001 1.100000e+001
      vertex   1.207000e+002 5.270000e+001 1.100000e+001
      vertex   1.239858e+002 6.312598e+001 1.100000e+001
    endloop
  endfacet
  facet normal -7.071068e-001 7.071068e-001 0.000000e+000
    outer loop
      vertex   1.209500e+002 7.095000e+001 1.500000e+001
      vertex   1.227000e+002 7.270000e+001 1.900000e+001
      vertex   1.227000e+002 7.270000e+001 1.100000e+001
    endloop
  endfacet
  facet normal -7.071068e-001 7.071068e-001 0.000000e+000
    outer loop
      vertex   1.209500e+002 7.095000e+001 1.500000e+001
      vertex   1.227000e+002 7.270000e+001 1.100000e+001
      vertex   1.192000e+002 6.920000e+001 1.100000e+001
    endloop
  endfacet
  facet normal -7.071068e-001 7.071068e-001 0.000000e+000
    outer loop
      vertex   1.209500e+002 7.095000e+001 1.500000e+001
      vertex   1.192000e+002 6.920000e+001 1.100000e+001
      vertex   1.192000e+002 6.920000e+001 1.900000e+001
    endloop
  endfacet
  facet normal 0.000000e+000 0.000000e+000 -1.000000e+000
    outer loop
      vertex   1.397000e+002 5.270000e+001 1.100000e+001
      vertex   1.239858e+002 6.312598e+001 1.100000e+001
      vertex   1.241000e+002 6.370000e+001 1.100000e+001
    endloop
  endfacet
  facet normal -1.000000e+000 0.000000e+000 0.000000e+000
    outer loop
      vertex   1.192000e+002 6.170000e+001 1.500000e+001
      vertex   1.192000e+002 5.420000e+001 1.100000e+001
      vertex   1.192000e+002 5.420000e+001 1.900000e+001
    endloop
  endfacet
  facet normal 0.000000e+000 0.000000e+000 -1.000000e+000
    outer loop
      vertex   1.397000e+002 5.270000e+001 1.100000e+001
      vertex   1.241000e+002 6.370000e+001 1.100000e+001
      vertex   1.227000e+002 7.270000e+001 1.100000e+001
    endloop
  endfacet
  facet normal -1.000000e+000 0.000000e+000 -0.000000e+000
    outer loop
      vertex   1.192000e+002 6.170000e+001 1.500000e+001
      vertex   1.192000e+002 6.920000e+001 1.900000e+001
      vertex   1.192000e+002 6.920000e+001 1.100000e+001
    endloop
  endfacet
  facet normal -1.000000e+000 0.000000e+000 0.000000e+000
    outer loop
      vertex   1.192000e+002 6.170000e+001 1.500000e+001
      vertex   1.192000e+002 6.920000e+001 1.100000e+001
      vertex   1.192000e+002 5.420000e+001 1.100000e+001
    endloop
  endfacet
  facet normal -7.071068e-001 -7.071068e-001 -0.000000e+000
    outer loop
      vertex   1.199500e+002 5.345000e+001 1.500000e+001
      vertex   1.192000e+002 5.420000e+001 1.900000e+001
      vertex   1.192000e+002 5.420000e+001 1.100000e+001
    endloop
  endfacet
  facet normal -7.071068e-001 -7.071068e-001 0.000000e+000
    outer loop
      vertex   1.199500e+002 5.345000e+001 1.500000e+001
      vertex   1.192000e+002 5.420000e+001 1.100000e+001
      vertex   1.207000e+002 5.270000e+001 1.100000e+001
    endloop
  endfacet
  facet normal -7.071068e-001 -7.071068e-001 0.000000e+000
    outer loop
      vertex   1.199500e+002 5.345000e+001 1.500000e+001
      vertex   1.207000e+002 5.270000e+001 1.100000e+001
      vertex   1.207000e+002 5.270000e+001 1.900000e+001
    endloop
  endfacet
  facet normal 0.000000e+000 0.000000e+000 -1.000000e+000
    outer loop
      vertex   1.227000e+002 7.270000e+001 1.100000e+001
      vertex   1.236607e+002 6.476066e+001 1.100000e+001
      vertex   1.192000e+002 6.920000e+001 1.100000e+001
    endloop
  endfacet
  facet normal 1.950932e-001 -9.807848e-001 0.000000e+000
    outer loop
      vertex   1.223130e+002 6.514291e+001 1.500000e+001
      vertex   1.226000e+002 6.520000e+001 1.100000e+001
      vertex   1.226000e+002 6.520000e+001 1.900000e+001
    endloop
  endfacet
  facet normal 1.950932e-001 -9.807848e-001 0.000000e+000
    outer loop
      vertex   1.223130e+002 6.514291e+001 1.500000e+001
      vertex   1.220260e+002 6.508582e+001 1.100000e+001
      vertex   1.226000e+002 6.520000e+001 1.100000e+001
    endloop
  endfacet
  facet normal -1.950932e-001 -9.807848e-001 -0.000000e+000
    outer loop
      vertex   1.228870e+002 6.514291e+001 1.500000e+001
      vertex   1.226000e+002 6.520000e+001 1.900000e+001
      vertex   1.226000e+002 6.520000e+001 1.100000e+001
    endloop
  endfacet
  facet normal 0.000000e+000 0.000000e+000 -1.000000e+000
    outer loop
      vertex   1.227000e+002 7.270000e+001 1.100000e+001
      vertex   1.241000e+002 6.370000e+001 1.100000e+001
      vertex   1.239858e+002 6.427402e+001 1.100000e+001
    endloop
  endfacet
  facet normal 5.555632e-001 -8.314742e-001 1.323926e-006
    outer loop
      vertex   1.217827e+002 6.492324e+001 1.500000e+001
      vertex   1.215393e+002 6.476066e+001 1.100000e+001
      vertex   1.220260e+002 6.508582e+001 1.100000e+001
    endloop
  endfacet
  facet normal -1.950882e-001 -9.807857e-001 0.000000e+000
    outer loop
      vertex   1.228870e+002 6.514291e+001 1.500000e+001
      vertex   1.231740e+002 6.508582e+001 1.100000e+001
      vertex   1.231740e+002 6.508582e+001 1.900000e+001
    endloop
  endfacet
  facet normal -1.950907e-001 -9.807853e-001 -1.861773e-007
    outer loop
      vertex   1.228870e+002 6.514291e+001 1.500000e+001
      vertex   1.226000e+002 6.520000e+001 1.100000e+001
      vertex   1.231740e+002 6.508582e+001 1.100000e+001
    endloop
  endfacet
  facet normal -5.555603e-001 -8.314763e-001 -0.000000e+000
    outer loop
      vertex   1.234173e+002 6.492324e+001 1.500000e+001
      vertex   1.231740e+002 6.508582e+001 1.900000e+001
      vertex   1.231740e+002 6.508582e+001 1.100000e+001
    endloop
  endfacet
  facet normal 5.555482e-001 -8.314843e-001 0.000000e+000
    outer loop
      vertex   1.217827e+002 6.492324e+001 1.500000e+001
      vertex   1.220260e+002 6.508582e+001 1.100000e+001
      vertex   1.220260e+002 6.508582e+001 1.900000e+001
    endloop
  endfacet
  facet normal -5.555783e-001 -8.314642e-001 0.000000e+000
    outer loop
      vertex   1.234173e+002 6.492324e+001 1.500000e+001
      vertex   1.236607e+002 6.476066e+001 1.100000e+001
      vertex   1.236607e+002 6.476066e+001 1.900000e+001
    endloop
  endfacet
  facet normal -5.555693e-001 -8.314703e-001 7.924546e-007
    outer loop
      vertex   1.234173e+002 6.492324e+001 1.500000e+001
      vertex   1.231740e+002 6.508582e+001 1.100000e+001
      vertex   1.236607e+002 6.476066e+001 1.100000e+001
    endloop
  endfacet
  facet normal -8.314642e-001 -5.555783e-001 -0.000000e+000
    outer loop
      vertex   1.238232e+002 6.451734e+001 1.500000e+001
      vertex   1.236607e+002 6.476066e+001 1.900000e+001
      vertex   1.236607e+002 6.476066e+001 1.100000e+001
    endloop
  endfacet
  facet normal 0.000000e+000 0.000000e+000 -1.000000e+000
    outer loop
      vertex   1.239858e+002 6.312598e+001 1.100000e+001
      vertex   1.207000e+002 5.270000e+001 1.100000e+001
      vertex   1.236607e+002 6.263934e+001 1.100000e+001
    endloop
  endfacet
  facet normal -1.950882e-001 9.807857e-001 0.000000e+000
    outer loop
      vertex   1.228870e+002 6.225709e+001 1.500000e+001
      vertex   1.231740e+002 6.231418e+001 1.900000e+001
      vertex   1.231740e+002 6.231418e+001 1.100000e+001
    endloop
  endfacet
  facet normal 0.000000e+000 -1.000000e+000 0.000000e+000
    outer loop
      vertex   1.259500e+002 5.270000e+001 1.500000e+001
      vertex   1.207000e+002 5.270000e+001 1.100000e+001
      vertex   1.260642e+002 5.270000e+001 1.442597e+001
    endloop
  endfacet
  facet normal 5.555783e-001 -8.314642e-001 0.000000e+000
    outer loop
      vertex   1.217827e+002 6.492324e+001 1.500000e+001
      vertex   1.215393e+002 6.476066e+001 1.900000e+001
      vertex   1.215393e+002 6.476066e+001 1.100000e+001
    endloop
  endfacet
  facet normal 1.000000e+000 0.000000e+000 0.000000e+000
    outer loop
      vertex   1.412000e+002 6.170000e+001 1.500000e+001
      vertex   1.412000e+002 5.420000e+001 1.100000e+001
      vertex   1.412000e+002 6.920000e+001 1.100000e+001
    endloop
  endfacet
  facet normal -8.314763e-001 -5.555603e-001 0.000000e+000
    outer loop
      vertex   1.238232e+002 6.451734e+001 1.500000e+001
      vertex   1.239858e+002 6.427402e+001 1.100000e+001
      vertex   1.239858e+002 6.427402e+001 1.900000e+001
    endloop
  endfacet
  facet normal -1.950932e-001 9.807848e-001 0.000000e+000
    outer loop
      vertex   1.228870e+002 6.225709e+001 1.500000e+001
      vertex   1.226000e+002 6.220000e+001 1.100000e+001
      vertex   1.226000e+002 6.220000e+001 1.900000e+001
    endloop
  endfacet
  facet normal 0.000000e+000 -1.000000e+000 0.000000e+000
    outer loop
      vertex   1.207000e+002 5.270000e+001 1.900000e+001
      vertex   1.207000e+002 5.270000e+001 1.100000e+001
      vertex   1.263893e+002 5.270000e+001 1.606066e+001
    endloop
  endfacet
  facet normal -8.314703e-001 -5.555693e-001 7.924546e-007
    outer loop
      vertex   1.238232e+002 6.451734e+001 1.500000e+001
      vertex   1.236607e+002 6.476066e+001 1.100000e+001
      vertex   1.239858e+002 6.427402e+001 1.100000e+001
    endloop
  endfacet
  facet normal -9.807853e-001 -1.950907e-001 -0.000000e+000
    outer loop
      vertex   1.240429e+002 6.398701e+001 1.500000e+001
      vertex   1.239858e+002 6.427402e+001 1.900000e+001
      vertex   1.239858e+002 6.427402e+001 1.100000e+001
    endloop
  endfacet
  facet normal 8.314703e-001 -5.555693e-001 -7.924546e-007
    outer loop
      vertex   1.213768e+002 6.451734e+001 1.500000e+001
      vertex   1.212142e+002 6.427402e+001 1.100000e+001
      vertex   1.215393e+002 6.476066e+001 1.100000e+001
    endloop
  endfacet
  facet normal -9.807848e-001 -1.950932e-001 0.000000e+000
    outer loop
      vertex   1.240429e+002 6.398701e+001 1.500000e+001
      vertex   1.241000e+002 6.370000e+001 1.100000e+001
      vertex   1.241000e+002 6.370000e+001 1.900000e+001
    endloop
  endfacet
  facet normal -9.807850e-001 -1.950920e-001 -9.388490e-008
    outer loop
      vertex   1.240429e+002 6.398701e+001 1.500000e+001
      vertex   1.239858e+002 6.427402e+001 1.100000e+001
      vertex   1.241000e+002 6.370000e+001 1.100000e+001
    endloop
  endfacet
  facet normal -9.807853e-001 1.950907e-001 0.000000e+000
    outer loop
      vertex   1.240429e+002 6.341299e+001 1.500000e+001
      vertex   1.241000e+002 6.370000e+001 1.900000e+001
      vertex   1.241000e+002 6.370000e+001 1.100000e+001
    endloop
  endfacet
  facet normal 8.314763e-001 -5.555603e-001 0.000000e+000
    outer loop
      vertex   1.213768e+002 6.451734e+001 1.500000e+001
      vertex   1.215393e+002 6.476066e+001 1.100000e+001
      vertex   1.215393e+002 6.476066e+001 1.900000e+001
    endloop
  endfacet
  facet normal -9.807848e-001 1.950932e-001 0.000000e+000
    outer loop
      vertex   1.240429e+002 6.341299e+001 1.500000e+001
      vertex   1.239858e+002 6.312598e+001 1.100000e+001
      vertex   1.239858e+002 6.312598e+001 1.900000e+001
    endloop
  endfacet
  facet normal -9.807850e-001 1.950920e-001 9.388490e-008
    outer loop
      vertex   1.240429e+002 6.341299e+001 1.500000e+001
      vertex   1.241000e+002 6.370000e+001 1.100000e+001
      vertex   1.239858e+002 6.312598e+001 1.100000e+001
    endloop
  endfacet
  facet normal 0.000000e+000 0.000000e+000 -1.000000e+000
    outer loop
      vertex   1.227000e+002 7.270000e+001 1.100000e+001
      vertex   1.239858e+002 6.427402e+001 1.100000e+001
      vertex   1.236607e+002 6.476066e+001 1.100000e+001
    endloop
  endfacet
  facet normal -8.314803e-001 5.555542e-001 0.000000e+000
    outer loop
      vertex   1.238232e+002 6.288266e+001 1.500000e+001
      vertex   1.239858e+002 6.312598e+001 1.900000e+001
      vertex   1.239858e+002 6.312598e+001 1.100000e+001
    endloop
  endfacet
  facet normal 8.314642e-001 -5.555783e-001 0.000000e+000
    outer loop
      vertex   1.213768e+002 6.451734e+001 1.500000e+001
      vertex   1.212142e+002 6.427402e+001 1.900000e+001
      vertex   1.212142e+002 6.427402e+001 1.100000e+001
    endloop
  endfacet
  facet normal 0.000000e+000 0.000000e+000 -1.000000e+000
    outer loop
      vertex   1.236607e+002 6.476066e+001 1.100000e+001
      vertex   1.231740e+002 6.508582e+001 1.100000e+001
      vertex   1.192000e+002 6.920000e+001 1.100000e+001
    endloop
  endfacet
  facet normal 0.000000e+000 1.000000e+000 -0.000000e+000
    outer loop
      vertex   1.377000e+002 7.270000e+001 1.900000e+001
      vertex   1.377000e+002 7.270000e+001 1.100000e+001
      vertex   1.372000e+002 7.270000e+001 1.500000e+001
    endloop
  endfacet
  facet normal 0.000000e+000 0.000000e+000 -1.000000e+000
    outer loop
      vertex   1.231740e+002 6.508582e+001 1.100000e+001
      vertex   1.226000e+002 6.520000e+001 1.100000e+001
      vertex   1.192000e+002 6.920000e+001 1.100000e+001
    endloop
  endfacet
  facet normal 0.000000e+000 0.000000e+000 -1.000000e+000
    outer loop
      vertex   1.226000e+002 6.520000e+001 1.100000e+001
      vertex   1.220260e+002 6.508582e+001 1.100000e+001
      vertex   1.192000e+002 6.920000e+001 1.100000e+001
    endloop
  endfacet
  facet normal 0.000000e+000 1.000000e+000 0.000000e+000
    outer loop
      vertex   1.372000e+002 7.270000e+001 1.500000e+001
      vertex   1.377000e+002 7.270000e+001 1.100000e+001
      vertex   1.370858e+002 7.270000e+001 1.442597e+001
    endloop
  endfacet
  facet normal 0.000000e+000 1.000000e+000 0.000000e+000
    outer loop
      vertex   1.370858e+002 7.270000e+001 1.442597e+001
      vertex   1.377000e+002 7.270000e+001 1.100000e+001
      vertex   1.367607e+002 7.270000e+001 1.393934e+001
    endloop
  endfacet
  facet normal 0.000000e+000 1.000000e+000 0.000000e+000
    outer loop
      vertex   1.367607e+002 7.270000e+001 1.393934e+001
      vertex   1.377000e+002 7.270000e+001 1.100000e+001
      vertex   1.362740e+002 7.270000e+001 1.361418e+001
    endloop
  endfacet
  facet normal -8.314642e-001 5.555783e-001 0.000000e+000
    outer loop
      vertex   1.238232e+002 6.288266e+001 1.500000e+001
      vertex   1.236607e+002 6.263934e+001 1.100000e+001
      vertex   1.236607e+002 6.263934e+001 1.900000e+001
    endloop
  endfacet
  facet normal 0.000000e+000 1.000000e+000 0.000000e+000
    outer loop
      vertex   1.362740e+002 7.270000e+001 1.361418e+001
      vertex   1.377000e+002 7.270000e+001 1.100000e+001
      vertex   1.357000e+002 7.270000e+001 1.350000e+001
    endloop
  endfacet
  facet normal -8.314723e-001 5.555663e-001 1.059783e-006
    outer loop
      vertex   1.238232e+002 6.288266e+001 1.500000e+001
      vertex   1.239858e+002 6.312598e+001 1.100000e+001
      vertex   1.236607e+002 6.263934e+001 1.100000e+001
    endloop
  endfacet
  facet normal 0.000000e+000 1.000000e+000 0.000000e+000
    outer loop
      vertex   1.357000e+002 7.270000e+001 1.350000e+001
      vertex   1.377000e+002 7.270000e+001 1.100000e+001
      vertex   1.351260e+002 7.270000e+001 1.361418e+001
    endloop
  endfacet
  facet normal -5.555693e-001 8.314703e-001 0.000000e+000
    outer loop
      vertex   1.234173e+002 6.247676e+001 1.500000e+001
      vertex   1.236607e+002 6.263934e+001 1.900000e+001
      vertex   1.236607e+002 6.263934e+001 1.100000e+001
    endloop
  endfacet
  facet normal 9.807850e-001 -1.950920e-001 -9.229363e-008
    outer loop
      vertex   1.211571e+002 6.398701e+001 1.500000e+001
      vertex   1.211000e+002 6.370000e+001 1.100000e+001
      vertex   1.212142e+002 6.427402e+001 1.100000e+001
    endloop
  endfacet
  facet normal 0.000000e+000 1.000000e+000 0.000000e+000
    outer loop
      vertex   1.351260e+002 7.270000e+001 1.361418e+001
      vertex   1.377000e+002 7.270000e+001 1.100000e+001
      vertex   1.280240e+002 7.270000e+001 1.638582e+001
    endloop
  endfacet
  facet normal 0.000000e+000 1.000000e+000 0.000000e+000
    outer loop
      vertex   1.280240e+002 7.270000e+001 1.638582e+001
      vertex   1.377000e+002 7.270000e+001 1.100000e+001
      vertex   1.285107e+002 7.270000e+001 1.606066e+001
    endloop
  endfacet
  facet normal 0.000000e+000 1.000000e+000 0.000000e+000
    outer loop
      vertex   1.227000e+002 7.270000e+001 1.900000e+001
      vertex   1.263893e+002 7.270000e+001 1.606066e+001
      vertex   1.227000e+002 7.270000e+001 1.100000e+001
    endloop
  endfacet
  facet normal 0.000000e+000 1.000000e+000 0.000000e+000
    outer loop
      vertex   1.285107e+002 7.270000e+001 1.606066e+001
      vertex   1.377000e+002 7.270000e+001 1.100000e+001
      vertex   1.288358e+002 7.270000e+001 1.557403e+001
    endloop
  endfacet
  facet normal 0.000000e+000 -1.000000e+000 -0.000000e+000
    outer loop
      vertex   1.280240e+002 5.270000e+001 1.361418e+001
      vertex   1.274500e+002 5.270000e+001 1.350000e+001
      vertex   1.207000e+002 5.270000e+001 1.100000e+001
    endloop
  endfacet
  facet normal 0.000000e+000 1.000000e+000 0.000000e+000
    outer loop
      vertex   1.377000e+002 7.270000e+001 1.100000e+001
      vertex   1.227000e+002 7.270000e+001 1.100000e+001
      vertex   1.280240e+002 7.270000e+001 1.361418e+001
    endloop
  endfacet
  facet normal -0.000000e+000 1.000000e+000 0.000000e+000
    outer loop
      vertex   1.377000e+002 7.270000e+001 1.100000e+001
      vertex   1.280240e+002 7.270000e+001 1.361418e+001
      vertex   1.285107e+002 7.270000e+001 1.393934e+001
    endloop
  endfacet
  facet normal -0.000000e+000 1.000000e+000 0.000000e+000
    outer loop
      vertex   1.377000e+002 7.270000e+001 1.100000e+001
      vertex   1.285107e+002 7.270000e+001 1.393934e+001
      vertex   1.288358e+002 7.270000e+001 1.442597e+001
    endloop
  endfacet
  facet normal -0.000000e+000 1.000000e+000 0.000000e+000
    outer loop
      vertex   1.377000e+002 7.270000e+001 1.100000e+001
      vertex   1.288358e+002 7.270000e+001 1.442597e+001
      vertex   1.289500e+002 7.270000e+001 1.500000e+001
    endloop
  endfacet
  facet normal 0.000000e+000 1.000000e+000 -0.000000e+000
    outer loop
      vertex   1.263893e+002 7.270000e+001 1.606066e+001
      vertex   1.260642e+002 7.270000e+001 1.557403e+001
      vertex   1.227000e+002 7.270000e+001 1.100000e+001
    endloop
  endfacet
  facet normal 0.000000e+000 1.000000e+000 -0.000000e+000
    outer loop
      vertex   1.260642e+002 7.270000e+001 1.557403e+001
      vertex   1.259500e+002 7.270000e+001 1.500000e+001
      vertex   1.227000e+002 7.270000e+001 1.100000e+001
    endloop
  endfacet
  facet normal 0.000000e+000 1.000000e+000 0.000000e+000
    outer loop
      vertex   1.259500e+002 7.270000e+001 1.500000e+001
      vertex   1.260642e+002 7.270000e+001 1.442597e+001
      vertex   1.227000e+002 7.270000e+001 1.100000e+001
    endloop
  endfacet
  facet normal 0.000000e+000 1.000000e+000 0.000000e+000
    outer loop
      vertex   1.280240e+002 7.270000e+001 1.361418e+001
      vertex   1.227000e+002 7.270000e+001 1.100000e+001
      vertex   1.274500e+002 7.270000e+001 1.350000e+001
    endloop
  endfacet
  facet normal 0.000000e+000 1.000000e+000 0.000000e+000
    outer loop
      vertex   1.260642e+002 7.270000e+001 1.442597e+001
      vertex   1.263893e+002 7.270000e+001 1.393934e+001
      vertex   1.227000e+002 7.270000e+001 1.100000e+001
    endloop
  endfacet
  facet normal 0.000000e+000 1.000000e+000 0.000000e+000
    outer loop
      vertex   1.274500e+002 7.270000e+001 1.350000e+001
      vertex   1.227000e+002 7.270000e+001 1.100000e+001
      vertex   1.268760e+002 7.270000e+001 1.361418e+001
    endloop
  endfacet
  facet normal -0.000000e+000 0.000000e+000 -1.000000e+000
    outer loop
      vertex   1.192000e+002 6.920000e+001 1.100000e+001
      vertex   1.212142e+002 6.427402e+001 1.100000e+001
      vertex   1.192000e+002 5.420000e+001 1.100000e+001
    endloop
  endfacet
  facet normal -0.000000e+000 0.000000e+000 -1.000000e+000
    outer loop
      vertex   1.192000e+002 6.920000e+001 1.100000e+001
      vertex   1.215393e+002 6.476066e+001 1.100000e+001
      vertex   1.212142e+002 6.427402e+001 1.100000e+001
    endloop
  endfacet
  facet normal -0.000000e+000 0.000000e+000 -1.000000e+000
    outer loop
      vertex   1.192000e+002 6.920000e+001 1.100000e+001
      vertex   1.220260e+002 6.508582e+001 1.100000e+001
      vertex   1.215393e+002 6.476066e+001 1.100000e+001
    endloop
  endfacet
  facet normal 0.000000e+000 1.000000e+000 0.000000e+000
    outer loop
      vertex   1.263893e+002 7.270000e+001 1.393934e+001
      vertex   1.268760e+002 7.270000e+001 1.361418e+001
      vertex   1.227000e+002 7.270000e+001 1.100000e+001
    endloop
  endfacet
  facet normal -5.555693e-001 8.314703e-001 0.000000e+000
    outer loop
      vertex   1.234173e+002 6.247676e+001 1.500000e+001
      vertex   1.231740e+002 6.231418e+001 1.100000e+001
      vertex   1.231740e+002 6.231418e+001 1.900000e+001
    endloop
  endfacet
  facet normal -5.555693e-001 8.314703e-001 0.000000e+000
    outer loop
      vertex   1.234173e+002 6.247676e+001 1.500000e+001
      vertex   1.236607e+002 6.263934e+001 1.100000e+001
      vertex   1.231740e+002 6.231418e+001 1.100000e+001
    endloop
  endfacet
  facet normal 0.000000e+000 -1.000000e+000 0.000000e+000
    outer loop
      vertex   1.260642e+002 5.270000e+001 1.557403e+001
      vertex   1.207000e+002 5.270000e+001 1.100000e+001
      vertex   1.259500e+002 5.270000e+001 1.500000e+001
    endloop
  endfacet
  facet normal 9.807850e-001 1.950920e-001 9.229363e-008
    outer loop
      vertex   1.211571e+002 6.341299e+001 1.500000e+001
      vertex   1.212142e+002 6.312598e+001 1.100000e+001
      vertex   1.211000e+002 6.370000e+001 1.100000e+001
    endloop
  endfacet
  facet normal 0.000000e+000 -1.000000e+000 0.000000e+000
    outer loop
      vertex   1.397000e+002 5.270000e+001 1.100000e+001
      vertex   1.280240e+002 5.270000e+001 1.638582e+001
      vertex   1.285107e+002 5.270000e+001 1.606066e+001
    endloop
  endfacet
  facet normal 0.000000e+000 -1.000000e+000 0.000000e+000
    outer loop
      vertex   1.263893e+002 5.270000e+001 1.606066e+001
      vertex   1.207000e+002 5.270000e+001 1.100000e+001
      vertex   1.260642e+002 5.270000e+001 1.557403e+001
    endloop
  endfacet
  facet normal -1.950907e-001 9.807853e-001 -1.861773e-007
    outer loop
      vertex   1.228870e+002 6.225709e+001 1.500000e+001
      vertex   1.231740e+002 6.231418e+001 1.100000e+001
      vertex   1.226000e+002 6.220000e+001 1.100000e+001
    endloop
  endfacet
  facet normal 1.950932e-001 9.807848e-001 0.000000e+000
    outer loop
      vertex   1.223130e+002 6.225709e+001 1.500000e+001
      vertex   1.226000e+002 6.220000e+001 1.900000e+001
      vertex   1.226000e+002 6.220000e+001 1.100000e+001
    endloop
  endfacet
  facet normal 9.807853e-001 -1.950907e-001 0.000000e+000
    outer loop
      vertex   1.211571e+002 6.398701e+001 1.500000e+001
      vertex   1.212142e+002 6.427402e+001 1.100000e+001
      vertex   1.212142e+002 6.427402e+001 1.900000e+001
    endloop
  endfacet
  facet normal 1.950932e-001 9.807848e-001 -0.000000e+000
    outer loop
      vertex   1.223130e+002 6.225709e+001 1.500000e+001
      vertex   1.220260e+002 6.231418e+001 1.100000e+001
      vertex   1.220260e+002 6.231418e+001 1.900000e+001
    endloop
  endfacet
  facet normal 1.950932e-001 9.807848e-001 0.000000e+000
    outer loop
      vertex   1.223130e+002 6.225709e+001 1.500000e+001
      vertex   1.226000e+002 6.220000e+001 1.100000e+001
      vertex   1.220260e+002 6.231418e+001 1.100000e+001
    endloop
  endfacet
  facet normal 5.555573e-001 8.314783e-001 0.000000e+000
    outer loop
      vertex   1.217827e+002 6.247676e+001 1.500000e+001
      vertex   1.220260e+002 6.231418e+001 1.900000e+001
      vertex   1.220260e+002 6.231418e+001 1.100000e+001
    endloop
  endfacet
  facet normal 0.000000e+000 -1.000000e+000 0.000000e+000
    outer loop
      vertex   1.263893e+002 5.270000e+001 1.393934e+001
      vertex   1.207000e+002 5.270000e+001 1.100000e+001
      vertex   1.268760e+002 5.270000e+001 1.361418e+001
    endloop
  endfacet
  facet normal 1.950932e-001 -9.807848e-001 0.000000e+000
    outer loop
      vertex   1.223130e+002 6.514291e+001 1.500000e+001
      vertex   1.220260e+002 6.508582e+001 1.900000e+001
      vertex   1.220260e+002 6.508582e+001 1.100000e+001
    endloop
  endfacet
  facet normal 0.000000e+000 -1.000000e+000 0.000000e+000
    outer loop
      vertex   1.397000e+002 5.270000e+001 1.900000e+001
      vertex   1.370858e+002 5.270000e+001 1.557403e+001
      vertex   1.397000e+002 5.270000e+001 1.100000e+001
    endloop
  endfacet
  facet normal 9.807848e-001 -1.950932e-001 0.000000e+000
    outer loop
      vertex   1.211571e+002 6.398701e+001 1.500000e+001
      vertex   1.211000e+002 6.370000e+001 1.900000e+001
      vertex   1.211000e+002 6.370000e+001 1.100000e+001
    endloop
  endfacet
  facet normal 0.000000e+000 0.000000e+000 -1.000000e+000
    outer loop
      vertex   1.231740e+002 6.231418e+001 1.100000e+001
      vertex   1.207000e+002 5.270000e+001 1.100000e+001
      vertex   1.226000e+002 6.220000e+001 1.100000e+001
    endloop
  endfacet
  facet normal 5.555693e-001 8.314703e-001 -0.000000e+000
    outer loop
      vertex   1.217827e+002 6.247676e+001 1.500000e+001
      vertex   1.215393e+002 6.263934e+001 1.100000e+001
      vertex   1.215393e+002 6.263934e+001 1.900000e+001
    endloop
  endfacet
  facet normal -0.000000e+000 0.000000e+000 -1.000000e+000
    outer loop
      vertex   1.212142e+002 6.427402e+001 1.100000e+001
      vertex   1.211000e+002 6.370000e+001 1.100000e+001
      vertex   1.192000e+002 5.420000e+001 1.100000e+001
    endloop
  endfacet
  facet normal 0.000000e+000 -1.000000e+000 0.000000e+000
    outer loop
      vertex   1.370858e+002 5.270000e+001 1.557403e+001
      vertex   1.372000e+002 5.270000e+001 1.500000e+001
      vertex   1.397000e+002 5.270000e+001 1.100000e+001
    endloop
  endfacet
  facet normal 5.555632e-001 8.314742e-001 5.282973e-007
    outer loop
      vertex   1.217827e+002 6.247676e+001 1.500000e+001
      vertex   1.220260e+002 6.231418e+001 1.100000e+001
      vertex   1.215393e+002 6.263934e+001 1.100000e+001
    endloop
  endfacet
  facet normal 8.314763e-001 5.555603e-001 0.000000e+000
    outer loop
      vertex   1.213768e+002 6.288266e+001 1.500000e+001
      vertex   1.215393e+002 6.263934e+001 1.900000e+001
      vertex   1.215393e+002 6.263934e+001 1.100000e+001
    endloop
  endfacet
  facet normal 0.000000e+000 0.000000e+000 -1.000000e+000
    outer loop
      vertex   1.215393e+002 6.263934e+001 1.100000e+001
      vertex   1.207000e+002 5.270000e+001 1.100000e+001
      vertex   1.192000e+002 5.420000e+001 1.100000e+001
    endloop
  endfacet
  facet normal 8.314682e-001 5.555723e-001 -0.000000e+000
    outer loop
      vertex   1.213768e+002 6.288266e+001 1.500000e+001
      vertex   1.212142e+002 6.312598e+001 1.100000e+001
      vertex   1.212142e+002 6.312598e+001 1.900000e+001
    endloop
  endfacet
  facet normal 8.314723e-001 5.555663e-001 -5.283002e-007
    outer loop
      vertex   1.213768e+002 6.288266e+001 1.500000e+001
      vertex   1.215393e+002 6.263934e+001 1.100000e+001
      vertex   1.212142e+002 6.312598e+001 1.100000e+001
    endloop
  endfacet
  facet normal 9.807848e-001 1.950932e-001 0.000000e+000
    outer loop
      vertex   1.211571e+002 6.341299e+001 1.500000e+001
      vertex   1.212142e+002 6.312598e+001 1.900000e+001
      vertex   1.212142e+002 6.312598e+001 1.100000e+001
    endloop
  endfacet
  facet normal -0.000000e+000 0.000000e+000 -1.000000e+000
    outer loop
      vertex   1.212142e+002 6.312598e+001 1.100000e+001
      vertex   1.215393e+002 6.263934e+001 1.100000e+001
      vertex   1.192000e+002 5.420000e+001 1.100000e+001
    endloop
  endfacet
  facet normal 9.807853e-001 1.950907e-001 -0.000000e+000
    outer loop
      vertex   1.211571e+002 6.341299e+001 1.500000e+001
      vertex   1.211000e+002 6.370000e+001 1.100000e+001
      vertex   1.211000e+002 6.370000e+001 1.900000e+001
    endloop
  endfacet
  facet normal 0.000000e+000 0.000000e+000 -1.000000e+000
    outer loop
      vertex   1.220260e+002 6.231418e+001 1.100000e+001
      vertex   1.207000e+002 5.270000e+001 1.100000e+001
      vertex   1.215393e+002 6.263934e+001 1.100000e+001
    endloop
  endfacet
  facet normal 0.000000e+000 0.000000e+000 -1.000000e+000
    outer loop
      vertex   1.236607e+002 6.263934e+001 1.100000e+001
      vertex   1.207000e+002 5.270000e+001 1.100000e+001
      vertex   1.231740e+002 6.231418e+001 1.100000e+001
    endloop
  endfacet
  facet normal 0.000000e+000 -1.000000e+000 -0.000000e+000
    outer loop
      vertex   1.274500e+002 5.270000e+001 1.350000e+001
      vertex   1.268760e+002 5.270000e+001 1.361418e+001
      vertex   1.207000e+002 5.270000e+001 1.100000e+001
    endloop
  endfacet
  facet normal 0.000000e+000 0.000000e+000 -1.000000e+000
    outer loop
      vertex   1.412000e+002 6.920000e+001 1.100000e+001
      vertex   1.412000e+002 5.420000e+001 1.100000e+001
      vertex   1.377000e+002 7.270000e+001 1.100000e+001
    endloop
  endfacet
  facet normal -0.000000e+000 0.000000e+000 -1.000000e+000
    outer loop
      vertex   1.211000e+002 6.370000e+001 1.100000e+001
      vertex   1.212142e+002 6.312598e+001 1.100000e+001
      vertex   1.192000e+002 5.420000e+001 1.100000e+001
    endloop
  endfacet
  facet normal 0.000000e+000 0.000000e+000 -1.000000e+000
    outer loop
      vertex   1.226000e+002 6.220000e+001 1.100000e+001
      vertex   1.207000e+002 5.270000e+001 1.100000e+001
      vertex   1.220260e+002 6.231418e+001 1.100000e+001
    endloop
  endfacet
  facet normal 0.000000e+000 -1.000000e+000 0.000000e+000
    outer loop
      vertex   1.397000e+002 5.270000e+001 1.100000e+001
      vertex   1.288358e+002 5.270000e+001 1.557403e+001
      vertex   1.289500e+002 5.270000e+001 1.500000e+001
    endloop
  endfacet
  facet normal 0.000000e+000 -1.000000e+000 -0.000000e+000
    outer loop
      vertex   1.397000e+002 5.270000e+001 1.100000e+001
      vertex   1.289500e+002 5.270000e+001 1.500000e+001
      vertex   1.288358e+002 5.270000e+001 1.442597e+001
    endloop
  endfacet
  facet normal 0.000000e+000 -1.000000e+000 0.000000e+000
    outer loop
      vertex   1.397000e+002 5.270000e+001 1.100000e+001
      vertex   1.285107e+002 5.270000e+001 1.606066e+001
      vertex   1.288358e+002 5.270000e+001 1.557403e+001
    endloop
  endfacet
  facet normal 0.000000e+000 -1.000000e+000 0.000000e+000
    outer loop
      vertex   1.372000e+002 5.270000e+001 1.500000e+001
      vertex   1.370858e+002 5.270000e+001 1.442597e+001
      vertex   1.397000e+002 5.270000e+001 1.100000e+001
    endloop
  endfacet
  facet normal 0.000000e+000 -1.000000e+000 0.000000e+000
    outer loop
      vertex   1.370858e+002 5.270000e+001 1.442597e+001
      vertex   1.367607e+002 5.270000e+001 1.393934e+001
      vertex   1.397000e+002 5.270000e+001 1.100000e+001
    endloop
  endfacet
  facet normal 0.000000e+000 -1.000000e+000 0.000000e+000
    outer loop
      vertex   1.367607e+002 5.270000e+001 1.393934e+001
      vertex   1.362740e+002 5.270000e+001 1.361418e+001
      vertex   1.397000e+002 5.270000e+001 1.100000e+001
    endloop
  endfacet
  facet normal 0.000000e+000 -1.000000e+000 0.000000e+000
    outer loop
      vertex   1.260642e+002 5.270000e+001 1.442597e+001
      vertex   1.207000e+002 5.270000e+001 1.100000e+001
      vertex   1.263893e+002 5.270000e+001 1.393934e+001
    endloop
  endfacet
  facet normal 0.000000e+000 -1.000000e+000 0.000000e+000
    outer loop
      vertex   1.362740e+002 5.270000e+001 1.361418e+001
      vertex   1.357000e+002 5.270000e+001 1.350000e+001
      vertex   1.397000e+002 5.270000e+001 1.100000e+001
    endloop
  endfacet
  facet normal 0.000000e+000 -1.000000e+000 -0.000000e+000
    outer loop
      vertex   1.397000e+002 5.270000e+001 1.100000e+001
      vertex   1.285107e+002 5.270000e+001 1.393934e+001
      vertex   1.280240e+002 5.270000e+001 1.361418e+001
    endloop
  endfacet
  facet normal 0.000000e+000 -1.000000e+000 0.000000e+000
    outer loop
      vertex   1.357000e+002 5.270000e+001 1.350000e+001
      vertex   1.351260e+002 5.270000e+001 1.361418e+001
      vertex   1.397000e+002 5.270000e+001 1.100000e+001
    endloop
  endfacet
  facet normal 0.000000e+000 -1.000000e+000 -0.000000e+000
    outer loop
      vertex   1.397000e+002 5.270000e+001 1.100000e+001
      vertex   1.280240e+002 5.270000e+001 1.361418e+001
      vertex   1.207000e+002 5.270000e+001 1.100000e+001
    endloop
  endfacet
  facet normal 0.000000e+000 -1.000000e+000 0.000000e+000
    outer loop
      vertex   1.351260e+002 5.270000e+001 1.361418e+001
      vertex   1.280240e+002 5.270000e+001 1.638582e+001
      vertex   1.397000e+002 5.270000e+001 1.100000e+001
    endloop
  endfacet
  facet normal 0.000000e+000 -1.000000e+000 -0.000000e+000
    outer loop
      vertex   1.397000e+002 5.270000e+001 1.100000e+001
      vertex   1.288358e+002 5.270000e+001 1.442597e+001
      vertex   1.285107e+002 5.270000e+001 1.393934e+001
    endloop
  endfacet
  facet normal 1.950916e-001 4.646540e-008 9.807850e-001
    outer loop
      vertex   1.271630e+002 6.270000e+001 1.355709e+001
      vertex   1.274500e+002 7.270000e+001 1.350000e+001
      vertex   1.268760e+002 7.270000e+001 1.361418e+001
    endloop
  endfacet
  facet normal -1.950882e-001 0.000000e+000 9.807857e-001
    outer loop
      vertex   1.359870e+002 6.270000e+001 1.355709e+001
      vertex   1.357000e+002 7.270000e+001 1.350000e+001
      vertex   1.357000e+002 5.270000e+001 1.350000e+001
    endloop
  endfacet
  facet normal -1.950867e-001 4.646421e-008 9.807860e-001
    outer loop
      vertex   1.359870e+002 6.270000e+001 1.355709e+001
      vertex   1.362740e+002 7.270000e+001 1.361418e+001
      vertex   1.357000e+002 7.270000e+001 1.350000e+001
    endloop
  endfacet
  facet normal 1.950917e-001 -1.954092e-007 9.807850e-001
    outer loop
      vertex   1.354130e+002 6.270000e+001 1.355709e+001
      vertex   1.351260e+002 5.270000e+001 1.361418e+001
      vertex   1.357000e+002 5.270000e+001 1.350000e+001
    endloop
  endfacet
  facet normal -1.950867e-001 -4.710069e-008 9.807860e-001
    outer loop
      vertex   1.359870e+002 6.270000e+001 1.355709e+001
      vertex   1.357000e+002 5.270000e+001 1.350000e+001
      vertex   1.362740e+002 5.270000e+001 1.361418e+001
    endloop
  endfacet
  facet normal 1.950916e-001 1.954093e-007 9.807850e-001
    outer loop
      vertex   1.354130e+002 6.270000e+001 1.355709e+001
      vertex   1.357000e+002 7.270000e+001 1.350000e+001
      vertex   1.351260e+002 7.270000e+001 1.361418e+001
    endloop
  endfacet
  facet normal -1.950867e-001 -4.710069e-008 9.807860e-001
    outer loop
      vertex   1.277370e+002 6.270000e+001 1.355709e+001
      vertex   1.274500e+002 5.270000e+001 1.350000e+001
      vertex   1.280240e+002 5.270000e+001 1.361418e+001
    endloop
  endfacet
  facet normal -1.950882e-001 0.000000e+000 9.807857e-001
    outer loop
      vertex   1.277370e+002 6.270000e+001 1.355709e+001
      vertex   1.274500e+002 7.270000e+001 1.350000e+001
      vertex   1.274500e+002 5.270000e+001 1.350000e+001
    endloop
  endfacet
  facet normal -1.950867e-001 4.646421e-008 9.807860e-001
    outer loop
      vertex   1.277370e+002 6.270000e+001 1.355709e+001
      vertex   1.280240e+002 7.270000e+001 1.361418e+001
      vertex   1.274500e+002 7.270000e+001 1.350000e+001
    endloop
  endfacet
  facet normal 1.950932e-001 -0.000000e+000 9.807847e-001
    outer loop
      vertex   1.271630e+002 6.270000e+001 1.355709e+001
      vertex   1.274500e+002 5.270000e+001 1.350000e+001
      vertex   1.274500e+002 7.270000e+001 1.350000e+001
    endloop
  endfacet
  facet normal 1.950917e-001 -4.710189e-008 9.807850e-001
    outer loop
      vertex   1.271630e+002 6.270000e+001 1.355709e+001
      vertex   1.268760e+002 5.270000e+001 1.361418e+001
      vertex   1.274500e+002 5.270000e+001 1.350000e+001
    endloop
  endfacet
  facet normal 1.950982e-001 -0.000000e+000 9.807838e-001
    outer loop
      vertex   1.354130e+002 6.270000e+001 1.355709e+001
      vertex   1.357000e+002 5.270000e+001 1.350000e+001
      vertex   1.357000e+002 7.270000e+001 1.350000e+001
    endloop
  endfacet
  facet normal 1.950901e-001 0.000000e+000 9.807854e-001
    outer loop
      vertex   1.271630e+002 6.270000e+001 1.355709e+001
      vertex   1.268760e+002 7.270000e+001 1.361418e+001
      vertex   1.268760e+002 5.270000e+001 1.361418e+001
    endloop
  endfacet
  facet normal -1.950851e-001 0.000000e+000 9.807863e-001
    outer loop
      vertex   1.277370e+002 6.270000e+001 1.355709e+001
      vertex   1.280240e+002 5.270000e+001 1.361418e+001
      vertex   1.280240e+002 7.270000e+001 1.361418e+001
    endloop
  endfacet
  facet normal 1.950851e-001 0.000000e+000 9.807863e-001
    outer loop
      vertex   1.354130e+002 6.270000e+001 1.355709e+001
      vertex   1.351260e+002 7.270000e+001 1.361418e+001
      vertex   1.351260e+002 5.270000e+001 1.361418e+001
    endloop
  endfacet
  facet normal -1.950851e-001 0.000000e+000 9.807863e-001
    outer loop
      vertex   1.359870e+002 6.270000e+001 1.355709e+001
      vertex   1.362740e+002 5.270000e+001 1.361418e+001
      vertex   1.362740e+002 7.270000e+001 1.361418e+001
    endloop
  endfacet
  facet normal -0.000000e+000 1.000000e+000 -0.000000e+000
    outer loop
      vertex   1.351260e+002 7.270000e+001 1.361418e+001
      vertex   1.280240e+002 7.270000e+001 1.638582e+001
      vertex   1.227000e+002 7.270000e+001 1.900000e+001
    endloop
  endfacet
  facet normal 0.000000e+000 1.000000e+000 0.000000e+000
    outer loop
      vertex   1.346393e+002 7.270000e+001 1.393934e+001
      vertex   1.351260e+002 7.270000e+001 1.361418e+001
      vertex   1.227000e+002 7.270000e+001 1.900000e+001
    endloop
  endfacet
  facet normal 5.555715e-001 -0.000000e+000 8.314687e-001
    outer loop
      vertex   1.348827e+002 6.270000e+001 1.377676e+001
      vertex   1.351260e+002 5.270000e+001 1.361418e+001
      vertex   1.351260e+002 7.270000e+001 1.361418e+001
    endloop
  endfacet
  facet normal -5.555715e-001 0.000000e+000 8.314687e-001
    outer loop
      vertex   1.282673e+002 6.270000e+001 1.377676e+001
      vertex   1.280240e+002 7.270000e+001 1.361418e+001
      vertex   1.280240e+002 5.270000e+001 1.361418e+001
    endloop
  endfacet
  facet normal 5.555716e-001 0.000000e+000 8.314688e-001
    outer loop
      vertex   1.266327e+002 6.270000e+001 1.377676e+001
      vertex   1.263893e+002 5.270000e+001 1.393934e+001
      vertex   1.268760e+002 5.270000e+001 1.361418e+001
    endloop
  endfacet
  facet normal 5.555716e-001 0.000000e+000 8.314688e-001
    outer loop
      vertex   1.348827e+002 6.270000e+001 1.377676e+001
      vertex   1.346393e+002 5.270000e+001 1.393934e+001
      vertex   1.351260e+002 5.270000e+001 1.361418e+001
    endloop
  endfacet
  facet normal -5.555715e-001 0.000000e+000 8.314687e-001
    outer loop
      vertex   1.365173e+002 6.270000e+001 1.377676e+001
      vertex   1.362740e+002 7.270000e+001 1.361418e+001
      vertex   1.362740e+002 5.270000e+001 1.361418e+001
    endloop
  endfacet
  facet normal -5.555716e-001 0.000000e+000 8.314688e-001
    outer loop
      vertex   1.365173e+002 6.270000e+001 1.377676e+001
      vertex   1.367607e+002 7.270000e+001 1.393934e+001
      vertex   1.362740e+002 7.270000e+001 1.361418e+001
    endloop
  endfacet
  facet normal 0.000000e+000 -1.000000e+000 0.000000e+000
    outer loop
      vertex   1.346393e+002 5.270000e+001 1.393934e+001
      vertex   1.280240e+002 5.270000e+001 1.638582e+001
      vertex   1.351260e+002 5.270000e+001 1.361418e+001
    endloop
  endfacet
  facet normal -5.555716e-001 0.000000e+000 8.314688e-001
    outer loop
      vertex   1.365173e+002 6.270000e+001 1.377676e+001
      vertex   1.362740e+002 5.270000e+001 1.361418e+001
      vertex   1.367607e+002 5.270000e+001 1.393934e+001
    endloop
  endfacet
  facet normal 5.555715e-001 -0.000000e+000 8.314687e-001
    outer loop
      vertex   1.266327e+002 6.270000e+001 1.377676e+001
      vertex   1.268760e+002 5.270000e+001 1.361418e+001
      vertex   1.268760e+002 7.270000e+001 1.361418e+001
    endloop
  endfacet
  facet normal 5.555716e-001 0.000000e+000 8.314688e-001
    outer loop
      vertex   1.266327e+002 6.270000e+001 1.377676e+001
      vertex   1.268760e+002 7.270000e+001 1.361418e+001
      vertex   1.263893e+002 7.270000e+001 1.393934e+001
    endloop
  endfacet
  facet normal 5.555716e-001 0.000000e+000 8.314688e-001
    outer loop
      vertex   1.348827e+002 6.270000e+001 1.377676e+001
      vertex   1.351260e+002 7.270000e+001 1.361418e+001
      vertex   1.346393e+002 7.270000e+001 1.393934e+001
    endloop
  endfacet
  facet normal -5.555716e-001 0.000000e+000 8.314688e-001
    outer loop
      vertex   1.282673e+002 6.270000e+001 1.377676e+001
      vertex   1.280240e+002 5.270000e+001 1.361418e+001
      vertex   1.285107e+002 5.270000e+001 1.393934e+001
    endloop
  endfacet
  facet normal -5.555716e-001 0.000000e+000 8.314688e-001
    outer loop
      vertex   1.282673e+002 6.270000e+001 1.377676e+001
      vertex   1.285107e+002 7.270000e+001 1.393934e+001
      vertex   1.280240e+002 7.270000e+001 1.361418e+001
    endloop
  endfacet
  facet normal -5.555715e-001 0.000000e+000 8.314687e-001
    outer loop
      vertex   1.365173e+002 6.270000e+001 1.377676e+001
      vertex   1.367607e+002 5.270000e+001 1.393934e+001
      vertex   1.367607e+002 7.270000e+001 1.393934e+001
    endloop
  endfacet
  facet normal 5.555715e-001 0.000000e+000 8.314687e-001
    outer loop
      vertex   1.266327e+002 6.270000e+001 1.377676e+001
      vertex   1.263893e+002 7.270000e+001 1.393934e+001
      vertex   1.263893e+002 5.270000e+001 1.393934e+001
    endloop
  endfacet
  facet normal 5.555715e-001 0.000000e+000 8.314687e-001
    outer loop
      vertex   1.348827e+002 6.270000e+001 1.377676e+001
      vertex   1.346393e+002 7.270000e+001 1.393934e+001
      vertex   1.346393e+002 5.270000e+001 1.393934e+001
    endloop
  endfacet
  facet normal -5.555715e-001 0.000000e+000 8.314687e-001
    outer loop
      vertex   1.282673e+002 6.270000e+001 1.377676e+001
      vertex   1.285107e+002 5.270000e+001 1.393934e+001
      vertex   1.285107e+002 7.270000e+001 1.393934e+001
    endloop
  endfacet
  facet normal -8.314772e-001 6.339667e-007 5.555587e-001
    outer loop
      vertex   1.369232e+002 6.270000e+001 1.418266e+001
      vertex   1.370858e+002 7.270000e+001 1.442597e+001
      vertex   1.367607e+002 7.270000e+001 1.393934e+001
    endloop
  endfacet
  facet normal 8.314652e-001 0.000000e+000 5.555768e-001
    outer loop
      vertex   1.344768e+002 6.270000e+001 1.418266e+001
      vertex   1.343142e+002 5.270000e+001 1.442597e+001
      vertex   1.346393e+002 5.270000e+001 1.393934e+001
    endloop
  endfacet
  facet normal 8.314652e-001 -0.000000e+000 5.555767e-001
    outer loop
      vertex   1.344768e+002 6.270000e+001 1.418266e+001
      vertex   1.346393e+002 5.270000e+001 1.393934e+001
      vertex   1.346393e+002 7.270000e+001 1.393934e+001
    endloop
  endfacet
  facet normal -8.314773e-001 -6.352395e-007 5.555587e-001
    outer loop
      vertex   1.369232e+002 6.270000e+001 1.418266e+001
      vertex   1.367607e+002 5.270000e+001 1.393934e+001
      vertex   1.370858e+002 5.270000e+001 1.442597e+001
    endloop
  endfacet
  facet normal 8.314652e-001 0.000000e+000 5.555768e-001
    outer loop
      vertex   1.344768e+002 6.270000e+001 1.418266e+001
      vertex   1.346393e+002 7.270000e+001 1.393934e+001
      vertex   1.343142e+002 7.270000e+001 1.442597e+001
    endloop
  endfacet
  facet normal -8.314893e-001 0.000000e+000 5.555407e-001
    outer loop
      vertex   1.369232e+002 6.270000e+001 1.418266e+001
      vertex   1.367607e+002 7.270000e+001 1.393934e+001
      vertex   1.367607e+002 5.270000e+001 1.393934e+001
    endloop
  endfacet
  facet normal 0.000000e+000 1.000000e+000 0.000000e+000
    outer loop
      vertex   1.343142e+002 7.270000e+001 1.442597e+001
      vertex   1.346393e+002 7.270000e+001 1.393934e+001
      vertex   1.227000e+002 7.270000e+001 1.900000e+001
    endloop
  endfacet
  facet normal 8.314652e-001 0.000000e+000 5.555768e-001
    outer loop
      vertex   1.262268e+002 6.270000e+001 1.418266e+001
      vertex   1.260642e+002 5.270000e+001 1.442597e+001
      vertex   1.263893e+002 5.270000e+001 1.393934e+001
    endloop
  endfacet
  facet normal 8.314652e-001 -0.000000e+000 5.555767e-001
    outer loop
      vertex   1.262268e+002 6.270000e+001 1.418266e+001
      vertex   1.263893e+002 5.270000e+001 1.393934e+001
      vertex   1.263893e+002 7.270000e+001 1.393934e+001
    endloop
  endfacet
  facet normal 8.314652e-001 0.000000e+000 5.555768e-001
    outer loop
      vertex   1.262268e+002 6.270000e+001 1.418266e+001
      vertex   1.263893e+002 7.270000e+001 1.393934e+001
      vertex   1.260642e+002 7.270000e+001 1.442597e+001
    endloop
  endfacet
  facet normal -8.314893e-001 0.000000e+000 5.555407e-001
    outer loop
      vertex   1.286732e+002 6.270000e+001 1.418266e+001
      vertex   1.285107e+002 7.270000e+001 1.393934e+001
      vertex   1.285107e+002 5.270000e+001 1.393934e+001
    endloop
  endfacet
  facet normal -8.314772e-001 6.339667e-007 5.555587e-001
    outer loop
      vertex   1.286732e+002 6.270000e+001 1.418266e+001
      vertex   1.288358e+002 7.270000e+001 1.442597e+001
      vertex   1.285107e+002 7.270000e+001 1.393934e+001
    endloop
  endfacet
  facet normal -8.314773e-001 -6.352395e-007 5.555587e-001
    outer loop
      vertex   1.286732e+002 6.270000e+001 1.418266e+001
      vertex   1.285107e+002 5.270000e+001 1.393934e+001
      vertex   1.288358e+002 5.270000e+001 1.442597e+001
    endloop
  endfacet
  facet normal 0.000000e+000 -1.000000e+000 0.000000e+000
    outer loop
      vertex   1.343142e+002 5.270000e+001 1.442597e+001
      vertex   1.280240e+002 5.270000e+001 1.638582e+001
      vertex   1.346393e+002 5.270000e+001 1.393934e+001
    endloop
  endfacet
  facet normal -8.314652e-001 0.000000e+000 5.555767e-001
    outer loop
      vertex   1.286732e+002 6.270000e+001 1.418266e+001
      vertex   1.288358e+002 5.270000e+001 1.442597e+001
      vertex   1.288358e+002 7.270000e+001 1.442597e+001
    endloop
  endfacet
  facet normal 8.314652e-001 0.000000e+000 5.555767e-001
    outer loop
      vertex   1.262268e+002 6.270000e+001 1.418266e+001
      vertex   1.260642e+002 7.270000e+001 1.442597e+001
      vertex   1.260642e+002 5.270000e+001 1.442597e+001
    endloop
  endfacet
  facet normal -8.314652e-001 0.000000e+000 5.555767e-001
    outer loop
      vertex   1.369232e+002 6.270000e+001 1.418266e+001
      vertex   1.370858e+002 5.270000e+001 1.442597e+001
      vertex   1.370858e+002 7.270000e+001 1.442597e+001
    endloop
  endfacet
  facet normal 8.314652e-001 0.000000e+000 5.555767e-001
    outer loop
      vertex   1.344768e+002 6.270000e+001 1.418266e+001
      vertex   1.343142e+002 7.270000e+001 1.442597e+001
      vertex   1.343142e+002 5.270000e+001 1.442597e+001
    endloop
  endfacet
  facet normal 0.000000e+000 -1.000000e+000 0.000000e+000
    outer loop
      vertex   1.343142e+002 5.270000e+001 1.442597e+001
      vertex   1.207000e+002 5.270000e+001 1.900000e+001
      vertex   1.280240e+002 5.270000e+001 1.638582e+001
    endloop
  endfacet
  facet normal -9.807850e-001 7.389843e-007 1.950917e-001
    outer loop
      vertex   1.371429e+002 6.270000e+001 1.471299e+001
      vertex   1.370858e+002 5.270000e+001 1.442597e+001
      vertex   1.372000e+002 5.270000e+001 1.500000e+001
    endloop
  endfacet
  facet normal -9.807850e-001 7.389843e-007 1.950917e-001
    outer loop
      vertex   1.288929e+002 6.270000e+001 1.471299e+001
      vertex   1.288358e+002 5.270000e+001 1.442597e+001
      vertex   1.289500e+002 5.270000e+001 1.500000e+001
    endloop
  endfacet
  facet normal 0.000000e+000 -1.000000e+000 0.000000e+000
    outer loop
      vertex   1.342000e+002 5.270000e+001 1.500000e+001
      vertex   1.207000e+002 5.270000e+001 1.900000e+001
      vertex   1.343142e+002 5.270000e+001 1.442597e+001
    endloop
  endfacet
  facet normal -9.807850e-001 -7.383481e-007 1.950917e-001
    outer loop
      vertex   1.371429e+002 6.270000e+001 1.471299e+001
      vertex   1.372000e+002 7.270000e+001 1.500000e+001
      vertex   1.370858e+002 7.270000e+001 1.442597e+001
    endloop
  endfacet
  facet normal 9.807850e-001 -7.580796e-007 1.950917e-001
    outer loop
      vertex   1.342571e+002 6.270000e+001 1.471299e+001
      vertex   1.342000e+002 5.270000e+001 1.500000e+001
      vertex   1.343142e+002 5.270000e+001 1.442597e+001
    endloop
  endfacet
  facet normal -9.807850e-001 -7.383481e-007 1.950917e-001
    outer loop
      vertex   1.288929e+002 6.270000e+001 1.471299e+001
      vertex   1.289500e+002 7.270000e+001 1.500000e+001
      vertex   1.288358e+002 7.270000e+001 1.442597e+001
    endloop
  endfacet
  facet normal -9.807801e-001 0.000000e+000 1.951164e-001
    outer loop
      vertex   1.288929e+002 6.270000e+001 1.471299e+001
      vertex   1.288358e+002 7.270000e+001 1.442597e+001
      vertex   1.288358e+002 5.270000e+001 1.442597e+001
    endloop
  endfacet
  facet normal 9.807901e-001 -0.000000e+000 1.950663e-001
    outer loop
      vertex   1.342571e+002 6.270000e+001 1.471299e+001
      vertex   1.343142e+002 5.270000e+001 1.442597e+001
      vertex   1.343142e+002 7.270000e+001 1.442597e+001
    endloop
  endfacet
  facet normal 9.807850e-001 7.574434e-007 1.950917e-001
    outer loop
      vertex   1.342571e+002 6.270000e+001 1.471299e+001
      vertex   1.343142e+002 7.270000e+001 1.442597e+001
      vertex   1.342000e+002 7.270000e+001 1.500000e+001
    endloop
  endfacet
  facet normal 0.000000e+000 1.000000e+000 0.000000e+000
    outer loop
      vertex   1.342000e+002 7.270000e+001 1.500000e+001
      vertex   1.343142e+002 7.270000e+001 1.442597e+001
      vertex   1.227000e+002 7.270000e+001 1.900000e+001
    endloop
  endfacet
  facet normal 9.807850e-001 9.547605e-009 1.950917e-001
    outer loop
      vertex   1.260071e+002 6.270000e+001 1.471299e+001
      vertex   1.260642e+002 7.270000e+001 1.442597e+001
      vertex   1.259500e+002 7.270000e+001 1.500000e+001
    endloop
  endfacet
  facet normal 9.807851e-001 -0.000000e+000 1.950914e-001
    outer loop
      vertex   1.260071e+002 6.270000e+001 1.471299e+001
      vertex   1.260642e+002 5.270000e+001 1.442597e+001
      vertex   1.260642e+002 7.270000e+001 1.442597e+001
    endloop
  endfacet
  facet normal 9.807850e-001 -9.547602e-009 1.950917e-001
    outer loop
      vertex   1.260071e+002 6.270000e+001 1.471299e+001
      vertex   1.259500e+002 5.270000e+001 1.500000e+001
      vertex   1.260642e+002 5.270000e+001 1.442597e+001
    endloop
  endfacet
  facet normal -9.807801e-001 0.000000e+000 1.951164e-001
    outer loop
      vertex   1.371429e+002 6.270000e+001 1.471299e+001
      vertex   1.370858e+002 7.270000e+001 1.442597e+001
      vertex   1.370858e+002 5.270000e+001 1.442597e+001
    endloop
  endfacet
  facet normal 9.807849e-001 0.000000e+000 1.950920e-001
    outer loop
      vertex   1.260071e+002 6.270000e+001 1.471299e+001
      vertex   1.259500e+002 7.270000e+001 1.500000e+001
      vertex   1.259500e+002 5.270000e+001 1.500000e+001
    endloop
  endfacet
  facet normal -9.807900e-001 0.000000e+000 1.950669e-001
    outer loop
      vertex   1.288929e+002 6.270000e+001 1.471299e+001
      vertex   1.289500e+002 5.270000e+001 1.500000e+001
      vertex   1.289500e+002 7.270000e+001 1.500000e+001
    endloop
  endfacet
  facet normal 9.807799e-001 0.000000e+000 1.951170e-001
    outer loop
      vertex   1.342571e+002 6.270000e+001 1.471299e+001
      vertex   1.342000e+002 7.270000e+001 1.500000e+001
      vertex   1.342000e+002 5.270000e+001 1.500000e+001
    endloop
  endfacet
  facet normal -9.807900e-001 0.000000e+000 1.950669e-001
    outer loop
      vertex   1.371429e+002 6.270000e+001 1.471299e+001
      vertex   1.372000e+002 5.270000e+001 1.500000e+001
      vertex   1.372000e+002 7.270000e+001 1.500000e+001
    endloop
  endfacet
  facet normal 5.555632e-001 8.314742e-001 -5.314798e-007
    outer loop
      vertex   1.217827e+002 6.247676e+001 1.500000e+001
      vertex   1.215393e+002 6.263934e+001 1.900000e+001
      vertex   1.220260e+002 6.231418e+001 1.900000e+001
    endloop
  endfacet
  facet normal -9.807850e-001 -1.950920e-001 9.229363e-008
    outer loop
      vertex   1.240429e+002 6.398701e+001 1.500000e+001
      vertex   1.241000e+002 6.370000e+001 1.900000e+001
      vertex   1.239858e+002 6.427402e+001 1.900000e+001
    endloop
  endfacet
  facet normal -9.807850e-001 1.950920e-001 -9.229363e-008
    outer loop
      vertex   1.240429e+002 6.341299e+001 1.500000e+001
      vertex   1.239858e+002 6.312598e+001 1.900000e+001
      vertex   1.241000e+002 6.370000e+001 1.900000e+001
    endloop
  endfacet
  facet normal 8.314703e-001 -5.555693e-001 7.924546e-007
    outer loop
      vertex   1.213768e+002 6.451734e+001 1.500000e+001
      vertex   1.215393e+002 6.476066e+001 1.900000e+001
      vertex   1.212142e+002 6.427402e+001 1.900000e+001
    endloop
  endfacet
  facet normal -8.314723e-001 5.555663e-001 -1.059783e-006
    outer loop
      vertex   1.238232e+002 6.288266e+001 1.500000e+001
      vertex   1.236607e+002 6.263934e+001 1.900000e+001
      vertex   1.239858e+002 6.312598e+001 1.900000e+001
    endloop
  endfacet
  facet normal -5.555693e-001 8.314703e-001 0.000000e+000
    outer loop
      vertex   1.234173e+002 6.247676e+001 1.500000e+001
      vertex   1.231740e+002 6.231418e+001 1.900000e+001
      vertex   1.236607e+002 6.263934e+001 1.900000e+001
    endloop
  endfacet
  facet normal 1.950932e-001 9.807848e-001 0.000000e+000
    outer loop
      vertex   1.223130e+002 6.225709e+001 1.500000e+001
      vertex   1.220260e+002 6.231418e+001 1.900000e+001
      vertex   1.226000e+002 6.220000e+001 1.900000e+001
    endloop
  endfacet
  facet normal 5.555632e-001 -8.314742e-001 -1.320743e-006
    outer loop
      vertex   1.217827e+002 6.492324e+001 1.500000e+001
      vertex   1.220260e+002 6.508582e+001 1.900000e+001
      vertex   1.215393e+002 6.476066e+001 1.900000e+001
    endloop
  endfacet
  facet normal -8.314703e-001 -5.555693e-001 -7.924546e-007
    outer loop
      vertex   1.238232e+002 6.451734e+001 1.500000e+001
      vertex   1.239858e+002 6.427402e+001 1.900000e+001
      vertex   1.236607e+002 6.476066e+001 1.900000e+001
    endloop
  endfacet
  facet normal 8.314723e-001 5.555663e-001 5.283002e-007
    outer loop
      vertex   1.213768e+002 6.288266e+001 1.500000e+001
      vertex   1.212142e+002 6.312598e+001 1.900000e+001
      vertex   1.215393e+002 6.263934e+001 1.900000e+001
    endloop
  endfacet
  facet normal -1.950907e-001 -9.807853e-001 1.861773e-007
    outer loop
      vertex   1.228870e+002 6.514291e+001 1.500000e+001
      vertex   1.231740e+002 6.508582e+001 1.900000e+001
      vertex   1.226000e+002 6.520000e+001 1.900000e+001
    endloop
  endfacet
  facet normal -5.555693e-001 -8.314703e-001 -7.924546e-007
    outer loop
      vertex   1.234173e+002 6.492324e+001 1.500000e+001
      vertex   1.236607e+002 6.476066e+001 1.900000e+001
      vertex   1.231740e+002 6.508582e+001 1.900000e+001
    endloop
  endfacet
  facet normal 9.807799e-001 0.000000e+000 -1.951170e-001
    outer loop
      vertex   1.342571e+002 6.270000e+001 1.528701e+001
      vertex   1.342000e+002 5.270000e+001 1.500000e+001
      vertex   1.342000e+002 7.270000e+001 1.500000e+001
    endloop
  endfacet
  facet normal 9.807850e-001 -7.574430e-007 -1.950917e-001
    outer loop
      vertex   1.342571e+002 6.270000e+001 1.528701e+001
      vertex   1.343142e+002 5.270000e+001 1.557403e+001
      vertex   1.342000e+002 5.270000e+001 1.500000e+001
    endloop
  endfacet
  facet normal 1.950932e-001 -9.807848e-001 0.000000e+000
    outer loop
      vertex   1.223130e+002 6.514291e+001 1.500000e+001
      vertex   1.226000e+002 6.520000e+001 1.900000e+001
      vertex   1.220260e+002 6.508582e+001 1.900000e+001
    endloop
  endfacet
  facet normal -9.807850e-001 -7.389847e-007 -1.950917e-001
    outer loop
      vertex   1.371429e+002 6.270000e+001 1.528701e+001
      vertex   1.370858e+002 7.270000e+001 1.557403e+001
      vertex   1.372000e+002 7.270000e+001 1.500000e+001
    endloop
  endfacet
  facet normal 9.807850e-001 -1.950920e-001 9.388490e-008
    outer loop
      vertex   1.211571e+002 6.398701e+001 1.500000e+001
      vertex   1.212142e+002 6.427402e+001 1.900000e+001
      vertex   1.211000e+002 6.370000e+001 1.900000e+001
    endloop
  endfacet
  facet normal 9.807850e-001 7.580799e-007 -1.950917e-001
    outer loop
      vertex   1.342571e+002 6.270000e+001 1.528701e+001
      vertex   1.342000e+002 7.270000e+001 1.500000e+001
      vertex   1.343142e+002 7.270000e+001 1.557403e+001
    endloop
  endfacet
  facet normal 9.807850e-001 9.547605e-009 -1.950917e-001
    outer loop
      vertex   1.260071e+002 6.270000e+001 1.528701e+001
      vertex   1.259500e+002 7.270000e+001 1.500000e+001
      vertex   1.260642e+002 7.270000e+001 1.557403e+001
    endloop
  endfacet
  facet normal 9.807849e-001 0.000000e+000 -1.950920e-001
    outer loop
      vertex   1.260071e+002 6.270000e+001 1.528701e+001
      vertex   1.259500e+002 5.270000e+001 1.500000e+001
      vertex   1.259500e+002 7.270000e+001 1.500000e+001
    endloop
  endfacet
  facet normal 9.807850e-001 -9.547602e-009 -1.950917e-001
    outer loop
      vertex   1.260071e+002 6.270000e+001 1.528701e+001
      vertex   1.260642e+002 5.270000e+001 1.557403e+001
      vertex   1.259500e+002 5.270000e+001 1.500000e+001
    endloop
  endfacet
  facet normal -9.807900e-001 -0.000000e+000 -1.950669e-001
    outer loop
      vertex   1.288929e+002 6.270000e+001 1.528701e+001
      vertex   1.289500e+002 7.270000e+001 1.500000e+001
      vertex   1.289500e+002 5.270000e+001 1.500000e+001
    endloop
  endfacet
  facet normal -9.807850e-001 -7.389847e-007 -1.950917e-001
    outer loop
      vertex   1.288929e+002 6.270000e+001 1.528701e+001
      vertex   1.288358e+002 7.270000e+001 1.557403e+001
      vertex   1.289500e+002 7.270000e+001 1.500000e+001
    endloop
  endfacet
  facet normal -9.807850e-001 7.383479e-007 -1.950917e-001
    outer loop
      vertex   1.288929e+002 6.270000e+001 1.528701e+001
      vertex   1.289500e+002 5.270000e+001 1.500000e+001
      vertex   1.288358e+002 5.270000e+001 1.557403e+001
    endloop
  endfacet
  facet normal 9.807850e-001 1.950920e-001 -9.388490e-008
    outer loop
      vertex   1.211571e+002 6.341299e+001 1.500000e+001
      vertex   1.211000e+002 6.370000e+001 1.900000e+001
      vertex   1.212142e+002 6.312598e+001 1.900000e+001
    endloop
  endfacet
  facet normal -9.807900e-001 -0.000000e+000 -1.950669e-001
    outer loop
      vertex   1.371429e+002 6.270000e+001 1.528701e+001
      vertex   1.372000e+002 7.270000e+001 1.500000e+001
      vertex   1.372000e+002 5.270000e+001 1.500000e+001
    endloop
  endfacet
  facet normal -7.071068e-001 -7.071068e-001 0.000000e+000
    outer loop
      vertex   1.199500e+002 5.345000e+001 1.500000e+001
      vertex   1.207000e+002 5.270000e+001 1.900000e+001
      vertex   1.192000e+002 5.420000e+001 1.900000e+001
    endloop
  endfacet
  facet normal -1.000000e+000 0.000000e+000 0.000000e+000
    outer loop
      vertex   1.192000e+002 6.170000e+001 1.500000e+001
      vertex   1.192000e+002 5.420000e+001 1.900000e+001
      vertex   1.192000e+002 6.920000e+001 1.900000e+001
    endloop
  endfacet
  facet normal -7.071068e-001 7.071068e-001 0.000000e+000
    outer loop
      vertex   1.209500e+002 7.095000e+001 1.500000e+001
      vertex   1.192000e+002 6.920000e+001 1.900000e+001
      vertex   1.227000e+002 7.270000e+001 1.900000e+001
    endloop
  endfacet
  facet normal 7.071068e-001 -7.071068e-001 0.000000e+000
    outer loop
      vertex   1.404500e+002 5.345000e+001 1.500000e+001
      vertex   1.412000e+002 5.420000e+001 1.900000e+001
      vertex   1.397000e+002 5.270000e+001 1.900000e+001
    endloop
  endfacet
  facet normal 7.071068e-001 7.071068e-001 0.000000e+000
    outer loop
      vertex   1.394500e+002 7.095000e+001 1.500000e+001
      vertex   1.377000e+002 7.270000e+001 1.900000e+001
      vertex   1.412000e+002 6.920000e+001 1.900000e+001
    endloop
  endfacet
  facet normal 1.000000e+000 0.000000e+000 0.000000e+000
    outer loop
      vertex   1.412000e+002 6.170000e+001 1.500000e+001
      vertex   1.412000e+002 6.920000e+001 1.900000e+001
      vertex   1.412000e+002 5.420000e+001 1.900000e+001
    endloop
  endfacet
  facet normal -9.807850e-001 7.383479e-007 -1.950917e-001
    outer loop
      vertex   1.371429e+002 6.270000e+001 1.528701e+001
      vertex   1.372000e+002 5.270000e+001 1.500000e+001
      vertex   1.370858e+002 5.270000e+001 1.557403e+001
    endloop
  endfacet
  facet normal -1.950907e-001 9.807853e-001 1.861773e-007
    outer loop
      vertex   1.228870e+002 6.225709e+001 1.500000e+001
      vertex   1.226000e+002 6.220000e+001 1.900000e+001
      vertex   1.231740e+002 6.231418e+001 1.900000e+001
    endloop
  endfacet
  facet normal 0.000000e+000 1.000000e+000 -0.000000e+000
    outer loop
      vertex   1.343142e+002 7.270000e+001 1.557403e+001
      vertex   1.342000e+002 7.270000e+001 1.500000e+001
      vertex   1.227000e+002 7.270000e+001 1.900000e+001
    endloop
  endfacet
  facet normal 0.000000e+000 1.000000e+000 -0.000000e+000
    outer loop
      vertex   1.377000e+002 7.270000e+001 1.900000e+001
      vertex   1.372000e+002 7.270000e+001 1.500000e+001
      vertex   1.370858e+002 7.270000e+001 1.557403e+001
    endloop
  endfacet
  facet normal 0.000000e+000 -1.000000e+000 0.000000e+000
    outer loop
      vertex   1.343142e+002 5.270000e+001 1.557403e+001
      vertex   1.207000e+002 5.270000e+001 1.900000e+001
      vertex   1.342000e+002 5.270000e+001 1.500000e+001
    endloop
  endfacet
  facet normal 9.807901e-001 0.000000e+000 -1.950663e-001
    outer loop
      vertex   1.342571e+002 6.270000e+001 1.528701e+001
      vertex   1.343142e+002 7.270000e+001 1.557403e+001
      vertex   1.343142e+002 5.270000e+001 1.557403e+001
    endloop
  endfacet
  facet normal -9.807801e-001 0.000000e+000 -1.951164e-001
    outer loop
      vertex   1.288929e+002 6.270000e+001 1.528701e+001
      vertex   1.288358e+002 5.270000e+001 1.557403e+001
      vertex   1.288358e+002 7.270000e+001 1.557403e+001
    endloop
  endfacet
  facet normal 9.807851e-001 0.000000e+000 -1.950914e-001
    outer loop
      vertex   1.260071e+002 6.270000e+001 1.528701e+001
      vertex   1.260642e+002 7.270000e+001 1.557403e+001
      vertex   1.260642e+002 5.270000e+001 1.557403e+001
    endloop
  endfacet
  facet normal -9.807801e-001 0.000000e+000 -1.951164e-001
    outer loop
      vertex   1.371429e+002 6.270000e+001 1.528701e+001
      vertex   1.370858e+002 5.270000e+001 1.557403e+001
      vertex   1.370858e+002 7.270000e+001 1.557403e+001
    endloop
  endfacet
  facet normal 8.314652e-001 0.000000e+000 -5.555767e-001
    outer loop
      vertex   1.344768e+002 6.270000e+001 1.581734e+001
      vertex   1.343142e+002 5.270000e+001 1.557403e+001
      vertex   1.343142e+002 7.270000e+001 1.557403e+001
    endloop
  endfacet
  facet normal 8.314657e-001 2.673312e-008 -5.555760e-001
    outer loop
      vertex   1.344768e+002 6.270000e+001 1.581734e+001
      vertex   1.343142e+002 7.270000e+001 1.557403e+001
      vertex   1.346393e+002 7.270000e+001 1.606066e+001
    endloop
  endfacet
  facet normal 8.314658e-001 -2.673311e-008 -5.555761e-001
    outer loop
      vertex   1.344768e+002 6.270000e+001 1.581734e+001
      vertex   1.346393e+002 5.270000e+001 1.606066e+001
      vertex   1.343142e+002 5.270000e+001 1.557403e+001
    endloop
  endfacet
  facet normal 0.000000e+000 1.000000e+000 -0.000000e+000
    outer loop
      vertex   1.377000e+002 7.270000e+001 1.900000e+001
      vertex   1.370858e+002 7.270000e+001 1.557403e+001
      vertex   1.367607e+002 7.270000e+001 1.606066e+001
    endloop
  endfacet
  facet normal 8.314657e-001 2.673312e-008 -5.555760e-001
    outer loop
      vertex   1.262268e+002 6.270000e+001 1.581734e+001
      vertex   1.260642e+002 7.270000e+001 1.557403e+001
      vertex   1.263893e+002 7.270000e+001 1.606066e+001
    endloop
  endfacet
  facet normal 0.000000e+000 1.000000e+000 -0.000000e+000
    outer loop
      vertex   1.346393e+002 7.270000e+001 1.606066e+001
      vertex   1.343142e+002 7.270000e+001 1.557403e+001
      vertex   1.227000e+002 7.270000e+001 1.900000e+001
    endloop
  endfacet
  facet normal -8.314778e-001 6.606994e-007 -5.555580e-001
    outer loop
      vertex   1.286732e+002 6.270000e+001 1.581734e+001
      vertex   1.285107e+002 7.270000e+001 1.606066e+001
      vertex   1.288358e+002 7.270000e+001 1.557403e+001
    endloop
  endfacet
  facet normal -8.314652e-001 -0.000000e+000 -5.555767e-001
    outer loop
      vertex   1.286732e+002 6.270000e+001 1.581734e+001
      vertex   1.288358e+002 7.270000e+001 1.557403e+001
      vertex   1.288358e+002 5.270000e+001 1.557403e+001
    endloop
  endfacet
  facet normal 8.314658e-001 -2.673311e-008 -5.555761e-001
    outer loop
      vertex   1.262268e+002 6.270000e+001 1.581734e+001
      vertex   1.263893e+002 5.270000e+001 1.606066e+001
      vertex   1.260642e+002 5.270000e+001 1.557403e+001
    endloop
  endfacet
  facet normal 8.314652e-001 0.000000e+000 -5.555767e-001
    outer loop
      vertex   1.262268e+002 6.270000e+001 1.581734e+001
      vertex   1.260642e+002 5.270000e+001 1.557403e+001
      vertex   1.260642e+002 7.270000e+001 1.557403e+001
    endloop
  endfacet
  facet normal -8.314652e-001 -0.000000e+000 -5.555767e-001
    outer loop
      vertex   1.369232e+002 6.270000e+001 1.581734e+001
      vertex   1.370858e+002 7.270000e+001 1.557403e+001
      vertex   1.370858e+002 5.270000e+001 1.557403e+001
    endloop
  endfacet
  facet normal 0.000000e+000 -1.000000e+000 0.000000e+000
    outer loop
      vertex   1.397000e+002 5.270000e+001 1.900000e+001
      vertex   1.367607e+002 5.270000e+001 1.606066e+001
      vertex   1.370858e+002 5.270000e+001 1.557403e+001
    endloop
  endfacet
  facet normal -8.314778e-001 -6.606991e-007 -5.555580e-001
    outer loop
      vertex   1.286732e+002 6.270000e+001 1.581734e+001
      vertex   1.288358e+002 5.270000e+001 1.557403e+001
      vertex   1.285107e+002 5.270000e+001 1.606066e+001
    endloop
  endfacet
  facet normal -8.314778e-001 -6.606991e-007 -5.555580e-001
    outer loop
      vertex   1.369232e+002 6.270000e+001 1.581734e+001
      vertex   1.370858e+002 5.270000e+001 1.557403e+001
      vertex   1.367607e+002 5.270000e+001 1.606066e+001
    endloop
  endfacet
  facet normal 0.000000e+000 -1.000000e+000 0.000000e+000
    outer loop
      vertex   1.346393e+002 5.270000e+001 1.606066e+001
      vertex   1.207000e+002 5.270000e+001 1.900000e+001
      vertex   1.343142e+002 5.270000e+001 1.557403e+001
    endloop
  endfacet
  facet normal -8.314778e-001 6.606994e-007 -5.555580e-001
    outer loop
      vertex   1.369232e+002 6.270000e+001 1.581734e+001
      vertex   1.367607e+002 7.270000e+001 1.606066e+001
      vertex   1.370858e+002 7.270000e+001 1.557403e+001
    endloop
  endfacet
  facet normal 8.314663e-001 0.000000e+000 -5.555753e-001
    outer loop
      vertex   1.262268e+002 6.270000e+001 1.581734e+001
      vertex   1.263893e+002 7.270000e+001 1.606066e+001
      vertex   1.263893e+002 5.270000e+001 1.606066e+001
    endloop
  endfacet
  facet normal -8.314903e-001 0.000000e+000 -5.555393e-001
    outer loop
      vertex   1.286732e+002 6.270000e+001 1.581734e+001
      vertex   1.285107e+002 5.270000e+001 1.606066e+001
      vertex   1.285107e+002 7.270000e+001 1.606066e+001
    endloop
  endfacet
  facet normal 8.314663e-001 0.000000e+000 -5.555753e-001
    outer loop
      vertex   1.344768e+002 6.270000e+001 1.581734e+001
      vertex   1.346393e+002 7.270000e+001 1.606066e+001
      vertex   1.346393e+002 5.270000e+001 1.606066e+001
    endloop
  endfacet
  facet normal -8.314903e-001 0.000000e+000 -5.555393e-001
    outer loop
      vertex   1.369232e+002 6.270000e+001 1.581734e+001
      vertex   1.367607e+002 5.270000e+001 1.606066e+001
      vertex   1.367607e+002 7.270000e+001 1.606066e+001
    endloop
  endfacet
  facet normal -5.555692e-001 0.000000e+000 -8.314702e-001
    outer loop
      vertex   1.365173e+002 6.270000e+001 1.622324e+001
      vertex   1.362740e+002 7.270000e+001 1.638582e+001
      vertex   1.367607e+002 7.270000e+001 1.606066e+001
    endloop
  endfacet
  facet normal 5.555693e-001 0.000000e+000 -8.314703e-001
    outer loop
      vertex   1.266327e+002 6.270000e+001 1.622324e+001
      vertex   1.268760e+002 5.270000e+001 1.638582e+001
      vertex   1.263893e+002 5.270000e+001 1.606066e+001
    endloop
  endfacet
  facet normal 0.000000e+000 -1.000000e+000 0.000000e+000
    outer loop
      vertex   1.351260e+002 5.270000e+001 1.638582e+001
      vertex   1.207000e+002 5.270000e+001 1.900000e+001
      vertex   1.346393e+002 5.270000e+001 1.606066e+001
    endloop
  endfacet
  facet normal -5.555692e-001 -0.000000e+000 -8.314702e-001
    outer loop
      vertex   1.365173e+002 6.270000e+001 1.622324e+001
      vertex   1.367607e+002 7.270000e+001 1.606066e+001
      vertex   1.367607e+002 5.270000e+001 1.606066e+001
    endloop
  endfacet
  facet normal -5.555693e-001 0.000000e+000 -8.314703e-001
    outer loop
      vertex   1.365173e+002 6.270000e+001 1.622324e+001
      vertex   1.367607e+002 5.270000e+001 1.606066e+001
      vertex   1.362740e+002 5.270000e+001 1.638582e+001
    endloop
  endfacet
  facet normal 0.000000e+000 1.000000e+000 -0.000000e+000
    outer loop
      vertex   1.377000e+002 7.270000e+001 1.900000e+001
      vertex   1.367607e+002 7.270000e+001 1.606066e+001
      vertex   1.362740e+002 7.270000e+001 1.638582e+001
    endloop
  endfacet
  facet normal -5.555693e-001 0.000000e+000 -8.314703e-001
    outer loop
      vertex   1.282673e+002 6.270000e+001 1.622324e+001
      vertex   1.285107e+002 5.270000e+001 1.606066e+001
      vertex   1.280240e+002 5.270000e+001 1.638582e+001
    endloop
  endfacet
  facet normal 0.000000e+000 -1.000000e+000 0.000000e+000
    outer loop
      vertex   1.397000e+002 5.270000e+001 1.900000e+001
      vertex   1.362740e+002 5.270000e+001 1.638582e+001
      vertex   1.367607e+002 5.270000e+001 1.606066e+001
    endloop
  endfacet
  facet normal 0.000000e+000 1.000000e+000 -0.000000e+000
    outer loop
      vertex   1.351260e+002 7.270000e+001 1.638582e+001
      vertex   1.346393e+002 7.270000e+001 1.606066e+001
      vertex   1.227000e+002 7.270000e+001 1.900000e+001
    endloop
  endfacet
  facet normal 0.000000e+000 -1.000000e+000 0.000000e+000
    outer loop
      vertex   1.268760e+002 5.270000e+001 1.638582e+001
      vertex   1.207000e+002 5.270000e+001 1.900000e+001
      vertex   1.263893e+002 5.270000e+001 1.606066e+001
    endloop
  endfacet
  facet normal 5.555692e-001 0.000000e+000 -8.314702e-001
    outer loop
      vertex   1.348827e+002 6.270000e+001 1.622324e+001
      vertex   1.346393e+002 7.270000e+001 1.606066e+001
      vertex   1.351260e+002 7.270000e+001 1.638582e+001
    endloop
  endfacet
  facet normal 5.555693e-001 0.000000e+000 -8.314703e-001
    outer loop
      vertex   1.348827e+002 6.270000e+001 1.622324e+001
      vertex   1.351260e+002 5.270000e+001 1.638582e+001
      vertex   1.346393e+002 5.270000e+001 1.606066e+001
    endloop
  endfacet
  facet normal -5.555692e-001 -0.000000e+000 -8.314702e-001
    outer loop
      vertex   1.282673e+002 6.270000e+001 1.622324e+001
      vertex   1.285107e+002 7.270000e+001 1.606066e+001
      vertex   1.285107e+002 5.270000e+001 1.606066e+001
    endloop
  endfacet
  facet normal 5.555692e-001 0.000000e+000 -8.314702e-001
    outer loop
      vertex   1.348827e+002 6.270000e+001 1.622324e+001
      vertex   1.346393e+002 5.270000e+001 1.606066e+001
      vertex   1.346393e+002 7.270000e+001 1.606066e+001
    endloop
  endfacet
  facet normal 0.000000e+000 1.000000e+000 0.000000e+000
    outer loop
      vertex   1.227000e+002 7.270000e+001 1.900000e+001
      vertex   1.268760e+002 7.270000e+001 1.638582e+001
      vertex   1.263893e+002 7.270000e+001 1.606066e+001
    endloop
  endfacet
  facet normal 5.555692e-001 0.000000e+000 -8.314702e-001
    outer loop
      vertex   1.266327e+002 6.270000e+001 1.622324e+001
      vertex   1.263893e+002 7.270000e+001 1.606066e+001
      vertex   1.268760e+002 7.270000e+001 1.638582e+001
    endloop
  endfacet
  facet normal 5.555692e-001 0.000000e+000 -8.314702e-001
    outer loop
      vertex   1.266327e+002 6.270000e+001 1.622324e+001
      vertex   1.263893e+002 5.270000e+001 1.606066e+001
      vertex   1.263893e+002 7.270000e+001 1.606066e+001
    endloop
  endfacet
  facet normal -5.555692e-001 0.000000e+000 -8.314702e-001
    outer loop
      vertex   1.282673e+002 6.270000e+001 1.622324e+001
      vertex   1.280240e+002 7.270000e+001 1.638582e+001
      vertex   1.285107e+002 7.270000e+001 1.606066e+001
    endloop
  endfacet
  facet normal 5.555692e-001 0.000000e+000 -8.314702e-001
    outer loop
      vertex   1.266327e+002 6.270000e+001 1.622324e+001
      vertex   1.268760e+002 7.270000e+001 1.638582e+001
      vertex   1.268760e+002 5.270000e+001 1.638582e+001
    endloop
  endfacet
  facet normal -5.555692e-001 0.000000e+000 -8.314702e-001
    outer loop
      vertex   1.282673e+002 6.270000e+001 1.622324e+001
      vertex   1.280240e+002 5.270000e+001 1.638582e+001
      vertex   1.280240e+002 7.270000e+001 1.638582e+001
    endloop
  endfacet
  facet normal -5.555692e-001 0.000000e+000 -8.314702e-001
    outer loop
      vertex   1.365173e+002 6.270000e+001 1.622324e+001
      vertex   1.362740e+002 5.270000e+001 1.638582e+001
      vertex   1.362740e+002 7.270000e+001 1.638582e+001
    endloop
  endfacet
  facet normal 5.555692e-001 0.000000e+000 -8.314702e-001
    outer loop
      vertex   1.348827e+002 6.270000e+001 1.622324e+001
      vertex   1.351260e+002 7.270000e+001 1.638582e+001
      vertex   1.351260e+002 5.270000e+001 1.638582e+001
    endloop
  endfacet
  facet normal -0.000000e+000 1.000000e+000 -0.000000e+000
    outer loop
      vertex   1.280240e+002 7.270000e+001 1.638582e+001
      vertex   1.274500e+002 7.270000e+001 1.650000e+001
      vertex   1.227000e+002 7.270000e+001 1.900000e+001
    endloop
  endfacet
  facet normal 0.000000e+000 1.000000e+000 0.000000e+000
    outer loop
      vertex   1.227000e+002 7.270000e+001 1.900000e+001
      vertex   1.274500e+002 7.270000e+001 1.650000e+001
      vertex   1.268760e+002 7.270000e+001 1.638582e+001
    endloop
  endfacet
  facet normal 1.950932e-001 -1.489438e-007 -9.807847e-001
    outer loop
      vertex   1.354130e+002 6.270000e+001 1.644291e+001
      vertex   1.357000e+002 5.270000e+001 1.650000e+001
      vertex   1.351260e+002 5.270000e+001 1.638582e+001
    endloop
  endfacet
  facet normal -1.950882e-001 -0.000000e+000 -9.807857e-001
    outer loop
      vertex   1.277370e+002 6.270000e+001 1.644291e+001
      vertex   1.280240e+002 7.270000e+001 1.638582e+001
      vertex   1.280240e+002 5.270000e+001 1.638582e+001
    endloop
  endfacet
  facet normal 0.000000e+000 -1.000000e+000 0.000000e+000
    outer loop
      vertex   1.280240e+002 5.270000e+001 1.638582e+001
      vertex   1.207000e+002 5.270000e+001 1.900000e+001
      vertex   1.274500e+002 5.270000e+001 1.650000e+001
    endloop
  endfacet
  facet normal -1.950882e-001 0.000000e+000 -9.807857e-001
    outer loop
      vertex   1.277370e+002 6.270000e+001 1.644291e+001
      vertex   1.274500e+002 7.270000e+001 1.650000e+001
      vertex   1.280240e+002 7.270000e+001 1.638582e+001
    endloop
  endfacet
  facet normal -1.950882e-001 -0.000000e+000 -9.807857e-001
    outer loop
      vertex   1.359870e+002 6.270000e+001 1.644291e+001
      vertex   1.362740e+002 7.270000e+001 1.638582e+001
      vertex   1.362740e+002 5.270000e+001 1.638582e+001
    endloop
  endfacet
  facet normal -1.950882e-001 0.000000e+000 -9.807857e-001
    outer loop
      vertex   1.277370e+002 6.270000e+001 1.644291e+001
      vertex   1.280240e+002 5.270000e+001 1.638582e+001
      vertex   1.274500e+002 5.270000e+001 1.650000e+001
    endloop
  endfacet
  facet normal -1.950882e-001 0.000000e+000 -9.807857e-001
    outer loop
      vertex   1.359870e+002 6.270000e+001 1.644291e+001
      vertex   1.357000e+002 7.270000e+001 1.650000e+001
      vertex   1.362740e+002 7.270000e+001 1.638582e+001
    endloop
  endfacet
  facet normal -1.950882e-001 0.000000e+000 -9.807857e-001
    outer loop
      vertex   1.359870e+002 6.270000e+001 1.644291e+001
      vertex   1.362740e+002 5.270000e+001 1.638582e+001
      vertex   1.357000e+002 5.270000e+001 1.650000e+001
    endloop
  endfacet
  facet normal 0.000000e+000 -1.000000e+000 0.000000e+000
    outer loop
      vertex   1.397000e+002 5.270000e+001 1.900000e+001
      vertex   1.357000e+002 5.270000e+001 1.650000e+001
      vertex   1.362740e+002 5.270000e+001 1.638582e+001
    endloop
  endfacet
  facet normal 1.950932e-001 0.000000e+000 -9.807847e-001
    outer loop
      vertex   1.271630e+002 6.270000e+001 1.644291e+001
      vertex   1.268760e+002 7.270000e+001 1.638582e+001
      vertex   1.274500e+002 7.270000e+001 1.650000e+001
    endloop
  endfacet
  facet normal 1.950882e-001 0.000000e+000 -9.807857e-001
    outer loop
      vertex   1.354130e+002 6.270000e+001 1.644291e+001
      vertex   1.351260e+002 5.270000e+001 1.638582e+001
      vertex   1.351260e+002 7.270000e+001 1.638582e+001
    endloop
  endfacet
  facet normal 1.950932e-001 1.489438e-007 -9.807847e-001
    outer loop
      vertex   1.354130e+002 6.270000e+001 1.644291e+001
      vertex   1.351260e+002 7.270000e+001 1.638582e+001
      vertex   1.357000e+002 7.270000e+001 1.650000e+001
    endloop
  endfacet
  facet normal 0.000000e+000 -1.000000e+000 0.000000e+000
    outer loop
      vertex   1.357000e+002 5.270000e+001 1.650000e+001
      vertex   1.207000e+002 5.270000e+001 1.900000e+001
      vertex   1.351260e+002 5.270000e+001 1.638582e+001
    endloop
  endfacet
  facet normal 0.000000e+000 -1.000000e+000 0.000000e+000
    outer loop
      vertex   1.274500e+002 5.270000e+001 1.650000e+001
      vertex   1.207000e+002 5.270000e+001 1.900000e+001
      vertex   1.268760e+002 5.270000e+001 1.638582e+001
    endloop
  endfacet
  facet normal 1.950932e-001 0.000000e+000 -9.807847e-001
    outer loop
      vertex   1.271630e+002 6.270000e+001 1.644291e+001
      vertex   1.268760e+002 5.270000e+001 1.638582e+001
      vertex   1.268760e+002 7.270000e+001 1.638582e+001
    endloop
  endfacet
  facet normal 1.950932e-001 0.000000e+000 -9.807847e-001
    outer loop
      vertex   1.271630e+002 6.270000e+001 1.644291e+001
      vertex   1.274500e+002 5.270000e+001 1.650000e+001
      vertex   1.268760e+002 5.270000e+001 1.638582e+001
    endloop
  endfacet
  facet normal 0.000000e+000 1.000000e+000 -0.000000e+000
    outer loop
      vertex   1.357000e+002 7.270000e+001 1.650000e+001
      vertex   1.351260e+002 7.270000e+001 1.638582e+001
      vertex   1.227000e+002 7.270000e+001 1.900000e+001
    endloop
  endfacet
  facet normal 0.000000e+000 1.000000e+000 -0.000000e+000
    outer loop
      vertex   1.377000e+002 7.270000e+001 1.900000e+001
      vertex   1.362740e+002 7.270000e+001 1.638582e+001
      vertex   1.357000e+002 7.270000e+001 1.650000e+001
    endloop
  endfacet
  facet normal 1.950932e-001 0.000000e+000 -9.807847e-001
    outer loop
      vertex   1.271630e+002 6.270000e+001 1.644291e+001
      vertex   1.274500e+002 7.270000e+001 1.650000e+001
      vertex   1.274500e+002 5.270000e+001 1.650000e+001
    endloop
  endfacet
  facet normal -1.950882e-001 0.000000e+000 -9.807857e-001
    outer loop
      vertex   1.359870e+002 6.270000e+001 1.644291e+001
      vertex   1.357000e+002 5.270000e+001 1.650000e+001
      vertex   1.357000e+002 7.270000e+001 1.650000e+001
    endloop
  endfacet
  facet normal 1.950982e-001 0.000000e+000 -9.807838e-001
    outer loop
      vertex   1.354130e+002 6.270000e+001 1.644291e+001
      vertex   1.357000e+002 7.270000e+001 1.650000e+001
      vertex   1.357000e+002 5.270000e+001 1.650000e+001
    endloop
  endfacet
  facet normal -1.950882e-001 0.000000e+000 -9.807857e-001
    outer loop
      vertex   1.277370e+002 6.270000e+001 1.644291e+001
      vertex   1.274500e+002 5.270000e+001 1.650000e+001
      vertex   1.274500e+002 7.270000e+001 1.650000e+001
    endloop
  endfacet
  facet normal 0.000000e+000 1.000000e+000 -0.000000e+000
    outer loop
      vertex   1.377000e+002 7.270000e+001 1.900000e+001
      vertex   1.357000e+002 7.270000e+001 1.650000e+001
      vertex   1.227000e+002 7.270000e+001 1.900000e+001
    endloop
  endfacet
  facet normal 0.000000e+000 -1.000000e+000 0.000000e+000
    outer loop
      vertex   1.397000e+002 5.270000e+001 1.900000e+001
      vertex   1.207000e+002 5.270000e+001 1.900000e+001
      vertex   1.357000e+002 5.270000e+001 1.650000e+001
    endloop
  endfacet
  facet normal -0.000000e+000 0.000000e+000 1.000000e+000
    outer loop
      vertex   1.215393e+002 6.263934e+001 1.900000e+001
      vertex   1.192000e+002 5.420000e+001 1.900000e+001
      vertex   1.207000e+002 5.270000e+001 1.900000e+001
    endloop
  endfacet
  facet normal 0.000000e+000 0.000000e+000 1.000000e+000
    outer loop
      vertex   1.220260e+002 6.231418e+001 1.900000e+001
      vertex   1.215393e+002 6.263934e+001 1.900000e+001
      vertex   1.207000e+002 5.270000e+001 1.900000e+001
    endloop
  endfacet
  facet normal 0.000000e+000 0.000000e+000 1.000000e+000
    outer loop
      vertex   1.212142e+002 6.312598e+001 1.900000e+001
      vertex   1.192000e+002 5.420000e+001 1.900000e+001
      vertex   1.215393e+002 6.263934e+001 1.900000e+001
    endloop
  endfacet
  facet normal 0.000000e+000 0.000000e+000 1.000000e+000
    outer loop
      vertex   1.226000e+002 6.220000e+001 1.900000e+001
      vertex   1.220260e+002 6.231418e+001 1.900000e+001
      vertex   1.207000e+002 5.270000e+001 1.900000e+001
    endloop
  endfacet
  facet normal 0.000000e+000 0.000000e+000 1.000000e+000
    outer loop
      vertex   1.211000e+002 6.370000e+001 1.900000e+001
      vertex   1.192000e+002 5.420000e+001 1.900000e+001
      vertex   1.212142e+002 6.312598e+001 1.900000e+001
    endloop
  endfacet
  facet normal -0.000000e+000 0.000000e+000 1.000000e+000
    outer loop
      vertex   1.231740e+002 6.231418e+001 1.900000e+001
      vertex   1.226000e+002 6.220000e+001 1.900000e+001
      vertex   1.207000e+002 5.270000e+001 1.900000e+001
    endloop
  endfacet
  facet normal 0.000000e+000 0.000000e+000 1.000000e+000
    outer loop
      vertex   1.212142e+002 6.427402e+001 1.900000e+001
      vertex   1.192000e+002 5.420000e+001 1.900000e+001
      vertex   1.211000e+002 6.370000e+001 1.900000e+001
    endloop
  endfacet
  facet normal -0.000000e+000 0.000000e+000 1.000000e+000
    outer loop
      vertex   1.236607e+002 6.263934e+001 1.900000e+001
      vertex   1.231740e+002 6.231418e+001 1.900000e+001
      vertex   1.207000e+002 5.270000e+001 1.900000e+001
    endloop
  endfacet
  facet normal -0.000000e+000 0.000000e+000 1.000000e+000
    outer loop
      vertex   1.239858e+002 6.312598e+001 1.900000e+001
      vertex   1.236607e+002 6.263934e+001 1.900000e+001
      vertex   1.207000e+002 5.270000e+001 1.900000e+001
    endloop
  endfacet
  facet normal -0.000000e+000 -0.000000e+000 1.000000e+000
    outer loop
      vertex   1.192000e+002 6.920000e+001 1.900000e+001
      vertex   1.226000e+002 6.520000e+001 1.900000e+001
      vertex   1.231740e+002 6.508582e+001 1.900000e+001
    endloop
  endfacet
  facet normal 0.000000e+000 -0.000000e+000 1.000000e+000
    outer loop
      vertex   1.192000e+002 6.920000e+001 1.900000e+001
      vertex   1.220260e+002 6.508582e+001 1.900000e+001
      vertex   1.226000e+002 6.520000e+001 1.900000e+001
    endloop
  endfacet
  facet normal 0.000000e+000 -0.000000e+000 1.000000e+000
    outer loop
      vertex   1.192000e+002 6.920000e+001 1.900000e+001
      vertex   1.215393e+002 6.476066e+001 1.900000e+001
      vertex   1.220260e+002 6.508582e+001 1.900000e+001
    endloop
  endfacet
  facet normal 0.000000e+000 -0.000000e+000 1.000000e+000
    outer loop
      vertex   1.192000e+002 6.920000e+001 1.900000e+001
      vertex   1.212142e+002 6.427402e+001 1.900000e+001
      vertex   1.215393e+002 6.476066e+001 1.900000e+001
    endloop
  endfacet
  facet normal 0.000000e+000 0.000000e+000 1.000000e+000
    outer loop
      vertex   1.192000e+002 6.920000e+001 1.900000e+001
      vertex   1.192000e+002 5.420000e+001 1.900000e+001
      vertex   1.212142e+002 6.427402e+001 1.900000e+001
    endloop
  endfacet
  facet normal 0.000000e+000 0.000000e+000 1.000000e+000
    outer loop
      vertex   1.236607e+002 6.476066e+001 1.900000e+001
      vertex   1.192000e+002 6.920000e+001 1.900000e+001
      vertex   1.231740e+002 6.508582e+001 1.900000e+001
    endloop
  endfacet
  facet normal 0.000000e+000 0.000000e+000 1.000000e+000
    outer loop
      vertex   1.397000e+002 5.270000e+001 1.900000e+001
      vertex   1.192000e+002 6.920000e+001 1.900000e+001
      vertex   1.236607e+002 6.476066e+001 1.900000e+001
    endloop
  endfacet
  facet normal 0.000000e+000 0.000000e+000 1.000000e+000
    outer loop
      vertex   1.397000e+002 5.270000e+001 1.900000e+001
      vertex   1.236607e+002 6.476066e+001 1.900000e+001
      vertex   1.239858e+002 6.427402e+001 1.900000e+001
    endloop
  endfacet
  facet normal 0.000000e+000 0.000000e+000 1.000000e+000
    outer loop
      vertex   1.397000e+002 5.270000e+001 1.900000e+001
      vertex   1.239858e+002 6.427402e+001 1.900000e+001
      vertex   1.241000e+002 6.370000e+001 1.900000e+001
    endloop
  endfacet
  facet normal 0.000000e+000 0.000000e+000 1.000000e+000
    outer loop
      vertex   1.397000e+002 5.270000e+001 1.900000e+001
      vertex   1.241000e+002 6.370000e+001 1.900000e+001
      vertex   1.239858e+002 6.312598e+001 1.900000e+001
    endloop
  endfacet
  facet normal 0.000000e+000 0.000000e+000 1.000000e+000
    outer loop
      vertex   1.397000e+002 5.270000e+001 1.900000e+001
      vertex   1.239858e+002 6.312598e+001 1.900000e+001
      vertex   1.207000e+002 5.270000e+001 1.900000e+001
    endloop
  endfacet
  facet normal 0.000000e+000 0.000000e+000 1.000000e+000
    outer loop
      vertex   1.412000e+002 5.420000e+001 1.900000e+001
      vertex   1.192000e+002 6.920000e+001 1.900000e+001
      vertex   1.397000e+002 5.270000e+001 1.900000e+001
    endloop
  endfacet
  facet normal -0.000000e+000 0.000000e+000 1.000000e+000
    outer loop
      vertex   1.227000e+002 7.270000e+001 1.900000e+001
      vertex   1.192000e+002 6.920000e+001 1.900000e+001
      vertex   1.412000e+002 5.420000e+001 1.900000e+001
    endloop
  endfacet
  facet normal -0.000000e+000 0.000000e+000 1.000000e+000
    outer loop
      vertex   1.377000e+002 7.270000e+001 1.900000e+001
      vertex   1.227000e+002 7.270000e+001 1.900000e+001
      vertex   1.412000e+002 5.420000e+001 1.900000e+001
    endloop
  endfacet
  facet normal 0.000000e+000 0.000000e+000 1.000000e+000
    outer loop
      vertex   1.412000e+002 6.920000e+001 1.900000e+001
      vertex   1.377000e+002 7.270000e+001 1.900000e+001
      vertex   1.412000e+002 5.420000e+001 1.900000e+001
    endloop
  endfacet
endsolid
