solid ascii
  facet normal 0.000000e+000 -0.000000e+000 -1.000000e+000
    outer loop
      vertex   5.595000e+001 1.081968e+002 -5.000000e+000
      vertex   6.670000e+001 1.207640e+002 -5.000000e+000
      vertex   6.670000e+001 9.562959e+001 -5.000000e+000
    endloop
  endfacet
  facet normal -1.000000e+000 0.000000e+000 0.000000e+000
    outer loop
      vertex   4.520000e+001 1.207640e+002 5.000000e+000
      vertex   4.520000e+001 1.207640e+002 -5.000000e+000
      vertex   4.520000e+001 5.010000e+001 5.000000e+000
    endloop
  endfacet
  facet normal -1.000000e+000 0.000000e+000 0.000000e+000
    outer loop
      vertex   4.520000e+001 1.207640e+002 -5.000000e+000
      vertex   4.520000e+001 9.562959e+001 -5.000000e+000
      vertex   4.520000e+001 9.358592e+001 -1.500000e+000
    endloop
  endfacet
  facet normal -1.000000e+000 0.000000e+000 0.000000e+000
    outer loop
      vertex   4.520000e+001 1.207640e+002 -5.000000e+000
      vertex   4.520000e+001 9.358592e+001 -1.500000e+000
      vertex   4.520000e+001 5.010000e+001 5.000000e+000
    endloop
  endfacet
  facet normal -1.000000e+000 0.000000e+000 0.000000e+000
    outer loop
      vertex   4.520000e+001 9.358592e+001 -1.500000e+000
      vertex   4.520000e+001 9.562959e+001 -5.000000e+000
      vertex   4.520000e+001 9.363041e+001 -3.057119e+000
    endloop
  endfacet
  facet normal -1.000000e+000 0.000000e+000 0.000000e+000
    outer loop
      vertex   4.520000e+001 9.562959e+001 -5.000000e+000
      vertex   4.520000e+001 9.486423e+001 -4.847759e+000
      vertex   4.520000e+001 9.363041e+001 -3.057119e+000
    endloop
  endfacet
  facet normal -1.000000e+000 0.000000e+000 0.000000e+000
    outer loop
      vertex   4.520000e+001 7.733578e+001 -4.847759e+000
      vertex   4.520000e+001 7.657041e+001 -5.000000e+000
      vertex   4.520000e+001 5.010000e+001 5.000000e+000
    endloop
  endfacet
  facet normal -1.000000e+000 0.000000e+000 0.000000e+000
    outer loop
      vertex   4.520000e+001 7.657041e+001 -5.000000e+000
      vertex   4.520000e+001 5.010000e+001 -5.000000e+000
      vertex   4.520000e+001 5.010000e+001 5.000000e+000
    endloop
  endfacet
  facet normal 0.000000e+000 1.000000e+000 -0.000000e+000
    outer loop
      vertex   6.670000e+001 1.207640e+002 3.552714e-015
      vertex   6.670000e+001 1.207640e+002 -5.000000e+000
      vertex   4.620000e+001 1.207640e+002 3.552714e-015
    endloop
  endfacet
  facet normal 0.000000e+000 1.000000e+000 0.000000e+000
    outer loop
      vertex   6.670000e+001 1.207640e+002 -5.000000e+000
      vertex   4.520000e+001 1.207640e+002 -5.000000e+000
      vertex   4.620000e+001 1.207640e+002 3.552714e-015
    endloop
  endfacet
  facet normal 0.000000e+000 1.000000e+000 0.000000e+000
    outer loop
      vertex   4.520000e+001 1.207640e+002 5.000000e+000
      vertex   4.620000e+001 1.207640e+002 3.552714e-015
      vertex   4.520000e+001 1.207640e+002 -5.000000e+000
    endloop
  endfacet
  facet normal 1.000000e+000 -0.000000e+000 0.000000e+000
    outer loop
      vertex   6.670000e+001 1.207640e+002 3.552714e-015
      vertex   6.670000e+001 9.358592e+001 -1.500000e+000
      vertex   6.670000e+001 1.207640e+002 -5.000000e+000
    endloop
  endfacet
  facet normal 1.000000e+000 0.000000e+000 0.000000e+000
    outer loop
      vertex   6.670000e+001 1.207640e+002 -5.000000e+000
      vertex   6.670000e+001 9.358592e+001 -1.500000e+000
      vertex   6.670000e+001 9.562959e+001 -5.000000e+000
    endloop
  endfacet
  facet normal 1.000000e+000 -0.000000e+000 -0.000000e+000
    outer loop
      vertex   6.670000e+001 9.358592e+001 -1.500000e+000
      vertex   6.670000e+001 9.363041e+001 -3.057119e+000
      vertex   6.670000e+001 9.562959e+001 -5.000000e+000
    endloop
  endfacet
  facet normal 1.000000e+000 0.000000e+000 0.000000e+000
    outer loop
      vertex   6.670000e+001 9.562959e+001 -5.000000e+000
      vertex   6.670000e+001 9.363041e+001 -3.057119e+000
      vertex   6.670000e+001 9.486423e+001 -4.847759e+000
    endloop
  endfacet
  facet normal 1.000000e+000 0.000000e+000 0.000000e+000
    outer loop
      vertex   6.670000e+001 5.010000e+001 3.000000e+001
      vertex   6.670000e+001 5.010000e+001 -5.000000e+000
      vertex   6.670000e+001 5.110000e+001 -3.000000e+000
    endloop
  endfacet
  facet normal 1.000000e+000 0.000000e+000 0.000000e+000
    outer loop
      vertex   6.670000e+001 7.733578e+001 -4.847759e+000
      vertex   6.670000e+001 7.060000e+001 3.552714e-015
      vertex   6.670000e+001 7.657041e+001 -5.000000e+000
    endloop
  endfacet
  facet normal 0.000000e+000 0.000000e+000 -1.000000e+000
    outer loop
      vertex   5.595000e+001 1.081968e+002 -5.000000e+000
      vertex   4.520000e+001 9.562959e+001 -5.000000e+000
      vertex   4.520000e+001 1.207640e+002 -5.000000e+000
    endloop
  endfacet
  facet normal 0.000000e+000 0.000000e+000 -1.000000e+000
    outer loop
      vertex   5.595000e+001 1.081968e+002 -5.000000e+000
      vertex   4.520000e+001 1.207640e+002 -5.000000e+000
      vertex   6.670000e+001 1.207640e+002 -5.000000e+000
    endloop
  endfacet
  facet normal 0.000000e+000 0.000000e+000 -1.000000e+000
    outer loop
      vertex   5.595000e+001 6.333521e+001 -5.000000e+000
      vertex   4.520000e+001 5.010000e+001 -5.000000e+000
      vertex   4.520000e+001 7.657041e+001 -5.000000e+000
    endloop
  endfacet
  facet normal 0.000000e+000 0.000000e+000 -1.000000e+000
    outer loop
      vertex   5.595000e+001 1.081968e+002 -5.000000e+000
      vertex   6.670000e+001 9.562959e+001 -5.000000e+000
      vertex   4.520000e+001 9.562959e+001 -5.000000e+000
    endloop
  endfacet
  facet normal 1.000000e+000 0.000000e+000 0.000000e+000
    outer loop
      vertex   6.670000e+001 7.657041e+001 -5.000000e+000
      vertex   6.670000e+001 7.060000e+001 3.552714e-015
      vertex   6.670000e+001 5.010000e+001 -5.000000e+000
    endloop
  endfacet
  facet normal 1.000000e+000 -0.000000e+000 0.000000e+000
    outer loop
      vertex   6.670000e+001 7.060000e+001 3.552714e-015
      vertex   6.670000e+001 5.320000e+001 -3.000000e+000
      vertex   6.670000e+001 5.010000e+001 -5.000000e+000
    endloop
  endfacet
  facet normal 1.000000e+000 -0.000000e+000 0.000000e+000
    outer loop
      vertex   6.670000e+001 5.320000e+001 -3.000000e+000
      vertex   6.670000e+001 5.110000e+001 -3.000000e+000
      vertex   6.670000e+001 5.010000e+001 -5.000000e+000
    endloop
  endfacet
  facet normal 0.000000e+000 -1.000000e+000 0.000000e+000
    outer loop
      vertex   6.670000e+001 5.010000e+001 3.000000e+001
      vertex   6.020000e+001 5.010000e+001 3.000000e+001
      vertex   6.670000e+001 5.010000e+001 -5.000000e+000
    endloop
  endfacet
  facet normal 0.000000e+000 -1.000000e+000 0.000000e+000
    outer loop
      vertex   6.020000e+001 5.010000e+001 3.000000e+001
      vertex   5.720000e+001 5.010000e+001 7.000000e+000
      vertex   6.670000e+001 5.010000e+001 -5.000000e+000
    endloop
  endfacet
  facet normal 0.000000e+000 -1.000000e+000 0.000000e+000
    outer loop
      vertex   5.720000e+001 5.010000e+001 7.000000e+000
      vertex   5.720000e+001 5.010000e+001 5.000000e+000
      vertex   6.670000e+001 5.010000e+001 -5.000000e+000
    endloop
  endfacet
  facet normal 0.000000e+000 -1.000000e+000 0.000000e+000
    outer loop
      vertex   5.720000e+001 5.010000e+001 5.000000e+000
      vertex   4.520000e+001 5.010000e+001 5.000000e+000
      vertex   6.670000e+001 5.010000e+001 -5.000000e+000
    endloop
  endfacet
  facet normal 0.000000e+000 -1.000000e+000 0.000000e+000
    outer loop
      vertex   6.670000e+001 5.010000e+001 -5.000000e+000
      vertex   4.520000e+001 5.010000e+001 5.000000e+000
      vertex   4.520000e+001 5.010000e+001 -5.000000e+000
    endloop
  endfacet
  facet normal 0.000000e+000 1.950904e-001 -9.807853e-001
    outer loop
      vertex   5.595000e+001 7.695309e+001 -4.923880e+000
      vertex   4.520000e+001 7.657041e+001 -5.000000e+000
      vertex   4.520000e+001 7.733578e+001 -4.847759e+000
    endloop
  endfacet
  facet normal 0.000000e+000 1.950904e-001 -9.807853e-001
    outer loop
      vertex   5.595000e+001 7.695309e+001 -4.923880e+000
      vertex   6.670000e+001 7.657041e+001 -5.000000e+000
      vertex   4.520000e+001 7.657041e+001 -5.000000e+000
    endloop
  endfacet
  facet normal 0.000000e+000 1.950904e-001 -9.807853e-001
    outer loop
      vertex   5.595000e+001 7.695309e+001 -4.923880e+000
      vertex   6.670000e+001 7.733578e+001 -4.847759e+000
      vertex   6.670000e+001 7.657041e+001 -5.000000e+000
    endloop
  endfacet
  facet normal 0.000000e+000 -1.950904e-001 -9.807853e-001
    outer loop
      vertex   5.595000e+001 9.524691e+001 -4.923880e+000
      vertex   4.520000e+001 9.486423e+001 -4.847759e+000
      vertex   4.520000e+001 9.562959e+001 -5.000000e+000
    endloop
  endfacet
  facet normal 0.000000e+000 -1.950904e-001 -9.807853e-001
    outer loop
      vertex   5.595000e+001 9.524691e+001 -4.923880e+000
      vertex   6.670000e+001 9.562959e+001 -5.000000e+000
      vertex   6.670000e+001 9.486423e+001 -4.847759e+000
    endloop
  endfacet
  facet normal 0.000000e+000 -1.950904e-001 -9.807853e-001
    outer loop
      vertex   5.595000e+001 9.524691e+001 -4.923880e+000
      vertex   4.520000e+001 9.562959e+001 -5.000000e+000
      vertex   6.670000e+001 9.562959e+001 -5.000000e+000
    endloop
  endfacet
  facet normal 0.000000e+000 -0.000000e+000 -1.000000e+000
    outer loop
      vertex   5.595000e+001 6.333521e+001 -5.000000e+000
      vertex   6.670000e+001 7.657041e+001 -5.000000e+000
      vertex   6.670000e+001 5.010000e+001 -5.000000e+000
    endloop
  endfacet
  facet normal 0.000000e+000 0.000000e+000 -1.000000e+000
    outer loop
      vertex   5.595000e+001 6.333521e+001 -5.000000e+000
      vertex   4.520000e+001 7.657041e+001 -5.000000e+000
      vertex   6.670000e+001 7.657041e+001 -5.000000e+000
    endloop
  endfacet
  facet normal 0.000000e+000 0.000000e+000 -1.000000e+000
    outer loop
      vertex   5.595000e+001 6.333521e+001 -5.000000e+000
      vertex   6.670000e+001 5.010000e+001 -5.000000e+000
      vertex   4.520000e+001 5.010000e+001 -5.000000e+000
    endloop
  endfacet
  facet normal -0.000000e+000 -1.950904e-001 -9.807853e-001
    outer loop
      vertex   5.595000e+001 9.524691e+001 -4.923880e+000
      vertex   6.670000e+001 9.486423e+001 -4.847759e+000
      vertex   4.520000e+001 9.486423e+001 -4.847759e+000
    endloop
  endfacet
  facet normal 0.000000e+000 1.950904e-001 -9.807853e-001
    outer loop
      vertex   5.595000e+001 7.695309e+001 -4.923880e+000
      vertex   4.520000e+001 7.733578e+001 -4.847759e+000
      vertex   6.670000e+001 7.733578e+001 -4.847759e+000
    endloop
  endfacet
  facet normal -1.000000e+000 0.000000e+000 0.000000e+000
    outer loop
      vertex   4.520000e+001 7.798462e+001 -4.414214e+000
      vertex   4.520000e+001 7.733578e+001 -4.847759e+000
      vertex   4.520000e+001 5.010000e+001 5.000000e+000
    endloop
  endfacet
  facet normal -1.953922e-008 -5.555686e-001 -8.314707e-001
    outer loop
      vertex   5.595000e+001 9.453980e+001 -4.630986e+000
      vertex   6.670000e+001 9.486423e+001 -4.847759e+000
      vertex   6.670000e+001 9.421538e+001 -4.414214e+000
    endloop
  endfacet
  facet normal -1.000000e+000 0.000000e+000 0.000000e+000
    outer loop
      vertex   4.520000e+001 9.363041e+001 -3.057119e+000
      vertex   4.520000e+001 9.486423e+001 -4.847759e+000
      vertex   4.520000e+001 9.378183e+001 -3.765367e+000
    endloop
  endfacet
  facet normal -1.000000e+000 0.000000e+000 0.000000e+000
    outer loop
      vertex   4.520000e+001 9.486423e+001 -4.847759e+000
      vertex   4.520000e+001 9.421538e+001 -4.414214e+000
      vertex   4.520000e+001 9.378183e+001 -3.765367e+000
    endloop
  endfacet
  facet normal 1.000000e+000 0.000000e+000 0.000000e+000
    outer loop
      vertex   6.670000e+001 9.486423e+001 -4.847759e+000
      vertex   6.670000e+001 9.378183e+001 -3.765367e+000
      vertex   6.670000e+001 9.421538e+001 -4.414214e+000
    endloop
  endfacet
  facet normal -1.776308e-007 5.555732e-001 -8.314677e-001
    outer loop
      vertex   5.595000e+001 7.766020e+001 -4.630986e+000
      vertex   4.520000e+001 7.733578e+001 -4.847759e+000
      vertex   4.520000e+001 7.798462e+001 -4.414214e+000
    endloop
  endfacet
  facet normal 0.000000e+000 5.555691e-001 -8.314704e-001
    outer loop
      vertex   5.595000e+001 7.766020e+001 -4.630986e+000
      vertex   6.670000e+001 7.733578e+001 -4.847759e+000
      vertex   4.520000e+001 7.733578e+001 -4.847759e+000
    endloop
  endfacet
  facet normal 1.794071e-007 5.555732e-001 -8.314677e-001
    outer loop
      vertex   5.595000e+001 7.766020e+001 -4.630986e+000
      vertex   6.670000e+001 7.798462e+001 -4.414214e+000
      vertex   6.670000e+001 7.733578e+001 -4.847759e+000
    endloop
  endfacet
  facet normal 1.000000e+000 0.000000e+000 0.000000e+000
    outer loop
      vertex   6.670000e+001 7.798462e+001 -4.414214e+000
      vertex   6.670000e+001 7.060000e+001 3.552714e-015
      vertex   6.670000e+001 7.733578e+001 -4.847759e+000
    endloop
  endfacet
  facet normal 1.776293e-008 -5.555686e-001 -8.314707e-001
    outer loop
      vertex   5.595000e+001 9.453980e+001 -4.630986e+000
      vertex   4.520000e+001 9.421538e+001 -4.414214e+000
      vertex   4.520000e+001 9.486423e+001 -4.847759e+000
    endloop
  endfacet
  facet normal 1.000000e+000 -0.000000e+000 -0.000000e+000
    outer loop
      vertex   6.670000e+001 9.363041e+001 -3.057119e+000
      vertex   6.670000e+001 9.378183e+001 -3.765367e+000
      vertex   6.670000e+001 9.486423e+001 -4.847759e+000
    endloop
  endfacet
  facet normal 0.000000e+000 -5.555691e-001 -8.314704e-001
    outer loop
      vertex   5.595000e+001 9.453980e+001 -4.630986e+000
      vertex   4.520000e+001 9.486423e+001 -4.847759e+000
      vertex   6.670000e+001 9.486423e+001 -4.847759e+000
    endloop
  endfacet
  facet normal 0.000000e+000 5.555773e-001 -8.314649e-001
    outer loop
      vertex   5.595000e+001 7.766020e+001 -4.630986e+000
      vertex   4.520000e+001 7.798462e+001 -4.414214e+000
      vertex   6.670000e+001 7.798462e+001 -4.414214e+000
    endloop
  endfacet
  facet normal -0.000000e+000 -5.555683e-001 -8.314710e-001
    outer loop
      vertex   5.595000e+001 9.453980e+001 -4.630986e+000
      vertex   6.670000e+001 9.421538e+001 -4.414214e+000
      vertex   4.520000e+001 9.421538e+001 -4.414214e+000
    endloop
  endfacet
  facet normal -1.000000e+000 0.000000e+000 0.000000e+000
    outer loop
      vertex   4.520000e+001 7.841817e+001 -3.765367e+000
      vertex   4.520000e+001 7.798462e+001 -4.414214e+000
      vertex   4.520000e+001 5.010000e+001 5.000000e+000
    endloop
  endfacet
  facet normal 7.105180e-009 8.314682e-001 -5.555723e-001
    outer loop
      vertex   5.595000e+001 7.820139e+001 -4.089790e+000
      vertex   6.670000e+001 7.841817e+001 -3.765367e+000
      vertex   6.670000e+001 7.798462e+001 -4.414214e+000
    endloop
  endfacet
  facet normal 0.000000e+000 8.314682e-001 -5.555725e-001
    outer loop
      vertex   5.595000e+001 7.820139e+001 -4.089790e+000
      vertex   6.670000e+001 7.798462e+001 -4.414214e+000
      vertex   4.520000e+001 7.798462e+001 -4.414214e+000
    endloop
  endfacet
  facet normal -5.328885e-009 8.314682e-001 -5.555723e-001
    outer loop
      vertex   5.595000e+001 7.820139e+001 -4.089790e+000
      vertex   4.520000e+001 7.798462e+001 -4.414214e+000
      vertex   4.520000e+001 7.841817e+001 -3.765367e+000
    endloop
  endfacet
  facet normal 5.328885e-009 -8.314682e-001 -5.555723e-001
    outer loop
      vertex   5.595000e+001 9.399860e+001 -4.089790e+000
      vertex   6.670000e+001 9.421538e+001 -4.414214e+000
      vertex   6.670000e+001 9.378183e+001 -3.765367e+000
    endloop
  endfacet
  facet normal 0.000000e+000 -8.314682e-001 -5.555725e-001
    outer loop
      vertex   5.595000e+001 9.399860e+001 -4.089790e+000
      vertex   4.520000e+001 9.421538e+001 -4.414214e+000
      vertex   6.670000e+001 9.421538e+001 -4.414214e+000
    endloop
  endfacet
  facet normal 1.000000e+000 0.000000e+000 0.000000e+000
    outer loop
      vertex   6.670000e+001 7.841817e+001 -3.765367e+000
      vertex   6.670000e+001 7.060000e+001 3.552714e-015
      vertex   6.670000e+001 7.798462e+001 -4.414214e+000
    endloop
  endfacet
  facet normal -7.105180e-009 -8.314682e-001 -5.555723e-001
    outer loop
      vertex   5.595000e+001 9.399860e+001 -4.089790e+000
      vertex   4.520000e+001 9.378183e+001 -3.765367e+000
      vertex   4.520000e+001 9.421538e+001 -4.414214e+000
    endloop
  endfacet
  facet normal -0.000000e+000 -8.314682e-001 -5.555722e-001
    outer loop
      vertex   5.595000e+001 9.399860e+001 -4.089790e+000
      vertex   6.670000e+001 9.378183e+001 -3.765367e+000
      vertex   4.520000e+001 9.378183e+001 -3.765367e+000
    endloop
  endfacet
  facet normal 0.000000e+000 8.314682e-001 -5.555722e-001
    outer loop
      vertex   5.595000e+001 7.820139e+001 -4.089790e+000
      vertex   4.520000e+001 7.841817e+001 -3.765367e+000
      vertex   6.670000e+001 7.841817e+001 -3.765367e+000
    endloop
  endfacet
  facet normal 0.000000e+000 -9.779025e-001 -2.090614e-001
    outer loop
      vertex   5.595000e+001 9.370612e+001 -3.411243e+000
      vertex   4.520000e+001 9.378183e+001 -3.765367e+000
      vertex   6.670000e+001 9.378183e+001 -3.765367e+000
    endloop
  endfacet
  facet normal 2.392381e-009 9.778982e-001 -2.090814e-001
    outer loop
      vertex   5.595000e+001 7.849388e+001 -3.411243e+000
      vertex   6.670000e+001 7.856960e+001 -3.057119e+000
      vertex   6.670000e+001 7.841817e+001 -3.765367e+000
    endloop
  endfacet
  facet normal -1.000000e+000 0.000000e+000 0.000000e+000
    outer loop
      vertex   4.520000e+001 7.856960e+001 -3.057119e+000
      vertex   4.520000e+001 7.841817e+001 -3.765367e+000
      vertex   4.520000e+001 5.010000e+001 5.000000e+000
    endloop
  endfacet
  facet normal -3.449821e-007 -9.779004e-001 -2.090714e-001
    outer loop
      vertex   5.595000e+001 9.370612e+001 -3.411243e+000
      vertex   6.670000e+001 9.378183e+001 -3.765367e+000
      vertex   6.670000e+001 9.363041e+001 -3.057119e+000
    endloop
  endfacet
  facet normal 3.445036e-007 -9.779004e-001 -2.090714e-001
    outer loop
      vertex   5.595000e+001 9.370612e+001 -3.411243e+000
      vertex   4.520000e+001 9.363041e+001 -3.057119e+000
      vertex   4.520000e+001 9.378183e+001 -3.765367e+000
    endloop
  endfacet
  facet normal 0.000000e+000 9.778982e-001 -2.090815e-001
    outer loop
      vertex   5.595000e+001 7.849388e+001 -3.411243e+000
      vertex   6.670000e+001 7.841817e+001 -3.765367e+000
      vertex   4.520000e+001 7.841817e+001 -3.765367e+000
    endloop
  endfacet
  facet normal 1.000000e+000 0.000000e+000 0.000000e+000
    outer loop
      vertex   6.670000e+001 7.856960e+001 -3.057119e+000
      vertex   6.670000e+001 7.060000e+001 3.552714e-015
      vertex   6.670000e+001 7.841817e+001 -3.765367e+000
    endloop
  endfacet
  facet normal -2.392381e-009 9.778982e-001 -2.090814e-001
    outer loop
      vertex   5.595000e+001 7.849388e+001 -3.411243e+000
      vertex   4.520000e+001 7.841817e+001 -3.765367e+000
      vertex   4.520000e+001 7.856960e+001 -3.057119e+000
    endloop
  endfacet
  facet normal 0.000000e+000 9.778982e-001 -2.090814e-001
    outer loop
      vertex   5.595000e+001 7.849388e+001 -3.411243e+000
      vertex   4.520000e+001 7.856960e+001 -3.057119e+000
      vertex   6.670000e+001 7.856960e+001 -3.057119e+000
    endloop
  endfacet
  facet normal -0.000000e+000 -9.778982e-001 -2.090814e-001
    outer loop
      vertex   5.595000e+001 9.370612e+001 -3.411243e+000
      vertex   6.670000e+001 9.363041e+001 -3.057119e+000
      vertex   4.520000e+001 9.363041e+001 -3.057119e+000
    endloop
  endfacet
  facet normal -3.546019e-007 9.995921e-001 -2.855841e-002
    outer loop
      vertex   5.595000e+001 7.859184e+001 -2.278560e+000
      vertex   6.670000e+001 7.861408e+001 -1.500000e+000
      vertex   6.670000e+001 7.856960e+001 -3.057119e+000
    endloop
  endfacet
  facet normal 1.000000e+000 0.000000e+000 0.000000e+000
    outer loop
      vertex   6.670000e+001 7.861408e+001 -1.500000e+000
      vertex   6.670000e+001 7.060000e+001 3.552714e-015
      vertex   6.670000e+001 7.856960e+001 -3.057119e+000
    endloop
  endfacet
  facet normal 0.000000e+000 -9.995920e-001 -2.856331e-002
    outer loop
      vertex   5.595000e+001 9.360816e+001 -2.278560e+000
      vertex   4.520000e+001 9.363041e+001 -3.057119e+000
      vertex   6.670000e+001 9.363041e+001 -3.057119e+000
    endloop
  endfacet
  facet normal 3.546019e-007 -9.995921e-001 -2.855841e-002
    outer loop
      vertex   5.595000e+001 9.360816e+001 -2.278560e+000
      vertex   6.670000e+001 9.363041e+001 -3.057119e+000
      vertex   6.670000e+001 9.358592e+001 -1.500000e+000
    endloop
  endfacet
  facet normal -3.548241e-007 -9.995921e-001 -2.855841e-002
    outer loop
      vertex   5.595000e+001 9.360816e+001 -2.278560e+000
      vertex   4.520000e+001 9.358592e+001 -1.500000e+000
      vertex   4.520000e+001 9.363041e+001 -3.057119e+000
    endloop
  endfacet
  facet normal 3.548241e-007 9.995921e-001 -2.855841e-002
    outer loop
      vertex   5.595000e+001 7.859184e+001 -2.278560e+000
      vertex   4.520000e+001 7.856960e+001 -3.057119e+000
      vertex   4.520000e+001 7.861408e+001 -1.500000e+000
    endloop
  endfacet
  facet normal 0.000000e+000 9.995922e-001 -2.855352e-002
    outer loop
      vertex   5.595000e+001 7.859184e+001 -2.278560e+000
      vertex   6.670000e+001 7.856960e+001 -3.057119e+000
      vertex   4.520000e+001 7.856960e+001 -3.057119e+000
    endloop
  endfacet
  facet normal -1.000000e+000 0.000000e+000 0.000000e+000
    outer loop
      vertex   4.520000e+001 7.861408e+001 -1.500000e+000
      vertex   4.520000e+001 7.856960e+001 -3.057119e+000
      vertex   4.520000e+001 5.010000e+001 5.000000e+000
    endloop
  endfacet
  facet normal 0.000000e+000 0.000000e+000 1.000000e+000
    outer loop
      vertex   6.470000e+001 5.215000e+001 -3.000000e+000
      vertex   6.670000e+001 5.320000e+001 -3.000000e+000
      vertex   6.270000e+001 5.320000e+001 -3.000000e+000
    endloop
  endfacet
  facet normal 0.000000e+000 -0.000000e+000 1.000000e+000
    outer loop
      vertex   6.470000e+001 5.215000e+001 -3.000000e+000
      vertex   6.670000e+001 5.110000e+001 -3.000000e+000
      vertex   6.670000e+001 5.320000e+001 -3.000000e+000
    endloop
  endfacet
  facet normal 0.000000e+000 0.000000e+000 1.000000e+000
    outer loop
      vertex   6.470000e+001 5.215000e+001 -3.000000e+000
      vertex   6.270000e+001 5.320000e+001 -3.000000e+000
      vertex   6.270000e+001 5.110000e+001 -3.000000e+000
    endloop
  endfacet
  facet normal 0.000000e+000 1.000000e+000 0.000000e+000
    outer loop
      vertex   6.470000e+001 5.110000e+001 1.350000e+001
      vertex   6.670000e+001 5.110000e+001 3.000000e+001
      vertex   6.670000e+001 5.110000e+001 -3.000000e+000
    endloop
  endfacet
  facet normal 1.000000e+000 0.000000e+000 -0.000000e+000
    outer loop
      vertex   6.270000e+001 5.215000e+001 1.350000e+001
      vertex   6.270000e+001 5.320000e+001 -3.000000e+000
      vertex   6.270000e+001 5.320000e+001 3.000000e+001
    endloop
  endfacet
  facet normal 0.000000e+000 0.000000e+000 1.000000e+000
    outer loop
      vertex   6.470000e+001 5.215000e+001 -3.000000e+000
      vertex   6.270000e+001 5.110000e+001 -3.000000e+000
      vertex   6.670000e+001 5.110000e+001 -3.000000e+000
    endloop
  endfacet
  facet normal 1.000000e+000 0.000000e+000 0.000000e+000
    outer loop
      vertex   6.270000e+001 5.215000e+001 1.350000e+001
      vertex   6.270000e+001 5.110000e+001 3.000000e+001
      vertex   6.270000e+001 5.110000e+001 -3.000000e+000
    endloop
  endfacet
  facet normal 0.000000e+000 1.000000e+000 0.000000e+000
    outer loop
      vertex   6.470000e+001 5.110000e+001 1.350000e+001
      vertex   6.270000e+001 5.110000e+001 -3.000000e+000
      vertex   6.270000e+001 5.110000e+001 3.000000e+001
    endloop
  endfacet
  facet normal 0.000000e+000 -1.000000e+000 0.000000e+000
    outer loop
      vertex   6.470000e+001 5.320000e+001 1.350000e+001
      vertex   6.670000e+001 5.320000e+001 -3.000000e+000
      vertex   6.670000e+001 5.320000e+001 3.000000e+001
    endloop
  endfacet
  facet normal 0.000000e+000 -1.000000e+000 0.000000e+000
    outer loop
      vertex   6.470000e+001 5.320000e+001 1.350000e+001
      vertex   6.270000e+001 5.320000e+001 3.000000e+001
      vertex   6.270000e+001 5.320000e+001 -3.000000e+000
    endloop
  endfacet
  facet normal 0.000000e+000 -1.000000e+000 0.000000e+000
    outer loop
      vertex   6.470000e+001 5.320000e+001 1.350000e+001
      vertex   6.270000e+001 5.320000e+001 -3.000000e+000
      vertex   6.670000e+001 5.320000e+001 -3.000000e+000
    endloop
  endfacet
  facet normal 1.000000e+000 0.000000e+000 0.000000e+000
    outer loop
      vertex   6.270000e+001 5.215000e+001 1.350000e+001
      vertex   6.270000e+001 5.110000e+001 -3.000000e+000
      vertex   6.270000e+001 5.320000e+001 -3.000000e+000
    endloop
  endfacet
  facet normal 0.000000e+000 1.000000e+000 0.000000e+000
    outer loop
      vertex   6.470000e+001 5.110000e+001 1.350000e+001
      vertex   6.670000e+001 5.110000e+001 -3.000000e+000
      vertex   6.270000e+001 5.110000e+001 -3.000000e+000
    endloop
  endfacet
  facet normal 1.000000e+000 0.000000e+000 0.000000e+000
    outer loop
      vertex   6.670000e+001 7.060000e+001 3.552714e-015
      vertex   6.670000e+001 5.570000e+001 5.000000e+000
      vertex   6.670000e+001 5.320000e+001 -3.000000e+000
    endloop
  endfacet
  facet normal 1.000000e+000 0.000000e+000 0.000000e+000
    outer loop
      vertex   6.670000e+001 5.320000e+001 3.000000e+001
      vertex   6.670000e+001 5.320000e+001 -3.000000e+000
      vertex   6.670000e+001 5.570000e+001 5.000000e+000
    endloop
  endfacet
  facet normal 1.000000e+000 -0.000000e+000 0.000000e+000
    outer loop
      vertex   6.670000e+001 5.110000e+001 3.000000e+001
      vertex   6.670000e+001 5.010000e+001 3.000000e+001
      vertex   6.670000e+001 5.110000e+001 -3.000000e+000
    endloop
  endfacet
  facet normal -0.000000e+000 -9.995922e-001 -2.855352e-002
    outer loop
      vertex   5.595000e+001 9.360816e+001 -2.278560e+000
      vertex   6.670000e+001 9.358592e+001 -1.500000e+000
      vertex   4.520000e+001 9.358592e+001 -1.500000e+000
    endloop
  endfacet
  facet normal 0.000000e+000 9.995920e-001 -2.856331e-002
    outer loop
      vertex   5.595000e+001 7.859184e+001 -2.278560e+000
      vertex   4.520000e+001 7.861408e+001 -1.500000e+000
      vertex   6.670000e+001 7.861408e+001 -1.500000e+000
    endloop
  endfacet
  facet normal 0.000000e+000 0.000000e+000 -1.000000e+000
    outer loop
      vertex   5.595000e+001 8.610000e+001 -1.500000e+000
      vertex   4.520000e+001 9.358592e+001 -1.500000e+000
      vertex   6.670000e+001 9.358592e+001 -1.500000e+000
    endloop
  endfacet
  facet normal 1.000000e+000 0.000000e+000 0.000000e+000
    outer loop
      vertex   6.670000e+001 9.358592e+001 -1.500000e+000
      vertex   6.670000e+001 7.060000e+001 3.552714e-015
      vertex   6.670000e+001 7.861408e+001 -1.500000e+000
    endloop
  endfacet
  facet normal 1.000000e+000 -0.000000e+000 0.000000e+000
    outer loop
      vertex   6.670000e+001 1.207640e+002 3.552714e-015
      vertex   6.670000e+001 7.060000e+001 3.552714e-015
      vertex   6.670000e+001 9.358592e+001 -1.500000e+000
    endloop
  endfacet
  facet normal 0.000000e+000 0.000000e+000 -1.000000e+000
    outer loop
      vertex   5.595000e+001 8.610000e+001 -1.500000e+000
      vertex   4.520000e+001 7.861408e+001 -1.500000e+000
      vertex   4.520000e+001 9.358592e+001 -1.500000e+000
    endloop
  endfacet
  facet normal 0.000000e+000 -0.000000e+000 -1.000000e+000
    outer loop
      vertex   5.595000e+001 8.610000e+001 -1.500000e+000
      vertex   6.670000e+001 9.358592e+001 -1.500000e+000
      vertex   6.670000e+001 7.861408e+001 -1.500000e+000
    endloop
  endfacet
  facet normal 0.000000e+000 0.000000e+000 -1.000000e+000
    outer loop
      vertex   5.595000e+001 8.610000e+001 -1.500000e+000
      vertex   6.670000e+001 7.861408e+001 -1.500000e+000
      vertex   4.520000e+001 7.861408e+001 -1.500000e+000
    endloop
  endfacet
  facet normal -1.000000e+000 0.000000e+000 0.000000e+000
    outer loop
      vertex   4.520000e+001 9.358592e+001 -1.500000e+000
      vertex   4.520000e+001 7.861408e+001 -1.500000e+000
      vertex   4.520000e+001 5.010000e+001 5.000000e+000
    endloop
  endfacet
  facet normal 0.000000e+000 0.000000e+000 1.000000e+000
    outer loop
      vertex   5.645000e+001 9.568199e+001 3.552714e-015
      vertex   4.620000e+001 1.207640e+002 3.552714e-015
      vertex   4.620000e+001 7.060000e+001 3.552714e-015
    endloop
  endfacet
  facet normal 0.000000e+000 -0.000000e+000 1.000000e+000
    outer loop
      vertex   5.645000e+001 9.568199e+001 3.552714e-015
      vertex   6.670000e+001 7.060000e+001 3.552714e-015
      vertex   6.670000e+001 1.207640e+002 3.552714e-015
    endloop
  endfacet
  facet normal 0.000000e+000 0.000000e+000 1.000000e+000
    outer loop
      vertex   5.645000e+001 9.568199e+001 3.552714e-015
      vertex   6.670000e+001 1.207640e+002 3.552714e-015
      vertex   4.620000e+001 1.207640e+002 3.552714e-015
    endloop
  endfacet
  facet normal 1.000000e+000 -0.000000e+000 0.000000e+000
    outer loop
      vertex   6.670000e+001 7.060000e+001 5.000000e+000
      vertex   6.670000e+001 5.570000e+001 5.000000e+000
      vertex   6.670000e+001 7.060000e+001 3.552714e-015
    endloop
  endfacet
  facet normal 0.000000e+000 1.000000e+000 0.000000e+000
    outer loop
      vertex   5.645000e+001 7.060000e+001 2.500000e+000
      vertex   6.670000e+001 7.060000e+001 5.000000e+000
      vertex   6.670000e+001 7.060000e+001 3.552714e-015
    endloop
  endfacet
  facet normal 1.000000e+000 0.000000e+000 0.000000e+000
    outer loop
      vertex   4.620000e+001 9.568199e+001 2.500000e+000
      vertex   4.620000e+001 7.060000e+001 5.000000e+000
      vertex   4.620000e+001 7.060000e+001 3.552714e-015
    endloop
  endfacet
  facet normal 0.000000e+000 0.000000e+000 1.000000e+000
    outer loop
      vertex   5.645000e+001 9.568199e+001 3.552714e-015
      vertex   4.620000e+001 7.060000e+001 3.552714e-015
      vertex   6.670000e+001 7.060000e+001 3.552714e-015
    endloop
  endfacet
  facet normal 0.000000e+000 1.000000e+000 0.000000e+000
    outer loop
      vertex   5.645000e+001 7.060000e+001 2.500000e+000
      vertex   6.670000e+001 7.060000e+001 3.552714e-015
      vertex   4.620000e+001 7.060000e+001 3.552714e-015
    endloop
  endfacet
  facet normal 0.000000e+000 1.000000e+000 0.000000e+000
    outer loop
      vertex   5.645000e+001 7.060000e+001 2.500000e+000
      vertex   4.620000e+001 7.060000e+001 3.552714e-015
      vertex   4.620000e+001 7.060000e+001 5.000000e+000
    endloop
  endfacet
  facet normal 1.000000e+000 0.000000e+000 0.000000e+000
    outer loop
      vertex   4.620000e+001 9.568199e+001 2.500000e+000
      vertex   4.620000e+001 7.060000e+001 3.552714e-015
      vertex   4.620000e+001 1.207640e+002 3.552714e-015
    endloop
  endfacet
  facet normal 0.000000e+000 1.000000e+000 -0.000000e+000
    outer loop
      vertex   4.620000e+001 1.207640e+002 5.000000e+000
      vertex   4.620000e+001 1.207640e+002 3.552714e-015
      vertex   4.520000e+001 1.207640e+002 5.000000e+000
    endloop
  endfacet
  facet normal 1.000000e+000 0.000000e+000 -0.000000e+000
    outer loop
      vertex   4.620000e+001 9.568199e+001 2.500000e+000
      vertex   4.620000e+001 1.207640e+002 3.552714e-015
      vertex   4.620000e+001 1.207640e+002 5.000000e+000
    endloop
  endfacet
  facet normal -0.000000e+000 1.000000e+000 0.000000e+000
    outer loop
      vertex   5.645000e+001 7.060000e+001 2.500000e+000
      vertex   4.620000e+001 7.060000e+001 5.000000e+000
      vertex   6.670000e+001 7.060000e+001 5.000000e+000
    endloop
  endfacet
  facet normal 1.000000e+000 0.000000e+000 0.000000e+000
    outer loop
      vertex   4.620000e+001 9.568199e+001 2.500000e+000
      vertex   4.620000e+001 1.207640e+002 5.000000e+000
      vertex   4.620000e+001 7.060000e+001 5.000000e+000
    endloop
  endfacet
  facet normal 1.000000e+000 -0.000000e+000 0.000000e+000
    outer loop
      vertex   6.670000e+001 5.570000e+001 3.000000e+001
      vertex   6.670000e+001 5.320000e+001 3.000000e+001
      vertex   6.670000e+001 5.570000e+001 5.000000e+000
    endloop
  endfacet
  facet normal -1.000000e+000 0.000000e+000 0.000000e+000
    outer loop
      vertex   5.720000e+001 5.290000e+001 6.000000e+000
      vertex   5.720000e+001 5.010000e+001 5.000000e+000
      vertex   5.720000e+001 5.010000e+001 7.000000e+000
    endloop
  endfacet
  facet normal -1.000000e+000 0.000000e+000 -0.000000e+000
    outer loop
      vertex   5.720000e+001 5.290000e+001 6.000000e+000
      vertex   5.720000e+001 5.570000e+001 7.000000e+000
      vertex   5.720000e+001 5.570000e+001 5.000000e+000
    endloop
  endfacet
  facet normal -0.000000e+000 0.000000e+000 1.000000e+000
    outer loop
      vertex   6.670000e+001 7.060000e+001 5.000000e+000
      vertex   4.620000e+001 7.060000e+001 5.000000e+000
      vertex   6.670000e+001 5.570000e+001 5.000000e+000
    endloop
  endfacet
  facet normal 0.000000e+000 1.000000e+000 0.000000e+000
    outer loop
      vertex   6.160000e+001 5.570000e+001 1.540000e+001
      vertex   6.670000e+001 5.570000e+001 5.000000e+000
      vertex   5.720000e+001 5.570000e+001 5.000000e+000
    endloop
  endfacet
  facet normal 0.000000e+000 0.000000e+000 1.000000e+000
    outer loop
      vertex   5.720000e+001 5.570000e+001 5.000000e+000
      vertex   4.520000e+001 5.010000e+001 5.000000e+000
      vertex   5.720000e+001 5.010000e+001 5.000000e+000
    endloop
  endfacet
  facet normal 0.000000e+000 0.000000e+000 1.000000e+000
    outer loop
      vertex   4.620000e+001 7.060000e+001 5.000000e+000
      vertex   4.520000e+001 5.010000e+001 5.000000e+000
      vertex   5.720000e+001 5.570000e+001 5.000000e+000
    endloop
  endfacet
  facet normal 0.000000e+000 0.000000e+000 1.000000e+000
    outer loop
      vertex   6.670000e+001 5.570000e+001 5.000000e+000
      vertex   4.620000e+001 7.060000e+001 5.000000e+000
      vertex   5.720000e+001 5.570000e+001 5.000000e+000
    endloop
  endfacet
  facet normal 0.000000e+000 1.000000e+000 0.000000e+000
    outer loop
      vertex   6.160000e+001 5.570000e+001 1.540000e+001
      vertex   6.670000e+001 5.570000e+001 3.000000e+001
      vertex   6.670000e+001 5.570000e+001 5.000000e+000
    endloop
  endfacet
  facet normal 0.000000e+000 0.000000e+000 1.000000e+000
    outer loop
      vertex   4.520000e+001 1.207640e+002 5.000000e+000
      vertex   4.520000e+001 5.010000e+001 5.000000e+000
      vertex   4.620000e+001 7.060000e+001 5.000000e+000
    endloop
  endfacet
  facet normal -0.000000e+000 0.000000e+000 1.000000e+000
    outer loop
      vertex   4.620000e+001 1.207640e+002 5.000000e+000
      vertex   4.520000e+001 1.207640e+002 5.000000e+000
      vertex   4.620000e+001 7.060000e+001 5.000000e+000
    endloop
  endfacet
  facet normal 0.000000e+000 1.000000e+000 0.000000e+000
    outer loop
      vertex   6.160000e+001 5.570000e+001 1.540000e+001
      vertex   5.720000e+001 5.570000e+001 5.000000e+000
      vertex   5.720000e+001 5.570000e+001 7.000000e+000
    endloop
  endfacet
  facet normal -1.000000e+000 0.000000e+000 0.000000e+000
    outer loop
      vertex   5.720000e+001 5.290000e+001 6.000000e+000
      vertex   5.720000e+001 5.570000e+001 5.000000e+000
      vertex   5.720000e+001 5.010000e+001 5.000000e+000
    endloop
  endfacet
  facet normal -1.000000e+000 0.000000e+000 0.000000e+000
    outer loop
      vertex   5.720000e+001 5.290000e+001 6.000000e+000
      vertex   5.720000e+001 5.010000e+001 7.000000e+000
      vertex   5.720000e+001 5.570000e+001 7.000000e+000
    endloop
  endfacet
  facet normal 0.000000e+000 1.000000e+000 0.000000e+000
    outer loop
      vertex   6.160000e+001 5.570000e+001 1.540000e+001
      vertex   5.720000e+001 5.570000e+001 7.000000e+000
      vertex   6.020000e+001 5.570000e+001 3.000000e+001
    endloop
  endfacet
  facet normal -9.916004e-001 0.000000e+000 1.293392e-001
    outer loop
      vertex   5.870000e+001 5.290000e+001 1.850000e+001
      vertex   6.020000e+001 5.570000e+001 3.000000e+001
      vertex   5.720000e+001 5.570000e+001 7.000000e+000
    endloop
  endfacet
  facet normal -9.916004e-001 0.000000e+000 1.293392e-001
    outer loop
      vertex   5.870000e+001 5.290000e+001 1.850000e+001
      vertex   5.720000e+001 5.010000e+001 7.000000e+000
      vertex   6.020000e+001 5.010000e+001 3.000000e+001
    endloop
  endfacet
  facet normal -9.916004e-001 0.000000e+000 1.293392e-001
    outer loop
      vertex   5.870000e+001 5.290000e+001 1.850000e+001
      vertex   5.720000e+001 5.570000e+001 7.000000e+000
      vertex   5.720000e+001 5.010000e+001 7.000000e+000
    endloop
  endfacet
  facet normal -0.000000e+000 -1.000000e+000 0.000000e+000
    outer loop
      vertex   6.470000e+001 5.320000e+001 1.350000e+001
      vertex   6.670000e+001 5.320000e+001 3.000000e+001
      vertex   6.270000e+001 5.320000e+001 3.000000e+001
    endloop
  endfacet
  facet normal -0.000000e+000 1.000000e+000 0.000000e+000
    outer loop
      vertex   6.470000e+001 5.110000e+001 1.350000e+001
      vertex   6.270000e+001 5.110000e+001 3.000000e+001
      vertex   6.670000e+001 5.110000e+001 3.000000e+001
    endloop
  endfacet
  facet normal 1.000000e+000 0.000000e+000 0.000000e+000
    outer loop
      vertex   6.270000e+001 5.215000e+001 1.350000e+001
      vertex   6.270000e+001 5.320000e+001 3.000000e+001
      vertex   6.270000e+001 5.110000e+001 3.000000e+001
    endloop
  endfacet
  facet normal -0.000000e+000 1.000000e+000 0.000000e+000
    outer loop
      vertex   6.160000e+001 5.570000e+001 1.540000e+001
      vertex   6.020000e+001 5.570000e+001 3.000000e+001
      vertex   6.670000e+001 5.570000e+001 3.000000e+001
    endloop
  endfacet
  facet normal -9.916004e-001 0.000000e+000 1.293392e-001
    outer loop
      vertex   5.870000e+001 5.290000e+001 1.850000e+001
      vertex   6.020000e+001 5.010000e+001 3.000000e+001
      vertex   6.020000e+001 5.570000e+001 3.000000e+001
    endloop
  endfacet
  facet normal 0.000000e+000 0.000000e+000 1.000000e+000
    outer loop
      vertex   6.270000e+001 5.320000e+001 3.000000e+001
      vertex   6.020000e+001 5.010000e+001 3.000000e+001
      vertex   6.270000e+001 5.110000e+001 3.000000e+001
    endloop
  endfacet
  facet normal 0.000000e+000 0.000000e+000 1.000000e+000
    outer loop
      vertex   6.670000e+001 5.010000e+001 3.000000e+001
      vertex   6.270000e+001 5.110000e+001 3.000000e+001
      vertex   6.020000e+001 5.010000e+001 3.000000e+001
    endloop
  endfacet
  facet normal -0.000000e+000 0.000000e+000 1.000000e+000
    outer loop
      vertex   6.670000e+001 5.110000e+001 3.000000e+001
      vertex   6.270000e+001 5.110000e+001 3.000000e+001
      vertex   6.670000e+001 5.010000e+001 3.000000e+001
    endloop
  endfacet
  facet normal 0.000000e+000 0.000000e+000 1.000000e+000
    outer loop
      vertex   6.670000e+001 5.320000e+001 3.000000e+001
      vertex   6.020000e+001 5.570000e+001 3.000000e+001
      vertex   6.270000e+001 5.320000e+001 3.000000e+001
    endloop
  endfacet
  facet normal -0.000000e+000 0.000000e+000 1.000000e+000
    outer loop
      vertex   6.670000e+001 5.570000e+001 3.000000e+001
      vertex   6.020000e+001 5.570000e+001 3.000000e+001
      vertex   6.670000e+001 5.320000e+001 3.000000e+001
    endloop
  endfacet
  facet normal 0.000000e+000 0.000000e+000 1.000000e+000
    outer loop
      vertex   6.020000e+001 5.570000e+001 3.000000e+001
      vertex   6.020000e+001 5.010000e+001 3.000000e+001
      vertex   6.270000e+001 5.320000e+001 3.000000e+001
    endloop
  endfacet
endsolid
