solid ascii
  facet normal -5.555664e-001 8.314722e-001 0.000000e+000
    outer loop
      vertex   1.452881e+002 5.419950e+001 -1.500000e+000
      vertex   1.458650e+002 5.458500e+001 2.000000e+000
      vertex   1.458650e+002 5.458500e+001 -5.000000e+000
    endloop
  endfacet
  facet normal 8.314671e-001 5.555740e-001 2.641413e-006
    outer loop
      vertex   1.404495e+002 5.516195e+001 -3.000000e+000
      vertex   1.408350e+002 5.458500e+001 -5.000000e+000
      vertex   1.400640e+002 5.573889e+001 -5.000000e+000
    endloop
  endfacet
  facet normal 0.000000e+000 0.000000e+000 -1.000000e+000
    outer loop
      vertex   1.491140e+002 6.210000e+001 -5.000000e+000
      vertex   1.458650e+002 5.961500e+001 -5.000000e+000
      vertex   1.447111e+002 6.038600e+001 -5.000000e+000
    endloop
  endfacet
  facet normal 8.314713e-001 5.555677e-001 -0.000000e+000
    outer loop
      vertex   1.404495e+002 5.516195e+001 -3.000000e+000
      vertex   1.400640e+002 5.573889e+001 -5.000000e+000
      vertex   1.400640e+002 5.573889e+001 -1.000000e+000
    endloop
  endfacet
  facet normal 0.000000e+000 0.000000e+000 -1.000000e+000
    outer loop
      vertex   1.466360e+002 5.846111e+001 -5.000000e+000
      vertex   1.491140e+002 5.310000e+001 -5.000000e+000
      vertex   1.469067e+002 5.710000e+001 -5.000000e+000
    endloop
  endfacet
  facet normal 0.000000e+000 0.000000e+000 -1.000000e+000
    outer loop
      vertex   1.419889e+002 6.038600e+001 -5.000000e+000
      vertex   1.408350e+002 5.961500e+001 -5.000000e+000
      vertex   1.351140e+002 6.210000e+001 -5.000000e+000
    endloop
  endfacet
  facet normal 1.000000e+000 -0.000000e+000 0.000000e+000
    outer loop
      vertex   1.491140e+002 6.210000e+001 -1.000000e+000
      vertex   1.491140e+002 5.470000e+001 -1.000000e+000
      vertex   1.491140e+002 6.210000e+001 -5.000000e+000
    endloop
  endfacet
  facet normal 0.000000e+000 0.000000e+000 -1.000000e+000
    outer loop
      vertex   1.433500e+002 6.065674e+001 -5.000000e+000
      vertex   1.419889e+002 6.038600e+001 -5.000000e+000
      vertex   1.351140e+002 6.210000e+001 -5.000000e+000
    endloop
  endfacet
  facet normal 0.000000e+000 1.000000e+000 0.000000e+000
    outer loop
      vertex   1.421140e+002 6.210000e+001 -3.000000e+000
      vertex   1.491140e+002 6.210000e+001 -5.000000e+000
      vertex   1.351140e+002 6.210000e+001 -5.000000e+000
    endloop
  endfacet
  facet normal 0.000000e+000 1.000000e+000 0.000000e+000
    outer loop
      vertex   1.421140e+002 6.210000e+001 -3.000000e+000
      vertex   1.351140e+002 6.210000e+001 -5.000000e+000
      vertex   1.351140e+002 6.210000e+001 -1.000000e+000
    endloop
  endfacet
  facet normal 8.314629e-001 5.555803e-001 0.000000e+000
    outer loop
      vertex   1.404495e+002 5.516195e+001 -3.000000e+000
      vertex   1.408350e+002 5.458500e+001 -1.000000e+000
      vertex   1.408350e+002 5.458500e+001 -5.000000e+000
    endloop
  endfacet
  facet normal 0.000000e+000 1.000000e+000 0.000000e+000
    outer loop
      vertex   1.421140e+002 6.210000e+001 -3.000000e+000
      vertex   1.491140e+002 6.210000e+001 -1.000000e+000
      vertex   1.491140e+002 6.210000e+001 -5.000000e+000
    endloop
  endfacet
  facet normal 7.071068e-001 -7.071068e-001 0.000000e+000
    outer loop
      vertex   1.476140e+002 5.160000e+001 6.750000e+000
      vertex   1.461140e+002 5.010000e+001 3.000000e+001
      vertex   1.461140e+002 5.010000e+001 -5.000000e+000
    endloop
  endfacet
  facet normal 7.071068e-001 -7.071068e-001 0.000000e+000
    outer loop
      vertex   1.476140e+002 5.160000e+001 6.750000e+000
      vertex   1.461140e+002 5.010000e+001 -5.000000e+000
      vertex   1.491140e+002 5.310000e+001 -5.000000e+000
    endloop
  endfacet
  facet normal 7.071068e-001 -7.071068e-001 0.000000e+000
    outer loop
      vertex   1.476140e+002 5.160000e+001 6.750000e+000
      vertex   1.491140e+002 5.310000e+001 -5.000000e+000
      vertex   1.491140e+002 5.310000e+001 7.000000e+000
    endloop
  endfacet
  facet normal 1.000000e+000 0.000000e+000 0.000000e+000
    outer loop
      vertex   1.491140e+002 6.210000e+001 -5.000000e+000
      vertex   1.491140e+002 5.470000e+001 -1.000000e+000
      vertex   1.491140e+002 5.310000e+001 -5.000000e+000
    endloop
  endfacet
  facet normal 9.807858e-001 -1.950873e-001 -3.742009e-006
    outer loop
      vertex   1.399286e+002 5.778055e+001 -3.000000e+000
      vertex   1.397933e+002 5.710000e+001 -5.000000e+000
      vertex   1.400640e+002 5.846111e+001 -5.000000e+000
    endloop
  endfacet
  facet normal -1.000000e+000 0.000000e+000 0.000000e+000
    outer loop
      vertex   1.351140e+002 6.210000e+001 -1.000000e+000
      vertex   1.351140e+002 6.210000e+001 -5.000000e+000
      vertex   1.351140e+002 5.320000e+001 -1.000000e+000
    endloop
  endfacet
  facet normal 9.807879e-001 -1.950768e-001 0.000000e+000
    outer loop
      vertex   1.399286e+002 5.778055e+001 -3.000000e+000
      vertex   1.400640e+002 5.846111e+001 -5.000000e+000
      vertex   1.400640e+002 5.846111e+001 -1.000000e+000
    endloop
  endfacet
  facet normal 8.314730e-001 -5.555651e-001 0.000000e+000
    outer loop
      vertex   1.404495e+002 5.903805e+001 -3.000000e+000
      vertex   1.400640e+002 5.846111e+001 -1.000000e+000
      vertex   1.400640e+002 5.846111e+001 -5.000000e+000
    endloop
  endfacet
  facet normal 1.000000e+000 0.000000e+000 0.000000e+000
    outer loop
      vertex   1.491140e+002 5.310000e+001 7.000000e+000
      vertex   1.491140e+002 5.310000e+001 -5.000000e+000
      vertex   1.491140e+002 5.470000e+001 -1.000000e+000
    endloop
  endfacet
  facet normal -1.000000e+000 0.000000e+000 0.000000e+000
    outer loop
      vertex   1.351140e+002 5.320000e+001 -3.000000e+000
      vertex   1.351140e+002 5.010000e+001 -5.000000e+000
      vertex   1.351140e+002 5.110000e+001 -3.000000e+000
    endloop
  endfacet
  facet normal -1.000000e+000 -0.000000e+000 0.000000e+000
    outer loop
      vertex   1.351140e+002 5.010000e+001 -1.000000e+000
      vertex   1.351140e+002 5.110000e+001 -3.000000e+000
      vertex   1.351140e+002 5.010000e+001 -5.000000e+000
    endloop
  endfacet
  facet normal 0.000000e+000 0.000000e+000 -1.000000e+000
    outer loop
      vertex   1.491140e+002 6.210000e+001 -5.000000e+000
      vertex   1.433500e+002 6.065674e+001 -5.000000e+000
      vertex   1.351140e+002 6.210000e+001 -5.000000e+000
    endloop
  endfacet
  facet normal 0.000000e+000 0.000000e+000 -1.000000e+000
    outer loop
      vertex   1.491140e+002 6.210000e+001 -5.000000e+000
      vertex   1.447111e+002 6.038600e+001 -5.000000e+000
      vertex   1.433500e+002 6.065674e+001 -5.000000e+000
    endloop
  endfacet
  facet normal 0.000000e+000 0.000000e+000 -1.000000e+000
    outer loop
      vertex   1.491140e+002 6.210000e+001 -5.000000e+000
      vertex   1.491140e+002 5.310000e+001 -5.000000e+000
      vertex   1.466360e+002 5.846111e+001 -5.000000e+000
    endloop
  endfacet
  facet normal 0.000000e+000 0.000000e+000 -1.000000e+000
    outer loop
      vertex   1.491140e+002 6.210000e+001 -5.000000e+000
      vertex   1.466360e+002 5.846111e+001 -5.000000e+000
      vertex   1.458650e+002 5.961500e+001 -5.000000e+000
    endloop
  endfacet
  facet normal 0.000000e+000 0.000000e+000 -1.000000e+000
    outer loop
      vertex   1.419889e+002 5.381400e+001 -5.000000e+000
      vertex   1.461140e+002 5.010000e+001 -5.000000e+000
      vertex   1.351140e+002 5.010000e+001 -5.000000e+000
    endloop
  endfacet
  facet normal 0.000000e+000 0.000000e+000 -1.000000e+000
    outer loop
      vertex   1.469067e+002 5.710000e+001 -5.000000e+000
      vertex   1.491140e+002 5.310000e+001 -5.000000e+000
      vertex   1.466360e+002 5.573889e+001 -5.000000e+000
    endloop
  endfacet
  facet normal 0.000000e+000 0.000000e+000 -1.000000e+000
    outer loop
      vertex   1.408350e+002 5.961500e+001 -5.000000e+000
      vertex   1.400640e+002 5.846111e+001 -5.000000e+000
      vertex   1.351140e+002 6.210000e+001 -5.000000e+000
    endloop
  endfacet
  facet normal 0.000000e+000 0.000000e+000 -1.000000e+000
    outer loop
      vertex   1.466360e+002 5.573889e+001 -5.000000e+000
      vertex   1.491140e+002 5.310000e+001 -5.000000e+000
      vertex   1.458650e+002 5.458500e+001 -5.000000e+000
    endloop
  endfacet
  facet normal -0.000000e+000 0.000000e+000 -1.000000e+000
    outer loop
      vertex   1.351140e+002 6.210000e+001 -5.000000e+000
      vertex   1.400640e+002 5.846111e+001 -5.000000e+000
      vertex   1.351140e+002 5.010000e+001 -5.000000e+000
    endloop
  endfacet
  facet normal -0.000000e+000 0.000000e+000 -1.000000e+000
    outer loop
      vertex   1.400640e+002 5.573889e+001 -5.000000e+000
      vertex   1.408350e+002 5.458500e+001 -5.000000e+000
      vertex   1.351140e+002 5.010000e+001 -5.000000e+000
    endloop
  endfacet
  facet normal 0.000000e+000 0.000000e+000 -1.000000e+000
    outer loop
      vertex   1.447111e+002 5.381400e+001 -5.000000e+000
      vertex   1.461140e+002 5.010000e+001 -5.000000e+000
      vertex   1.433500e+002 5.354325e+001 -5.000000e+000
    endloop
  endfacet
  facet normal 0.000000e+000 0.000000e+000 -1.000000e+000
    outer loop
      vertex   1.433500e+002 5.354325e+001 -5.000000e+000
      vertex   1.461140e+002 5.010000e+001 -5.000000e+000
      vertex   1.419889e+002 5.381400e+001 -5.000000e+000
    endloop
  endfacet
  facet normal 4.470559e-001 8.945060e-001 -0.000000e+000
    outer loop
      vertex   1.419889e+002 5.381400e+001 2.000000e+000
      vertex   1.419889e+002 5.381400e+001 -5.000000e+000
      vertex   1.415389e+002 5.403890e+001 2.000000e+000
    endloop
  endfacet
  facet normal 0.000000e+000 -1.000000e+000 0.000000e+000
    outer loop
      vertex   1.461140e+002 5.010000e+001 3.000000e+001
      vertex   1.412000e+002 5.010000e+001 3.000000e+001
      vertex   1.461140e+002 5.010000e+001 -5.000000e+000
    endloop
  endfacet
  facet normal 0.000000e+000 -1.000000e+000 0.000000e+000
    outer loop
      vertex   1.412000e+002 5.010000e+001 3.000000e+001
      vertex   1.412000e+002 5.010000e+001 -1.000000e+000
      vertex   1.461140e+002 5.010000e+001 -5.000000e+000
    endloop
  endfacet
  facet normal 0.000000e+000 -1.000000e+000 0.000000e+000
    outer loop
      vertex   1.412000e+002 5.010000e+001 -1.000000e+000
      vertex   1.351140e+002 5.010000e+001 -1.000000e+000
      vertex   1.461140e+002 5.010000e+001 -5.000000e+000
    endloop
  endfacet
  facet normal -9.807858e-001 -1.950873e-001 3.742009e-006
    outer loop
      vertex   1.467714e+002 5.778055e+001 -3.000000e+000
      vertex   1.466360e+002 5.846111e+001 -5.000000e+000
      vertex   1.469067e+002 5.710000e+001 -5.000000e+000
    endloop
  endfacet
  facet normal -9.807879e-001 -1.950768e-001 0.000000e+000
    outer loop
      vertex   1.467714e+002 5.778055e+001 -3.000000e+000
      vertex   1.469067e+002 5.710000e+001 -5.000000e+000
      vertex   1.469067e+002 5.710000e+001 -1.000000e+000
    endloop
  endfacet
  facet normal 9.807858e-001 1.950873e-001 -3.742009e-006
    outer loop
      vertex   1.399286e+002 5.641945e+001 -3.000000e+000
      vertex   1.400640e+002 5.573889e+001 -5.000000e+000
      vertex   1.397933e+002 5.710000e+001 -5.000000e+000
    endloop
  endfacet
  facet normal -9.807838e-001 -1.950979e-001 -0.000000e+000
    outer loop
      vertex   1.467714e+002 5.778055e+001 -3.000000e+000
      vertex   1.466360e+002 5.846111e+001 -1.000000e+000
      vertex   1.466360e+002 5.846111e+001 -5.000000e+000
    endloop
  endfacet
  facet normal -8.314730e-001 -5.555651e-001 0.000000e+000
    outer loop
      vertex   1.462505e+002 5.903805e+001 -3.000000e+000
      vertex   1.458650e+002 5.961500e+001 -5.000000e+000
      vertex   1.466360e+002 5.846111e+001 -5.000000e+000
    endloop
  endfacet
  facet normal -8.314730e-001 -5.555651e-001 0.000000e+000
    outer loop
      vertex   1.462505e+002 5.903805e+001 -3.000000e+000
      vertex   1.466360e+002 5.846111e+001 -5.000000e+000
      vertex   1.466360e+002 5.846111e+001 -1.000000e+000
    endloop
  endfacet
  facet normal 9.807838e-001 1.950979e-001 -0.000000e+000
    outer loop
      vertex   1.399286e+002 5.641945e+001 -3.000000e+000
      vertex   1.397933e+002 5.710000e+001 -5.000000e+000
      vertex   1.397933e+002 5.710000e+001 -1.000000e+000
    endloop
  endfacet
  facet normal -8.314730e-001 -5.555651e-001 -0.000000e+000
    outer loop
      vertex   1.462505e+002 5.903805e+001 -3.000000e+000
      vertex   1.458650e+002 5.961500e+001 -1.000000e+000
      vertex   1.458650e+002 5.961500e+001 -5.000000e+000
    endloop
  endfacet
  facet normal -5.555664e-001 -8.314722e-001 0.000000e+000
    outer loop
      vertex   1.452881e+002 6.000050e+001 -3.000000e+000
      vertex   1.447111e+002 6.038600e+001 -5.000000e+000
      vertex   1.458650e+002 5.961500e+001 -5.000000e+000
    endloop
  endfacet
  facet normal -5.555664e-001 -8.314722e-001 0.000000e+000
    outer loop
      vertex   1.452881e+002 6.000050e+001 -3.000000e+000
      vertex   1.458650e+002 5.961500e+001 -5.000000e+000
      vertex   1.458650e+002 5.961500e+001 -1.000000e+000
    endloop
  endfacet
  facet normal 9.807879e-001 1.950768e-001 0.000000e+000
    outer loop
      vertex   1.399286e+002 5.641945e+001 -3.000000e+000
      vertex   1.400640e+002 5.573889e+001 -1.000000e+000
      vertex   1.400640e+002 5.573889e+001 -5.000000e+000
    endloop
  endfacet
  facet normal -5.555664e-001 -8.314722e-001 -0.000000e+000
    outer loop
      vertex   1.452881e+002 6.000050e+001 -3.000000e+000
      vertex   1.447111e+002 6.038600e+001 -1.000000e+000
      vertex   1.447111e+002 6.038600e+001 -5.000000e+000
    endloop
  endfacet
  facet normal -1.950910e-001 -9.807851e-001 1.879067e-007
    outer loop
      vertex   1.440305e+002 6.052137e+001 -3.000000e+000
      vertex   1.433500e+002 6.065674e+001 -5.000000e+000
      vertex   1.447111e+002 6.038600e+001 -5.000000e+000
    endloop
  endfacet
  facet normal -1.950916e-001 -9.807850e-001 0.000000e+000
    outer loop
      vertex   1.440305e+002 6.052137e+001 -3.000000e+000
      vertex   1.447111e+002 6.038600e+001 -5.000000e+000
      vertex   1.447111e+002 6.038600e+001 -1.000000e+000
    endloop
  endfacet
  facet normal -0.000000e+000 0.000000e+000 -1.000000e+000
    outer loop
      vertex   1.400640e+002 5.846111e+001 -5.000000e+000
      vertex   1.397933e+002 5.710000e+001 -5.000000e+000
      vertex   1.351140e+002 5.010000e+001 -5.000000e+000
    endloop
  endfacet
  facet normal -1.950905e-001 -9.807853e-001 -0.000000e+000
    outer loop
      vertex   1.440305e+002 6.052137e+001 -3.000000e+000
      vertex   1.433500e+002 6.065674e+001 -1.000000e+000
      vertex   1.433500e+002 6.065674e+001 -5.000000e+000
    endloop
  endfacet
  facet normal 1.950889e-001 -9.807855e-001 9.341546e-007
    outer loop
      vertex   1.426694e+002 6.052137e+001 -3.000000e+000
      vertex   1.419889e+002 6.038600e+001 -5.000000e+000
      vertex   1.433500e+002 6.065674e+001 -5.000000e+000
    endloop
  endfacet
  facet normal 1.950863e-001 -9.807861e-001 0.000000e+000
    outer loop
      vertex   1.426694e+002 6.052137e+001 -3.000000e+000
      vertex   1.433500e+002 6.065674e+001 -5.000000e+000
      vertex   1.433500e+002 6.065674e+001 -1.000000e+000
    endloop
  endfacet
  facet normal 0.000000e+000 0.000000e+000 -1.000000e+000
    outer loop
      vertex   1.458650e+002 5.458500e+001 -5.000000e+000
      vertex   1.461140e+002 5.010000e+001 -5.000000e+000
      vertex   1.447111e+002 5.381400e+001 -5.000000e+000
    endloop
  endfacet
  facet normal 1.950916e-001 -9.807850e-001 0.000000e+000
    outer loop
      vertex   1.426694e+002 6.052137e+001 -3.000000e+000
      vertex   1.419889e+002 6.038600e+001 -1.000000e+000
      vertex   1.419889e+002 6.038600e+001 -5.000000e+000
    endloop
  endfacet
  facet normal 5.555714e-001 -8.314688e-001 2.126027e-006
    outer loop
      vertex   1.414119e+002 6.000050e+001 -3.000000e+000
      vertex   1.408350e+002 5.961500e+001 -5.000000e+000
      vertex   1.419889e+002 6.038600e+001 -5.000000e+000
    endloop
  endfacet
  facet normal 5.555664e-001 -8.314722e-001 0.000000e+000
    outer loop
      vertex   1.414119e+002 6.000050e+001 -3.000000e+000
      vertex   1.419889e+002 6.038600e+001 -5.000000e+000
      vertex   1.419889e+002 6.038600e+001 -1.000000e+000
    endloop
  endfacet
  facet normal 1.950916e-001 9.807851e-001 0.000000e+000
    outer loop
      vertex   1.426694e+002 5.367863e+001 -1.500000e+000
      vertex   1.433500e+002 5.354325e+001 -5.000000e+000
      vertex   1.419889e+002 5.381400e+001 -5.000000e+000
    endloop
  endfacet
  facet normal 5.555766e-001 -8.314654e-001 0.000000e+000
    outer loop
      vertex   1.414119e+002 6.000050e+001 -3.000000e+000
      vertex   1.408350e+002 5.961500e+001 -1.000000e+000
      vertex   1.408350e+002 5.961500e+001 -5.000000e+000
    endloop
  endfacet
  facet normal 8.314679e-001 -5.555727e-001 3.167541e-006
    outer loop
      vertex   1.404495e+002 5.903805e+001 -3.000000e+000
      vertex   1.400640e+002 5.846111e+001 -5.000000e+000
      vertex   1.408350e+002 5.961500e+001 -5.000000e+000
    endloop
  endfacet
  facet normal 8.314629e-001 -5.555803e-001 0.000000e+000
    outer loop
      vertex   1.404495e+002 5.903805e+001 -3.000000e+000
      vertex   1.408350e+002 5.961500e+001 -5.000000e+000
      vertex   1.408350e+002 5.961500e+001 -1.000000e+000
    endloop
  endfacet
  facet normal 1.950916e-001 9.807851e-001 -0.000000e+000
    outer loop
      vertex   1.426694e+002 5.367863e+001 -1.500000e+000
      vertex   1.419889e+002 5.381400e+001 -5.000000e+000
      vertex   1.419889e+002 5.381400e+001 2.000000e+000
    endloop
  endfacet
  facet normal -0.000000e+000 0.000000e+000 -1.000000e+000
    outer loop
      vertex   1.408350e+002 5.458500e+001 -5.000000e+000
      vertex   1.419889e+002 5.381400e+001 -5.000000e+000
      vertex   1.351140e+002 5.010000e+001 -5.000000e+000
    endloop
  endfacet
  facet normal -8.436877e-001 5.368344e-001 0.000000e+000
    outer loop
      vertex   1.466360e+002 5.573889e+001 -1.000000e+000
      vertex   1.466360e+002 5.573889e+001 -5.000000e+000
      vertex   1.459750e+002 5.470000e+001 -1.000000e+000
    endloop
  endfacet
  facet normal 4.470559e-001 8.945060e-001 0.000000e+000
    outer loop
      vertex   1.415389e+002 5.403890e+001 2.000000e+000
      vertex   1.419889e+002 5.381400e+001 -5.000000e+000
      vertex   1.415389e+002 5.403890e+001 -1.000000e+000
    endloop
  endfacet
  facet normal -0.000000e+000 0.000000e+000 -1.000000e+000
    outer loop
      vertex   1.397933e+002 5.710000e+001 -5.000000e+000
      vertex   1.400640e+002 5.573889e+001 -5.000000e+000
      vertex   1.351140e+002 5.010000e+001 -5.000000e+000
    endloop
  endfacet
  facet normal 9.807838e-001 -1.950979e-001 0.000000e+000
    outer loop
      vertex   1.399286e+002 5.778055e+001 -3.000000e+000
      vertex   1.397933e+002 5.710000e+001 -1.000000e+000
      vertex   1.397933e+002 5.710000e+001 -5.000000e+000
    endloop
  endfacet
  facet normal 1.950916e-001 9.807851e-001 0.000000e+000
    outer loop
      vertex   1.426694e+002 5.367863e+001 -1.500000e+000
      vertex   1.433500e+002 5.354325e+001 2.000000e+000
      vertex   1.433500e+002 5.354325e+001 -5.000000e+000
    endloop
  endfacet
  facet normal 6.128018e-001 7.898558e-001 2.453022e-002
    outer loop
      vertex   1.415389e+002 5.403890e+001 -1.000000e+000
      vertex   1.419889e+002 5.381400e+001 -5.000000e+000
      vertex   1.408350e+002 5.458500e+001 -1.000000e+000
    endloop
  endfacet
  facet normal -1.950937e-001 9.807846e-001 -4.264329e-007
    outer loop
      vertex   1.440305e+002 5.367863e+001 -1.500000e+000
      vertex   1.447111e+002 5.381400e+001 -5.000000e+000
      vertex   1.433500e+002 5.354325e+001 -5.000000e+000
    endloop
  endfacet
  facet normal -1.950958e-001 9.807842e-001 0.000000e+000
    outer loop
      vertex   1.440305e+002 5.367863e+001 -1.500000e+000
      vertex   1.433500e+002 5.354325e+001 -5.000000e+000
      vertex   1.433500e+002 5.354325e+001 2.000000e+000
    endloop
  endfacet
  facet normal 0.000000e+000 0.000000e+000 -1.000000e+000
    outer loop
      vertex   1.491140e+002 5.310000e+001 -5.000000e+000
      vertex   1.461140e+002 5.010000e+001 -5.000000e+000
      vertex   1.458650e+002 5.458500e+001 -5.000000e+000
    endloop
  endfacet
  facet normal -1.000000e+000 0.000000e+000 0.000000e+000
    outer loop
      vertex   1.351140e+002 6.210000e+001 -5.000000e+000
      vertex   1.351140e+002 5.010000e+001 -5.000000e+000
      vertex   1.351140e+002 5.320000e+001 -3.000000e+000
    endloop
  endfacet
  facet normal -7.227772e-001 6.910811e-001 0.000000e+000
    outer loop
      vertex   1.458650e+002 5.458500e+001 2.000000e+000
      vertex   1.459750e+002 5.470000e+001 -1.000000e+000
      vertex   1.458650e+002 5.458500e+001 -5.000000e+000
    endloop
  endfacet
  facet normal 5.555714e-001 8.314688e-001 0.000000e+000
    outer loop
      vertex   1.408350e+002 5.458500e+001 -1.000000e+000
      vertex   1.419889e+002 5.381400e+001 -5.000000e+000
      vertex   1.408350e+002 5.458500e+001 -5.000000e+000
    endloop
  endfacet
  facet normal -1.950916e-001 9.807851e-001 0.000000e+000
    outer loop
      vertex   1.440305e+002 5.367863e+001 -1.500000e+000
      vertex   1.447111e+002 5.381400e+001 2.000000e+000
      vertex   1.447111e+002 5.381400e+001 -5.000000e+000
    endloop
  endfacet
  facet normal -9.807879e-001 1.950768e-001 0.000000e+000
    outer loop
      vertex   1.467714e+002 5.641945e+001 -3.000000e+000
      vertex   1.469067e+002 5.710000e+001 -1.000000e+000
      vertex   1.469067e+002 5.710000e+001 -5.000000e+000
    endloop
  endfacet
  facet normal -8.314524e-001 5.555532e-001 6.883703e-003
    outer loop
      vertex   1.459750e+002 5.470000e+001 -1.000000e+000
      vertex   1.466360e+002 5.573889e+001 -5.000000e+000
      vertex   1.458650e+002 5.458500e+001 -5.000000e+000
    endloop
  endfacet
  facet normal -5.555664e-001 8.314722e-001 0.000000e+000
    outer loop
      vertex   1.452881e+002 5.419950e+001 -1.500000e+000
      vertex   1.447111e+002 5.381400e+001 -5.000000e+000
      vertex   1.447111e+002 5.381400e+001 2.000000e+000
    endloop
  endfacet
  facet normal -5.555664e-001 8.314722e-001 0.000000e+000
    outer loop
      vertex   1.452881e+002 5.419950e+001 -1.500000e+000
      vertex   1.458650e+002 5.458500e+001 -5.000000e+000
      vertex   1.447111e+002 5.381400e+001 -5.000000e+000
    endloop
  endfacet
  facet normal 0.000000e+000 -1.000000e+000 0.000000e+000
    outer loop
      vertex   1.461140e+002 5.010000e+001 -5.000000e+000
      vertex   1.351140e+002 5.010000e+001 -1.000000e+000
      vertex   1.351140e+002 5.010000e+001 -5.000000e+000
    endloop
  endfacet
  facet normal -1.000000e+000 0.000000e+000 0.000000e+000
    outer loop
      vertex   1.351140e+002 6.210000e+001 -5.000000e+000
      vertex   1.351140e+002 5.320000e+001 -3.000000e+000
      vertex   1.351140e+002 5.320000e+001 -1.000000e+000
    endloop
  endfacet
  facet normal -9.807838e-001 1.950979e-001 0.000000e+000
    outer loop
      vertex   1.467714e+002 5.641945e+001 -3.000000e+000
      vertex   1.466360e+002 5.573889e+001 -5.000000e+000
      vertex   1.466360e+002 5.573889e+001 -1.000000e+000
    endloop
  endfacet
  facet normal -9.807858e-001 1.950873e-001 3.742009e-006
    outer loop
      vertex   1.467714e+002 5.641945e+001 -3.000000e+000
      vertex   1.469067e+002 5.710000e+001 -5.000000e+000
      vertex   1.466360e+002 5.573889e+001 -5.000000e+000
    endloop
  endfacet
  facet normal -8.314730e-001 -5.555651e-001 0.000000e+000
    outer loop
      vertex   1.462505e+002 5.903805e+001 -3.000000e+000
      vertex   1.466360e+002 5.846111e+001 -1.000000e+000
      vertex   1.458650e+002 5.961500e+001 -1.000000e+000
    endloop
  endfacet
  facet normal 5.555714e-001 -8.314688e-001 -2.115289e-006
    outer loop
      vertex   1.414119e+002 6.000050e+001 -3.000000e+000
      vertex   1.419889e+002 6.038600e+001 -1.000000e+000
      vertex   1.408350e+002 5.961500e+001 -1.000000e+000
    endloop
  endfacet
  facet normal -1.950910e-001 -9.807851e-001 -1.879067e-007
    outer loop
      vertex   1.440305e+002 6.052137e+001 -3.000000e+000
      vertex   1.447111e+002 6.038600e+001 -1.000000e+000
      vertex   1.433500e+002 6.065674e+001 -1.000000e+000
    endloop
  endfacet
  facet normal -5.555664e-001 -8.314722e-001 0.000000e+000
    outer loop
      vertex   1.452881e+002 6.000050e+001 -3.000000e+000
      vertex   1.458650e+002 5.961500e+001 -1.000000e+000
      vertex   1.447111e+002 6.038600e+001 -1.000000e+000
    endloop
  endfacet
  facet normal -9.807858e-001 -1.950873e-001 -3.742009e-006
    outer loop
      vertex   1.467714e+002 5.778055e+001 -3.000000e+000
      vertex   1.469067e+002 5.710000e+001 -1.000000e+000
      vertex   1.466360e+002 5.846111e+001 -1.000000e+000
    endloop
  endfacet
  facet normal -9.807858e-001 1.950873e-001 -3.742009e-006
    outer loop
      vertex   1.467714e+002 5.641945e+001 -3.000000e+000
      vertex   1.466360e+002 5.573889e+001 -1.000000e+000
      vertex   1.469067e+002 5.710000e+001 -1.000000e+000
    endloop
  endfacet
  facet normal 0.000000e+000 -1.000000e+000 0.000000e+000
    outer loop
      vertex   1.412000e+002 5.320000e+001 -1.000000e+000
      vertex   1.351140e+002 5.320000e+001 -1.000000e+000
      vertex   1.351140e+002 5.320000e+001 -3.000000e+000
    endloop
  endfacet
  facet normal 8.314679e-001 -5.555727e-001 -3.167541e-006
    outer loop
      vertex   1.404495e+002 5.903805e+001 -3.000000e+000
      vertex   1.408350e+002 5.961500e+001 -1.000000e+000
      vertex   1.400640e+002 5.846111e+001 -1.000000e+000
    endloop
  endfacet
  facet normal 0.000000e+000 -0.000000e+000 1.000000e+000
    outer loop
      vertex   1.394070e+002 5.215000e+001 -3.000000e+000
      vertex   1.437000e+002 5.110000e+001 -3.000000e+000
      vertex   1.437000e+002 5.320000e+001 -3.000000e+000
    endloop
  endfacet
  facet normal 8.314671e-001 5.555740e-001 -2.641413e-006
    outer loop
      vertex   1.404495e+002 5.516195e+001 -3.000000e+000
      vertex   1.400640e+002 5.573889e+001 -1.000000e+000
      vertex   1.408350e+002 5.458500e+001 -1.000000e+000
    endloop
  endfacet
  facet normal 1.950889e-001 -9.807855e-001 -9.395233e-007
    outer loop
      vertex   1.426694e+002 6.052137e+001 -3.000000e+000
      vertex   1.433500e+002 6.065674e+001 -1.000000e+000
      vertex   1.419889e+002 6.038600e+001 -1.000000e+000
    endloop
  endfacet
  facet normal -0.000000e+000 1.000000e+000 0.000000e+000
    outer loop
      vertex   1.421140e+002 6.210000e+001 -3.000000e+000
      vertex   1.351140e+002 6.210000e+001 -1.000000e+000
      vertex   1.491140e+002 6.210000e+001 -1.000000e+000
    endloop
  endfacet
  facet normal 9.807858e-001 1.950873e-001 3.742009e-006
    outer loop
      vertex   1.399286e+002 5.641945e+001 -3.000000e+000
      vertex   1.397933e+002 5.710000e+001 -1.000000e+000
      vertex   1.400640e+002 5.573889e+001 -1.000000e+000
    endloop
  endfacet
  facet normal 0.000000e+000 1.000000e+000 0.000000e+000
    outer loop
      vertex   1.412000e+002 5.110000e+001 3.000000e+001
      vertex   1.437000e+002 5.110000e+001 -3.000000e+000
      vertex   1.412000e+002 5.110000e+001 -1.000000e+000
    endloop
  endfacet
  facet normal 0.000000e+000 1.000000e+000 0.000000e+000
    outer loop
      vertex   1.412000e+002 5.110000e+001 -1.000000e+000
      vertex   1.351140e+002 5.110000e+001 -3.000000e+000
      vertex   1.351140e+002 5.110000e+001 -1.000000e+000
    endloop
  endfacet
  facet normal 0.000000e+000 1.000000e+000 0.000000e+000
    outer loop
      vertex   1.437000e+002 5.110000e+001 -3.000000e+000
      vertex   1.351140e+002 5.110000e+001 -3.000000e+000
      vertex   1.412000e+002 5.110000e+001 -1.000000e+000
    endloop
  endfacet
  facet normal 0.000000e+000 0.000000e+000 1.000000e+000
    outer loop
      vertex   1.394070e+002 5.215000e+001 -3.000000e+000
      vertex   1.351140e+002 5.110000e+001 -3.000000e+000
      vertex   1.437000e+002 5.110000e+001 -3.000000e+000
    endloop
  endfacet
  facet normal 0.000000e+000 1.000000e+000 -0.000000e+000
    outer loop
      vertex   1.437000e+002 5.110000e+001 3.000000e+001
      vertex   1.437000e+002 5.110000e+001 -3.000000e+000
      vertex   1.412000e+002 5.110000e+001 3.000000e+001
    endloop
  endfacet
  facet normal 9.807858e-001 -1.950873e-001 3.742009e-006
    outer loop
      vertex   1.399286e+002 5.778055e+001 -3.000000e+000
      vertex   1.400640e+002 5.846111e+001 -1.000000e+000
      vertex   1.397933e+002 5.710000e+001 -1.000000e+000
    endloop
  endfacet
  facet normal -1.000000e+000 0.000000e+000 0.000000e+000
    outer loop
      vertex   1.437000e+002 5.215000e+001 1.350000e+001
      vertex   1.437000e+002 5.110000e+001 -3.000000e+000
      vertex   1.437000e+002 5.110000e+001 3.000000e+001
    endloop
  endfacet
  facet normal -1.000000e+000 0.000000e+000 0.000000e+000
    outer loop
      vertex   1.437000e+002 5.215000e+001 1.350000e+001
      vertex   1.437000e+002 5.320000e+001 -3.000000e+000
      vertex   1.437000e+002 5.110000e+001 -3.000000e+000
    endloop
  endfacet
  facet normal -1.000000e+000 0.000000e+000 -0.000000e+000
    outer loop
      vertex   1.437000e+002 5.215000e+001 1.350000e+001
      vertex   1.437000e+002 5.320000e+001 3.000000e+001
      vertex   1.437000e+002 5.320000e+001 -3.000000e+000
    endloop
  endfacet
  facet normal 0.000000e+000 -1.000000e+000 -0.000000e+000
    outer loop
      vertex   1.437000e+002 5.320000e+001 -3.000000e+000
      vertex   1.412000e+002 5.320000e+001 -1.000000e+000
      vertex   1.351140e+002 5.320000e+001 -3.000000e+000
    endloop
  endfacet
  facet normal 0.000000e+000 -1.000000e+000 0.000000e+000
    outer loop
      vertex   1.412000e+002 5.320000e+001 3.000000e+001
      vertex   1.412000e+002 5.320000e+001 -1.000000e+000
      vertex   1.437000e+002 5.320000e+001 -3.000000e+000
    endloop
  endfacet
  facet normal 0.000000e+000 -1.000000e+000 0.000000e+000
    outer loop
      vertex   1.437000e+002 5.320000e+001 3.000000e+001
      vertex   1.412000e+002 5.320000e+001 3.000000e+001
      vertex   1.437000e+002 5.320000e+001 -3.000000e+000
    endloop
  endfacet
  facet normal 0.000000e+000 0.000000e+000 1.000000e+000
    outer loop
      vertex   1.394070e+002 5.215000e+001 -3.000000e+000
      vertex   1.437000e+002 5.320000e+001 -3.000000e+000
      vertex   1.351140e+002 5.320000e+001 -3.000000e+000
    endloop
  endfacet
  facet normal -1.000000e+000 0.000000e+000 0.000000e+000
    outer loop
      vertex   1.351140e+002 5.110000e+001 -1.000000e+000
      vertex   1.351140e+002 5.110000e+001 -3.000000e+000
      vertex   1.351140e+002 5.010000e+001 -1.000000e+000
    endloop
  endfacet
  facet normal 0.000000e+000 0.000000e+000 1.000000e+000
    outer loop
      vertex   1.394070e+002 5.215000e+001 -3.000000e+000
      vertex   1.351140e+002 5.320000e+001 -3.000000e+000
      vertex   1.351140e+002 5.110000e+001 -3.000000e+000
    endloop
  endfacet
  facet normal -1.950937e-001 9.807846e-001 4.233650e-007
    outer loop
      vertex   1.440305e+002 5.367863e+001 -1.500000e+000
      vertex   1.433500e+002 5.354325e+001 2.000000e+000
      vertex   1.447111e+002 5.381400e+001 2.000000e+000
    endloop
  endfacet
  facet normal -5.555664e-001 8.314722e-001 0.000000e+000
    outer loop
      vertex   1.452881e+002 5.419950e+001 -1.500000e+000
      vertex   1.447111e+002 5.381400e+001 2.000000e+000
      vertex   1.458650e+002 5.458500e+001 2.000000e+000
    endloop
  endfacet
  facet normal 1.950916e-001 9.807851e-001 0.000000e+000
    outer loop
      vertex   1.426694e+002 5.367863e+001 -1.500000e+000
      vertex   1.419889e+002 5.381400e+001 2.000000e+000
      vertex   1.433500e+002 5.354325e+001 2.000000e+000
    endloop
  endfacet
  facet normal 0.000000e+000 0.000000e+000 1.000000e+000
    outer loop
      vertex   1.400640e+002 5.846111e+001 -1.000000e+000
      vertex   1.351140e+002 6.210000e+001 -1.000000e+000
      vertex   1.397933e+002 5.710000e+001 -1.000000e+000
    endloop
  endfacet
  facet normal -0.000000e+000 0.000000e+000 1.000000e+000
    outer loop
      vertex   1.491140e+002 6.210000e+001 -1.000000e+000
      vertex   1.466360e+002 5.846111e+001 -1.000000e+000
      vertex   1.491140e+002 5.470000e+001 -1.000000e+000
    endloop
  endfacet
  facet normal 0.000000e+000 1.000000e+000 0.000000e+000
    outer loop
      vertex   1.459750e+002 5.470000e+001 2.000000e+000
      vertex   1.491140e+002 5.470000e+001 -1.000000e+000
      vertex   1.459750e+002 5.470000e+001 -1.000000e+000
    endloop
  endfacet
  facet normal -0.000000e+000 0.000000e+000 1.000000e+000
    outer loop
      vertex   1.491140e+002 6.210000e+001 -1.000000e+000
      vertex   1.351140e+002 6.210000e+001 -1.000000e+000
      vertex   1.433500e+002 6.065674e+001 -1.000000e+000
    endloop
  endfacet
  facet normal 0.000000e+000 1.000000e+000 -0.000000e+000
    outer loop
      vertex   1.491140e+002 5.470000e+001 7.000000e+000
      vertex   1.491140e+002 5.470000e+001 -1.000000e+000
      vertex   1.459750e+002 5.470000e+001 2.000000e+000
    endloop
  endfacet
  facet normal -0.000000e+000 0.000000e+000 1.000000e+000
    outer loop
      vertex   1.491140e+002 6.210000e+001 -1.000000e+000
      vertex   1.433500e+002 6.065674e+001 -1.000000e+000
      vertex   1.447111e+002 6.038600e+001 -1.000000e+000
    endloop
  endfacet
  facet normal -0.000000e+000 0.000000e+000 1.000000e+000
    outer loop
      vertex   1.491140e+002 6.210000e+001 -1.000000e+000
      vertex   1.447111e+002 6.038600e+001 -1.000000e+000
      vertex   1.458650e+002 5.961500e+001 -1.000000e+000
    endloop
  endfacet
  facet normal -0.000000e+000 -0.000000e+000 1.000000e+000
    outer loop
      vertex   1.466360e+002 5.846111e+001 -1.000000e+000
      vertex   1.469067e+002 5.710000e+001 -1.000000e+000
      vertex   1.491140e+002 5.470000e+001 -1.000000e+000
    endloop
  endfacet
  facet normal 0.000000e+000 0.000000e+000 1.000000e+000
    outer loop
      vertex   1.433500e+002 6.065674e+001 -1.000000e+000
      vertex   1.351140e+002 6.210000e+001 -1.000000e+000
      vertex   1.419889e+002 6.038600e+001 -1.000000e+000
    endloop
  endfacet
  facet normal -0.000000e+000 0.000000e+000 1.000000e+000
    outer loop
      vertex   1.469067e+002 5.710000e+001 -1.000000e+000
      vertex   1.466360e+002 5.573889e+001 -1.000000e+000
      vertex   1.491140e+002 5.470000e+001 -1.000000e+000
    endloop
  endfacet
  facet normal 0.000000e+000 0.000000e+000 1.000000e+000
    outer loop
      vertex   1.491140e+002 5.470000e+001 -1.000000e+000
      vertex   1.466360e+002 5.573889e+001 -1.000000e+000
      vertex   1.459750e+002 5.470000e+001 -1.000000e+000
    endloop
  endfacet
  facet normal 0.000000e+000 0.000000e+000 1.000000e+000
    outer loop
      vertex   1.419889e+002 6.038600e+001 -1.000000e+000
      vertex   1.351140e+002 6.210000e+001 -1.000000e+000
      vertex   1.408350e+002 5.961500e+001 -1.000000e+000
    endloop
  endfacet
  facet normal 0.000000e+000 0.000000e+000 1.000000e+000
    outer loop
      vertex   1.408350e+002 5.961500e+001 -1.000000e+000
      vertex   1.351140e+002 6.210000e+001 -1.000000e+000
      vertex   1.400640e+002 5.846111e+001 -1.000000e+000
    endloop
  endfacet
  facet normal -0.000000e+000 0.000000e+000 1.000000e+000
    outer loop
      vertex   1.491140e+002 6.210000e+001 -1.000000e+000
      vertex   1.458650e+002 5.961500e+001 -1.000000e+000
      vertex   1.466360e+002 5.846111e+001 -1.000000e+000
    endloop
  endfacet
  facet normal 0.000000e+000 0.000000e+000 1.000000e+000
    outer loop
      vertex   1.351140e+002 6.210000e+001 -1.000000e+000
      vertex   1.351140e+002 5.320000e+001 -1.000000e+000
      vertex   1.397933e+002 5.710000e+001 -1.000000e+000
    endloop
  endfacet
  facet normal 0.000000e+000 0.000000e+000 1.000000e+000
    outer loop
      vertex   1.397933e+002 5.710000e+001 -1.000000e+000
      vertex   1.351140e+002 5.320000e+001 -1.000000e+000
      vertex   1.400640e+002 5.573889e+001 -1.000000e+000
    endloop
  endfacet
  facet normal 0.000000e+000 0.000000e+000 1.000000e+000
    outer loop
      vertex   1.400640e+002 5.573889e+001 -1.000000e+000
      vertex   1.351140e+002 5.320000e+001 -1.000000e+000
      vertex   1.408350e+002 5.458500e+001 -1.000000e+000
    endloop
  endfacet
  facet normal 0.000000e+000 0.000000e+000 1.000000e+000
    outer loop
      vertex   1.415389e+002 5.403890e+001 -1.000000e+000
      vertex   1.408350e+002 5.458500e+001 -1.000000e+000
      vertex   1.412000e+002 5.370000e+001 -1.000000e+000
    endloop
  endfacet
  facet normal 0.000000e+000 0.000000e+000 1.000000e+000
    outer loop
      vertex   1.408350e+002 5.458500e+001 -1.000000e+000
      vertex   1.351140e+002 5.320000e+001 -1.000000e+000
      vertex   1.412000e+002 5.370000e+001 -1.000000e+000
    endloop
  endfacet
  facet normal 0.000000e+000 0.000000e+000 1.000000e+000
    outer loop
      vertex   1.412000e+002 5.370000e+001 -1.000000e+000
      vertex   1.351140e+002 5.320000e+001 -1.000000e+000
      vertex   1.412000e+002 5.320000e+001 -1.000000e+000
    endloop
  endfacet
  facet normal -7.227772e-001 6.910810e-001 0.000000e+000
    outer loop
      vertex   1.459750e+002 5.470000e+001 2.000000e+000
      vertex   1.459750e+002 5.470000e+001 -1.000000e+000
      vertex   1.458650e+002 5.458500e+001 2.000000e+000
    endloop
  endfacet
  facet normal -1.000000e+000 0.000000e+000 -0.000000e+000
    outer loop
      vertex   1.412000e+002 5.060000e+001 1.450000e+001
      vertex   1.412000e+002 5.110000e+001 3.000000e+001
      vertex   1.412000e+002 5.110000e+001 -1.000000e+000
    endloop
  endfacet
  facet normal -1.000000e+000 0.000000e+000 0.000000e+000
    outer loop
      vertex   1.412000e+002 5.060000e+001 1.450000e+001
      vertex   1.412000e+002 5.010000e+001 -1.000000e+000
      vertex   1.412000e+002 5.010000e+001 3.000000e+001
    endloop
  endfacet
  facet normal 0.000000e+000 0.000000e+000 1.000000e+000
    outer loop
      vertex   1.381570e+002 5.060000e+001 -1.000000e+000
      vertex   1.412000e+002 5.110000e+001 -1.000000e+000
      vertex   1.351140e+002 5.110000e+001 -1.000000e+000
    endloop
  endfacet
  facet normal 0.000000e+000 -0.000000e+000 1.000000e+000
    outer loop
      vertex   1.381570e+002 5.060000e+001 -1.000000e+000
      vertex   1.412000e+002 5.010000e+001 -1.000000e+000
      vertex   1.412000e+002 5.110000e+001 -1.000000e+000
    endloop
  endfacet
  facet normal 0.000000e+000 0.000000e+000 1.000000e+000
    outer loop
      vertex   1.381570e+002 5.060000e+001 -1.000000e+000
      vertex   1.351140e+002 5.010000e+001 -1.000000e+000
      vertex   1.412000e+002 5.010000e+001 -1.000000e+000
    endloop
  endfacet
  facet normal 0.000000e+000 0.000000e+000 1.000000e+000
    outer loop
      vertex   1.381570e+002 5.060000e+001 -1.000000e+000
      vertex   1.351140e+002 5.110000e+001 -1.000000e+000
      vertex   1.351140e+002 5.010000e+001 -1.000000e+000
    endloop
  endfacet
  facet normal -1.000000e+000 0.000000e+000 -0.000000e+000
    outer loop
      vertex   1.412000e+002 5.345000e+001 1.450000e+001
      vertex   1.412000e+002 5.370000e+001 3.000000e+001
      vertex   1.412000e+002 5.370000e+001 -1.000000e+000
    endloop
  endfacet
  facet normal -1.000000e+000 0.000000e+000 0.000000e+000
    outer loop
      vertex   1.412000e+002 5.060000e+001 1.450000e+001
      vertex   1.412000e+002 5.110000e+001 -1.000000e+000
      vertex   1.412000e+002 5.010000e+001 -1.000000e+000
    endloop
  endfacet
  facet normal -1.000000e+000 0.000000e+000 0.000000e+000
    outer loop
      vertex   1.412000e+002 5.345000e+001 1.450000e+001
      vertex   1.412000e+002 5.370000e+001 -1.000000e+000
      vertex   1.412000e+002 5.320000e+001 -1.000000e+000
    endloop
  endfacet
  facet normal -1.000000e+000 0.000000e+000 0.000000e+000
    outer loop
      vertex   1.412000e+002 5.345000e+001 1.450000e+001
      vertex   1.412000e+002 5.320000e+001 -1.000000e+000
      vertex   1.412000e+002 5.320000e+001 3.000000e+001
    endloop
  endfacet
  facet normal 1.000000e+000 -0.000000e+000 0.000000e+000
    outer loop
      vertex   1.491140e+002 5.470000e+001 7.000000e+000
      vertex   1.491140e+002 5.310000e+001 7.000000e+000
      vertex   1.491140e+002 5.470000e+001 -1.000000e+000
    endloop
  endfacet
  facet normal -7.071068e-001 7.071068e-001 0.000000e+000
    outer loop
      vertex   1.412000e+002 5.370000e+001 3.000000e+001
      vertex   1.415389e+002 5.403890e+001 2.000000e+000
      vertex   1.412000e+002 5.370000e+001 -1.000000e+000
    endloop
  endfacet
  facet normal -7.071068e-001 7.071068e-001 0.000000e+000
    outer loop
      vertex   1.415389e+002 5.403890e+001 2.000000e+000
      vertex   1.415389e+002 5.403890e+001 -1.000000e+000
      vertex   1.412000e+002 5.370000e+001 -1.000000e+000
    endloop
  endfacet
  facet normal 0.000000e+000 0.000000e+000 -1.000000e+000
    outer loop
      vertex   1.436613e+002 5.417074e+001 2.000000e+000
      vertex   1.458650e+002 5.458500e+001 2.000000e+000
      vertex   1.447111e+002 5.381400e+001 2.000000e+000
    endloop
  endfacet
  facet normal 0.000000e+000 0.000000e+000 -1.000000e+000
    outer loop
      vertex   1.436613e+002 5.417074e+001 2.000000e+000
      vertex   1.422000e+002 5.470000e+001 2.000000e+000
      vertex   1.459750e+002 5.470000e+001 2.000000e+000
    endloop
  endfacet
  facet normal 0.000000e+000 0.000000e+000 -1.000000e+000
    outer loop
      vertex   1.436613e+002 5.417074e+001 2.000000e+000
      vertex   1.459750e+002 5.470000e+001 2.000000e+000
      vertex   1.458650e+002 5.458500e+001 2.000000e+000
    endloop
  endfacet
  facet normal -7.071068e-001 7.071068e-001 0.000000e+000
    outer loop
      vertex   1.422000e+002 5.470000e+001 3.000000e+001
      vertex   1.422000e+002 5.470000e+001 2.000000e+000
      vertex   1.412000e+002 5.370000e+001 3.000000e+001
    endloop
  endfacet
  facet normal 0.000000e+000 1.000000e+000 0.000000e+000
    outer loop
      vertex   1.422000e+002 5.470000e+001 3.000000e+001
      vertex   1.491140e+002 5.470000e+001 7.000000e+000
      vertex   1.422000e+002 5.470000e+001 2.000000e+000
    endloop
  endfacet
  facet normal 0.000000e+000 1.000000e+000 -0.000000e+000
    outer loop
      vertex   1.491140e+002 5.470000e+001 7.000000e+000
      vertex   1.459750e+002 5.470000e+001 2.000000e+000
      vertex   1.422000e+002 5.470000e+001 2.000000e+000
    endloop
  endfacet
  facet normal -7.071068e-001 7.071068e-001 0.000000e+000
    outer loop
      vertex   1.412000e+002 5.370000e+001 3.000000e+001
      vertex   1.422000e+002 5.470000e+001 2.000000e+000
      vertex   1.415389e+002 5.403890e+001 2.000000e+000
    endloop
  endfacet
  facet normal 0.000000e+000 0.000000e+000 -1.000000e+000
    outer loop
      vertex   1.436613e+002 5.417074e+001 2.000000e+000
      vertex   1.415389e+002 5.403890e+001 2.000000e+000
      vertex   1.422000e+002 5.470000e+001 2.000000e+000
    endloop
  endfacet
  facet normal 0.000000e+000 0.000000e+000 -1.000000e+000
    outer loop
      vertex   1.436613e+002 5.417074e+001 2.000000e+000
      vertex   1.419889e+002 5.381400e+001 2.000000e+000
      vertex   1.415389e+002 5.403890e+001 2.000000e+000
    endloop
  endfacet
  facet normal 0.000000e+000 0.000000e+000 -1.000000e+000
    outer loop
      vertex   1.436613e+002 5.417074e+001 2.000000e+000
      vertex   1.433500e+002 5.354325e+001 2.000000e+000
      vertex   1.419889e+002 5.381400e+001 2.000000e+000
    endloop
  endfacet
  facet normal -0.000000e+000 0.000000e+000 -1.000000e+000
    outer loop
      vertex   1.436613e+002 5.417074e+001 2.000000e+000
      vertex   1.447111e+002 5.381400e+001 2.000000e+000
      vertex   1.433500e+002 5.354325e+001 2.000000e+000
    endloop
  endfacet
  facet normal 7.071068e-001 -7.071068e-001 0.000000e+000
    outer loop
      vertex   1.476140e+002 5.160000e+001 6.750000e+000
      vertex   1.491140e+002 5.310000e+001 7.000000e+000
      vertex   1.461140e+002 5.010000e+001 3.000000e+001
    endloop
  endfacet
  facet normal 0.000000e+000 1.000000e+000 0.000000e+000
    outer loop
      vertex   1.461140e+002 5.470000e+001 3.000000e+001
      vertex   1.491140e+002 5.470000e+001 7.000000e+000
      vertex   1.422000e+002 5.470000e+001 3.000000e+001
    endloop
  endfacet
  facet normal 9.916004e-001 0.000000e+000 1.293392e-001
    outer loop
      vertex   1.476140e+002 5.315000e+001 1.850000e+001
      vertex   1.461140e+002 5.010000e+001 3.000000e+001
      vertex   1.491140e+002 5.310000e+001 7.000000e+000
    endloop
  endfacet
  facet normal 9.916005e-001 -0.000000e+000 1.293392e-001
    outer loop
      vertex   1.476140e+002 5.315000e+001 1.850000e+001
      vertex   1.491140e+002 5.310000e+001 7.000000e+000
      vertex   1.491140e+002 5.470000e+001 7.000000e+000
    endloop
  endfacet
  facet normal 9.916004e-001 0.000000e+000 1.293392e-001
    outer loop
      vertex   1.476140e+002 5.315000e+001 1.850000e+001
      vertex   1.491140e+002 5.470000e+001 7.000000e+000
      vertex   1.461140e+002 5.470000e+001 3.000000e+001
    endloop
  endfacet
  facet normal -1.000000e+000 0.000000e+000 0.000000e+000
    outer loop
      vertex   1.437000e+002 5.215000e+001 1.350000e+001
      vertex   1.437000e+002 5.110000e+001 3.000000e+001
      vertex   1.437000e+002 5.320000e+001 3.000000e+001
    endloop
  endfacet
  facet normal -1.000000e+000 0.000000e+000 0.000000e+000
    outer loop
      vertex   1.412000e+002 5.345000e+001 1.450000e+001
      vertex   1.412000e+002 5.320000e+001 3.000000e+001
      vertex   1.412000e+002 5.370000e+001 3.000000e+001
    endloop
  endfacet
  facet normal -1.000000e+000 0.000000e+000 0.000000e+000
    outer loop
      vertex   1.412000e+002 5.060000e+001 1.450000e+001
      vertex   1.412000e+002 5.010000e+001 3.000000e+001
      vertex   1.412000e+002 5.110000e+001 3.000000e+001
    endloop
  endfacet
  facet normal 9.916003e-001 0.000000e+000 1.293392e-001
    outer loop
      vertex   1.476140e+002 5.315000e+001 1.850000e+001
      vertex   1.461140e+002 5.470000e+001 3.000000e+001
      vertex   1.461140e+002 5.010000e+001 3.000000e+001
    endloop
  endfacet
  facet normal 0.000000e+000 0.000000e+000 1.000000e+000
    outer loop
      vertex   1.437000e+002 5.320000e+001 3.000000e+001
      vertex   1.412000e+002 5.370000e+001 3.000000e+001
      vertex   1.412000e+002 5.320000e+001 3.000000e+001
    endloop
  endfacet
  facet normal -0.000000e+000 0.000000e+000 1.000000e+000
    outer loop
      vertex   1.422000e+002 5.470000e+001 3.000000e+001
      vertex   1.412000e+002 5.370000e+001 3.000000e+001
      vertex   1.437000e+002 5.320000e+001 3.000000e+001
    endloop
  endfacet
  facet normal -0.000000e+000 0.000000e+000 1.000000e+000
    outer loop
      vertex   1.437000e+002 5.110000e+001 3.000000e+001
      vertex   1.412000e+002 5.110000e+001 3.000000e+001
      vertex   1.412000e+002 5.010000e+001 3.000000e+001
    endloop
  endfacet
  facet normal -0.000000e+000 0.000000e+000 1.000000e+000
    outer loop
      vertex   1.461140e+002 5.470000e+001 3.000000e+001
      vertex   1.437000e+002 5.320000e+001 3.000000e+001
      vertex   1.461140e+002 5.010000e+001 3.000000e+001
    endloop
  endfacet
  facet normal 0.000000e+000 0.000000e+000 1.000000e+000
    outer loop
      vertex   1.461140e+002 5.010000e+001 3.000000e+001
      vertex   1.437000e+002 5.110000e+001 3.000000e+001
      vertex   1.412000e+002 5.010000e+001 3.000000e+001
    endloop
  endfacet
  facet normal -0.000000e+000 0.000000e+000 1.000000e+000
    outer loop
      vertex   1.461140e+002 5.470000e+001 3.000000e+001
      vertex   1.422000e+002 5.470000e+001 3.000000e+001
      vertex   1.437000e+002 5.320000e+001 3.000000e+001
    endloop
  endfacet
  facet normal -0.000000e+000 0.000000e+000 1.000000e+000
    outer loop
      vertex   1.437000e+002 5.320000e+001 3.000000e+001
      vertex   1.437000e+002 5.110000e+001 3.000000e+001
      vertex   1.461140e+002 5.010000e+001 3.000000e+001
    endloop
  endfacet
endsolid
