solid ascii
  facet normal 9.659258e-001 2.588193e-001 -0.000000e+000
    outer loop
      vertex   2.868681e+001 7.338734e+001 1.750000e+001
      vertex   2.700449e+001 7.966586e+001 1.650000e+001
      vertex   2.700449e+001 7.966586e+001 1.850000e+001
    endloop
  endfacet
  facet normal -9.659258e-001 -2.588191e-001 1.379770e-006
    outer loop
      vertex   1.022998e+001 9.235986e+001 1.750000e+001
      vertex   8.262177e+000 9.970380e+001 1.650000e+001
      vertex   1.219779e+001 8.501590e+001 1.650000e+001
    endloop
  endfacet
  facet normal 7.071066e-001 7.071070e-001 1.989968e-006
    outer loop
      vertex   2.385575e+001 1.098153e+002 1.750000e+001
      vertex   2.546540e+001 1.082057e+002 1.650000e+001
      vertex   2.224609e+001 1.114250e+002 1.650000e+001
    endloop
  endfacet
  facet normal 0.000000e+000 0.000000e+000 -1.000000e+000
    outer loop
      vertex   2.224609e+001 1.114250e+002 1.650000e+001
      vertex   2.546540e+001 1.082057e+002 1.650000e+001
      vertex   1.880926e+001 1.102509e+002 1.650000e+001
    endloop
  endfacet
  facet normal 0.000000e+000 0.000000e+000 -1.000000e+000
    outer loop
      vertex   2.546540e+001 1.082057e+002 1.650000e+001
      vertex   3.270345e+001 8.119289e+001 1.650000e+001
      vertex   1.880926e+001 1.102509e+002 1.650000e+001
    endloop
  endfacet
  facet normal 0.000000e+000 0.000000e+000 -1.000000e+000
    outer loop
      vertex   1.880926e+001 1.102509e+002 1.650000e+001
      vertex   3.270345e+001 8.119289e+001 1.650000e+001
      vertex   8.262177e+000 9.970380e+001 1.650000e+001
    endloop
  endfacet
  facet normal 0.000000e+000 0.000000e+000 -1.000000e+000
    outer loop
      vertex   3.270345e+001 8.119289e+001 1.650000e+001
      vertex   2.700449e+001 7.966586e+001 1.650000e+001
      vertex   8.262177e+000 9.970380e+001 1.650000e+001
    endloop
  endfacet
  facet normal 2.588200e-001 -9.659256e-001 0.000000e+000
    outer loop
      vertex   2.985397e+001 8.042937e+001 1.750000e+001
      vertex   2.700449e+001 7.966586e+001 1.850000e+001
      vertex   2.700449e+001 7.966586e+001 1.650000e+001
    endloop
  endfacet
  facet normal 2.588198e-001 -9.659256e-001 0.000000e+000
    outer loop
      vertex   2.985397e+001 8.042937e+001 1.750000e+001
      vertex   3.270345e+001 8.119289e+001 1.650000e+001
      vertex   3.270345e+001 8.119289e+001 1.850000e+001
    endloop
  endfacet
  facet normal 2.588199e-001 -9.659256e-001 2.424594e-007
    outer loop
      vertex   2.985397e+001 8.042937e+001 1.750000e+001
      vertex   2.700449e+001 7.966586e+001 1.650000e+001
      vertex   3.270345e+001 8.119289e+001 1.650000e+001
    endloop
  endfacet
  facet normal 0.000000e+000 0.000000e+000 -1.000000e+000
    outer loop
      vertex   8.262177e+000 9.970380e+001 1.650000e+001
      vertex   2.700449e+001 7.966586e+001 1.650000e+001
      vertex   1.219779e+001 8.501590e+001 1.650000e+001
    endloop
  endfacet
  facet normal 0.000000e+000 0.000000e+000 -1.000000e+000
    outer loop
      vertex   2.700449e+001 7.966586e+001 1.650000e+001
      vertex   3.036914e+001 6.710883e+001 1.650000e+001
      vertex   1.663069e+001 8.206259e+001 1.650000e+001
    endloop
  endfacet
  facet normal -9.659259e-001 -2.588188e-001 -0.000000e+000
    outer loop
      vertex   1.896006e+001 7.336926e+001 1.750000e+001
      vertex   1.663069e+001 8.206259e+001 1.850000e+001
      vertex   1.663069e+001 8.206259e+001 1.650000e+001
    endloop
  endfacet
  facet normal 0.000000e+000 0.000000e+000 -1.000000e+000
    outer loop
      vertex   2.700449e+001 7.966586e+001 1.650000e+001
      vertex   1.663069e+001 8.206259e+001 1.650000e+001
      vertex   1.219779e+001 8.501590e+001 1.650000e+001
    endloop
  endfacet
  facet normal -0.000000e+000 0.000000e+000 -1.000000e+000
    outer loop
      vertex   1.663069e+001 8.206259e+001 1.650000e+001
      vertex   3.036914e+001 6.710883e+001 1.650000e+001
      vertex   2.128943e+001 6.467593e+001 1.650000e+001
    endloop
  endfacet
  facet normal -5.544455e-001 -8.322200e-001 -0.000000e+000
    outer loop
      vertex   1.441424e+001 8.353925e+001 1.750000e+001
      vertex   1.219779e+001 8.501590e+001 1.850000e+001
      vertex   1.219779e+001 8.501590e+001 1.650000e+001
    endloop
  endfacet
  facet normal -3.232795e-001 9.463035e-001 0.000000e+000
    outer loop
      vertex   2.052767e+001 1.108379e+002 1.750000e+001
      vertex   1.880926e+001 1.102509e+002 1.650000e+001
      vertex   1.880926e+001 1.102509e+002 1.850000e+001
    endloop
  endfacet
  facet normal -9.659258e-001 -2.588193e-001 0.000000e+000
    outer loop
      vertex   1.896006e+001 7.336926e+001 1.750000e+001
      vertex   2.128943e+001 6.467593e+001 1.650000e+001
      vertex   2.128943e+001 6.467593e+001 1.850000e+001
    endloop
  endfacet
  facet normal -9.659259e-001 -2.588190e-001 -1.907349e-006
    outer loop
      vertex   1.896006e+001 7.336926e+001 1.750000e+001
      vertex   1.663069e+001 8.206259e+001 1.650000e+001
      vertex   2.128943e+001 6.467593e+001 1.650000e+001
    endloop
  endfacet
  facet normal -5.544453e-001 -8.322202e-001 0.000000e+000
    outer loop
      vertex   1.441424e+001 8.353925e+001 1.750000e+001
      vertex   1.663069e+001 8.206259e+001 1.650000e+001
      vertex   1.663069e+001 8.206259e+001 1.850000e+001
    endloop
  endfacet
  facet normal 7.071059e-001 7.071076e-001 0.000000e+000
    outer loop
      vertex   2.385575e+001 1.098153e+002 1.750000e+001
      vertex   2.546540e+001 1.082057e+002 1.850000e+001
      vertex   2.546540e+001 1.082057e+002 1.650000e+001
    endloop
  endfacet
  facet normal 9.659258e-001 2.588192e-001 0.000000e+000
    outer loop
      vertex   2.882240e+001 9.567716e+001 1.783333e+001
      vertex   3.270345e+001 8.119289e+001 1.850000e+001
      vertex   3.270345e+001 8.119289e+001 1.650000e+001
    endloop
  endfacet
  facet normal -9.659259e-001 -2.588189e-001 0.000000e+000
    outer loop
      vertex   1.022998e+001 9.235986e+001 1.750000e+001
      vertex   1.219779e+001 8.501590e+001 1.650000e+001
      vertex   1.219779e+001 8.501590e+001 1.850000e+001
    endloop
  endfacet
  facet normal 2.588198e-001 -9.659256e-001 0.000000e+000
    outer loop
      vertex   2.582928e+001 6.589237e+001 1.750000e+001
      vertex   3.036914e+001 6.710883e+001 1.650000e+001
      vertex   3.036914e+001 6.710883e+001 1.850000e+001
    endloop
  endfacet
  facet normal -9.659258e-001 -2.588193e-001 -0.000000e+000
    outer loop
      vertex   1.022998e+001 9.235986e+001 1.750000e+001
      vertex   8.262177e+000 9.970380e+001 1.850000e+001
      vertex   8.262177e+000 9.970380e+001 1.650000e+001
    endloop
  endfacet
  facet normal -5.544454e-001 -8.322201e-001 -2.685600e-007
    outer loop
      vertex   1.441424e+001 8.353925e+001 1.750000e+001
      vertex   1.219779e+001 8.501590e+001 1.650000e+001
      vertex   1.663069e+001 8.206259e+001 1.650000e+001
    endloop
  endfacet
  facet normal -3.232754e-001 9.463049e-001 0.000000e+000
    outer loop
      vertex   2.052767e+001 1.108379e+002 1.750000e+001
      vertex   2.224609e+001 1.114250e+002 1.850000e+001
      vertex   2.224609e+001 1.114250e+002 1.650000e+001
    endloop
  endfacet
  facet normal -7.071066e-001 7.071069e-001 0.000000e+000
    outer loop
      vertex   1.353572e+001 1.049773e+002 2.200000e+001
      vertex   1.880926e+001 1.102509e+002 1.850000e+001
      vertex   1.880926e+001 1.102509e+002 1.650000e+001
    endloop
  endfacet
  facet normal 2.588191e-001 -9.659258e-001 -3.449460e-006
    outer loop
      vertex   2.582928e+001 6.589237e+001 1.750000e+001
      vertex   2.128943e+001 6.467593e+001 1.650000e+001
      vertex   3.036914e+001 6.710883e+001 1.650000e+001
    endloop
  endfacet
  facet normal -3.232775e-001 9.463042e-001 -3.938796e-006
    outer loop
      vertex   2.052767e+001 1.108379e+002 1.750000e+001
      vertex   2.224609e+001 1.114250e+002 1.650000e+001
      vertex   1.880926e+001 1.102509e+002 1.650000e+001
    endloop
  endfacet
  facet normal 2.588184e-001 -9.659260e-001 0.000000e+000
    outer loop
      vertex   2.582928e+001 6.589237e+001 1.750000e+001
      vertex   2.128943e+001 6.467593e+001 1.850000e+001
      vertex   2.128943e+001 6.467593e+001 1.650000e+001
    endloop
  endfacet
  facet normal 7.071072e-001 7.071064e-001 -0.000000e+000
    outer loop
      vertex   2.385575e+001 1.098153e+002 1.750000e+001
      vertex   2.224609e+001 1.114250e+002 1.650000e+001
      vertex   2.224609e+001 1.114250e+002 1.850000e+001
    endloop
  endfacet
  facet normal 9.659258e-001 2.588193e-001 0.000000e+000
    outer loop
      vertex   2.868681e+001 7.338734e+001 1.750000e+001
      vertex   3.036914e+001 6.710883e+001 1.650000e+001
      vertex   2.700449e+001 7.966586e+001 1.650000e+001
    endloop
  endfacet
  facet normal 9.659258e-001 2.588193e-001 0.000000e+000
    outer loop
      vertex   2.868681e+001 7.338734e+001 1.750000e+001
      vertex   3.036914e+001 6.710883e+001 1.850000e+001
      vertex   3.036914e+001 6.710883e+001 1.650000e+001
    endloop
  endfacet
  facet normal -7.071071e-001 7.071064e-001 0.000000e+000
    outer loop
      vertex   1.353572e+001 1.049773e+002 2.200000e+001
      vertex   8.262177e+000 9.970380e+001 1.650000e+001
      vertex   8.262177e+000 9.970380e+001 1.850000e+001
    endloop
  endfacet
  facet normal -7.071068e-001 7.071066e-001 -5.114967e-007
    outer loop
      vertex   1.353572e+001 1.049773e+002 2.200000e+001
      vertex   1.880926e+001 1.102509e+002 1.650000e+001
      vertex   8.262177e+000 9.970380e+001 1.650000e+001
    endloop
  endfacet
  facet normal 9.659258e-001 2.588191e-001 8.184377e-007
    outer loop
      vertex   2.882240e+001 9.567716e+001 1.783333e+001
      vertex   3.270345e+001 8.119289e+001 1.650000e+001
      vertex   2.546540e+001 1.082057e+002 1.650000e+001
    endloop
  endfacet
  facet normal 9.659259e-001 2.588190e-001 -0.000000e+000
    outer loop
      vertex   2.882240e+001 9.567716e+001 1.783333e+001
      vertex   2.546540e+001 1.082057e+002 1.650000e+001
      vertex   2.546540e+001 1.082057e+002 1.850000e+001
    endloop
  endfacet
  facet normal -9.659258e-001 -2.588191e-001 -1.379770e-006
    outer loop
      vertex   1.022998e+001 9.235986e+001 1.750000e+001
      vertex   1.219779e+001 8.501590e+001 1.850000e+001
      vertex   8.262177e+000 9.970380e+001 1.850000e+001
    endloop
  endfacet
  facet normal -5.544454e-001 -8.322201e-001 2.685600e-007
    outer loop
      vertex   1.441424e+001 8.353925e+001 1.750000e+001
      vertex   1.663069e+001 8.206259e+001 1.850000e+001
      vertex   1.219779e+001 8.501590e+001 1.850000e+001
    endloop
  endfacet
  facet normal -3.232775e-001 9.463042e-001 3.938796e-006
    outer loop
      vertex   2.052767e+001 1.108379e+002 1.750000e+001
      vertex   1.880926e+001 1.102509e+002 1.850000e+001
      vertex   2.224609e+001 1.114250e+002 1.850000e+001
    endloop
  endfacet
  facet normal 2.588191e-001 -9.659258e-001 3.449460e-006
    outer loop
      vertex   2.582928e+001 6.589237e+001 1.750000e+001
      vertex   3.036914e+001 6.710883e+001 1.850000e+001
      vertex   2.128943e+001 6.467593e+001 1.850000e+001
    endloop
  endfacet
  facet normal 7.071066e-001 7.071070e-001 -1.989968e-006
    outer loop
      vertex   2.385575e+001 1.098153e+002 1.750000e+001
      vertex   2.224609e+001 1.114250e+002 1.850000e+001
      vertex   2.546540e+001 1.082057e+002 1.850000e+001
    endloop
  endfacet
  facet normal 9.659258e-001 2.588193e-001 0.000000e+000
    outer loop
      vertex   2.868681e+001 7.338734e+001 1.750000e+001
      vertex   2.700449e+001 7.966586e+001 1.850000e+001
      vertex   3.036914e+001 6.710883e+001 1.850000e+001
    endloop
  endfacet
  facet normal -9.659259e-001 -2.588190e-001 1.907349e-006
    outer loop
      vertex   1.896006e+001 7.336926e+001 1.750000e+001
      vertex   2.128943e+001 6.467593e+001 1.850000e+001
      vertex   1.663069e+001 8.206259e+001 1.850000e+001
    endloop
  endfacet
  facet normal 2.588199e-001 -9.659256e-001 -2.424594e-007
    outer loop
      vertex   2.985397e+001 8.042937e+001 1.750000e+001
      vertex   3.270345e+001 8.119289e+001 1.850000e+001
      vertex   2.700449e+001 7.966586e+001 1.850000e+001
    endloop
  endfacet
  facet normal 9.659258e-001 2.588192e-001 2.155022e-007
    outer loop
      vertex   2.882240e+001 9.567716e+001 1.783333e+001
      vertex   2.840832e+001 9.722253e+001 1.850000e+001
      vertex   3.270345e+001 8.119289e+001 1.850000e+001
    endloop
  endfacet
  facet normal 9.659259e-001 2.588190e-001 5.438777e-007
    outer loop
      vertex   2.882240e+001 9.567716e+001 1.783333e+001
      vertex   2.546540e+001 1.082057e+002 1.850000e+001
      vertex   2.818839e+001 9.804332e+001 1.850000e+001
    endloop
  endfacet
  facet normal 9.659259e-001 2.588190e-001 8.417360e-007
    outer loop
      vertex   2.882240e+001 9.567716e+001 1.783333e+001
      vertex   2.818839e+001 9.804332e+001 1.850000e+001
      vertex   2.840832e+001 9.722253e+001 1.850000e+001
    endloop
  endfacet
  facet normal 7.071066e-001 -7.071070e-001 0.000000e+000
    outer loop
      vertex   1.466709e+001 1.038460e+002 2.375000e+001
      vertex   1.994063e+001 1.091195e+002 1.850000e+001
      vertex   1.994063e+001 1.091195e+002 2.900000e+001
    endloop
  endfacet
  facet normal 7.071066e-001 -7.071070e-001 0.000000e+000
    outer loop
      vertex   1.466709e+001 1.038460e+002 2.375000e+001
      vertex   9.393547e+000 9.857244e+001 2.900000e+001
      vertex   9.393547e+000 9.857244e+001 1.850000e+001
    endloop
  endfacet
  facet normal 7.071066e-001 -7.071070e-001 0.000000e+000
    outer loop
      vertex   1.466709e+001 1.038460e+002 2.375000e+001
      vertex   9.393547e+000 9.857244e+001 1.850000e+001
      vertex   1.994063e+001 1.091195e+002 1.850000e+001
    endloop
  endfacet
  facet normal 5.000016e-001 4.999981e-001 -7.071070e-001
    outer loop
      vertex   2.874610e+001 9.861698e+001 1.930000e+001
      vertex   2.818839e+001 9.804332e+001 1.850000e+001
      vertex   2.764809e+001 9.858363e+001 1.850000e+001
    endloop
  endfacet
  facet normal 5.000015e-001 4.999983e-001 -7.071069e-001
    outer loop
      vertex   2.874610e+001 9.861698e+001 1.930000e+001
      vertex   2.764809e+001 9.858363e+001 1.850000e+001
      vertex   2.906230e+001 9.999784e+001 2.050000e+001
    endloop
  endfacet
  facet normal 7.071069e-001 -7.071066e-001 0.000000e+000
    outer loop
      vertex   2.608579e+001 9.490001e+001 2.300000e+001
      vertex   1.957589e+001 8.839010e+001 3.100000e+001
      vertex   1.957589e+001 8.839010e+001 1.850000e+001
    endloop
  endfacet
  facet normal 4.999992e-001 5.000007e-001 -7.071069e-001
    outer loop
      vertex   2.874610e+001 9.861698e+001 1.930000e+001
      vertex   3.012296e+001 9.893718e+001 2.050000e+001
      vertex   2.870875e+001 9.752296e+001 1.850000e+001
    endloop
  endfacet
  facet normal 7.071070e-001 -7.071065e-001 3.049417e-007
    outer loop
      vertex   2.608579e+001 9.490001e+001 2.300000e+001
      vertex   2.870875e+001 9.752296e+001 1.850000e+001
      vertex   3.012296e+001 9.893718e+001 2.050000e+001
    endloop
  endfacet
  facet normal 7.071090e-001 -7.071046e-001 2.618723e-006
    outer loop
      vertex   2.608579e+001 9.490001e+001 2.300000e+001
      vertex   2.840832e+001 9.722253e+001 1.850000e+001
      vertex   2.870875e+001 9.752296e+001 1.850000e+001
    endloop
  endfacet
  facet normal 4.999989e-001 5.000008e-001 -7.071071e-001
    outer loop
      vertex   2.874610e+001 9.861698e+001 1.930000e+001
      vertex   2.870875e+001 9.752296e+001 1.850000e+001
      vertex   2.818839e+001 9.804332e+001 1.850000e+001
    endloop
  endfacet
  facet normal 7.071068e-001 -7.071068e-001 3.393299e-007
    outer loop
      vertex   2.608579e+001 9.490001e+001 2.300000e+001
      vertex   1.957589e+001 8.839010e+001 1.850000e+001
      vertex   2.840832e+001 9.722253e+001 1.850000e+001
    endloop
  endfacet
  facet normal 0.000000e+000 0.000000e+000 -1.000000e+000
    outer loop
      vertex   2.843515e+001 9.759628e+001 1.850000e+001
      vertex   2.818839e+001 9.804332e+001 1.850000e+001
      vertex   2.870875e+001 9.752296e+001 1.850000e+001
    endloop
  endfacet
  facet normal -0.000000e+000 0.000000e+000 -1.000000e+000
    outer loop
      vertex   2.843515e+001 9.759628e+001 1.850000e+001
      vertex   2.870875e+001 9.752296e+001 1.850000e+001
      vertex   2.840832e+001 9.722253e+001 1.850000e+001
    endloop
  endfacet
  facet normal -0.000000e+000 0.000000e+000 1.000000e+000
    outer loop
      vertex   2.224609e+001 1.114250e+002 1.850000e+001
      vertex   1.880926e+001 1.102509e+002 1.850000e+001
      vertex   2.546540e+001 1.082057e+002 1.850000e+001
    endloop
  endfacet
  facet normal 0.000000e+000 0.000000e+000 1.000000e+000
    outer loop
      vertex   2.546540e+001 1.082057e+002 1.850000e+001
      vertex   1.994063e+001 1.091195e+002 1.850000e+001
      vertex   2.818839e+001 9.804332e+001 1.850000e+001
    endloop
  endfacet
  facet normal 0.000000e+000 -0.000000e+000 1.000000e+000
    outer loop
      vertex   1.663069e+001 8.206259e+001 1.850000e+001
      vertex   2.128943e+001 6.467593e+001 1.850000e+001
      vertex   3.036914e+001 6.710883e+001 1.850000e+001
    endloop
  endfacet
  facet normal 0.000000e+000 0.000000e+000 -1.000000e+000
    outer loop
      vertex   2.843515e+001 9.759628e+001 1.850000e+001
      vertex   2.840832e+001 9.722253e+001 1.850000e+001
      vertex   2.818839e+001 9.804332e+001 1.850000e+001
    endloop
  endfacet
  facet normal 7.071068e-001 7.071068e-001 0.000000e+000
    outer loop
      vertex   1.880926e+001 1.102509e+002 3.100000e+001
      vertex   1.994063e+001 1.091195e+002 2.900000e+001
      vertex   1.880926e+001 1.102509e+002 1.850000e+001
    endloop
  endfacet
  facet normal 7.071068e-001 7.071068e-001 -0.000000e+000
    outer loop
      vertex   1.994063e+001 1.091195e+002 2.900000e+001
      vertex   1.994063e+001 1.091195e+002 1.850000e+001
      vertex   1.880926e+001 1.102509e+002 1.850000e+001
    endloop
  endfacet
  facet normal -7.071068e-001 -7.071068e-001 0.000000e+000
    outer loop
      vertex   1.957589e+001 8.839010e+001 3.100000e+001
      vertex   1.851522e+001 8.945076e+001 2.900000e+001
      vertex   1.957589e+001 8.839010e+001 1.850000e+001
    endloop
  endfacet
  facet normal 0.000000e+000 -0.000000e+000 1.000000e+000
    outer loop
      vertex   9.393547e+000 9.857244e+001 1.850000e+001
      vertex   1.219779e+001 8.501590e+001 1.850000e+001
      vertex   1.851522e+001 8.945076e+001 1.850000e+001
    endloop
  endfacet
  facet normal -7.071071e-001 7.071065e-001 0.000000e+000
    outer loop
      vertex   1.353572e+001 1.049773e+002 2.200000e+001
      vertex   8.262177e+000 9.970380e+001 1.850000e+001
      vertex   8.262177e+000 9.970380e+001 3.100000e+001
    endloop
  endfacet
  facet normal 0.000000e+000 0.000000e+000 1.000000e+000
    outer loop
      vertex   2.546540e+001 1.082057e+002 1.850000e+001
      vertex   1.880926e+001 1.102509e+002 1.850000e+001
      vertex   1.994063e+001 1.091195e+002 1.850000e+001
    endloop
  endfacet
  facet normal -7.071066e-001 7.071070e-001 0.000000e+000
    outer loop
      vertex   1.353572e+001 1.049773e+002 2.200000e+001
      vertex   1.880926e+001 1.102509e+002 3.100000e+001
      vertex   1.880926e+001 1.102509e+002 1.850000e+001
    endloop
  endfacet
  facet normal 0.000000e+000 0.000000e+000 1.000000e+000
    outer loop
      vertex   1.851522e+001 8.945076e+001 1.850000e+001
      vertex   1.219779e+001 8.501590e+001 1.850000e+001
      vertex   1.957589e+001 8.839010e+001 1.850000e+001
    endloop
  endfacet
  facet normal -0.000000e+000 0.000000e+000 1.000000e+000
    outer loop
      vertex   1.957589e+001 8.839010e+001 1.850000e+001
      vertex   1.219779e+001 8.501590e+001 1.850000e+001
      vertex   2.700449e+001 7.966586e+001 1.850000e+001
    endloop
  endfacet
  facet normal -7.071068e-001 -7.071068e-001 0.000000e+000
    outer loop
      vertex   1.851522e+001 8.945076e+001 2.900000e+001
      vertex   1.851522e+001 8.945076e+001 1.850000e+001
      vertex   1.957589e+001 8.839010e+001 1.850000e+001
    endloop
  endfacet
  facet normal 0.000000e+000 0.000000e+000 1.000000e+000
    outer loop
      vertex   2.700449e+001 7.966586e+001 1.850000e+001
      vertex   1.663069e+001 8.206259e+001 1.850000e+001
      vertex   3.036914e+001 6.710883e+001 1.850000e+001
    endloop
  endfacet
  facet normal 0.000000e+000 0.000000e+000 1.000000e+000
    outer loop
      vertex   2.700449e+001 7.966586e+001 1.850000e+001
      vertex   1.219779e+001 8.501590e+001 1.850000e+001
      vertex   1.663069e+001 8.206259e+001 1.850000e+001
    endloop
  endfacet
  facet normal -7.071044e-001 -7.071092e-001 0.000000e+000
    outer loop
      vertex   8.262177e+000 9.970380e+001 3.100000e+001
      vertex   8.262177e+000 9.970380e+001 1.850000e+001
      vertex   9.393547e+000 9.857244e+001 2.900000e+001
    endloop
  endfacet
  facet normal -7.071044e-001 -7.071092e-001 0.000000e+000
    outer loop
      vertex   9.393547e+000 9.857244e+001 2.900000e+001
      vertex   8.262177e+000 9.970380e+001 1.850000e+001
      vertex   9.393547e+000 9.857244e+001 1.850000e+001
    endloop
  endfacet
  facet normal 0.000000e+000 0.000000e+000 1.000000e+000
    outer loop
      vertex   3.270345e+001 8.119289e+001 1.850000e+001
      vertex   1.957589e+001 8.839010e+001 1.850000e+001
      vertex   2.700449e+001 7.966586e+001 1.850000e+001
    endloop
  endfacet
  facet normal -0.000000e+000 0.000000e+000 1.000000e+000
    outer loop
      vertex   2.764809e+001 9.858363e+001 1.850000e+001
      vertex   9.393547e+000 9.857244e+001 1.850000e+001
      vertex   1.851522e+001 8.945076e+001 1.850000e+001
    endloop
  endfacet
  facet normal 0.000000e+000 0.000000e+000 1.000000e+000
    outer loop
      vertex   1.994063e+001 1.091195e+002 1.850000e+001
      vertex   9.393547e+000 9.857244e+001 1.850000e+001
      vertex   2.764809e+001 9.858363e+001 1.850000e+001
    endloop
  endfacet
  facet normal 0.000000e+000 0.000000e+000 1.000000e+000
    outer loop
      vertex   8.262177e+000 9.970380e+001 1.850000e+001
      vertex   1.219779e+001 8.501590e+001 1.850000e+001
      vertex   9.393547e+000 9.857244e+001 1.850000e+001
    endloop
  endfacet
  facet normal -0.000000e+000 -0.000000e+000 1.000000e+000
    outer loop
      vertex   1.994063e+001 1.091195e+002 1.850000e+001
      vertex   2.764809e+001 9.858363e+001 1.850000e+001
      vertex   2.818839e+001 9.804332e+001 1.850000e+001
    endloop
  endfacet
  facet normal -0.000000e+000 0.000000e+000 1.000000e+000
    outer loop
      vertex   2.840832e+001 9.722253e+001 1.850000e+001
      vertex   1.957589e+001 8.839010e+001 1.850000e+001
      vertex   3.270345e+001 8.119289e+001 1.850000e+001
    endloop
  endfacet
  facet normal -7.071071e-001 7.071064e-001 -1.861330e-007
    outer loop
      vertex   2.456063e+001 9.549616e+001 2.310000e+001
      vertex   2.906230e+001 9.999784e+001 2.050000e+001
      vertex   2.764809e+001 9.858363e+001 1.850000e+001
    endloop
  endfacet
  facet normal -7.071068e-001 7.071068e-001 2.889300e-007
    outer loop
      vertex   2.456063e+001 9.549616e+001 2.310000e+001
      vertex   2.764809e+001 9.858363e+001 1.850000e+001
      vertex   1.851522e+001 8.945076e+001 1.850000e+001
    endloop
  endfacet
  facet normal -7.071066e-001 7.071069e-001 0.000000e+000
    outer loop
      vertex   2.456063e+001 9.549616e+001 2.310000e+001
      vertex   1.851522e+001 8.945076e+001 1.850000e+001
      vertex   1.851522e+001 8.945076e+001 2.900000e+001
    endloop
  endfacet
  facet normal 4.999999e-001 4.999991e-001 -7.071075e-001
    outer loop
      vertex   2.874610e+001 9.861698e+001 1.930000e+001
      vertex   2.906230e+001 9.999784e+001 2.050000e+001
      vertex   3.012296e+001 9.893718e+001 2.050000e+001
    endloop
  endfacet
  facet normal -7.071071e-001 7.071065e-001 0.000000e+000
    outer loop
      vertex   2.456063e+001 9.549616e+001 2.310000e+001
      vertex   2.906230e+001 9.999784e+001 2.900000e+001
      vertex   2.906230e+001 9.999784e+001 2.050000e+001
    endloop
  endfacet
  facet normal 7.071069e-001 -7.071066e-001 0.000000e+000
    outer loop
      vertex   2.608579e+001 9.490001e+001 2.300000e+001
      vertex   3.012296e+001 9.893718e+001 2.050000e+001
      vertex   3.012296e+001 9.893718e+001 3.100000e+001
    endloop
  endfacet
  facet normal 7.071074e-001 7.071061e-001 0.000000e+000
    outer loop
      vertex   2.906230e+001 9.999784e+001 2.900000e+001
      vertex   3.012296e+001 9.893718e+001 2.050000e+001
      vertex   2.906230e+001 9.999784e+001 2.050000e+001
    endloop
  endfacet
  facet normal 7.071074e-001 7.071062e-001 -0.000000e+000
    outer loop
      vertex   3.012296e+001 9.893718e+001 3.100000e+001
      vertex   3.012296e+001 9.893718e+001 2.050000e+001
      vertex   2.906230e+001 9.999784e+001 2.900000e+001
    endloop
  endfacet
  facet normal -7.071068e-001 7.071067e-001 2.841648e-007
    outer loop
      vertex   1.353572e+001 1.049773e+002 2.200000e+001
      vertex   8.262177e+000 9.970380e+001 3.100000e+001
      vertex   1.880926e+001 1.102509e+002 3.100000e+001
    endloop
  endfacet
  facet normal 7.071069e-001 -7.071066e-001 6.393709e-008
    outer loop
      vertex   2.608579e+001 9.490001e+001 2.300000e+001
      vertex   3.012296e+001 9.893718e+001 3.100000e+001
      vertex   1.957589e+001 8.839010e+001 3.100000e+001
    endloop
  endfacet
  facet normal -7.071068e-001 7.071067e-001 -3.901246e-007
    outer loop
      vertex   2.456063e+001 9.549616e+001 2.310000e+001
      vertex   1.851522e+001 8.945076e+001 2.900000e+001
      vertex   2.906230e+001 9.999784e+001 2.900000e+001
    endloop
  endfacet
  facet normal 7.071066e-001 -7.071070e-001 0.000000e+000
    outer loop
      vertex   1.466709e+001 1.038460e+002 2.375000e+001
      vertex   1.994063e+001 1.091195e+002 2.900000e+001
      vertex   9.393547e+000 9.857244e+001 2.900000e+001
    endloop
  endfacet
  facet normal -6.532819e-001 6.532812e-001 -3.826833e-001
    outer loop
      vertex   2.353876e+001 9.497430e+001 2.985355e+001
      vertex   2.856230e+001 1.004978e+002 3.070711e+001
      vertex   2.906230e+001 9.999784e+001 2.900000e+001
    endloop
  endfacet
  facet normal -6.532825e-001 6.532824e-001 -3.826802e-001
    outer loop
      vertex   2.353876e+001 9.497430e+001 2.985355e+001
      vertex   2.906230e+001 9.999784e+001 2.900000e+001
      vertex   1.851522e+001 8.945076e+001 2.900000e+001
    endloop
  endfacet
  facet normal -6.532813e-001 6.532817e-001 -3.826833e-001
    outer loop
      vertex   2.353876e+001 9.497430e+001 2.985355e+001
      vertex   1.851522e+001 8.945076e+001 2.900000e+001
      vertex   1.801522e+001 8.995076e+001 3.070711e+001
    endloop
  endfacet
  facet normal 6.532808e-001 -6.532807e-001 -3.826858e-001
    outer loop
      vertex   1.491709e+001 1.035960e+002 2.985355e+001
      vertex   9.893547e+000 9.807243e+001 3.070711e+001
      vertex   9.393547e+000 9.857244e+001 2.900000e+001
    endloop
  endfacet
  facet normal 6.532813e-001 -6.532817e-001 -3.826832e-001
    outer loop
      vertex   1.491709e+001 1.035960e+002 2.985355e+001
      vertex   9.393547e+000 9.857244e+001 2.900000e+001
      vertex   1.994063e+001 1.091195e+002 2.900000e+001
    endloop
  endfacet
  facet normal 6.532813e-001 -6.532817e-001 -3.826833e-001
    outer loop
      vertex   1.491709e+001 1.035960e+002 2.985355e+001
      vertex   1.994063e+001 1.091195e+002 2.900000e+001
      vertex   2.044063e+001 1.086195e+002 3.070711e+001
    endloop
  endfacet
  facet normal -7.071071e-001 -7.071065e-001 -3.004972e-006
    outer loop
      vertex   8.262177e+000 9.970380e+001 3.100000e+001
      vertex   9.393547e+000 9.857244e+001 2.900000e+001
      vertex   9.893547e+000 9.807243e+001 3.070711e+001
    endloop
  endfacet
  facet normal -7.071068e-001 -7.071068e-001 0.000000e+000
    outer loop
      vertex   1.957589e+001 8.839010e+001 3.100000e+001
      vertex   1.801522e+001 8.995076e+001 3.070711e+001
      vertex   1.851522e+001 8.945076e+001 2.900000e+001
    endloop
  endfacet
  facet normal 7.071072e-001 7.071064e-001 2.399256e-007
    outer loop
      vertex   3.012296e+001 9.893718e+001 3.100000e+001
      vertex   2.906230e+001 9.999784e+001 2.900000e+001
      vertex   2.856230e+001 1.004978e+002 3.070711e+001
    endloop
  endfacet
  facet normal 7.071068e-001 7.071068e-001 0.000000e+000
    outer loop
      vertex   1.880926e+001 1.102509e+002 3.100000e+001
      vertex   2.044063e+001 1.086195e+002 3.070711e+001
      vertex   1.994063e+001 1.091195e+002 2.900000e+001
    endloop
  endfacet
  facet normal 6.532809e-001 -6.532808e-001 -3.826857e-001
    outer loop
      vertex   1.491709e+001 1.035960e+002 2.985355e+001
      vertex   2.044063e+001 1.086195e+002 3.070711e+001
      vertex   9.893547e+000 9.807243e+001 3.070711e+001
    endloop
  endfacet
  facet normal -6.532807e-001 6.532806e-001 -3.826864e-001
    outer loop
      vertex   2.353876e+001 9.497430e+001 2.985355e+001
      vertex   1.801522e+001 8.995076e+001 3.070711e+001
      vertex   2.856230e+001 1.004978e+002 3.070711e+001
    endloop
  endfacet
  facet normal 4.999983e-001 -4.999985e-001 -7.071090e-001
    outer loop
      vertex   1.527064e+001 1.032424e+002 3.085355e+001
      vertex   2.044063e+001 1.086195e+002 3.070711e+001
      vertex   2.064773e+001 1.084124e+002 3.100000e+001
    endloop
  endfacet
  facet normal 5.000029e-001 -5.000028e-001 -7.071028e-001
    outer loop
      vertex   1.527064e+001 1.032424e+002 3.085355e+001
      vertex   9.893547e+000 9.807243e+001 3.070711e+001
      vertex   2.044063e+001 1.086195e+002 3.070711e+001
    endloop
  endfacet
  facet normal -7.071072e-001 -7.071064e-001 4.070068e-006
    outer loop
      vertex   1.780812e+001 9.015787e+001 3.100000e+001
      vertex   1.801522e+001 8.995076e+001 3.070711e+001
      vertex   1.957589e+001 8.839010e+001 3.100000e+001
    endloop
  endfacet
  facet normal 4.999987e-001 -4.999982e-001 -7.071090e-001
    outer loop
      vertex   1.527064e+001 1.032424e+002 3.085355e+001
      vertex   1.010065e+001 9.786533e+001 3.100000e+001
      vertex   9.893547e+000 9.807243e+001 3.070711e+001
    endloop
  endfacet
  facet normal -7.071068e-001 -7.071068e-001 0.000000e+000
    outer loop
      vertex   1.010065e+001 9.786533e+001 3.100000e+001
      vertex   8.262177e+000 9.970380e+001 3.100000e+001
      vertex   9.893547e+000 9.807243e+001 3.070711e+001
    endloop
  endfacet
  facet normal 7.071068e-001 7.071068e-001 0.000000e+000
    outer loop
      vertex   1.880926e+001 1.102509e+002 3.100000e+001
      vertex   2.064773e+001 1.084124e+002 3.100000e+001
      vertex   2.044063e+001 1.086195e+002 3.070711e+001
    endloop
  endfacet
  facet normal 7.071072e-001 7.071064e-001 3.256055e-007
    outer loop
      vertex   2.835520e+001 1.007049e+002 3.100000e+001
      vertex   3.012296e+001 9.893718e+001 3.100000e+001
      vertex   2.856230e+001 1.004978e+002 3.070711e+001
    endloop
  endfacet
  facet normal -4.999987e-001 4.999981e-001 -7.071090e-001
    outer loop
      vertex   2.318521e+001 9.532785e+001 3.085355e+001
      vertex   2.835520e+001 1.007049e+002 3.100000e+001
      vertex   2.856230e+001 1.004978e+002 3.070711e+001
    endloop
  endfacet
  facet normal -4.999995e-001 4.999997e-001 -7.071074e-001
    outer loop
      vertex   2.318521e+001 9.532785e+001 3.085355e+001
      vertex   1.801522e+001 8.995076e+001 3.070711e+001
      vertex   1.780812e+001 9.015787e+001 3.100000e+001
    endloop
  endfacet
  facet normal -5.000042e-001 5.000041e-001 -7.071009e-001
    outer loop
      vertex   2.318521e+001 9.532785e+001 3.085355e+001
      vertex   2.856230e+001 1.004978e+002 3.070711e+001
      vertex   1.801522e+001 8.995076e+001 3.070711e+001
    endloop
  endfacet
  facet normal 4.999937e-001 -4.999936e-001 -7.071157e-001
    outer loop
      vertex   1.527064e+001 1.032424e+002 3.085355e+001
      vertex   2.064773e+001 1.084124e+002 3.100000e+001
      vertex   1.010065e+001 9.786533e+001 3.100000e+001
    endloop
  endfacet
  facet normal -4.999942e-001 4.999940e-001 -7.071152e-001
    outer loop
      vertex   2.318521e+001 9.532785e+001 3.085355e+001
      vertex   1.780812e+001 9.015787e+001 3.100000e+001
      vertex   2.835520e+001 1.007049e+002 3.100000e+001
    endloop
  endfacet
  facet normal -0.000000e+000 0.000000e+000 1.000000e+000
    outer loop
      vertex   1.445496e+001 1.040581e+002 3.100000e+001
      vertex   8.262177e+000 9.970380e+001 3.100000e+001
      vertex   1.010065e+001 9.786533e+001 3.100000e+001
    endloop
  endfacet
  facet normal 0.000000e+000 0.000000e+000 1.000000e+000
    outer loop
      vertex   1.445496e+001 1.040581e+002 3.100000e+001
      vertex   2.064773e+001 1.084124e+002 3.100000e+001
      vertex   1.880926e+001 1.102509e+002 3.100000e+001
    endloop
  endfacet
  facet normal 0.000000e+000 0.000000e+000 1.000000e+000
    outer loop
      vertex   1.445496e+001 1.040581e+002 3.100000e+001
      vertex   1.880926e+001 1.102509e+002 3.100000e+001
      vertex   8.262177e+000 9.970380e+001 3.100000e+001
    endloop
  endfacet
  facet normal 0.000000e+000 0.000000e+000 1.000000e+000
    outer loop
      vertex   1.445496e+001 1.040581e+002 3.100000e+001
      vertex   1.010065e+001 9.786533e+001 3.100000e+001
      vertex   2.064773e+001 1.084124e+002 3.100000e+001
    endloop
  endfacet
  facet normal 0.000000e+000 0.000000e+000 1.000000e+000
    outer loop
      vertex   2.396554e+001 9.454752e+001 3.100000e+001
      vertex   1.957589e+001 8.839010e+001 3.100000e+001
      vertex   3.012296e+001 9.893718e+001 3.100000e+001
    endloop
  endfacet
  facet normal -0.000000e+000 0.000000e+000 1.000000e+000
    outer loop
      vertex   2.396554e+001 9.454752e+001 3.100000e+001
      vertex   1.780812e+001 9.015787e+001 3.100000e+001
      vertex   1.957589e+001 8.839010e+001 3.100000e+001
    endloop
  endfacet
  facet normal 0.000000e+000 0.000000e+000 1.000000e+000
    outer loop
      vertex   2.396554e+001 9.454752e+001 3.100000e+001
      vertex   3.012296e+001 9.893718e+001 3.100000e+001
      vertex   2.835520e+001 1.007049e+002 3.100000e+001
    endloop
  endfacet
  facet normal 0.000000e+000 0.000000e+000 1.000000e+000
    outer loop
      vertex   2.396554e+001 9.454752e+001 3.100000e+001
      vertex   2.835520e+001 1.007049e+002 3.100000e+001
      vertex   1.780812e+001 9.015787e+001 3.100000e+001
    endloop
  endfacet
endsolid
