%
M48
M72
T01C0.02362
T02C0.02400
T03C0.03200
T04C0.03543
T05C0.03937
T06C0.04000
T07C0.04724
T08C0.07874
T09C0.12598
%
T01
X44571Y39910
X54571Y39910
X64571Y39910
X74571Y39910
X126673Y13887
X127673Y37013
X194673Y56013
X205673Y56013
X203173Y47513
X251673Y86013
X257673Y115013
X296673Y118013
X309673Y142013
X100673Y158013
X92673Y162013
X87673Y166013
X59673Y143013
X93673Y113013
X35673Y92013
T02
X125957Y144706
X115957Y154706
X125957Y164706
T03
X139531Y134127
X149531Y129127
X139531Y124127
X149531Y119127
X139531Y114127
X149531Y109127
X139531Y104127
X149531Y99127
X139531Y94127
X149531Y89127
X139531Y84127
X149531Y79127
X139531Y74127
X149531Y69127
X139531Y64127
X149531Y59127
T04
X170280Y56800
X170280Y46800
X170280Y36800
X170280Y26800
X170280Y16800
X230280Y16800
X230280Y26800
X230280Y36800
X230280Y46800
X230280Y56800
X230280Y66800
X230280Y76800
X230280Y86800
X230280Y96800
X230280Y106800
X230280Y116800
X230280Y126800
X230280Y136800
X230280Y146800
X230280Y156800
X230280Y166800
X230280Y176800
X170280Y176800
X170280Y166800
X170280Y156800
X170280Y146800
X170280Y136800
X170280Y126800
X170280Y116800
X170280Y106800
X170280Y96800
X170280Y86800
X170280Y76800
X170280Y66800
T05
X86461Y105028
X58902Y105028
X72681Y132587
X45122Y132587
X249846Y128650
X277406Y128650
X291185Y101091
X263626Y101091
T06
X26673Y103013
X26673Y113013
X26673Y123013
X26673Y133013
X26673Y143013
T07
X243984Y75891
X243984Y38891
X304984Y38891
X304984Y75891
T08
X30358Y25698
X144673Y141013
X305949Y25698
T09
X79571Y76879
X40201Y76879
X30358Y163493
X305949Y163493
M30
