G75*
%MOIN*%
%OFA0B0*%
%FSLAX25Y25*%
%IPPOS*%
%LPD*%
%AMOC8*
5,1,8,0,0,1.08239X$1,22.5*
%
%ADD10C,0.00000*%
%ADD11C,0.00300*%
%ADD12C,0.00400*%
D10*
X0010673Y0006013D02*
X0010673Y0183178D01*
X0325634Y0183178D01*
X0325634Y0006013D01*
X0010673Y0006013D01*
X0026421Y0025698D02*
X0026423Y0025823D01*
X0026429Y0025948D01*
X0026439Y0026072D01*
X0026453Y0026196D01*
X0026470Y0026320D01*
X0026492Y0026443D01*
X0026518Y0026565D01*
X0026547Y0026687D01*
X0026580Y0026807D01*
X0026618Y0026926D01*
X0026658Y0027045D01*
X0026703Y0027161D01*
X0026751Y0027276D01*
X0026803Y0027390D01*
X0026859Y0027502D01*
X0026918Y0027612D01*
X0026980Y0027720D01*
X0027046Y0027827D01*
X0027115Y0027931D01*
X0027188Y0028032D01*
X0027263Y0028132D01*
X0027342Y0028229D01*
X0027424Y0028323D01*
X0027509Y0028415D01*
X0027596Y0028504D01*
X0027687Y0028590D01*
X0027780Y0028673D01*
X0027876Y0028754D01*
X0027974Y0028831D01*
X0028074Y0028905D01*
X0028177Y0028976D01*
X0028282Y0029043D01*
X0028390Y0029108D01*
X0028499Y0029168D01*
X0028610Y0029226D01*
X0028723Y0029279D01*
X0028837Y0029329D01*
X0028953Y0029376D01*
X0029070Y0029418D01*
X0029189Y0029457D01*
X0029309Y0029493D01*
X0029430Y0029524D01*
X0029552Y0029552D01*
X0029674Y0029575D01*
X0029798Y0029595D01*
X0029922Y0029611D01*
X0030046Y0029623D01*
X0030171Y0029631D01*
X0030296Y0029635D01*
X0030420Y0029635D01*
X0030545Y0029631D01*
X0030670Y0029623D01*
X0030794Y0029611D01*
X0030918Y0029595D01*
X0031042Y0029575D01*
X0031164Y0029552D01*
X0031286Y0029524D01*
X0031407Y0029493D01*
X0031527Y0029457D01*
X0031646Y0029418D01*
X0031763Y0029376D01*
X0031879Y0029329D01*
X0031993Y0029279D01*
X0032106Y0029226D01*
X0032217Y0029168D01*
X0032327Y0029108D01*
X0032434Y0029043D01*
X0032539Y0028976D01*
X0032642Y0028905D01*
X0032742Y0028831D01*
X0032840Y0028754D01*
X0032936Y0028673D01*
X0033029Y0028590D01*
X0033120Y0028504D01*
X0033207Y0028415D01*
X0033292Y0028323D01*
X0033374Y0028229D01*
X0033453Y0028132D01*
X0033528Y0028032D01*
X0033601Y0027931D01*
X0033670Y0027827D01*
X0033736Y0027720D01*
X0033798Y0027612D01*
X0033857Y0027502D01*
X0033913Y0027390D01*
X0033965Y0027276D01*
X0034013Y0027161D01*
X0034058Y0027045D01*
X0034098Y0026926D01*
X0034136Y0026807D01*
X0034169Y0026687D01*
X0034198Y0026565D01*
X0034224Y0026443D01*
X0034246Y0026320D01*
X0034263Y0026196D01*
X0034277Y0026072D01*
X0034287Y0025948D01*
X0034293Y0025823D01*
X0034295Y0025698D01*
X0034293Y0025573D01*
X0034287Y0025448D01*
X0034277Y0025324D01*
X0034263Y0025200D01*
X0034246Y0025076D01*
X0034224Y0024953D01*
X0034198Y0024831D01*
X0034169Y0024709D01*
X0034136Y0024589D01*
X0034098Y0024470D01*
X0034058Y0024351D01*
X0034013Y0024235D01*
X0033965Y0024120D01*
X0033913Y0024006D01*
X0033857Y0023894D01*
X0033798Y0023784D01*
X0033736Y0023676D01*
X0033670Y0023569D01*
X0033601Y0023465D01*
X0033528Y0023364D01*
X0033453Y0023264D01*
X0033374Y0023167D01*
X0033292Y0023073D01*
X0033207Y0022981D01*
X0033120Y0022892D01*
X0033029Y0022806D01*
X0032936Y0022723D01*
X0032840Y0022642D01*
X0032742Y0022565D01*
X0032642Y0022491D01*
X0032539Y0022420D01*
X0032434Y0022353D01*
X0032326Y0022288D01*
X0032217Y0022228D01*
X0032106Y0022170D01*
X0031993Y0022117D01*
X0031879Y0022067D01*
X0031763Y0022020D01*
X0031646Y0021978D01*
X0031527Y0021939D01*
X0031407Y0021903D01*
X0031286Y0021872D01*
X0031164Y0021844D01*
X0031042Y0021821D01*
X0030918Y0021801D01*
X0030794Y0021785D01*
X0030670Y0021773D01*
X0030545Y0021765D01*
X0030420Y0021761D01*
X0030296Y0021761D01*
X0030171Y0021765D01*
X0030046Y0021773D01*
X0029922Y0021785D01*
X0029798Y0021801D01*
X0029674Y0021821D01*
X0029552Y0021844D01*
X0029430Y0021872D01*
X0029309Y0021903D01*
X0029189Y0021939D01*
X0029070Y0021978D01*
X0028953Y0022020D01*
X0028837Y0022067D01*
X0028723Y0022117D01*
X0028610Y0022170D01*
X0028499Y0022228D01*
X0028389Y0022288D01*
X0028282Y0022353D01*
X0028177Y0022420D01*
X0028074Y0022491D01*
X0027974Y0022565D01*
X0027876Y0022642D01*
X0027780Y0022723D01*
X0027687Y0022806D01*
X0027596Y0022892D01*
X0027509Y0022981D01*
X0027424Y0023073D01*
X0027342Y0023167D01*
X0027263Y0023264D01*
X0027188Y0023364D01*
X0027115Y0023465D01*
X0027046Y0023569D01*
X0026980Y0023676D01*
X0026918Y0023784D01*
X0026859Y0023894D01*
X0026803Y0024006D01*
X0026751Y0024120D01*
X0026703Y0024235D01*
X0026658Y0024351D01*
X0026618Y0024470D01*
X0026580Y0024589D01*
X0026547Y0024709D01*
X0026518Y0024831D01*
X0026492Y0024953D01*
X0026470Y0025076D01*
X0026453Y0025200D01*
X0026439Y0025324D01*
X0026429Y0025448D01*
X0026423Y0025573D01*
X0026421Y0025698D01*
X0033902Y0076879D02*
X0033904Y0077037D01*
X0033910Y0077195D01*
X0033920Y0077353D01*
X0033934Y0077511D01*
X0033952Y0077668D01*
X0033973Y0077825D01*
X0033999Y0077981D01*
X0034029Y0078137D01*
X0034062Y0078292D01*
X0034100Y0078445D01*
X0034141Y0078598D01*
X0034186Y0078750D01*
X0034235Y0078901D01*
X0034288Y0079050D01*
X0034344Y0079198D01*
X0034404Y0079344D01*
X0034468Y0079489D01*
X0034536Y0079632D01*
X0034607Y0079774D01*
X0034681Y0079914D01*
X0034759Y0080051D01*
X0034841Y0080187D01*
X0034925Y0080321D01*
X0035014Y0080452D01*
X0035105Y0080581D01*
X0035200Y0080708D01*
X0035297Y0080833D01*
X0035398Y0080955D01*
X0035502Y0081074D01*
X0035609Y0081191D01*
X0035719Y0081305D01*
X0035832Y0081416D01*
X0035947Y0081525D01*
X0036065Y0081630D01*
X0036186Y0081732D01*
X0036309Y0081832D01*
X0036435Y0081928D01*
X0036563Y0082021D01*
X0036693Y0082111D01*
X0036826Y0082197D01*
X0036961Y0082281D01*
X0037097Y0082360D01*
X0037236Y0082437D01*
X0037377Y0082509D01*
X0037519Y0082579D01*
X0037663Y0082644D01*
X0037809Y0082706D01*
X0037956Y0082764D01*
X0038105Y0082819D01*
X0038255Y0082870D01*
X0038406Y0082917D01*
X0038558Y0082960D01*
X0038711Y0082999D01*
X0038866Y0083035D01*
X0039021Y0083066D01*
X0039177Y0083094D01*
X0039333Y0083118D01*
X0039490Y0083138D01*
X0039648Y0083154D01*
X0039805Y0083166D01*
X0039964Y0083174D01*
X0040122Y0083178D01*
X0040280Y0083178D01*
X0040438Y0083174D01*
X0040597Y0083166D01*
X0040754Y0083154D01*
X0040912Y0083138D01*
X0041069Y0083118D01*
X0041225Y0083094D01*
X0041381Y0083066D01*
X0041536Y0083035D01*
X0041691Y0082999D01*
X0041844Y0082960D01*
X0041996Y0082917D01*
X0042147Y0082870D01*
X0042297Y0082819D01*
X0042446Y0082764D01*
X0042593Y0082706D01*
X0042739Y0082644D01*
X0042883Y0082579D01*
X0043025Y0082509D01*
X0043166Y0082437D01*
X0043305Y0082360D01*
X0043441Y0082281D01*
X0043576Y0082197D01*
X0043709Y0082111D01*
X0043839Y0082021D01*
X0043967Y0081928D01*
X0044093Y0081832D01*
X0044216Y0081732D01*
X0044337Y0081630D01*
X0044455Y0081525D01*
X0044570Y0081416D01*
X0044683Y0081305D01*
X0044793Y0081191D01*
X0044900Y0081074D01*
X0045004Y0080955D01*
X0045105Y0080833D01*
X0045202Y0080708D01*
X0045297Y0080581D01*
X0045388Y0080452D01*
X0045477Y0080321D01*
X0045561Y0080187D01*
X0045643Y0080051D01*
X0045721Y0079914D01*
X0045795Y0079774D01*
X0045866Y0079632D01*
X0045934Y0079489D01*
X0045998Y0079344D01*
X0046058Y0079198D01*
X0046114Y0079050D01*
X0046167Y0078901D01*
X0046216Y0078750D01*
X0046261Y0078598D01*
X0046302Y0078445D01*
X0046340Y0078292D01*
X0046373Y0078137D01*
X0046403Y0077981D01*
X0046429Y0077825D01*
X0046450Y0077668D01*
X0046468Y0077511D01*
X0046482Y0077353D01*
X0046492Y0077195D01*
X0046498Y0077037D01*
X0046500Y0076879D01*
X0046498Y0076721D01*
X0046492Y0076563D01*
X0046482Y0076405D01*
X0046468Y0076247D01*
X0046450Y0076090D01*
X0046429Y0075933D01*
X0046403Y0075777D01*
X0046373Y0075621D01*
X0046340Y0075466D01*
X0046302Y0075313D01*
X0046261Y0075160D01*
X0046216Y0075008D01*
X0046167Y0074857D01*
X0046114Y0074708D01*
X0046058Y0074560D01*
X0045998Y0074414D01*
X0045934Y0074269D01*
X0045866Y0074126D01*
X0045795Y0073984D01*
X0045721Y0073844D01*
X0045643Y0073707D01*
X0045561Y0073571D01*
X0045477Y0073437D01*
X0045388Y0073306D01*
X0045297Y0073177D01*
X0045202Y0073050D01*
X0045105Y0072925D01*
X0045004Y0072803D01*
X0044900Y0072684D01*
X0044793Y0072567D01*
X0044683Y0072453D01*
X0044570Y0072342D01*
X0044455Y0072233D01*
X0044337Y0072128D01*
X0044216Y0072026D01*
X0044093Y0071926D01*
X0043967Y0071830D01*
X0043839Y0071737D01*
X0043709Y0071647D01*
X0043576Y0071561D01*
X0043441Y0071477D01*
X0043305Y0071398D01*
X0043166Y0071321D01*
X0043025Y0071249D01*
X0042883Y0071179D01*
X0042739Y0071114D01*
X0042593Y0071052D01*
X0042446Y0070994D01*
X0042297Y0070939D01*
X0042147Y0070888D01*
X0041996Y0070841D01*
X0041844Y0070798D01*
X0041691Y0070759D01*
X0041536Y0070723D01*
X0041381Y0070692D01*
X0041225Y0070664D01*
X0041069Y0070640D01*
X0040912Y0070620D01*
X0040754Y0070604D01*
X0040597Y0070592D01*
X0040438Y0070584D01*
X0040280Y0070580D01*
X0040122Y0070580D01*
X0039964Y0070584D01*
X0039805Y0070592D01*
X0039648Y0070604D01*
X0039490Y0070620D01*
X0039333Y0070640D01*
X0039177Y0070664D01*
X0039021Y0070692D01*
X0038866Y0070723D01*
X0038711Y0070759D01*
X0038558Y0070798D01*
X0038406Y0070841D01*
X0038255Y0070888D01*
X0038105Y0070939D01*
X0037956Y0070994D01*
X0037809Y0071052D01*
X0037663Y0071114D01*
X0037519Y0071179D01*
X0037377Y0071249D01*
X0037236Y0071321D01*
X0037097Y0071398D01*
X0036961Y0071477D01*
X0036826Y0071561D01*
X0036693Y0071647D01*
X0036563Y0071737D01*
X0036435Y0071830D01*
X0036309Y0071926D01*
X0036186Y0072026D01*
X0036065Y0072128D01*
X0035947Y0072233D01*
X0035832Y0072342D01*
X0035719Y0072453D01*
X0035609Y0072567D01*
X0035502Y0072684D01*
X0035398Y0072803D01*
X0035297Y0072925D01*
X0035200Y0073050D01*
X0035105Y0073177D01*
X0035014Y0073306D01*
X0034925Y0073437D01*
X0034841Y0073571D01*
X0034759Y0073707D01*
X0034681Y0073844D01*
X0034607Y0073984D01*
X0034536Y0074126D01*
X0034468Y0074269D01*
X0034404Y0074414D01*
X0034344Y0074560D01*
X0034288Y0074708D01*
X0034235Y0074857D01*
X0034186Y0075008D01*
X0034141Y0075160D01*
X0034100Y0075313D01*
X0034062Y0075466D01*
X0034029Y0075621D01*
X0033999Y0075777D01*
X0033973Y0075933D01*
X0033952Y0076090D01*
X0033934Y0076247D01*
X0033920Y0076405D01*
X0033910Y0076563D01*
X0033904Y0076721D01*
X0033902Y0076879D01*
X0073272Y0076879D02*
X0073274Y0077037D01*
X0073280Y0077195D01*
X0073290Y0077353D01*
X0073304Y0077511D01*
X0073322Y0077668D01*
X0073343Y0077825D01*
X0073369Y0077981D01*
X0073399Y0078137D01*
X0073432Y0078292D01*
X0073470Y0078445D01*
X0073511Y0078598D01*
X0073556Y0078750D01*
X0073605Y0078901D01*
X0073658Y0079050D01*
X0073714Y0079198D01*
X0073774Y0079344D01*
X0073838Y0079489D01*
X0073906Y0079632D01*
X0073977Y0079774D01*
X0074051Y0079914D01*
X0074129Y0080051D01*
X0074211Y0080187D01*
X0074295Y0080321D01*
X0074384Y0080452D01*
X0074475Y0080581D01*
X0074570Y0080708D01*
X0074667Y0080833D01*
X0074768Y0080955D01*
X0074872Y0081074D01*
X0074979Y0081191D01*
X0075089Y0081305D01*
X0075202Y0081416D01*
X0075317Y0081525D01*
X0075435Y0081630D01*
X0075556Y0081732D01*
X0075679Y0081832D01*
X0075805Y0081928D01*
X0075933Y0082021D01*
X0076063Y0082111D01*
X0076196Y0082197D01*
X0076331Y0082281D01*
X0076467Y0082360D01*
X0076606Y0082437D01*
X0076747Y0082509D01*
X0076889Y0082579D01*
X0077033Y0082644D01*
X0077179Y0082706D01*
X0077326Y0082764D01*
X0077475Y0082819D01*
X0077625Y0082870D01*
X0077776Y0082917D01*
X0077928Y0082960D01*
X0078081Y0082999D01*
X0078236Y0083035D01*
X0078391Y0083066D01*
X0078547Y0083094D01*
X0078703Y0083118D01*
X0078860Y0083138D01*
X0079018Y0083154D01*
X0079175Y0083166D01*
X0079334Y0083174D01*
X0079492Y0083178D01*
X0079650Y0083178D01*
X0079808Y0083174D01*
X0079967Y0083166D01*
X0080124Y0083154D01*
X0080282Y0083138D01*
X0080439Y0083118D01*
X0080595Y0083094D01*
X0080751Y0083066D01*
X0080906Y0083035D01*
X0081061Y0082999D01*
X0081214Y0082960D01*
X0081366Y0082917D01*
X0081517Y0082870D01*
X0081667Y0082819D01*
X0081816Y0082764D01*
X0081963Y0082706D01*
X0082109Y0082644D01*
X0082253Y0082579D01*
X0082395Y0082509D01*
X0082536Y0082437D01*
X0082675Y0082360D01*
X0082811Y0082281D01*
X0082946Y0082197D01*
X0083079Y0082111D01*
X0083209Y0082021D01*
X0083337Y0081928D01*
X0083463Y0081832D01*
X0083586Y0081732D01*
X0083707Y0081630D01*
X0083825Y0081525D01*
X0083940Y0081416D01*
X0084053Y0081305D01*
X0084163Y0081191D01*
X0084270Y0081074D01*
X0084374Y0080955D01*
X0084475Y0080833D01*
X0084572Y0080708D01*
X0084667Y0080581D01*
X0084758Y0080452D01*
X0084847Y0080321D01*
X0084931Y0080187D01*
X0085013Y0080051D01*
X0085091Y0079914D01*
X0085165Y0079774D01*
X0085236Y0079632D01*
X0085304Y0079489D01*
X0085368Y0079344D01*
X0085428Y0079198D01*
X0085484Y0079050D01*
X0085537Y0078901D01*
X0085586Y0078750D01*
X0085631Y0078598D01*
X0085672Y0078445D01*
X0085710Y0078292D01*
X0085743Y0078137D01*
X0085773Y0077981D01*
X0085799Y0077825D01*
X0085820Y0077668D01*
X0085838Y0077511D01*
X0085852Y0077353D01*
X0085862Y0077195D01*
X0085868Y0077037D01*
X0085870Y0076879D01*
X0085868Y0076721D01*
X0085862Y0076563D01*
X0085852Y0076405D01*
X0085838Y0076247D01*
X0085820Y0076090D01*
X0085799Y0075933D01*
X0085773Y0075777D01*
X0085743Y0075621D01*
X0085710Y0075466D01*
X0085672Y0075313D01*
X0085631Y0075160D01*
X0085586Y0075008D01*
X0085537Y0074857D01*
X0085484Y0074708D01*
X0085428Y0074560D01*
X0085368Y0074414D01*
X0085304Y0074269D01*
X0085236Y0074126D01*
X0085165Y0073984D01*
X0085091Y0073844D01*
X0085013Y0073707D01*
X0084931Y0073571D01*
X0084847Y0073437D01*
X0084758Y0073306D01*
X0084667Y0073177D01*
X0084572Y0073050D01*
X0084475Y0072925D01*
X0084374Y0072803D01*
X0084270Y0072684D01*
X0084163Y0072567D01*
X0084053Y0072453D01*
X0083940Y0072342D01*
X0083825Y0072233D01*
X0083707Y0072128D01*
X0083586Y0072026D01*
X0083463Y0071926D01*
X0083337Y0071830D01*
X0083209Y0071737D01*
X0083079Y0071647D01*
X0082946Y0071561D01*
X0082811Y0071477D01*
X0082675Y0071398D01*
X0082536Y0071321D01*
X0082395Y0071249D01*
X0082253Y0071179D01*
X0082109Y0071114D01*
X0081963Y0071052D01*
X0081816Y0070994D01*
X0081667Y0070939D01*
X0081517Y0070888D01*
X0081366Y0070841D01*
X0081214Y0070798D01*
X0081061Y0070759D01*
X0080906Y0070723D01*
X0080751Y0070692D01*
X0080595Y0070664D01*
X0080439Y0070640D01*
X0080282Y0070620D01*
X0080124Y0070604D01*
X0079967Y0070592D01*
X0079808Y0070584D01*
X0079650Y0070580D01*
X0079492Y0070580D01*
X0079334Y0070584D01*
X0079175Y0070592D01*
X0079018Y0070604D01*
X0078860Y0070620D01*
X0078703Y0070640D01*
X0078547Y0070664D01*
X0078391Y0070692D01*
X0078236Y0070723D01*
X0078081Y0070759D01*
X0077928Y0070798D01*
X0077776Y0070841D01*
X0077625Y0070888D01*
X0077475Y0070939D01*
X0077326Y0070994D01*
X0077179Y0071052D01*
X0077033Y0071114D01*
X0076889Y0071179D01*
X0076747Y0071249D01*
X0076606Y0071321D01*
X0076467Y0071398D01*
X0076331Y0071477D01*
X0076196Y0071561D01*
X0076063Y0071647D01*
X0075933Y0071737D01*
X0075805Y0071830D01*
X0075679Y0071926D01*
X0075556Y0072026D01*
X0075435Y0072128D01*
X0075317Y0072233D01*
X0075202Y0072342D01*
X0075089Y0072453D01*
X0074979Y0072567D01*
X0074872Y0072684D01*
X0074768Y0072803D01*
X0074667Y0072925D01*
X0074570Y0073050D01*
X0074475Y0073177D01*
X0074384Y0073306D01*
X0074295Y0073437D01*
X0074211Y0073571D01*
X0074129Y0073707D01*
X0074051Y0073844D01*
X0073977Y0073984D01*
X0073906Y0074126D01*
X0073838Y0074269D01*
X0073774Y0074414D01*
X0073714Y0074560D01*
X0073658Y0074708D01*
X0073605Y0074857D01*
X0073556Y0075008D01*
X0073511Y0075160D01*
X0073470Y0075313D01*
X0073432Y0075466D01*
X0073399Y0075621D01*
X0073369Y0075777D01*
X0073343Y0075933D01*
X0073322Y0076090D01*
X0073304Y0076247D01*
X0073290Y0076405D01*
X0073280Y0076563D01*
X0073274Y0076721D01*
X0073272Y0076879D01*
X0140736Y0141013D02*
X0140738Y0141138D01*
X0140744Y0141263D01*
X0140754Y0141387D01*
X0140768Y0141511D01*
X0140785Y0141635D01*
X0140807Y0141758D01*
X0140833Y0141880D01*
X0140862Y0142002D01*
X0140895Y0142122D01*
X0140933Y0142241D01*
X0140973Y0142360D01*
X0141018Y0142476D01*
X0141066Y0142591D01*
X0141118Y0142705D01*
X0141174Y0142817D01*
X0141233Y0142927D01*
X0141295Y0143035D01*
X0141361Y0143142D01*
X0141430Y0143246D01*
X0141503Y0143347D01*
X0141578Y0143447D01*
X0141657Y0143544D01*
X0141739Y0143638D01*
X0141824Y0143730D01*
X0141911Y0143819D01*
X0142002Y0143905D01*
X0142095Y0143988D01*
X0142191Y0144069D01*
X0142289Y0144146D01*
X0142389Y0144220D01*
X0142492Y0144291D01*
X0142597Y0144358D01*
X0142705Y0144423D01*
X0142814Y0144483D01*
X0142925Y0144541D01*
X0143038Y0144594D01*
X0143152Y0144644D01*
X0143268Y0144691D01*
X0143385Y0144733D01*
X0143504Y0144772D01*
X0143624Y0144808D01*
X0143745Y0144839D01*
X0143867Y0144867D01*
X0143989Y0144890D01*
X0144113Y0144910D01*
X0144237Y0144926D01*
X0144361Y0144938D01*
X0144486Y0144946D01*
X0144611Y0144950D01*
X0144735Y0144950D01*
X0144860Y0144946D01*
X0144985Y0144938D01*
X0145109Y0144926D01*
X0145233Y0144910D01*
X0145357Y0144890D01*
X0145479Y0144867D01*
X0145601Y0144839D01*
X0145722Y0144808D01*
X0145842Y0144772D01*
X0145961Y0144733D01*
X0146078Y0144691D01*
X0146194Y0144644D01*
X0146308Y0144594D01*
X0146421Y0144541D01*
X0146532Y0144483D01*
X0146642Y0144423D01*
X0146749Y0144358D01*
X0146854Y0144291D01*
X0146957Y0144220D01*
X0147057Y0144146D01*
X0147155Y0144069D01*
X0147251Y0143988D01*
X0147344Y0143905D01*
X0147435Y0143819D01*
X0147522Y0143730D01*
X0147607Y0143638D01*
X0147689Y0143544D01*
X0147768Y0143447D01*
X0147843Y0143347D01*
X0147916Y0143246D01*
X0147985Y0143142D01*
X0148051Y0143035D01*
X0148113Y0142927D01*
X0148172Y0142817D01*
X0148228Y0142705D01*
X0148280Y0142591D01*
X0148328Y0142476D01*
X0148373Y0142360D01*
X0148413Y0142241D01*
X0148451Y0142122D01*
X0148484Y0142002D01*
X0148513Y0141880D01*
X0148539Y0141758D01*
X0148561Y0141635D01*
X0148578Y0141511D01*
X0148592Y0141387D01*
X0148602Y0141263D01*
X0148608Y0141138D01*
X0148610Y0141013D01*
X0148608Y0140888D01*
X0148602Y0140763D01*
X0148592Y0140639D01*
X0148578Y0140515D01*
X0148561Y0140391D01*
X0148539Y0140268D01*
X0148513Y0140146D01*
X0148484Y0140024D01*
X0148451Y0139904D01*
X0148413Y0139785D01*
X0148373Y0139666D01*
X0148328Y0139550D01*
X0148280Y0139435D01*
X0148228Y0139321D01*
X0148172Y0139209D01*
X0148113Y0139099D01*
X0148051Y0138991D01*
X0147985Y0138884D01*
X0147916Y0138780D01*
X0147843Y0138679D01*
X0147768Y0138579D01*
X0147689Y0138482D01*
X0147607Y0138388D01*
X0147522Y0138296D01*
X0147435Y0138207D01*
X0147344Y0138121D01*
X0147251Y0138038D01*
X0147155Y0137957D01*
X0147057Y0137880D01*
X0146957Y0137806D01*
X0146854Y0137735D01*
X0146749Y0137668D01*
X0146641Y0137603D01*
X0146532Y0137543D01*
X0146421Y0137485D01*
X0146308Y0137432D01*
X0146194Y0137382D01*
X0146078Y0137335D01*
X0145961Y0137293D01*
X0145842Y0137254D01*
X0145722Y0137218D01*
X0145601Y0137187D01*
X0145479Y0137159D01*
X0145357Y0137136D01*
X0145233Y0137116D01*
X0145109Y0137100D01*
X0144985Y0137088D01*
X0144860Y0137080D01*
X0144735Y0137076D01*
X0144611Y0137076D01*
X0144486Y0137080D01*
X0144361Y0137088D01*
X0144237Y0137100D01*
X0144113Y0137116D01*
X0143989Y0137136D01*
X0143867Y0137159D01*
X0143745Y0137187D01*
X0143624Y0137218D01*
X0143504Y0137254D01*
X0143385Y0137293D01*
X0143268Y0137335D01*
X0143152Y0137382D01*
X0143038Y0137432D01*
X0142925Y0137485D01*
X0142814Y0137543D01*
X0142704Y0137603D01*
X0142597Y0137668D01*
X0142492Y0137735D01*
X0142389Y0137806D01*
X0142289Y0137880D01*
X0142191Y0137957D01*
X0142095Y0138038D01*
X0142002Y0138121D01*
X0141911Y0138207D01*
X0141824Y0138296D01*
X0141739Y0138388D01*
X0141657Y0138482D01*
X0141578Y0138579D01*
X0141503Y0138679D01*
X0141430Y0138780D01*
X0141361Y0138884D01*
X0141295Y0138991D01*
X0141233Y0139099D01*
X0141174Y0139209D01*
X0141118Y0139321D01*
X0141066Y0139435D01*
X0141018Y0139550D01*
X0140973Y0139666D01*
X0140933Y0139785D01*
X0140895Y0139904D01*
X0140862Y0140024D01*
X0140833Y0140146D01*
X0140807Y0140268D01*
X0140785Y0140391D01*
X0140768Y0140515D01*
X0140754Y0140639D01*
X0140744Y0140763D01*
X0140738Y0140888D01*
X0140736Y0141013D01*
X0024059Y0163493D02*
X0024061Y0163651D01*
X0024067Y0163809D01*
X0024077Y0163967D01*
X0024091Y0164125D01*
X0024109Y0164282D01*
X0024130Y0164439D01*
X0024156Y0164595D01*
X0024186Y0164751D01*
X0024219Y0164906D01*
X0024257Y0165059D01*
X0024298Y0165212D01*
X0024343Y0165364D01*
X0024392Y0165515D01*
X0024445Y0165664D01*
X0024501Y0165812D01*
X0024561Y0165958D01*
X0024625Y0166103D01*
X0024693Y0166246D01*
X0024764Y0166388D01*
X0024838Y0166528D01*
X0024916Y0166665D01*
X0024998Y0166801D01*
X0025082Y0166935D01*
X0025171Y0167066D01*
X0025262Y0167195D01*
X0025357Y0167322D01*
X0025454Y0167447D01*
X0025555Y0167569D01*
X0025659Y0167688D01*
X0025766Y0167805D01*
X0025876Y0167919D01*
X0025989Y0168030D01*
X0026104Y0168139D01*
X0026222Y0168244D01*
X0026343Y0168346D01*
X0026466Y0168446D01*
X0026592Y0168542D01*
X0026720Y0168635D01*
X0026850Y0168725D01*
X0026983Y0168811D01*
X0027118Y0168895D01*
X0027254Y0168974D01*
X0027393Y0169051D01*
X0027534Y0169123D01*
X0027676Y0169193D01*
X0027820Y0169258D01*
X0027966Y0169320D01*
X0028113Y0169378D01*
X0028262Y0169433D01*
X0028412Y0169484D01*
X0028563Y0169531D01*
X0028715Y0169574D01*
X0028868Y0169613D01*
X0029023Y0169649D01*
X0029178Y0169680D01*
X0029334Y0169708D01*
X0029490Y0169732D01*
X0029647Y0169752D01*
X0029805Y0169768D01*
X0029962Y0169780D01*
X0030121Y0169788D01*
X0030279Y0169792D01*
X0030437Y0169792D01*
X0030595Y0169788D01*
X0030754Y0169780D01*
X0030911Y0169768D01*
X0031069Y0169752D01*
X0031226Y0169732D01*
X0031382Y0169708D01*
X0031538Y0169680D01*
X0031693Y0169649D01*
X0031848Y0169613D01*
X0032001Y0169574D01*
X0032153Y0169531D01*
X0032304Y0169484D01*
X0032454Y0169433D01*
X0032603Y0169378D01*
X0032750Y0169320D01*
X0032896Y0169258D01*
X0033040Y0169193D01*
X0033182Y0169123D01*
X0033323Y0169051D01*
X0033462Y0168974D01*
X0033598Y0168895D01*
X0033733Y0168811D01*
X0033866Y0168725D01*
X0033996Y0168635D01*
X0034124Y0168542D01*
X0034250Y0168446D01*
X0034373Y0168346D01*
X0034494Y0168244D01*
X0034612Y0168139D01*
X0034727Y0168030D01*
X0034840Y0167919D01*
X0034950Y0167805D01*
X0035057Y0167688D01*
X0035161Y0167569D01*
X0035262Y0167447D01*
X0035359Y0167322D01*
X0035454Y0167195D01*
X0035545Y0167066D01*
X0035634Y0166935D01*
X0035718Y0166801D01*
X0035800Y0166665D01*
X0035878Y0166528D01*
X0035952Y0166388D01*
X0036023Y0166246D01*
X0036091Y0166103D01*
X0036155Y0165958D01*
X0036215Y0165812D01*
X0036271Y0165664D01*
X0036324Y0165515D01*
X0036373Y0165364D01*
X0036418Y0165212D01*
X0036459Y0165059D01*
X0036497Y0164906D01*
X0036530Y0164751D01*
X0036560Y0164595D01*
X0036586Y0164439D01*
X0036607Y0164282D01*
X0036625Y0164125D01*
X0036639Y0163967D01*
X0036649Y0163809D01*
X0036655Y0163651D01*
X0036657Y0163493D01*
X0036655Y0163335D01*
X0036649Y0163177D01*
X0036639Y0163019D01*
X0036625Y0162861D01*
X0036607Y0162704D01*
X0036586Y0162547D01*
X0036560Y0162391D01*
X0036530Y0162235D01*
X0036497Y0162080D01*
X0036459Y0161927D01*
X0036418Y0161774D01*
X0036373Y0161622D01*
X0036324Y0161471D01*
X0036271Y0161322D01*
X0036215Y0161174D01*
X0036155Y0161028D01*
X0036091Y0160883D01*
X0036023Y0160740D01*
X0035952Y0160598D01*
X0035878Y0160458D01*
X0035800Y0160321D01*
X0035718Y0160185D01*
X0035634Y0160051D01*
X0035545Y0159920D01*
X0035454Y0159791D01*
X0035359Y0159664D01*
X0035262Y0159539D01*
X0035161Y0159417D01*
X0035057Y0159298D01*
X0034950Y0159181D01*
X0034840Y0159067D01*
X0034727Y0158956D01*
X0034612Y0158847D01*
X0034494Y0158742D01*
X0034373Y0158640D01*
X0034250Y0158540D01*
X0034124Y0158444D01*
X0033996Y0158351D01*
X0033866Y0158261D01*
X0033733Y0158175D01*
X0033598Y0158091D01*
X0033462Y0158012D01*
X0033323Y0157935D01*
X0033182Y0157863D01*
X0033040Y0157793D01*
X0032896Y0157728D01*
X0032750Y0157666D01*
X0032603Y0157608D01*
X0032454Y0157553D01*
X0032304Y0157502D01*
X0032153Y0157455D01*
X0032001Y0157412D01*
X0031848Y0157373D01*
X0031693Y0157337D01*
X0031538Y0157306D01*
X0031382Y0157278D01*
X0031226Y0157254D01*
X0031069Y0157234D01*
X0030911Y0157218D01*
X0030754Y0157206D01*
X0030595Y0157198D01*
X0030437Y0157194D01*
X0030279Y0157194D01*
X0030121Y0157198D01*
X0029962Y0157206D01*
X0029805Y0157218D01*
X0029647Y0157234D01*
X0029490Y0157254D01*
X0029334Y0157278D01*
X0029178Y0157306D01*
X0029023Y0157337D01*
X0028868Y0157373D01*
X0028715Y0157412D01*
X0028563Y0157455D01*
X0028412Y0157502D01*
X0028262Y0157553D01*
X0028113Y0157608D01*
X0027966Y0157666D01*
X0027820Y0157728D01*
X0027676Y0157793D01*
X0027534Y0157863D01*
X0027393Y0157935D01*
X0027254Y0158012D01*
X0027118Y0158091D01*
X0026983Y0158175D01*
X0026850Y0158261D01*
X0026720Y0158351D01*
X0026592Y0158444D01*
X0026466Y0158540D01*
X0026343Y0158640D01*
X0026222Y0158742D01*
X0026104Y0158847D01*
X0025989Y0158956D01*
X0025876Y0159067D01*
X0025766Y0159181D01*
X0025659Y0159298D01*
X0025555Y0159417D01*
X0025454Y0159539D01*
X0025357Y0159664D01*
X0025262Y0159791D01*
X0025171Y0159920D01*
X0025082Y0160051D01*
X0024998Y0160185D01*
X0024916Y0160321D01*
X0024838Y0160458D01*
X0024764Y0160598D01*
X0024693Y0160740D01*
X0024625Y0160883D01*
X0024561Y0161028D01*
X0024501Y0161174D01*
X0024445Y0161322D01*
X0024392Y0161471D01*
X0024343Y0161622D01*
X0024298Y0161774D01*
X0024257Y0161927D01*
X0024219Y0162080D01*
X0024186Y0162235D01*
X0024156Y0162391D01*
X0024130Y0162547D01*
X0024109Y0162704D01*
X0024091Y0162861D01*
X0024077Y0163019D01*
X0024067Y0163177D01*
X0024061Y0163335D01*
X0024059Y0163493D01*
X0299650Y0163493D02*
X0299652Y0163651D01*
X0299658Y0163809D01*
X0299668Y0163967D01*
X0299682Y0164125D01*
X0299700Y0164282D01*
X0299721Y0164439D01*
X0299747Y0164595D01*
X0299777Y0164751D01*
X0299810Y0164906D01*
X0299848Y0165059D01*
X0299889Y0165212D01*
X0299934Y0165364D01*
X0299983Y0165515D01*
X0300036Y0165664D01*
X0300092Y0165812D01*
X0300152Y0165958D01*
X0300216Y0166103D01*
X0300284Y0166246D01*
X0300355Y0166388D01*
X0300429Y0166528D01*
X0300507Y0166665D01*
X0300589Y0166801D01*
X0300673Y0166935D01*
X0300762Y0167066D01*
X0300853Y0167195D01*
X0300948Y0167322D01*
X0301045Y0167447D01*
X0301146Y0167569D01*
X0301250Y0167688D01*
X0301357Y0167805D01*
X0301467Y0167919D01*
X0301580Y0168030D01*
X0301695Y0168139D01*
X0301813Y0168244D01*
X0301934Y0168346D01*
X0302057Y0168446D01*
X0302183Y0168542D01*
X0302311Y0168635D01*
X0302441Y0168725D01*
X0302574Y0168811D01*
X0302709Y0168895D01*
X0302845Y0168974D01*
X0302984Y0169051D01*
X0303125Y0169123D01*
X0303267Y0169193D01*
X0303411Y0169258D01*
X0303557Y0169320D01*
X0303704Y0169378D01*
X0303853Y0169433D01*
X0304003Y0169484D01*
X0304154Y0169531D01*
X0304306Y0169574D01*
X0304459Y0169613D01*
X0304614Y0169649D01*
X0304769Y0169680D01*
X0304925Y0169708D01*
X0305081Y0169732D01*
X0305238Y0169752D01*
X0305396Y0169768D01*
X0305553Y0169780D01*
X0305712Y0169788D01*
X0305870Y0169792D01*
X0306028Y0169792D01*
X0306186Y0169788D01*
X0306345Y0169780D01*
X0306502Y0169768D01*
X0306660Y0169752D01*
X0306817Y0169732D01*
X0306973Y0169708D01*
X0307129Y0169680D01*
X0307284Y0169649D01*
X0307439Y0169613D01*
X0307592Y0169574D01*
X0307744Y0169531D01*
X0307895Y0169484D01*
X0308045Y0169433D01*
X0308194Y0169378D01*
X0308341Y0169320D01*
X0308487Y0169258D01*
X0308631Y0169193D01*
X0308773Y0169123D01*
X0308914Y0169051D01*
X0309053Y0168974D01*
X0309189Y0168895D01*
X0309324Y0168811D01*
X0309457Y0168725D01*
X0309587Y0168635D01*
X0309715Y0168542D01*
X0309841Y0168446D01*
X0309964Y0168346D01*
X0310085Y0168244D01*
X0310203Y0168139D01*
X0310318Y0168030D01*
X0310431Y0167919D01*
X0310541Y0167805D01*
X0310648Y0167688D01*
X0310752Y0167569D01*
X0310853Y0167447D01*
X0310950Y0167322D01*
X0311045Y0167195D01*
X0311136Y0167066D01*
X0311225Y0166935D01*
X0311309Y0166801D01*
X0311391Y0166665D01*
X0311469Y0166528D01*
X0311543Y0166388D01*
X0311614Y0166246D01*
X0311682Y0166103D01*
X0311746Y0165958D01*
X0311806Y0165812D01*
X0311862Y0165664D01*
X0311915Y0165515D01*
X0311964Y0165364D01*
X0312009Y0165212D01*
X0312050Y0165059D01*
X0312088Y0164906D01*
X0312121Y0164751D01*
X0312151Y0164595D01*
X0312177Y0164439D01*
X0312198Y0164282D01*
X0312216Y0164125D01*
X0312230Y0163967D01*
X0312240Y0163809D01*
X0312246Y0163651D01*
X0312248Y0163493D01*
X0312246Y0163335D01*
X0312240Y0163177D01*
X0312230Y0163019D01*
X0312216Y0162861D01*
X0312198Y0162704D01*
X0312177Y0162547D01*
X0312151Y0162391D01*
X0312121Y0162235D01*
X0312088Y0162080D01*
X0312050Y0161927D01*
X0312009Y0161774D01*
X0311964Y0161622D01*
X0311915Y0161471D01*
X0311862Y0161322D01*
X0311806Y0161174D01*
X0311746Y0161028D01*
X0311682Y0160883D01*
X0311614Y0160740D01*
X0311543Y0160598D01*
X0311469Y0160458D01*
X0311391Y0160321D01*
X0311309Y0160185D01*
X0311225Y0160051D01*
X0311136Y0159920D01*
X0311045Y0159791D01*
X0310950Y0159664D01*
X0310853Y0159539D01*
X0310752Y0159417D01*
X0310648Y0159298D01*
X0310541Y0159181D01*
X0310431Y0159067D01*
X0310318Y0158956D01*
X0310203Y0158847D01*
X0310085Y0158742D01*
X0309964Y0158640D01*
X0309841Y0158540D01*
X0309715Y0158444D01*
X0309587Y0158351D01*
X0309457Y0158261D01*
X0309324Y0158175D01*
X0309189Y0158091D01*
X0309053Y0158012D01*
X0308914Y0157935D01*
X0308773Y0157863D01*
X0308631Y0157793D01*
X0308487Y0157728D01*
X0308341Y0157666D01*
X0308194Y0157608D01*
X0308045Y0157553D01*
X0307895Y0157502D01*
X0307744Y0157455D01*
X0307592Y0157412D01*
X0307439Y0157373D01*
X0307284Y0157337D01*
X0307129Y0157306D01*
X0306973Y0157278D01*
X0306817Y0157254D01*
X0306660Y0157234D01*
X0306502Y0157218D01*
X0306345Y0157206D01*
X0306186Y0157198D01*
X0306028Y0157194D01*
X0305870Y0157194D01*
X0305712Y0157198D01*
X0305553Y0157206D01*
X0305396Y0157218D01*
X0305238Y0157234D01*
X0305081Y0157254D01*
X0304925Y0157278D01*
X0304769Y0157306D01*
X0304614Y0157337D01*
X0304459Y0157373D01*
X0304306Y0157412D01*
X0304154Y0157455D01*
X0304003Y0157502D01*
X0303853Y0157553D01*
X0303704Y0157608D01*
X0303557Y0157666D01*
X0303411Y0157728D01*
X0303267Y0157793D01*
X0303125Y0157863D01*
X0302984Y0157935D01*
X0302845Y0158012D01*
X0302709Y0158091D01*
X0302574Y0158175D01*
X0302441Y0158261D01*
X0302311Y0158351D01*
X0302183Y0158444D01*
X0302057Y0158540D01*
X0301934Y0158640D01*
X0301813Y0158742D01*
X0301695Y0158847D01*
X0301580Y0158956D01*
X0301467Y0159067D01*
X0301357Y0159181D01*
X0301250Y0159298D01*
X0301146Y0159417D01*
X0301045Y0159539D01*
X0300948Y0159664D01*
X0300853Y0159791D01*
X0300762Y0159920D01*
X0300673Y0160051D01*
X0300589Y0160185D01*
X0300507Y0160321D01*
X0300429Y0160458D01*
X0300355Y0160598D01*
X0300284Y0160740D01*
X0300216Y0160883D01*
X0300152Y0161028D01*
X0300092Y0161174D01*
X0300036Y0161322D01*
X0299983Y0161471D01*
X0299934Y0161622D01*
X0299889Y0161774D01*
X0299848Y0161927D01*
X0299810Y0162080D01*
X0299777Y0162235D01*
X0299747Y0162391D01*
X0299721Y0162547D01*
X0299700Y0162704D01*
X0299682Y0162861D01*
X0299668Y0163019D01*
X0299658Y0163177D01*
X0299652Y0163335D01*
X0299650Y0163493D01*
X0302012Y0025698D02*
X0302014Y0025823D01*
X0302020Y0025948D01*
X0302030Y0026072D01*
X0302044Y0026196D01*
X0302061Y0026320D01*
X0302083Y0026443D01*
X0302109Y0026565D01*
X0302138Y0026687D01*
X0302171Y0026807D01*
X0302209Y0026926D01*
X0302249Y0027045D01*
X0302294Y0027161D01*
X0302342Y0027276D01*
X0302394Y0027390D01*
X0302450Y0027502D01*
X0302509Y0027612D01*
X0302571Y0027720D01*
X0302637Y0027827D01*
X0302706Y0027931D01*
X0302779Y0028032D01*
X0302854Y0028132D01*
X0302933Y0028229D01*
X0303015Y0028323D01*
X0303100Y0028415D01*
X0303187Y0028504D01*
X0303278Y0028590D01*
X0303371Y0028673D01*
X0303467Y0028754D01*
X0303565Y0028831D01*
X0303665Y0028905D01*
X0303768Y0028976D01*
X0303873Y0029043D01*
X0303981Y0029108D01*
X0304090Y0029168D01*
X0304201Y0029226D01*
X0304314Y0029279D01*
X0304428Y0029329D01*
X0304544Y0029376D01*
X0304661Y0029418D01*
X0304780Y0029457D01*
X0304900Y0029493D01*
X0305021Y0029524D01*
X0305143Y0029552D01*
X0305265Y0029575D01*
X0305389Y0029595D01*
X0305513Y0029611D01*
X0305637Y0029623D01*
X0305762Y0029631D01*
X0305887Y0029635D01*
X0306011Y0029635D01*
X0306136Y0029631D01*
X0306261Y0029623D01*
X0306385Y0029611D01*
X0306509Y0029595D01*
X0306633Y0029575D01*
X0306755Y0029552D01*
X0306877Y0029524D01*
X0306998Y0029493D01*
X0307118Y0029457D01*
X0307237Y0029418D01*
X0307354Y0029376D01*
X0307470Y0029329D01*
X0307584Y0029279D01*
X0307697Y0029226D01*
X0307808Y0029168D01*
X0307918Y0029108D01*
X0308025Y0029043D01*
X0308130Y0028976D01*
X0308233Y0028905D01*
X0308333Y0028831D01*
X0308431Y0028754D01*
X0308527Y0028673D01*
X0308620Y0028590D01*
X0308711Y0028504D01*
X0308798Y0028415D01*
X0308883Y0028323D01*
X0308965Y0028229D01*
X0309044Y0028132D01*
X0309119Y0028032D01*
X0309192Y0027931D01*
X0309261Y0027827D01*
X0309327Y0027720D01*
X0309389Y0027612D01*
X0309448Y0027502D01*
X0309504Y0027390D01*
X0309556Y0027276D01*
X0309604Y0027161D01*
X0309649Y0027045D01*
X0309689Y0026926D01*
X0309727Y0026807D01*
X0309760Y0026687D01*
X0309789Y0026565D01*
X0309815Y0026443D01*
X0309837Y0026320D01*
X0309854Y0026196D01*
X0309868Y0026072D01*
X0309878Y0025948D01*
X0309884Y0025823D01*
X0309886Y0025698D01*
X0309884Y0025573D01*
X0309878Y0025448D01*
X0309868Y0025324D01*
X0309854Y0025200D01*
X0309837Y0025076D01*
X0309815Y0024953D01*
X0309789Y0024831D01*
X0309760Y0024709D01*
X0309727Y0024589D01*
X0309689Y0024470D01*
X0309649Y0024351D01*
X0309604Y0024235D01*
X0309556Y0024120D01*
X0309504Y0024006D01*
X0309448Y0023894D01*
X0309389Y0023784D01*
X0309327Y0023676D01*
X0309261Y0023569D01*
X0309192Y0023465D01*
X0309119Y0023364D01*
X0309044Y0023264D01*
X0308965Y0023167D01*
X0308883Y0023073D01*
X0308798Y0022981D01*
X0308711Y0022892D01*
X0308620Y0022806D01*
X0308527Y0022723D01*
X0308431Y0022642D01*
X0308333Y0022565D01*
X0308233Y0022491D01*
X0308130Y0022420D01*
X0308025Y0022353D01*
X0307917Y0022288D01*
X0307808Y0022228D01*
X0307697Y0022170D01*
X0307584Y0022117D01*
X0307470Y0022067D01*
X0307354Y0022020D01*
X0307237Y0021978D01*
X0307118Y0021939D01*
X0306998Y0021903D01*
X0306877Y0021872D01*
X0306755Y0021844D01*
X0306633Y0021821D01*
X0306509Y0021801D01*
X0306385Y0021785D01*
X0306261Y0021773D01*
X0306136Y0021765D01*
X0306011Y0021761D01*
X0305887Y0021761D01*
X0305762Y0021765D01*
X0305637Y0021773D01*
X0305513Y0021785D01*
X0305389Y0021801D01*
X0305265Y0021821D01*
X0305143Y0021844D01*
X0305021Y0021872D01*
X0304900Y0021903D01*
X0304780Y0021939D01*
X0304661Y0021978D01*
X0304544Y0022020D01*
X0304428Y0022067D01*
X0304314Y0022117D01*
X0304201Y0022170D01*
X0304090Y0022228D01*
X0303980Y0022288D01*
X0303873Y0022353D01*
X0303768Y0022420D01*
X0303665Y0022491D01*
X0303565Y0022565D01*
X0303467Y0022642D01*
X0303371Y0022723D01*
X0303278Y0022806D01*
X0303187Y0022892D01*
X0303100Y0022981D01*
X0303015Y0023073D01*
X0302933Y0023167D01*
X0302854Y0023264D01*
X0302779Y0023364D01*
X0302706Y0023465D01*
X0302637Y0023569D01*
X0302571Y0023676D01*
X0302509Y0023784D01*
X0302450Y0023894D01*
X0302394Y0024006D01*
X0302342Y0024120D01*
X0302294Y0024235D01*
X0302249Y0024351D01*
X0302209Y0024470D01*
X0302171Y0024589D01*
X0302138Y0024709D01*
X0302109Y0024831D01*
X0302083Y0024953D01*
X0302061Y0025076D01*
X0302044Y0025200D01*
X0302030Y0025324D01*
X0302020Y0025448D01*
X0302014Y0025573D01*
X0302012Y0025698D01*
D11*
X0292526Y0022397D02*
X0291292Y0021163D01*
X0288823Y0021163D01*
X0290675Y0021163D02*
X0290675Y0023631D01*
X0291292Y0023631D02*
X0288823Y0023631D01*
X0288823Y0024846D02*
X0291292Y0024846D01*
X0291292Y0023631D02*
X0292526Y0022397D01*
X0290058Y0024846D02*
X0291292Y0026080D01*
X0291292Y0026697D01*
X0290675Y0027915D02*
X0291292Y0028532D01*
X0291292Y0030384D01*
X0291292Y0031598D02*
X0289440Y0031598D01*
X0288823Y0032215D01*
X0288823Y0034067D01*
X0291292Y0034067D01*
X0291292Y0035281D02*
X0291292Y0035898D01*
X0288823Y0035898D01*
X0288823Y0035281D02*
X0288823Y0036516D01*
X0288823Y0037737D02*
X0291292Y0037737D01*
X0291292Y0039588D01*
X0290675Y0040206D01*
X0288823Y0040206D01*
X0289440Y0041420D02*
X0288823Y0042037D01*
X0288823Y0043271D01*
X0289440Y0043889D01*
X0290675Y0043889D01*
X0291292Y0043271D01*
X0291292Y0042037D01*
X0290675Y0041420D01*
X0289440Y0041420D01*
X0292526Y0035898D02*
X0293144Y0035898D01*
X0292526Y0030384D02*
X0288823Y0030384D01*
X0288823Y0028532D01*
X0289440Y0027915D01*
X0290675Y0027915D01*
X0279909Y0027918D02*
X0277440Y0027918D01*
X0276823Y0028536D01*
X0276823Y0029757D02*
X0276823Y0031608D01*
X0277440Y0032225D01*
X0278675Y0032225D01*
X0279292Y0031608D01*
X0279292Y0029757D01*
X0275589Y0029757D01*
X0274526Y0030384D02*
X0270823Y0030384D01*
X0270823Y0028532D01*
X0271440Y0027915D01*
X0272675Y0027915D01*
X0273292Y0028532D01*
X0273292Y0030384D01*
X0273292Y0031598D02*
X0271440Y0031598D01*
X0270823Y0032215D01*
X0270823Y0034067D01*
X0273292Y0034067D01*
X0273292Y0035281D02*
X0273292Y0035898D01*
X0270823Y0035898D01*
X0270823Y0035281D02*
X0270823Y0036516D01*
X0270823Y0037737D02*
X0273292Y0037737D01*
X0273292Y0039588D01*
X0272675Y0040206D01*
X0270823Y0040206D01*
X0271440Y0041420D02*
X0270823Y0042037D01*
X0270823Y0043271D01*
X0271440Y0043889D01*
X0272675Y0043889D01*
X0273292Y0043271D01*
X0273292Y0042037D01*
X0272675Y0041420D01*
X0271440Y0041420D01*
X0272675Y0045103D02*
X0272675Y0047572D01*
X0273292Y0048786D02*
X0271440Y0048786D01*
X0270823Y0049403D01*
X0271440Y0050021D01*
X0270823Y0050638D01*
X0271440Y0051255D01*
X0273292Y0051255D01*
X0273292Y0053087D02*
X0273292Y0054321D01*
X0272675Y0054938D01*
X0270823Y0054938D01*
X0270823Y0053087D01*
X0271440Y0052469D01*
X0272058Y0053087D01*
X0272058Y0054938D01*
X0273292Y0056152D02*
X0273292Y0057387D01*
X0273909Y0056770D02*
X0271440Y0056770D01*
X0270823Y0057387D01*
X0271440Y0058608D02*
X0270823Y0059225D01*
X0270823Y0060459D01*
X0272058Y0061077D02*
X0272058Y0058608D01*
X0272675Y0058608D02*
X0273292Y0059225D01*
X0273292Y0060459D01*
X0272675Y0061077D01*
X0272058Y0061077D01*
X0272058Y0062291D02*
X0273292Y0063525D01*
X0273292Y0064143D01*
X0274526Y0065360D02*
X0274526Y0065977D01*
X0270823Y0065977D01*
X0270823Y0065360D02*
X0270823Y0066595D01*
X0271440Y0067816D02*
X0270823Y0068433D01*
X0270823Y0069667D01*
X0272058Y0070285D02*
X0272058Y0067816D01*
X0272675Y0067816D02*
X0273292Y0068433D01*
X0273292Y0069667D01*
X0272675Y0070285D01*
X0272058Y0070285D01*
X0273292Y0071499D02*
X0270823Y0072733D01*
X0273292Y0073968D01*
X0272675Y0075182D02*
X0273292Y0075799D01*
X0273292Y0077034D01*
X0272675Y0077651D01*
X0272058Y0077651D01*
X0272058Y0075182D01*
X0272675Y0075182D02*
X0271440Y0075182D01*
X0270823Y0075799D01*
X0270823Y0077034D01*
X0270823Y0078865D02*
X0270823Y0080100D01*
X0270823Y0079482D02*
X0274526Y0079482D01*
X0274526Y0078865D01*
X0276823Y0078865D02*
X0280526Y0081334D01*
X0279292Y0083166D02*
X0278675Y0082548D01*
X0277440Y0082548D01*
X0276823Y0083166D01*
X0276823Y0085017D01*
X0276823Y0086231D02*
X0280526Y0086231D01*
X0279292Y0086849D02*
X0278675Y0086231D01*
X0279292Y0086849D02*
X0279292Y0088083D01*
X0278675Y0088700D01*
X0276823Y0088700D01*
X0276823Y0089915D02*
X0279292Y0089915D01*
X0278058Y0089915D02*
X0279292Y0091149D01*
X0279292Y0091766D01*
X0279292Y0092984D02*
X0279292Y0093601D01*
X0276823Y0093601D01*
X0276823Y0092984D02*
X0276823Y0094218D01*
X0276823Y0095439D02*
X0276823Y0097291D01*
X0277440Y0097908D01*
X0278058Y0097291D01*
X0278058Y0096057D01*
X0278675Y0095439D01*
X0279292Y0096057D01*
X0279292Y0097908D01*
X0278675Y0099122D02*
X0278675Y0101591D01*
X0279292Y0102806D02*
X0279292Y0103423D01*
X0276823Y0103423D01*
X0276823Y0102806D02*
X0276823Y0104040D01*
X0277440Y0105261D02*
X0276823Y0105878D01*
X0276823Y0107113D01*
X0277440Y0107730D01*
X0278675Y0107730D01*
X0279292Y0107113D01*
X0279292Y0105878D01*
X0278675Y0105261D01*
X0277440Y0105261D01*
X0280526Y0103423D02*
X0281144Y0103423D01*
X0279292Y0108944D02*
X0279292Y0110179D01*
X0279909Y0109561D02*
X0277440Y0109561D01*
X0276823Y0110179D01*
X0276823Y0111400D02*
X0280526Y0113868D01*
X0273292Y0114472D02*
X0272675Y0113855D01*
X0271440Y0113855D01*
X0270823Y0114472D01*
X0270823Y0115707D01*
X0272058Y0116324D02*
X0272058Y0113855D01*
X0272675Y0112641D02*
X0270823Y0112641D01*
X0270823Y0111406D02*
X0272675Y0111406D01*
X0273292Y0112023D01*
X0272675Y0112641D01*
X0272675Y0111406D02*
X0273292Y0110789D01*
X0273292Y0110172D01*
X0270823Y0110172D01*
X0272058Y0108958D02*
X0272058Y0106489D01*
X0272675Y0106489D02*
X0273292Y0107106D01*
X0273292Y0108340D01*
X0272675Y0108958D01*
X0272058Y0108958D01*
X0270823Y0108340D02*
X0270823Y0107106D01*
X0271440Y0106489D01*
X0272675Y0106489D01*
X0273292Y0105271D02*
X0273292Y0104654D01*
X0272058Y0103419D01*
X0273292Y0103419D02*
X0270823Y0103419D01*
X0270823Y0102205D02*
X0273292Y0102205D01*
X0273292Y0099736D02*
X0271440Y0099736D01*
X0270823Y0100354D01*
X0270823Y0102205D01*
X0271440Y0098522D02*
X0272058Y0097905D01*
X0272058Y0096670D01*
X0272675Y0096053D01*
X0273292Y0096670D01*
X0273292Y0098522D01*
X0271440Y0098522D02*
X0270823Y0097905D01*
X0270823Y0096053D01*
X0270823Y0094839D02*
X0270823Y0092987D01*
X0271440Y0092370D01*
X0272058Y0092987D01*
X0272058Y0094839D01*
X0272675Y0094839D02*
X0270823Y0094839D01*
X0272675Y0094839D02*
X0273292Y0094222D01*
X0273292Y0092987D01*
X0272675Y0091156D02*
X0272058Y0091156D01*
X0272058Y0088687D01*
X0272675Y0088687D02*
X0273292Y0089304D01*
X0273292Y0090538D01*
X0272675Y0091156D01*
X0270823Y0090538D02*
X0270823Y0089304D01*
X0271440Y0088687D01*
X0272675Y0088687D01*
X0272675Y0087473D02*
X0270823Y0087473D01*
X0270823Y0086238D02*
X0272675Y0086238D01*
X0273292Y0086855D01*
X0272675Y0087473D01*
X0272675Y0086238D02*
X0273292Y0085621D01*
X0273292Y0085004D01*
X0270823Y0085004D01*
X0272675Y0083789D02*
X0272675Y0081321D01*
X0276823Y0077651D02*
X0278675Y0077651D01*
X0279292Y0077034D01*
X0278675Y0076416D01*
X0276823Y0076416D01*
X0276823Y0075182D02*
X0279292Y0075182D01*
X0279292Y0075799D01*
X0278675Y0076416D01*
X0278675Y0073968D02*
X0277440Y0073968D01*
X0276823Y0073350D01*
X0276823Y0072116D01*
X0277440Y0071499D01*
X0278675Y0071499D01*
X0279292Y0072116D01*
X0279292Y0073350D01*
X0278675Y0073968D01*
X0279292Y0070285D02*
X0279292Y0068433D01*
X0278675Y0067816D01*
X0277440Y0067816D01*
X0276823Y0068433D01*
X0276823Y0070285D01*
X0272675Y0067816D02*
X0271440Y0067816D01*
X0276823Y0066591D02*
X0276823Y0065974D01*
X0277440Y0065974D01*
X0277440Y0066591D01*
X0276823Y0066591D01*
X0277440Y0064760D02*
X0278675Y0064760D01*
X0279292Y0064143D01*
X0279292Y0062291D01*
X0279292Y0061077D02*
X0276823Y0061077D01*
X0276823Y0059225D01*
X0277440Y0058608D01*
X0279292Y0058608D01*
X0278675Y0057394D02*
X0276823Y0057394D01*
X0278675Y0057394D02*
X0279292Y0056776D01*
X0279292Y0055542D01*
X0278675Y0054925D01*
X0279292Y0053704D02*
X0279292Y0052469D01*
X0279909Y0053087D02*
X0277440Y0053087D01*
X0276823Y0053704D01*
X0276823Y0054925D02*
X0280526Y0054925D01*
X0276823Y0051248D02*
X0276823Y0050014D01*
X0276823Y0050631D02*
X0279292Y0050631D01*
X0279292Y0050014D01*
X0279292Y0048800D02*
X0276206Y0048800D01*
X0275589Y0048182D01*
X0275589Y0047565D01*
X0276823Y0046948D02*
X0276823Y0048800D01*
X0276823Y0046948D02*
X0277440Y0046331D01*
X0278675Y0046331D01*
X0279292Y0046948D01*
X0279292Y0048800D01*
X0280526Y0050631D02*
X0281144Y0050631D01*
X0288823Y0051255D02*
X0290058Y0050021D01*
X0288823Y0048786D01*
X0292526Y0048786D01*
X0292526Y0051255D02*
X0288823Y0051255D01*
X0289440Y0052469D02*
X0290058Y0053087D01*
X0290058Y0054938D01*
X0290675Y0054938D02*
X0288823Y0054938D01*
X0288823Y0053087D01*
X0289440Y0052469D01*
X0291292Y0053087D02*
X0291292Y0054321D01*
X0290675Y0054938D01*
X0291292Y0056152D02*
X0291292Y0057387D01*
X0291909Y0056770D02*
X0289440Y0056770D01*
X0288823Y0057387D01*
X0289440Y0058608D02*
X0290675Y0058608D01*
X0291292Y0059225D01*
X0291292Y0060459D01*
X0290675Y0061077D01*
X0290058Y0061077D01*
X0290058Y0058608D01*
X0289440Y0058608D02*
X0288823Y0059225D01*
X0288823Y0060459D01*
X0288823Y0062291D02*
X0291292Y0062291D01*
X0290058Y0062291D02*
X0291292Y0063525D01*
X0291292Y0064143D01*
X0292526Y0065360D02*
X0292526Y0065977D01*
X0288823Y0065977D01*
X0288823Y0065360D02*
X0288823Y0066595D01*
X0289440Y0067816D02*
X0290675Y0067816D01*
X0291292Y0068433D01*
X0291292Y0069667D01*
X0290675Y0070285D01*
X0290058Y0070285D01*
X0290058Y0067816D01*
X0289440Y0067816D02*
X0288823Y0068433D01*
X0288823Y0069667D01*
X0288823Y0072733D02*
X0291292Y0073968D01*
X0290675Y0075182D02*
X0291292Y0075799D01*
X0291292Y0077034D01*
X0290675Y0077651D01*
X0290058Y0077651D01*
X0290058Y0075182D01*
X0290675Y0075182D02*
X0289440Y0075182D01*
X0288823Y0075799D01*
X0288823Y0077034D01*
X0288823Y0078865D02*
X0288823Y0080100D01*
X0288823Y0079482D02*
X0292526Y0079482D01*
X0292526Y0078865D01*
X0288823Y0072733D02*
X0291292Y0071499D01*
X0280526Y0062291D02*
X0276823Y0062291D01*
X0276823Y0064143D01*
X0277440Y0064760D01*
X0273292Y0062291D02*
X0270823Y0062291D01*
X0271440Y0058608D02*
X0272675Y0058608D01*
X0280526Y0045116D02*
X0276823Y0042648D01*
X0276823Y0038964D02*
X0280526Y0041433D01*
X0279292Y0037740D02*
X0278675Y0037740D01*
X0278675Y0037123D01*
X0279292Y0037123D01*
X0279292Y0037740D01*
X0279292Y0035909D02*
X0279292Y0034057D01*
X0278675Y0033440D01*
X0278058Y0034057D01*
X0278058Y0035291D01*
X0277440Y0035909D01*
X0276823Y0035291D01*
X0276823Y0033440D01*
X0275144Y0035898D02*
X0274526Y0035898D01*
X0276823Y0037123D02*
X0277440Y0037123D01*
X0277440Y0037740D01*
X0276823Y0037740D01*
X0276823Y0037123D01*
X0279292Y0028536D02*
X0279292Y0027301D01*
X0279292Y0026080D02*
X0279292Y0024846D01*
X0279909Y0025463D02*
X0277440Y0025463D01*
X0276823Y0026080D01*
X0276823Y0023631D02*
X0278675Y0023631D01*
X0279292Y0023014D01*
X0279292Y0021780D01*
X0278675Y0021163D01*
X0280526Y0021163D02*
X0276823Y0021163D01*
X0273292Y0021780D02*
X0273292Y0023014D01*
X0272675Y0023631D01*
X0270823Y0023631D01*
X0270823Y0021780D01*
X0271440Y0021163D01*
X0272058Y0021780D01*
X0272058Y0023631D01*
X0272058Y0024846D02*
X0273292Y0026080D01*
X0273292Y0026697D01*
X0273292Y0024846D02*
X0270823Y0024846D01*
X0279292Y0083166D02*
X0279292Y0085017D01*
X0280526Y0093601D02*
X0281144Y0093601D01*
X0273292Y0114472D02*
X0273292Y0115707D01*
X0272675Y0116324D01*
X0272058Y0116324D01*
X0273292Y0117538D02*
X0273292Y0119390D01*
X0272675Y0120007D01*
X0270823Y0120007D01*
X0271440Y0121839D02*
X0270823Y0122456D01*
X0271440Y0121839D02*
X0273909Y0121839D01*
X0273292Y0122456D02*
X0273292Y0121221D01*
X0273292Y0117538D02*
X0270823Y0117538D01*
D12*
X0264210Y0131713D02*
X0261141Y0131713D01*
X0260373Y0132480D01*
X0260373Y0134015D01*
X0261141Y0134782D01*
X0264210Y0134782D01*
X0264977Y0134015D01*
X0264977Y0132480D01*
X0264210Y0131713D01*
X0261908Y0133247D02*
X0260373Y0134782D01*
X0262675Y0136317D02*
X0262675Y0139386D01*
X0260373Y0138618D02*
X0264977Y0138618D01*
X0262675Y0136317D01*
X0303373Y0141272D02*
X0304141Y0140505D01*
X0307210Y0140505D01*
X0307977Y0141272D01*
X0307977Y0142807D01*
X0307210Y0143574D01*
X0304141Y0143574D01*
X0303373Y0142807D01*
X0303373Y0141272D01*
X0304908Y0142039D02*
X0303373Y0143574D01*
X0303373Y0145109D02*
X0306443Y0148178D01*
X0307210Y0148178D01*
X0307977Y0147411D01*
X0307977Y0145876D01*
X0307210Y0145109D01*
X0303373Y0145109D02*
X0303373Y0148178D01*
X0302373Y0099178D02*
X0302373Y0096109D01*
X0302373Y0097643D02*
X0306977Y0097643D01*
X0305443Y0096109D01*
X0306210Y0094574D02*
X0303141Y0094574D01*
X0302373Y0093807D01*
X0302373Y0092272D01*
X0303141Y0091505D01*
X0306210Y0091505D01*
X0306977Y0092272D01*
X0306977Y0093807D01*
X0306210Y0094574D01*
X0303908Y0093039D02*
X0302373Y0094574D01*
X0254977Y0093618D02*
X0254977Y0092084D01*
X0254210Y0091317D01*
X0254210Y0089782D02*
X0251141Y0089782D01*
X0250373Y0089015D01*
X0250373Y0087480D01*
X0251141Y0086713D01*
X0254210Y0086713D01*
X0254977Y0087480D01*
X0254977Y0089015D01*
X0254210Y0089782D01*
X0251908Y0088247D02*
X0250373Y0089782D01*
X0251141Y0091317D02*
X0250373Y0092084D01*
X0250373Y0093618D01*
X0251141Y0094386D01*
X0251908Y0094386D01*
X0252675Y0093618D01*
X0252675Y0092851D01*
X0252675Y0093618D02*
X0253443Y0094386D01*
X0254210Y0094386D01*
X0254977Y0093618D01*
X0219973Y0067317D02*
X0217671Y0067317D01*
X0216904Y0066549D01*
X0216904Y0065015D01*
X0217671Y0064247D01*
X0219973Y0064247D01*
X0218439Y0064247D02*
X0216904Y0062713D01*
X0215369Y0062713D02*
X0212300Y0062713D01*
X0213835Y0062713D02*
X0213835Y0067317D01*
X0215369Y0065782D01*
X0219973Y0067317D02*
X0219973Y0062713D01*
X0190181Y0073480D02*
X0189414Y0072713D01*
X0187879Y0072713D01*
X0187112Y0073480D01*
X0185577Y0072713D02*
X0182508Y0075782D01*
X0182508Y0076549D01*
X0183275Y0077317D01*
X0184810Y0077317D01*
X0185577Y0076549D01*
X0187112Y0076549D02*
X0187879Y0077317D01*
X0189414Y0077317D01*
X0190181Y0076549D01*
X0190181Y0073480D01*
X0185577Y0072713D02*
X0182508Y0072713D01*
X0183067Y0044317D02*
X0182300Y0043549D01*
X0182300Y0042782D01*
X0183067Y0042015D01*
X0182300Y0041247D01*
X0182300Y0040480D01*
X0183067Y0039713D01*
X0184602Y0039713D01*
X0185369Y0040480D01*
X0186904Y0039713D02*
X0188439Y0041247D01*
X0187671Y0041247D02*
X0189973Y0041247D01*
X0189973Y0039713D02*
X0189973Y0044317D01*
X0187671Y0044317D01*
X0186904Y0043549D01*
X0186904Y0042015D01*
X0187671Y0041247D01*
X0183835Y0042015D02*
X0183067Y0042015D01*
X0183067Y0044317D02*
X0184602Y0044317D01*
X0185369Y0043549D01*
X0214508Y0033549D02*
X0214508Y0032782D01*
X0215275Y0032015D01*
X0214508Y0031247D01*
X0214508Y0030480D01*
X0215275Y0029713D01*
X0216810Y0029713D01*
X0217577Y0030480D01*
X0219112Y0030480D02*
X0219879Y0029713D01*
X0221414Y0029713D01*
X0222181Y0030480D01*
X0222181Y0033549D01*
X0221414Y0034317D01*
X0219879Y0034317D01*
X0219112Y0033549D01*
X0217577Y0033549D02*
X0216810Y0034317D01*
X0215275Y0034317D01*
X0214508Y0033549D01*
X0215275Y0032015D02*
X0216043Y0032015D01*
X0115977Y0083505D02*
X0115977Y0085807D01*
X0115210Y0086574D01*
X0113675Y0086574D01*
X0112908Y0085807D01*
X0112908Y0083505D01*
X0112908Y0085039D02*
X0111373Y0086574D01*
X0112141Y0088109D02*
X0111373Y0088876D01*
X0111373Y0090411D01*
X0112141Y0091178D01*
X0112908Y0091178D01*
X0113675Y0090411D01*
X0113675Y0088109D01*
X0112141Y0088109D01*
X0113675Y0088109D02*
X0115210Y0089643D01*
X0115977Y0091178D01*
X0115977Y0083505D02*
X0111373Y0083505D01*
X0060181Y0051549D02*
X0060181Y0048480D01*
X0059414Y0047713D01*
X0057879Y0047713D01*
X0057112Y0048480D01*
X0055577Y0047713D02*
X0052508Y0047713D01*
X0054043Y0047713D02*
X0054043Y0052317D01*
X0055577Y0050782D01*
X0057112Y0051549D02*
X0057879Y0052317D01*
X0059414Y0052317D01*
X0060181Y0051549D01*
X0030181Y0081713D02*
X0030181Y0086317D01*
X0027879Y0086317D01*
X0027112Y0085549D01*
X0027112Y0084015D01*
X0027879Y0083247D01*
X0030181Y0083247D01*
X0028646Y0083247D02*
X0027112Y0081713D01*
X0025577Y0082480D02*
X0025577Y0083247D01*
X0024810Y0084015D01*
X0023275Y0084015D01*
X0022508Y0083247D01*
X0022508Y0082480D01*
X0023275Y0081713D01*
X0024810Y0081713D01*
X0025577Y0082480D01*
X0024810Y0084015D02*
X0025577Y0084782D01*
X0025577Y0085549D01*
X0024810Y0086317D01*
X0023275Y0086317D01*
X0022508Y0085549D01*
X0022508Y0084782D01*
X0023275Y0084015D01*
X0039300Y0095549D02*
X0042369Y0092480D01*
X0042369Y0091713D01*
X0043904Y0091713D02*
X0045439Y0093247D01*
X0044671Y0093247D02*
X0046973Y0093247D01*
X0046973Y0091713D02*
X0046973Y0096317D01*
X0044671Y0096317D01*
X0043904Y0095549D01*
X0043904Y0094015D01*
X0044671Y0093247D01*
X0042369Y0096317D02*
X0039300Y0096317D01*
X0039300Y0095549D01*
X0058275Y0121713D02*
X0059810Y0121713D01*
X0060577Y0122480D01*
X0060577Y0124015D02*
X0059043Y0124782D01*
X0058275Y0124782D01*
X0057508Y0124015D01*
X0057508Y0122480D01*
X0058275Y0121713D01*
X0060577Y0124015D02*
X0060577Y0126317D01*
X0057508Y0126317D01*
X0062112Y0125549D02*
X0062112Y0124015D01*
X0062879Y0123247D01*
X0065181Y0123247D01*
X0065181Y0121713D02*
X0065181Y0126317D01*
X0062879Y0126317D01*
X0062112Y0125549D01*
X0063646Y0123247D02*
X0062112Y0121713D01*
X0182300Y0162713D02*
X0185369Y0162713D01*
X0182300Y0165782D01*
X0182300Y0166549D01*
X0183067Y0167317D01*
X0184602Y0167317D01*
X0185369Y0166549D01*
X0186904Y0166549D02*
X0186904Y0165015D01*
X0187671Y0164247D01*
X0189973Y0164247D01*
X0188439Y0164247D02*
X0186904Y0162713D01*
X0189973Y0162713D02*
X0189973Y0167317D01*
X0187671Y0167317D01*
X0186904Y0166549D01*
M02*
