G75*
%MOIN*%
%OFA0B0*%
%FSLAX25Y25*%
%IPPOS*%
%LPD*%
%AMOC8*
5,1,8,0,0,1.08239X$1,22.5*
%
%ADD10C,0.00000*%
%ADD11C,0.01400*%
%ADD12C,0.05543*%
%ADD13C,0.04362*%
%ADD14C,0.05200*%
%ADD15C,0.04400*%
%ADD16C,0.05937*%
%ADD17R,0.07874X0.07874*%
%ADD18R,0.07087X0.06693*%
%ADD19R,0.05906X0.11417*%
%ADD20C,0.06000*%
%ADD21R,0.07480X0.13386*%
%ADD22R,0.07874X0.05906*%
%ADD23R,0.04331X0.03937*%
%ADD24C,0.01600*%
%ADD25OC8,0.03562*%
%ADD26C,0.05000*%
%ADD27C,0.02400*%
D10*
X0010673Y0006013D02*
X0010673Y0183178D01*
X0325634Y0183178D01*
X0325634Y0006013D01*
X0010673Y0006013D01*
X0026421Y0025698D02*
X0026423Y0025823D01*
X0026429Y0025948D01*
X0026439Y0026072D01*
X0026453Y0026196D01*
X0026470Y0026320D01*
X0026492Y0026443D01*
X0026518Y0026565D01*
X0026547Y0026687D01*
X0026580Y0026807D01*
X0026618Y0026926D01*
X0026658Y0027045D01*
X0026703Y0027161D01*
X0026751Y0027276D01*
X0026803Y0027390D01*
X0026859Y0027502D01*
X0026918Y0027612D01*
X0026980Y0027720D01*
X0027046Y0027827D01*
X0027115Y0027931D01*
X0027188Y0028032D01*
X0027263Y0028132D01*
X0027342Y0028229D01*
X0027424Y0028323D01*
X0027509Y0028415D01*
X0027596Y0028504D01*
X0027687Y0028590D01*
X0027780Y0028673D01*
X0027876Y0028754D01*
X0027974Y0028831D01*
X0028074Y0028905D01*
X0028177Y0028976D01*
X0028282Y0029043D01*
X0028390Y0029108D01*
X0028499Y0029168D01*
X0028610Y0029226D01*
X0028723Y0029279D01*
X0028837Y0029329D01*
X0028953Y0029376D01*
X0029070Y0029418D01*
X0029189Y0029457D01*
X0029309Y0029493D01*
X0029430Y0029524D01*
X0029552Y0029552D01*
X0029674Y0029575D01*
X0029798Y0029595D01*
X0029922Y0029611D01*
X0030046Y0029623D01*
X0030171Y0029631D01*
X0030296Y0029635D01*
X0030420Y0029635D01*
X0030545Y0029631D01*
X0030670Y0029623D01*
X0030794Y0029611D01*
X0030918Y0029595D01*
X0031042Y0029575D01*
X0031164Y0029552D01*
X0031286Y0029524D01*
X0031407Y0029493D01*
X0031527Y0029457D01*
X0031646Y0029418D01*
X0031763Y0029376D01*
X0031879Y0029329D01*
X0031993Y0029279D01*
X0032106Y0029226D01*
X0032217Y0029168D01*
X0032327Y0029108D01*
X0032434Y0029043D01*
X0032539Y0028976D01*
X0032642Y0028905D01*
X0032742Y0028831D01*
X0032840Y0028754D01*
X0032936Y0028673D01*
X0033029Y0028590D01*
X0033120Y0028504D01*
X0033207Y0028415D01*
X0033292Y0028323D01*
X0033374Y0028229D01*
X0033453Y0028132D01*
X0033528Y0028032D01*
X0033601Y0027931D01*
X0033670Y0027827D01*
X0033736Y0027720D01*
X0033798Y0027612D01*
X0033857Y0027502D01*
X0033913Y0027390D01*
X0033965Y0027276D01*
X0034013Y0027161D01*
X0034058Y0027045D01*
X0034098Y0026926D01*
X0034136Y0026807D01*
X0034169Y0026687D01*
X0034198Y0026565D01*
X0034224Y0026443D01*
X0034246Y0026320D01*
X0034263Y0026196D01*
X0034277Y0026072D01*
X0034287Y0025948D01*
X0034293Y0025823D01*
X0034295Y0025698D01*
X0034293Y0025573D01*
X0034287Y0025448D01*
X0034277Y0025324D01*
X0034263Y0025200D01*
X0034246Y0025076D01*
X0034224Y0024953D01*
X0034198Y0024831D01*
X0034169Y0024709D01*
X0034136Y0024589D01*
X0034098Y0024470D01*
X0034058Y0024351D01*
X0034013Y0024235D01*
X0033965Y0024120D01*
X0033913Y0024006D01*
X0033857Y0023894D01*
X0033798Y0023784D01*
X0033736Y0023676D01*
X0033670Y0023569D01*
X0033601Y0023465D01*
X0033528Y0023364D01*
X0033453Y0023264D01*
X0033374Y0023167D01*
X0033292Y0023073D01*
X0033207Y0022981D01*
X0033120Y0022892D01*
X0033029Y0022806D01*
X0032936Y0022723D01*
X0032840Y0022642D01*
X0032742Y0022565D01*
X0032642Y0022491D01*
X0032539Y0022420D01*
X0032434Y0022353D01*
X0032326Y0022288D01*
X0032217Y0022228D01*
X0032106Y0022170D01*
X0031993Y0022117D01*
X0031879Y0022067D01*
X0031763Y0022020D01*
X0031646Y0021978D01*
X0031527Y0021939D01*
X0031407Y0021903D01*
X0031286Y0021872D01*
X0031164Y0021844D01*
X0031042Y0021821D01*
X0030918Y0021801D01*
X0030794Y0021785D01*
X0030670Y0021773D01*
X0030545Y0021765D01*
X0030420Y0021761D01*
X0030296Y0021761D01*
X0030171Y0021765D01*
X0030046Y0021773D01*
X0029922Y0021785D01*
X0029798Y0021801D01*
X0029674Y0021821D01*
X0029552Y0021844D01*
X0029430Y0021872D01*
X0029309Y0021903D01*
X0029189Y0021939D01*
X0029070Y0021978D01*
X0028953Y0022020D01*
X0028837Y0022067D01*
X0028723Y0022117D01*
X0028610Y0022170D01*
X0028499Y0022228D01*
X0028389Y0022288D01*
X0028282Y0022353D01*
X0028177Y0022420D01*
X0028074Y0022491D01*
X0027974Y0022565D01*
X0027876Y0022642D01*
X0027780Y0022723D01*
X0027687Y0022806D01*
X0027596Y0022892D01*
X0027509Y0022981D01*
X0027424Y0023073D01*
X0027342Y0023167D01*
X0027263Y0023264D01*
X0027188Y0023364D01*
X0027115Y0023465D01*
X0027046Y0023569D01*
X0026980Y0023676D01*
X0026918Y0023784D01*
X0026859Y0023894D01*
X0026803Y0024006D01*
X0026751Y0024120D01*
X0026703Y0024235D01*
X0026658Y0024351D01*
X0026618Y0024470D01*
X0026580Y0024589D01*
X0026547Y0024709D01*
X0026518Y0024831D01*
X0026492Y0024953D01*
X0026470Y0025076D01*
X0026453Y0025200D01*
X0026439Y0025324D01*
X0026429Y0025448D01*
X0026423Y0025573D01*
X0026421Y0025698D01*
X0033902Y0076879D02*
X0033904Y0077037D01*
X0033910Y0077195D01*
X0033920Y0077353D01*
X0033934Y0077511D01*
X0033952Y0077668D01*
X0033973Y0077825D01*
X0033999Y0077981D01*
X0034029Y0078137D01*
X0034062Y0078292D01*
X0034100Y0078445D01*
X0034141Y0078598D01*
X0034186Y0078750D01*
X0034235Y0078901D01*
X0034288Y0079050D01*
X0034344Y0079198D01*
X0034404Y0079344D01*
X0034468Y0079489D01*
X0034536Y0079632D01*
X0034607Y0079774D01*
X0034681Y0079914D01*
X0034759Y0080051D01*
X0034841Y0080187D01*
X0034925Y0080321D01*
X0035014Y0080452D01*
X0035105Y0080581D01*
X0035200Y0080708D01*
X0035297Y0080833D01*
X0035398Y0080955D01*
X0035502Y0081074D01*
X0035609Y0081191D01*
X0035719Y0081305D01*
X0035832Y0081416D01*
X0035947Y0081525D01*
X0036065Y0081630D01*
X0036186Y0081732D01*
X0036309Y0081832D01*
X0036435Y0081928D01*
X0036563Y0082021D01*
X0036693Y0082111D01*
X0036826Y0082197D01*
X0036961Y0082281D01*
X0037097Y0082360D01*
X0037236Y0082437D01*
X0037377Y0082509D01*
X0037519Y0082579D01*
X0037663Y0082644D01*
X0037809Y0082706D01*
X0037956Y0082764D01*
X0038105Y0082819D01*
X0038255Y0082870D01*
X0038406Y0082917D01*
X0038558Y0082960D01*
X0038711Y0082999D01*
X0038866Y0083035D01*
X0039021Y0083066D01*
X0039177Y0083094D01*
X0039333Y0083118D01*
X0039490Y0083138D01*
X0039648Y0083154D01*
X0039805Y0083166D01*
X0039964Y0083174D01*
X0040122Y0083178D01*
X0040280Y0083178D01*
X0040438Y0083174D01*
X0040597Y0083166D01*
X0040754Y0083154D01*
X0040912Y0083138D01*
X0041069Y0083118D01*
X0041225Y0083094D01*
X0041381Y0083066D01*
X0041536Y0083035D01*
X0041691Y0082999D01*
X0041844Y0082960D01*
X0041996Y0082917D01*
X0042147Y0082870D01*
X0042297Y0082819D01*
X0042446Y0082764D01*
X0042593Y0082706D01*
X0042739Y0082644D01*
X0042883Y0082579D01*
X0043025Y0082509D01*
X0043166Y0082437D01*
X0043305Y0082360D01*
X0043441Y0082281D01*
X0043576Y0082197D01*
X0043709Y0082111D01*
X0043839Y0082021D01*
X0043967Y0081928D01*
X0044093Y0081832D01*
X0044216Y0081732D01*
X0044337Y0081630D01*
X0044455Y0081525D01*
X0044570Y0081416D01*
X0044683Y0081305D01*
X0044793Y0081191D01*
X0044900Y0081074D01*
X0045004Y0080955D01*
X0045105Y0080833D01*
X0045202Y0080708D01*
X0045297Y0080581D01*
X0045388Y0080452D01*
X0045477Y0080321D01*
X0045561Y0080187D01*
X0045643Y0080051D01*
X0045721Y0079914D01*
X0045795Y0079774D01*
X0045866Y0079632D01*
X0045934Y0079489D01*
X0045998Y0079344D01*
X0046058Y0079198D01*
X0046114Y0079050D01*
X0046167Y0078901D01*
X0046216Y0078750D01*
X0046261Y0078598D01*
X0046302Y0078445D01*
X0046340Y0078292D01*
X0046373Y0078137D01*
X0046403Y0077981D01*
X0046429Y0077825D01*
X0046450Y0077668D01*
X0046468Y0077511D01*
X0046482Y0077353D01*
X0046492Y0077195D01*
X0046498Y0077037D01*
X0046500Y0076879D01*
X0046498Y0076721D01*
X0046492Y0076563D01*
X0046482Y0076405D01*
X0046468Y0076247D01*
X0046450Y0076090D01*
X0046429Y0075933D01*
X0046403Y0075777D01*
X0046373Y0075621D01*
X0046340Y0075466D01*
X0046302Y0075313D01*
X0046261Y0075160D01*
X0046216Y0075008D01*
X0046167Y0074857D01*
X0046114Y0074708D01*
X0046058Y0074560D01*
X0045998Y0074414D01*
X0045934Y0074269D01*
X0045866Y0074126D01*
X0045795Y0073984D01*
X0045721Y0073844D01*
X0045643Y0073707D01*
X0045561Y0073571D01*
X0045477Y0073437D01*
X0045388Y0073306D01*
X0045297Y0073177D01*
X0045202Y0073050D01*
X0045105Y0072925D01*
X0045004Y0072803D01*
X0044900Y0072684D01*
X0044793Y0072567D01*
X0044683Y0072453D01*
X0044570Y0072342D01*
X0044455Y0072233D01*
X0044337Y0072128D01*
X0044216Y0072026D01*
X0044093Y0071926D01*
X0043967Y0071830D01*
X0043839Y0071737D01*
X0043709Y0071647D01*
X0043576Y0071561D01*
X0043441Y0071477D01*
X0043305Y0071398D01*
X0043166Y0071321D01*
X0043025Y0071249D01*
X0042883Y0071179D01*
X0042739Y0071114D01*
X0042593Y0071052D01*
X0042446Y0070994D01*
X0042297Y0070939D01*
X0042147Y0070888D01*
X0041996Y0070841D01*
X0041844Y0070798D01*
X0041691Y0070759D01*
X0041536Y0070723D01*
X0041381Y0070692D01*
X0041225Y0070664D01*
X0041069Y0070640D01*
X0040912Y0070620D01*
X0040754Y0070604D01*
X0040597Y0070592D01*
X0040438Y0070584D01*
X0040280Y0070580D01*
X0040122Y0070580D01*
X0039964Y0070584D01*
X0039805Y0070592D01*
X0039648Y0070604D01*
X0039490Y0070620D01*
X0039333Y0070640D01*
X0039177Y0070664D01*
X0039021Y0070692D01*
X0038866Y0070723D01*
X0038711Y0070759D01*
X0038558Y0070798D01*
X0038406Y0070841D01*
X0038255Y0070888D01*
X0038105Y0070939D01*
X0037956Y0070994D01*
X0037809Y0071052D01*
X0037663Y0071114D01*
X0037519Y0071179D01*
X0037377Y0071249D01*
X0037236Y0071321D01*
X0037097Y0071398D01*
X0036961Y0071477D01*
X0036826Y0071561D01*
X0036693Y0071647D01*
X0036563Y0071737D01*
X0036435Y0071830D01*
X0036309Y0071926D01*
X0036186Y0072026D01*
X0036065Y0072128D01*
X0035947Y0072233D01*
X0035832Y0072342D01*
X0035719Y0072453D01*
X0035609Y0072567D01*
X0035502Y0072684D01*
X0035398Y0072803D01*
X0035297Y0072925D01*
X0035200Y0073050D01*
X0035105Y0073177D01*
X0035014Y0073306D01*
X0034925Y0073437D01*
X0034841Y0073571D01*
X0034759Y0073707D01*
X0034681Y0073844D01*
X0034607Y0073984D01*
X0034536Y0074126D01*
X0034468Y0074269D01*
X0034404Y0074414D01*
X0034344Y0074560D01*
X0034288Y0074708D01*
X0034235Y0074857D01*
X0034186Y0075008D01*
X0034141Y0075160D01*
X0034100Y0075313D01*
X0034062Y0075466D01*
X0034029Y0075621D01*
X0033999Y0075777D01*
X0033973Y0075933D01*
X0033952Y0076090D01*
X0033934Y0076247D01*
X0033920Y0076405D01*
X0033910Y0076563D01*
X0033904Y0076721D01*
X0033902Y0076879D01*
X0073272Y0076879D02*
X0073274Y0077037D01*
X0073280Y0077195D01*
X0073290Y0077353D01*
X0073304Y0077511D01*
X0073322Y0077668D01*
X0073343Y0077825D01*
X0073369Y0077981D01*
X0073399Y0078137D01*
X0073432Y0078292D01*
X0073470Y0078445D01*
X0073511Y0078598D01*
X0073556Y0078750D01*
X0073605Y0078901D01*
X0073658Y0079050D01*
X0073714Y0079198D01*
X0073774Y0079344D01*
X0073838Y0079489D01*
X0073906Y0079632D01*
X0073977Y0079774D01*
X0074051Y0079914D01*
X0074129Y0080051D01*
X0074211Y0080187D01*
X0074295Y0080321D01*
X0074384Y0080452D01*
X0074475Y0080581D01*
X0074570Y0080708D01*
X0074667Y0080833D01*
X0074768Y0080955D01*
X0074872Y0081074D01*
X0074979Y0081191D01*
X0075089Y0081305D01*
X0075202Y0081416D01*
X0075317Y0081525D01*
X0075435Y0081630D01*
X0075556Y0081732D01*
X0075679Y0081832D01*
X0075805Y0081928D01*
X0075933Y0082021D01*
X0076063Y0082111D01*
X0076196Y0082197D01*
X0076331Y0082281D01*
X0076467Y0082360D01*
X0076606Y0082437D01*
X0076747Y0082509D01*
X0076889Y0082579D01*
X0077033Y0082644D01*
X0077179Y0082706D01*
X0077326Y0082764D01*
X0077475Y0082819D01*
X0077625Y0082870D01*
X0077776Y0082917D01*
X0077928Y0082960D01*
X0078081Y0082999D01*
X0078236Y0083035D01*
X0078391Y0083066D01*
X0078547Y0083094D01*
X0078703Y0083118D01*
X0078860Y0083138D01*
X0079018Y0083154D01*
X0079175Y0083166D01*
X0079334Y0083174D01*
X0079492Y0083178D01*
X0079650Y0083178D01*
X0079808Y0083174D01*
X0079967Y0083166D01*
X0080124Y0083154D01*
X0080282Y0083138D01*
X0080439Y0083118D01*
X0080595Y0083094D01*
X0080751Y0083066D01*
X0080906Y0083035D01*
X0081061Y0082999D01*
X0081214Y0082960D01*
X0081366Y0082917D01*
X0081517Y0082870D01*
X0081667Y0082819D01*
X0081816Y0082764D01*
X0081963Y0082706D01*
X0082109Y0082644D01*
X0082253Y0082579D01*
X0082395Y0082509D01*
X0082536Y0082437D01*
X0082675Y0082360D01*
X0082811Y0082281D01*
X0082946Y0082197D01*
X0083079Y0082111D01*
X0083209Y0082021D01*
X0083337Y0081928D01*
X0083463Y0081832D01*
X0083586Y0081732D01*
X0083707Y0081630D01*
X0083825Y0081525D01*
X0083940Y0081416D01*
X0084053Y0081305D01*
X0084163Y0081191D01*
X0084270Y0081074D01*
X0084374Y0080955D01*
X0084475Y0080833D01*
X0084572Y0080708D01*
X0084667Y0080581D01*
X0084758Y0080452D01*
X0084847Y0080321D01*
X0084931Y0080187D01*
X0085013Y0080051D01*
X0085091Y0079914D01*
X0085165Y0079774D01*
X0085236Y0079632D01*
X0085304Y0079489D01*
X0085368Y0079344D01*
X0085428Y0079198D01*
X0085484Y0079050D01*
X0085537Y0078901D01*
X0085586Y0078750D01*
X0085631Y0078598D01*
X0085672Y0078445D01*
X0085710Y0078292D01*
X0085743Y0078137D01*
X0085773Y0077981D01*
X0085799Y0077825D01*
X0085820Y0077668D01*
X0085838Y0077511D01*
X0085852Y0077353D01*
X0085862Y0077195D01*
X0085868Y0077037D01*
X0085870Y0076879D01*
X0085868Y0076721D01*
X0085862Y0076563D01*
X0085852Y0076405D01*
X0085838Y0076247D01*
X0085820Y0076090D01*
X0085799Y0075933D01*
X0085773Y0075777D01*
X0085743Y0075621D01*
X0085710Y0075466D01*
X0085672Y0075313D01*
X0085631Y0075160D01*
X0085586Y0075008D01*
X0085537Y0074857D01*
X0085484Y0074708D01*
X0085428Y0074560D01*
X0085368Y0074414D01*
X0085304Y0074269D01*
X0085236Y0074126D01*
X0085165Y0073984D01*
X0085091Y0073844D01*
X0085013Y0073707D01*
X0084931Y0073571D01*
X0084847Y0073437D01*
X0084758Y0073306D01*
X0084667Y0073177D01*
X0084572Y0073050D01*
X0084475Y0072925D01*
X0084374Y0072803D01*
X0084270Y0072684D01*
X0084163Y0072567D01*
X0084053Y0072453D01*
X0083940Y0072342D01*
X0083825Y0072233D01*
X0083707Y0072128D01*
X0083586Y0072026D01*
X0083463Y0071926D01*
X0083337Y0071830D01*
X0083209Y0071737D01*
X0083079Y0071647D01*
X0082946Y0071561D01*
X0082811Y0071477D01*
X0082675Y0071398D01*
X0082536Y0071321D01*
X0082395Y0071249D01*
X0082253Y0071179D01*
X0082109Y0071114D01*
X0081963Y0071052D01*
X0081816Y0070994D01*
X0081667Y0070939D01*
X0081517Y0070888D01*
X0081366Y0070841D01*
X0081214Y0070798D01*
X0081061Y0070759D01*
X0080906Y0070723D01*
X0080751Y0070692D01*
X0080595Y0070664D01*
X0080439Y0070640D01*
X0080282Y0070620D01*
X0080124Y0070604D01*
X0079967Y0070592D01*
X0079808Y0070584D01*
X0079650Y0070580D01*
X0079492Y0070580D01*
X0079334Y0070584D01*
X0079175Y0070592D01*
X0079018Y0070604D01*
X0078860Y0070620D01*
X0078703Y0070640D01*
X0078547Y0070664D01*
X0078391Y0070692D01*
X0078236Y0070723D01*
X0078081Y0070759D01*
X0077928Y0070798D01*
X0077776Y0070841D01*
X0077625Y0070888D01*
X0077475Y0070939D01*
X0077326Y0070994D01*
X0077179Y0071052D01*
X0077033Y0071114D01*
X0076889Y0071179D01*
X0076747Y0071249D01*
X0076606Y0071321D01*
X0076467Y0071398D01*
X0076331Y0071477D01*
X0076196Y0071561D01*
X0076063Y0071647D01*
X0075933Y0071737D01*
X0075805Y0071830D01*
X0075679Y0071926D01*
X0075556Y0072026D01*
X0075435Y0072128D01*
X0075317Y0072233D01*
X0075202Y0072342D01*
X0075089Y0072453D01*
X0074979Y0072567D01*
X0074872Y0072684D01*
X0074768Y0072803D01*
X0074667Y0072925D01*
X0074570Y0073050D01*
X0074475Y0073177D01*
X0074384Y0073306D01*
X0074295Y0073437D01*
X0074211Y0073571D01*
X0074129Y0073707D01*
X0074051Y0073844D01*
X0073977Y0073984D01*
X0073906Y0074126D01*
X0073838Y0074269D01*
X0073774Y0074414D01*
X0073714Y0074560D01*
X0073658Y0074708D01*
X0073605Y0074857D01*
X0073556Y0075008D01*
X0073511Y0075160D01*
X0073470Y0075313D01*
X0073432Y0075466D01*
X0073399Y0075621D01*
X0073369Y0075777D01*
X0073343Y0075933D01*
X0073322Y0076090D01*
X0073304Y0076247D01*
X0073290Y0076405D01*
X0073280Y0076563D01*
X0073274Y0076721D01*
X0073272Y0076879D01*
X0140736Y0141013D02*
X0140738Y0141138D01*
X0140744Y0141263D01*
X0140754Y0141387D01*
X0140768Y0141511D01*
X0140785Y0141635D01*
X0140807Y0141758D01*
X0140833Y0141880D01*
X0140862Y0142002D01*
X0140895Y0142122D01*
X0140933Y0142241D01*
X0140973Y0142360D01*
X0141018Y0142476D01*
X0141066Y0142591D01*
X0141118Y0142705D01*
X0141174Y0142817D01*
X0141233Y0142927D01*
X0141295Y0143035D01*
X0141361Y0143142D01*
X0141430Y0143246D01*
X0141503Y0143347D01*
X0141578Y0143447D01*
X0141657Y0143544D01*
X0141739Y0143638D01*
X0141824Y0143730D01*
X0141911Y0143819D01*
X0142002Y0143905D01*
X0142095Y0143988D01*
X0142191Y0144069D01*
X0142289Y0144146D01*
X0142389Y0144220D01*
X0142492Y0144291D01*
X0142597Y0144358D01*
X0142705Y0144423D01*
X0142814Y0144483D01*
X0142925Y0144541D01*
X0143038Y0144594D01*
X0143152Y0144644D01*
X0143268Y0144691D01*
X0143385Y0144733D01*
X0143504Y0144772D01*
X0143624Y0144808D01*
X0143745Y0144839D01*
X0143867Y0144867D01*
X0143989Y0144890D01*
X0144113Y0144910D01*
X0144237Y0144926D01*
X0144361Y0144938D01*
X0144486Y0144946D01*
X0144611Y0144950D01*
X0144735Y0144950D01*
X0144860Y0144946D01*
X0144985Y0144938D01*
X0145109Y0144926D01*
X0145233Y0144910D01*
X0145357Y0144890D01*
X0145479Y0144867D01*
X0145601Y0144839D01*
X0145722Y0144808D01*
X0145842Y0144772D01*
X0145961Y0144733D01*
X0146078Y0144691D01*
X0146194Y0144644D01*
X0146308Y0144594D01*
X0146421Y0144541D01*
X0146532Y0144483D01*
X0146642Y0144423D01*
X0146749Y0144358D01*
X0146854Y0144291D01*
X0146957Y0144220D01*
X0147057Y0144146D01*
X0147155Y0144069D01*
X0147251Y0143988D01*
X0147344Y0143905D01*
X0147435Y0143819D01*
X0147522Y0143730D01*
X0147607Y0143638D01*
X0147689Y0143544D01*
X0147768Y0143447D01*
X0147843Y0143347D01*
X0147916Y0143246D01*
X0147985Y0143142D01*
X0148051Y0143035D01*
X0148113Y0142927D01*
X0148172Y0142817D01*
X0148228Y0142705D01*
X0148280Y0142591D01*
X0148328Y0142476D01*
X0148373Y0142360D01*
X0148413Y0142241D01*
X0148451Y0142122D01*
X0148484Y0142002D01*
X0148513Y0141880D01*
X0148539Y0141758D01*
X0148561Y0141635D01*
X0148578Y0141511D01*
X0148592Y0141387D01*
X0148602Y0141263D01*
X0148608Y0141138D01*
X0148610Y0141013D01*
X0148608Y0140888D01*
X0148602Y0140763D01*
X0148592Y0140639D01*
X0148578Y0140515D01*
X0148561Y0140391D01*
X0148539Y0140268D01*
X0148513Y0140146D01*
X0148484Y0140024D01*
X0148451Y0139904D01*
X0148413Y0139785D01*
X0148373Y0139666D01*
X0148328Y0139550D01*
X0148280Y0139435D01*
X0148228Y0139321D01*
X0148172Y0139209D01*
X0148113Y0139099D01*
X0148051Y0138991D01*
X0147985Y0138884D01*
X0147916Y0138780D01*
X0147843Y0138679D01*
X0147768Y0138579D01*
X0147689Y0138482D01*
X0147607Y0138388D01*
X0147522Y0138296D01*
X0147435Y0138207D01*
X0147344Y0138121D01*
X0147251Y0138038D01*
X0147155Y0137957D01*
X0147057Y0137880D01*
X0146957Y0137806D01*
X0146854Y0137735D01*
X0146749Y0137668D01*
X0146641Y0137603D01*
X0146532Y0137543D01*
X0146421Y0137485D01*
X0146308Y0137432D01*
X0146194Y0137382D01*
X0146078Y0137335D01*
X0145961Y0137293D01*
X0145842Y0137254D01*
X0145722Y0137218D01*
X0145601Y0137187D01*
X0145479Y0137159D01*
X0145357Y0137136D01*
X0145233Y0137116D01*
X0145109Y0137100D01*
X0144985Y0137088D01*
X0144860Y0137080D01*
X0144735Y0137076D01*
X0144611Y0137076D01*
X0144486Y0137080D01*
X0144361Y0137088D01*
X0144237Y0137100D01*
X0144113Y0137116D01*
X0143989Y0137136D01*
X0143867Y0137159D01*
X0143745Y0137187D01*
X0143624Y0137218D01*
X0143504Y0137254D01*
X0143385Y0137293D01*
X0143268Y0137335D01*
X0143152Y0137382D01*
X0143038Y0137432D01*
X0142925Y0137485D01*
X0142814Y0137543D01*
X0142704Y0137603D01*
X0142597Y0137668D01*
X0142492Y0137735D01*
X0142389Y0137806D01*
X0142289Y0137880D01*
X0142191Y0137957D01*
X0142095Y0138038D01*
X0142002Y0138121D01*
X0141911Y0138207D01*
X0141824Y0138296D01*
X0141739Y0138388D01*
X0141657Y0138482D01*
X0141578Y0138579D01*
X0141503Y0138679D01*
X0141430Y0138780D01*
X0141361Y0138884D01*
X0141295Y0138991D01*
X0141233Y0139099D01*
X0141174Y0139209D01*
X0141118Y0139321D01*
X0141066Y0139435D01*
X0141018Y0139550D01*
X0140973Y0139666D01*
X0140933Y0139785D01*
X0140895Y0139904D01*
X0140862Y0140024D01*
X0140833Y0140146D01*
X0140807Y0140268D01*
X0140785Y0140391D01*
X0140768Y0140515D01*
X0140754Y0140639D01*
X0140744Y0140763D01*
X0140738Y0140888D01*
X0140736Y0141013D01*
X0024059Y0163493D02*
X0024061Y0163651D01*
X0024067Y0163809D01*
X0024077Y0163967D01*
X0024091Y0164125D01*
X0024109Y0164282D01*
X0024130Y0164439D01*
X0024156Y0164595D01*
X0024186Y0164751D01*
X0024219Y0164906D01*
X0024257Y0165059D01*
X0024298Y0165212D01*
X0024343Y0165364D01*
X0024392Y0165515D01*
X0024445Y0165664D01*
X0024501Y0165812D01*
X0024561Y0165958D01*
X0024625Y0166103D01*
X0024693Y0166246D01*
X0024764Y0166388D01*
X0024838Y0166528D01*
X0024916Y0166665D01*
X0024998Y0166801D01*
X0025082Y0166935D01*
X0025171Y0167066D01*
X0025262Y0167195D01*
X0025357Y0167322D01*
X0025454Y0167447D01*
X0025555Y0167569D01*
X0025659Y0167688D01*
X0025766Y0167805D01*
X0025876Y0167919D01*
X0025989Y0168030D01*
X0026104Y0168139D01*
X0026222Y0168244D01*
X0026343Y0168346D01*
X0026466Y0168446D01*
X0026592Y0168542D01*
X0026720Y0168635D01*
X0026850Y0168725D01*
X0026983Y0168811D01*
X0027118Y0168895D01*
X0027254Y0168974D01*
X0027393Y0169051D01*
X0027534Y0169123D01*
X0027676Y0169193D01*
X0027820Y0169258D01*
X0027966Y0169320D01*
X0028113Y0169378D01*
X0028262Y0169433D01*
X0028412Y0169484D01*
X0028563Y0169531D01*
X0028715Y0169574D01*
X0028868Y0169613D01*
X0029023Y0169649D01*
X0029178Y0169680D01*
X0029334Y0169708D01*
X0029490Y0169732D01*
X0029647Y0169752D01*
X0029805Y0169768D01*
X0029962Y0169780D01*
X0030121Y0169788D01*
X0030279Y0169792D01*
X0030437Y0169792D01*
X0030595Y0169788D01*
X0030754Y0169780D01*
X0030911Y0169768D01*
X0031069Y0169752D01*
X0031226Y0169732D01*
X0031382Y0169708D01*
X0031538Y0169680D01*
X0031693Y0169649D01*
X0031848Y0169613D01*
X0032001Y0169574D01*
X0032153Y0169531D01*
X0032304Y0169484D01*
X0032454Y0169433D01*
X0032603Y0169378D01*
X0032750Y0169320D01*
X0032896Y0169258D01*
X0033040Y0169193D01*
X0033182Y0169123D01*
X0033323Y0169051D01*
X0033462Y0168974D01*
X0033598Y0168895D01*
X0033733Y0168811D01*
X0033866Y0168725D01*
X0033996Y0168635D01*
X0034124Y0168542D01*
X0034250Y0168446D01*
X0034373Y0168346D01*
X0034494Y0168244D01*
X0034612Y0168139D01*
X0034727Y0168030D01*
X0034840Y0167919D01*
X0034950Y0167805D01*
X0035057Y0167688D01*
X0035161Y0167569D01*
X0035262Y0167447D01*
X0035359Y0167322D01*
X0035454Y0167195D01*
X0035545Y0167066D01*
X0035634Y0166935D01*
X0035718Y0166801D01*
X0035800Y0166665D01*
X0035878Y0166528D01*
X0035952Y0166388D01*
X0036023Y0166246D01*
X0036091Y0166103D01*
X0036155Y0165958D01*
X0036215Y0165812D01*
X0036271Y0165664D01*
X0036324Y0165515D01*
X0036373Y0165364D01*
X0036418Y0165212D01*
X0036459Y0165059D01*
X0036497Y0164906D01*
X0036530Y0164751D01*
X0036560Y0164595D01*
X0036586Y0164439D01*
X0036607Y0164282D01*
X0036625Y0164125D01*
X0036639Y0163967D01*
X0036649Y0163809D01*
X0036655Y0163651D01*
X0036657Y0163493D01*
X0036655Y0163335D01*
X0036649Y0163177D01*
X0036639Y0163019D01*
X0036625Y0162861D01*
X0036607Y0162704D01*
X0036586Y0162547D01*
X0036560Y0162391D01*
X0036530Y0162235D01*
X0036497Y0162080D01*
X0036459Y0161927D01*
X0036418Y0161774D01*
X0036373Y0161622D01*
X0036324Y0161471D01*
X0036271Y0161322D01*
X0036215Y0161174D01*
X0036155Y0161028D01*
X0036091Y0160883D01*
X0036023Y0160740D01*
X0035952Y0160598D01*
X0035878Y0160458D01*
X0035800Y0160321D01*
X0035718Y0160185D01*
X0035634Y0160051D01*
X0035545Y0159920D01*
X0035454Y0159791D01*
X0035359Y0159664D01*
X0035262Y0159539D01*
X0035161Y0159417D01*
X0035057Y0159298D01*
X0034950Y0159181D01*
X0034840Y0159067D01*
X0034727Y0158956D01*
X0034612Y0158847D01*
X0034494Y0158742D01*
X0034373Y0158640D01*
X0034250Y0158540D01*
X0034124Y0158444D01*
X0033996Y0158351D01*
X0033866Y0158261D01*
X0033733Y0158175D01*
X0033598Y0158091D01*
X0033462Y0158012D01*
X0033323Y0157935D01*
X0033182Y0157863D01*
X0033040Y0157793D01*
X0032896Y0157728D01*
X0032750Y0157666D01*
X0032603Y0157608D01*
X0032454Y0157553D01*
X0032304Y0157502D01*
X0032153Y0157455D01*
X0032001Y0157412D01*
X0031848Y0157373D01*
X0031693Y0157337D01*
X0031538Y0157306D01*
X0031382Y0157278D01*
X0031226Y0157254D01*
X0031069Y0157234D01*
X0030911Y0157218D01*
X0030754Y0157206D01*
X0030595Y0157198D01*
X0030437Y0157194D01*
X0030279Y0157194D01*
X0030121Y0157198D01*
X0029962Y0157206D01*
X0029805Y0157218D01*
X0029647Y0157234D01*
X0029490Y0157254D01*
X0029334Y0157278D01*
X0029178Y0157306D01*
X0029023Y0157337D01*
X0028868Y0157373D01*
X0028715Y0157412D01*
X0028563Y0157455D01*
X0028412Y0157502D01*
X0028262Y0157553D01*
X0028113Y0157608D01*
X0027966Y0157666D01*
X0027820Y0157728D01*
X0027676Y0157793D01*
X0027534Y0157863D01*
X0027393Y0157935D01*
X0027254Y0158012D01*
X0027118Y0158091D01*
X0026983Y0158175D01*
X0026850Y0158261D01*
X0026720Y0158351D01*
X0026592Y0158444D01*
X0026466Y0158540D01*
X0026343Y0158640D01*
X0026222Y0158742D01*
X0026104Y0158847D01*
X0025989Y0158956D01*
X0025876Y0159067D01*
X0025766Y0159181D01*
X0025659Y0159298D01*
X0025555Y0159417D01*
X0025454Y0159539D01*
X0025357Y0159664D01*
X0025262Y0159791D01*
X0025171Y0159920D01*
X0025082Y0160051D01*
X0024998Y0160185D01*
X0024916Y0160321D01*
X0024838Y0160458D01*
X0024764Y0160598D01*
X0024693Y0160740D01*
X0024625Y0160883D01*
X0024561Y0161028D01*
X0024501Y0161174D01*
X0024445Y0161322D01*
X0024392Y0161471D01*
X0024343Y0161622D01*
X0024298Y0161774D01*
X0024257Y0161927D01*
X0024219Y0162080D01*
X0024186Y0162235D01*
X0024156Y0162391D01*
X0024130Y0162547D01*
X0024109Y0162704D01*
X0024091Y0162861D01*
X0024077Y0163019D01*
X0024067Y0163177D01*
X0024061Y0163335D01*
X0024059Y0163493D01*
X0299650Y0163493D02*
X0299652Y0163651D01*
X0299658Y0163809D01*
X0299668Y0163967D01*
X0299682Y0164125D01*
X0299700Y0164282D01*
X0299721Y0164439D01*
X0299747Y0164595D01*
X0299777Y0164751D01*
X0299810Y0164906D01*
X0299848Y0165059D01*
X0299889Y0165212D01*
X0299934Y0165364D01*
X0299983Y0165515D01*
X0300036Y0165664D01*
X0300092Y0165812D01*
X0300152Y0165958D01*
X0300216Y0166103D01*
X0300284Y0166246D01*
X0300355Y0166388D01*
X0300429Y0166528D01*
X0300507Y0166665D01*
X0300589Y0166801D01*
X0300673Y0166935D01*
X0300762Y0167066D01*
X0300853Y0167195D01*
X0300948Y0167322D01*
X0301045Y0167447D01*
X0301146Y0167569D01*
X0301250Y0167688D01*
X0301357Y0167805D01*
X0301467Y0167919D01*
X0301580Y0168030D01*
X0301695Y0168139D01*
X0301813Y0168244D01*
X0301934Y0168346D01*
X0302057Y0168446D01*
X0302183Y0168542D01*
X0302311Y0168635D01*
X0302441Y0168725D01*
X0302574Y0168811D01*
X0302709Y0168895D01*
X0302845Y0168974D01*
X0302984Y0169051D01*
X0303125Y0169123D01*
X0303267Y0169193D01*
X0303411Y0169258D01*
X0303557Y0169320D01*
X0303704Y0169378D01*
X0303853Y0169433D01*
X0304003Y0169484D01*
X0304154Y0169531D01*
X0304306Y0169574D01*
X0304459Y0169613D01*
X0304614Y0169649D01*
X0304769Y0169680D01*
X0304925Y0169708D01*
X0305081Y0169732D01*
X0305238Y0169752D01*
X0305396Y0169768D01*
X0305553Y0169780D01*
X0305712Y0169788D01*
X0305870Y0169792D01*
X0306028Y0169792D01*
X0306186Y0169788D01*
X0306345Y0169780D01*
X0306502Y0169768D01*
X0306660Y0169752D01*
X0306817Y0169732D01*
X0306973Y0169708D01*
X0307129Y0169680D01*
X0307284Y0169649D01*
X0307439Y0169613D01*
X0307592Y0169574D01*
X0307744Y0169531D01*
X0307895Y0169484D01*
X0308045Y0169433D01*
X0308194Y0169378D01*
X0308341Y0169320D01*
X0308487Y0169258D01*
X0308631Y0169193D01*
X0308773Y0169123D01*
X0308914Y0169051D01*
X0309053Y0168974D01*
X0309189Y0168895D01*
X0309324Y0168811D01*
X0309457Y0168725D01*
X0309587Y0168635D01*
X0309715Y0168542D01*
X0309841Y0168446D01*
X0309964Y0168346D01*
X0310085Y0168244D01*
X0310203Y0168139D01*
X0310318Y0168030D01*
X0310431Y0167919D01*
X0310541Y0167805D01*
X0310648Y0167688D01*
X0310752Y0167569D01*
X0310853Y0167447D01*
X0310950Y0167322D01*
X0311045Y0167195D01*
X0311136Y0167066D01*
X0311225Y0166935D01*
X0311309Y0166801D01*
X0311391Y0166665D01*
X0311469Y0166528D01*
X0311543Y0166388D01*
X0311614Y0166246D01*
X0311682Y0166103D01*
X0311746Y0165958D01*
X0311806Y0165812D01*
X0311862Y0165664D01*
X0311915Y0165515D01*
X0311964Y0165364D01*
X0312009Y0165212D01*
X0312050Y0165059D01*
X0312088Y0164906D01*
X0312121Y0164751D01*
X0312151Y0164595D01*
X0312177Y0164439D01*
X0312198Y0164282D01*
X0312216Y0164125D01*
X0312230Y0163967D01*
X0312240Y0163809D01*
X0312246Y0163651D01*
X0312248Y0163493D01*
X0312246Y0163335D01*
X0312240Y0163177D01*
X0312230Y0163019D01*
X0312216Y0162861D01*
X0312198Y0162704D01*
X0312177Y0162547D01*
X0312151Y0162391D01*
X0312121Y0162235D01*
X0312088Y0162080D01*
X0312050Y0161927D01*
X0312009Y0161774D01*
X0311964Y0161622D01*
X0311915Y0161471D01*
X0311862Y0161322D01*
X0311806Y0161174D01*
X0311746Y0161028D01*
X0311682Y0160883D01*
X0311614Y0160740D01*
X0311543Y0160598D01*
X0311469Y0160458D01*
X0311391Y0160321D01*
X0311309Y0160185D01*
X0311225Y0160051D01*
X0311136Y0159920D01*
X0311045Y0159791D01*
X0310950Y0159664D01*
X0310853Y0159539D01*
X0310752Y0159417D01*
X0310648Y0159298D01*
X0310541Y0159181D01*
X0310431Y0159067D01*
X0310318Y0158956D01*
X0310203Y0158847D01*
X0310085Y0158742D01*
X0309964Y0158640D01*
X0309841Y0158540D01*
X0309715Y0158444D01*
X0309587Y0158351D01*
X0309457Y0158261D01*
X0309324Y0158175D01*
X0309189Y0158091D01*
X0309053Y0158012D01*
X0308914Y0157935D01*
X0308773Y0157863D01*
X0308631Y0157793D01*
X0308487Y0157728D01*
X0308341Y0157666D01*
X0308194Y0157608D01*
X0308045Y0157553D01*
X0307895Y0157502D01*
X0307744Y0157455D01*
X0307592Y0157412D01*
X0307439Y0157373D01*
X0307284Y0157337D01*
X0307129Y0157306D01*
X0306973Y0157278D01*
X0306817Y0157254D01*
X0306660Y0157234D01*
X0306502Y0157218D01*
X0306345Y0157206D01*
X0306186Y0157198D01*
X0306028Y0157194D01*
X0305870Y0157194D01*
X0305712Y0157198D01*
X0305553Y0157206D01*
X0305396Y0157218D01*
X0305238Y0157234D01*
X0305081Y0157254D01*
X0304925Y0157278D01*
X0304769Y0157306D01*
X0304614Y0157337D01*
X0304459Y0157373D01*
X0304306Y0157412D01*
X0304154Y0157455D01*
X0304003Y0157502D01*
X0303853Y0157553D01*
X0303704Y0157608D01*
X0303557Y0157666D01*
X0303411Y0157728D01*
X0303267Y0157793D01*
X0303125Y0157863D01*
X0302984Y0157935D01*
X0302845Y0158012D01*
X0302709Y0158091D01*
X0302574Y0158175D01*
X0302441Y0158261D01*
X0302311Y0158351D01*
X0302183Y0158444D01*
X0302057Y0158540D01*
X0301934Y0158640D01*
X0301813Y0158742D01*
X0301695Y0158847D01*
X0301580Y0158956D01*
X0301467Y0159067D01*
X0301357Y0159181D01*
X0301250Y0159298D01*
X0301146Y0159417D01*
X0301045Y0159539D01*
X0300948Y0159664D01*
X0300853Y0159791D01*
X0300762Y0159920D01*
X0300673Y0160051D01*
X0300589Y0160185D01*
X0300507Y0160321D01*
X0300429Y0160458D01*
X0300355Y0160598D01*
X0300284Y0160740D01*
X0300216Y0160883D01*
X0300152Y0161028D01*
X0300092Y0161174D01*
X0300036Y0161322D01*
X0299983Y0161471D01*
X0299934Y0161622D01*
X0299889Y0161774D01*
X0299848Y0161927D01*
X0299810Y0162080D01*
X0299777Y0162235D01*
X0299747Y0162391D01*
X0299721Y0162547D01*
X0299700Y0162704D01*
X0299682Y0162861D01*
X0299668Y0163019D01*
X0299658Y0163177D01*
X0299652Y0163335D01*
X0299650Y0163493D01*
X0302012Y0025698D02*
X0302014Y0025823D01*
X0302020Y0025948D01*
X0302030Y0026072D01*
X0302044Y0026196D01*
X0302061Y0026320D01*
X0302083Y0026443D01*
X0302109Y0026565D01*
X0302138Y0026687D01*
X0302171Y0026807D01*
X0302209Y0026926D01*
X0302249Y0027045D01*
X0302294Y0027161D01*
X0302342Y0027276D01*
X0302394Y0027390D01*
X0302450Y0027502D01*
X0302509Y0027612D01*
X0302571Y0027720D01*
X0302637Y0027827D01*
X0302706Y0027931D01*
X0302779Y0028032D01*
X0302854Y0028132D01*
X0302933Y0028229D01*
X0303015Y0028323D01*
X0303100Y0028415D01*
X0303187Y0028504D01*
X0303278Y0028590D01*
X0303371Y0028673D01*
X0303467Y0028754D01*
X0303565Y0028831D01*
X0303665Y0028905D01*
X0303768Y0028976D01*
X0303873Y0029043D01*
X0303981Y0029108D01*
X0304090Y0029168D01*
X0304201Y0029226D01*
X0304314Y0029279D01*
X0304428Y0029329D01*
X0304544Y0029376D01*
X0304661Y0029418D01*
X0304780Y0029457D01*
X0304900Y0029493D01*
X0305021Y0029524D01*
X0305143Y0029552D01*
X0305265Y0029575D01*
X0305389Y0029595D01*
X0305513Y0029611D01*
X0305637Y0029623D01*
X0305762Y0029631D01*
X0305887Y0029635D01*
X0306011Y0029635D01*
X0306136Y0029631D01*
X0306261Y0029623D01*
X0306385Y0029611D01*
X0306509Y0029595D01*
X0306633Y0029575D01*
X0306755Y0029552D01*
X0306877Y0029524D01*
X0306998Y0029493D01*
X0307118Y0029457D01*
X0307237Y0029418D01*
X0307354Y0029376D01*
X0307470Y0029329D01*
X0307584Y0029279D01*
X0307697Y0029226D01*
X0307808Y0029168D01*
X0307918Y0029108D01*
X0308025Y0029043D01*
X0308130Y0028976D01*
X0308233Y0028905D01*
X0308333Y0028831D01*
X0308431Y0028754D01*
X0308527Y0028673D01*
X0308620Y0028590D01*
X0308711Y0028504D01*
X0308798Y0028415D01*
X0308883Y0028323D01*
X0308965Y0028229D01*
X0309044Y0028132D01*
X0309119Y0028032D01*
X0309192Y0027931D01*
X0309261Y0027827D01*
X0309327Y0027720D01*
X0309389Y0027612D01*
X0309448Y0027502D01*
X0309504Y0027390D01*
X0309556Y0027276D01*
X0309604Y0027161D01*
X0309649Y0027045D01*
X0309689Y0026926D01*
X0309727Y0026807D01*
X0309760Y0026687D01*
X0309789Y0026565D01*
X0309815Y0026443D01*
X0309837Y0026320D01*
X0309854Y0026196D01*
X0309868Y0026072D01*
X0309878Y0025948D01*
X0309884Y0025823D01*
X0309886Y0025698D01*
X0309884Y0025573D01*
X0309878Y0025448D01*
X0309868Y0025324D01*
X0309854Y0025200D01*
X0309837Y0025076D01*
X0309815Y0024953D01*
X0309789Y0024831D01*
X0309760Y0024709D01*
X0309727Y0024589D01*
X0309689Y0024470D01*
X0309649Y0024351D01*
X0309604Y0024235D01*
X0309556Y0024120D01*
X0309504Y0024006D01*
X0309448Y0023894D01*
X0309389Y0023784D01*
X0309327Y0023676D01*
X0309261Y0023569D01*
X0309192Y0023465D01*
X0309119Y0023364D01*
X0309044Y0023264D01*
X0308965Y0023167D01*
X0308883Y0023073D01*
X0308798Y0022981D01*
X0308711Y0022892D01*
X0308620Y0022806D01*
X0308527Y0022723D01*
X0308431Y0022642D01*
X0308333Y0022565D01*
X0308233Y0022491D01*
X0308130Y0022420D01*
X0308025Y0022353D01*
X0307917Y0022288D01*
X0307808Y0022228D01*
X0307697Y0022170D01*
X0307584Y0022117D01*
X0307470Y0022067D01*
X0307354Y0022020D01*
X0307237Y0021978D01*
X0307118Y0021939D01*
X0306998Y0021903D01*
X0306877Y0021872D01*
X0306755Y0021844D01*
X0306633Y0021821D01*
X0306509Y0021801D01*
X0306385Y0021785D01*
X0306261Y0021773D01*
X0306136Y0021765D01*
X0306011Y0021761D01*
X0305887Y0021761D01*
X0305762Y0021765D01*
X0305637Y0021773D01*
X0305513Y0021785D01*
X0305389Y0021801D01*
X0305265Y0021821D01*
X0305143Y0021844D01*
X0305021Y0021872D01*
X0304900Y0021903D01*
X0304780Y0021939D01*
X0304661Y0021978D01*
X0304544Y0022020D01*
X0304428Y0022067D01*
X0304314Y0022117D01*
X0304201Y0022170D01*
X0304090Y0022228D01*
X0303980Y0022288D01*
X0303873Y0022353D01*
X0303768Y0022420D01*
X0303665Y0022491D01*
X0303565Y0022565D01*
X0303467Y0022642D01*
X0303371Y0022723D01*
X0303278Y0022806D01*
X0303187Y0022892D01*
X0303100Y0022981D01*
X0303015Y0023073D01*
X0302933Y0023167D01*
X0302854Y0023264D01*
X0302779Y0023364D01*
X0302706Y0023465D01*
X0302637Y0023569D01*
X0302571Y0023676D01*
X0302509Y0023784D01*
X0302450Y0023894D01*
X0302394Y0024006D01*
X0302342Y0024120D01*
X0302294Y0024235D01*
X0302249Y0024351D01*
X0302209Y0024470D01*
X0302171Y0024589D01*
X0302138Y0024709D01*
X0302109Y0024831D01*
X0302083Y0024953D01*
X0302061Y0025076D01*
X0302044Y0025200D01*
X0302030Y0025324D01*
X0302020Y0025448D01*
X0302014Y0025573D01*
X0302012Y0025698D01*
D11*
X0154264Y0161713D02*
X0154264Y0167317D01*
X0157067Y0167317D01*
X0158001Y0166383D01*
X0158001Y0164515D01*
X0157067Y0163581D01*
X0154264Y0163581D01*
X0151555Y0162647D02*
X0151555Y0166383D01*
X0150621Y0167317D01*
X0148753Y0167317D01*
X0147819Y0166383D01*
X0147819Y0162647D01*
X0148753Y0161713D01*
X0150621Y0161713D01*
X0151555Y0162647D01*
X0145110Y0167317D02*
X0141373Y0167317D01*
X0143241Y0167317D02*
X0143241Y0161713D01*
D12*
X0170280Y0156800D03*
X0170280Y0146800D03*
X0170280Y0136800D03*
X0170280Y0126800D03*
X0170280Y0116800D03*
X0170280Y0106800D03*
X0170280Y0096800D03*
X0170280Y0086800D03*
X0170280Y0076800D03*
X0170280Y0066800D03*
X0170280Y0056800D03*
X0170280Y0046800D03*
X0170280Y0036800D03*
X0170280Y0026800D03*
X0170280Y0016800D03*
X0230280Y0016800D03*
X0230280Y0026800D03*
X0230280Y0036800D03*
X0230280Y0046800D03*
X0230280Y0056800D03*
X0230280Y0066800D03*
X0230280Y0076800D03*
X0230280Y0086800D03*
X0230280Y0096800D03*
X0230280Y0106800D03*
X0230280Y0116800D03*
X0230280Y0126800D03*
X0230280Y0136800D03*
X0230280Y0146800D03*
X0230280Y0156800D03*
X0230280Y0166800D03*
X0230280Y0176800D03*
X0170280Y0176800D03*
X0170280Y0166800D03*
D13*
X0074571Y0039910D03*
X0064571Y0039910D03*
X0054571Y0039910D03*
X0044571Y0039910D03*
D14*
X0139531Y0064127D03*
X0149531Y0069127D03*
X0139531Y0074127D03*
X0149531Y0079127D03*
X0139531Y0084127D03*
X0149531Y0089127D03*
X0139531Y0094127D03*
X0149531Y0099127D03*
X0139531Y0104127D03*
X0149531Y0109127D03*
X0139531Y0114127D03*
X0149531Y0119127D03*
X0139531Y0124127D03*
X0149531Y0129127D03*
X0139531Y0134127D03*
X0149531Y0059127D03*
D15*
X0125957Y0144706D03*
X0115957Y0154706D03*
X0125957Y0164706D03*
D16*
X0072681Y0135556D02*
X0072681Y0129619D01*
X0045122Y0129619D02*
X0045122Y0135556D01*
X0058902Y0107997D02*
X0058902Y0102060D01*
X0086461Y0102060D02*
X0086461Y0107997D01*
X0249846Y0125682D02*
X0249846Y0131619D01*
X0277406Y0131619D02*
X0277406Y0125682D01*
X0291185Y0104060D02*
X0291185Y0098123D01*
X0263626Y0098123D02*
X0263626Y0104060D01*
D17*
X0243984Y0075891D03*
X0243984Y0038891D03*
X0304984Y0038891D03*
X0304984Y0075891D03*
D18*
X0152602Y0037509D03*
X0136461Y0037509D03*
X0136461Y0025698D03*
X0152602Y0025698D03*
X0152602Y0013887D03*
X0136461Y0013887D03*
D19*
X0248862Y0025698D03*
X0260673Y0025698D03*
X0280358Y0025698D03*
X0292169Y0025698D03*
D20*
X0029673Y0103013D02*
X0023673Y0103013D01*
X0023673Y0113013D02*
X0029673Y0113013D01*
X0029673Y0123013D02*
X0023673Y0123013D01*
X0023673Y0133013D02*
X0029673Y0133013D01*
X0029673Y0143013D02*
X0023673Y0143013D01*
D21*
X0100996Y0126013D03*
X0116350Y0126013D03*
X0110996Y0106013D03*
X0126350Y0106013D03*
D22*
X0100673Y0111918D03*
X0100673Y0100107D03*
X0100673Y0140107D03*
X0100673Y0151918D03*
D23*
X0126673Y0129359D03*
X0126673Y0122666D03*
D24*
X0126350Y0122343D01*
X0126350Y0106013D01*
X0120210Y0106719D02*
X0117136Y0106719D01*
X0117136Y0107627D02*
X0118163Y0108654D01*
X0119063Y0109554D01*
X0119550Y0110730D01*
X0119550Y0116920D01*
X0120568Y0116920D01*
X0121450Y0117285D01*
X0122125Y0117960D01*
X0122491Y0118842D01*
X0122491Y0119321D01*
X0123148Y0118663D01*
X0123150Y0118662D01*
X0123150Y0115105D01*
X0122133Y0115105D01*
X0121251Y0114740D01*
X0120576Y0114065D01*
X0120210Y0113183D01*
X0120210Y0098842D01*
X0120576Y0097960D01*
X0121251Y0097285D01*
X0122133Y0096920D01*
X0130568Y0096920D01*
X0131450Y0097285D01*
X0132125Y0097960D01*
X0132491Y0098842D01*
X0132491Y0113183D01*
X0132125Y0114065D01*
X0131450Y0114740D01*
X0130568Y0115105D01*
X0129550Y0115105D01*
X0129550Y0118395D01*
X0130198Y0118663D01*
X0130873Y0119338D01*
X0131239Y0120220D01*
X0131239Y0125112D01*
X0130873Y0125994D01*
X0130855Y0126013D01*
X0130873Y0126031D01*
X0131239Y0126913D01*
X0131239Y0131805D01*
X0130873Y0132687D01*
X0130198Y0133362D01*
X0129873Y0133497D01*
X0129873Y0133687D01*
X0137936Y0141750D01*
X0137936Y0139673D01*
X0138461Y0138405D01*
X0137842Y0138204D01*
X0137225Y0137890D01*
X0136665Y0137483D01*
X0136175Y0136993D01*
X0135768Y0136433D01*
X0135454Y0135816D01*
X0135240Y0135157D01*
X0135131Y0134473D01*
X0135131Y0134127D01*
X0139531Y0134127D01*
X0139531Y0134127D01*
X0135131Y0134127D01*
X0135131Y0133780D01*
X0135240Y0133096D01*
X0135454Y0132438D01*
X0135768Y0131821D01*
X0136175Y0131260D01*
X0136665Y0130771D01*
X0137225Y0130364D01*
X0137842Y0130049D01*
X0138501Y0129835D01*
X0139185Y0129727D01*
X0139531Y0129727D01*
X0139531Y0134127D01*
X0134787Y0134127D01*
X0134787Y0118871D01*
X0133673Y0117757D01*
X0133673Y0094013D01*
X0130673Y0091013D01*
X0107673Y0091013D01*
X0100673Y0098013D01*
X0100673Y0100107D01*
X0095752Y0105028D01*
X0086461Y0105028D01*
X0086461Y0140225D01*
X0085673Y0141013D01*
X0089768Y0141013D01*
X0100673Y0151918D01*
X0100673Y0158013D01*
X0099999Y0158813D02*
X0102348Y0158813D01*
X0104489Y0156671D01*
X0101350Y0156671D01*
X0101350Y0152595D01*
X0099997Y0152595D01*
X0099997Y0156671D01*
X0097857Y0156671D01*
X0099999Y0158813D01*
X0099057Y0157871D02*
X0103289Y0157871D01*
X0101350Y0156273D02*
X0099997Y0156273D01*
X0099997Y0154674D02*
X0101350Y0154674D01*
X0101350Y0153076D02*
X0099997Y0153076D01*
X0099997Y0152594D02*
X0099997Y0151242D01*
X0094936Y0151242D01*
X0094936Y0148728D01*
X0095059Y0148271D01*
X0095296Y0147860D01*
X0095631Y0147525D01*
X0096041Y0147288D01*
X0096499Y0147165D01*
X0099997Y0147165D01*
X0099997Y0151242D01*
X0101350Y0151242D01*
X0101350Y0147165D01*
X0104847Y0147165D01*
X0105305Y0147288D01*
X0105715Y0147525D01*
X0106051Y0147860D01*
X0106288Y0148271D01*
X0106410Y0148728D01*
X0106410Y0148750D01*
X0112267Y0142893D01*
X0113168Y0141993D01*
X0114344Y0141506D01*
X0122651Y0141506D01*
X0123351Y0140806D01*
X0125042Y0140106D01*
X0126872Y0140106D01*
X0127502Y0140366D01*
X0123960Y0136825D01*
X0123473Y0135649D01*
X0123473Y0133497D01*
X0123148Y0133362D01*
X0122491Y0132704D01*
X0122491Y0133183D01*
X0122125Y0134065D01*
X0121450Y0134740D01*
X0120568Y0135105D01*
X0112133Y0135105D01*
X0111251Y0134740D01*
X0110576Y0134065D01*
X0110210Y0133183D01*
X0110210Y0118842D01*
X0110576Y0117960D01*
X0111251Y0117285D01*
X0112133Y0116920D01*
X0113150Y0116920D01*
X0113150Y0115105D01*
X0107010Y0115105D01*
X0107010Y0115348D01*
X0106645Y0116230D01*
X0105970Y0116905D01*
X0105574Y0117069D01*
X0106096Y0117285D01*
X0106771Y0117960D01*
X0107136Y0118842D01*
X0107136Y0133183D01*
X0106771Y0134065D01*
X0106096Y0134740D01*
X0105574Y0134956D01*
X0105970Y0135120D01*
X0106645Y0135795D01*
X0107010Y0136677D01*
X0107010Y0143537D01*
X0106645Y0144419D01*
X0105970Y0145094D01*
X0105088Y0145460D01*
X0096259Y0145460D01*
X0095377Y0145094D01*
X0094702Y0144419D01*
X0094336Y0143537D01*
X0094336Y0136677D01*
X0094702Y0135795D01*
X0095377Y0135120D01*
X0096095Y0134822D01*
X0095896Y0134740D01*
X0095221Y0134065D01*
X0094856Y0133183D01*
X0094856Y0118842D01*
X0095221Y0117960D01*
X0095896Y0117285D01*
X0096095Y0117203D01*
X0095601Y0116998D01*
X0095405Y0117194D01*
X0091941Y0117194D01*
X0089492Y0114744D01*
X0089492Y0111689D01*
X0088960Y0112075D01*
X0088291Y0112416D01*
X0087577Y0112648D01*
X0086836Y0112765D01*
X0086645Y0112765D01*
X0086645Y0105213D01*
X0086276Y0105213D01*
X0086276Y0112765D01*
X0086085Y0112765D01*
X0085344Y0112648D01*
X0084630Y0112416D01*
X0083961Y0112075D01*
X0083354Y0111634D01*
X0082823Y0111103D01*
X0082382Y0110496D01*
X0082041Y0109827D01*
X0081810Y0109113D01*
X0081692Y0108372D01*
X0081692Y0105213D01*
X0086276Y0105213D01*
X0086276Y0104844D01*
X0081692Y0104844D01*
X0081692Y0101685D01*
X0081810Y0100943D01*
X0082041Y0100229D01*
X0082382Y0099561D01*
X0082823Y0098953D01*
X0083354Y0098423D01*
X0083961Y0097981D01*
X0084630Y0097641D01*
X0085344Y0097409D01*
X0086085Y0097291D01*
X0086276Y0097291D01*
X0086276Y0104844D01*
X0086645Y0104844D01*
X0086645Y0105213D01*
X0091229Y0105213D01*
X0091229Y0108372D01*
X0091112Y0109113D01*
X0090880Y0109827D01*
X0090811Y0109961D01*
X0091941Y0108831D01*
X0093857Y0108831D01*
X0094131Y0108718D01*
X0094336Y0108718D01*
X0094336Y0108488D01*
X0094702Y0107606D01*
X0095377Y0106931D01*
X0096259Y0106565D01*
X0104856Y0106565D01*
X0104856Y0104857D01*
X0104847Y0104860D01*
X0101350Y0104860D01*
X0101350Y0100784D01*
X0099997Y0100784D01*
X0099997Y0104860D01*
X0096499Y0104860D01*
X0096041Y0104737D01*
X0095631Y0104500D01*
X0095296Y0104165D01*
X0095059Y0103755D01*
X0094936Y0103297D01*
X0094936Y0100783D01*
X0099997Y0100783D01*
X0099997Y0099431D01*
X0094936Y0099431D01*
X0094936Y0096917D01*
X0095059Y0096460D01*
X0095296Y0096049D01*
X0095631Y0095714D01*
X0096041Y0095477D01*
X0096499Y0095354D01*
X0099997Y0095354D01*
X0099997Y0099431D01*
X0101350Y0099431D01*
X0101350Y0095354D01*
X0104847Y0095354D01*
X0105305Y0095477D01*
X0105715Y0095714D01*
X0106051Y0096049D01*
X0106288Y0096460D01*
X0106410Y0096917D01*
X0106410Y0097072D01*
X0106779Y0096920D01*
X0115214Y0096920D01*
X0116096Y0097285D01*
X0116771Y0097960D01*
X0117136Y0098842D01*
X0117136Y0107627D01*
X0117826Y0108317D02*
X0120210Y0108317D01*
X0120210Y0109916D02*
X0119213Y0109916D01*
X0119550Y0111514D02*
X0120210Y0111514D01*
X0120210Y0113113D02*
X0119550Y0113113D01*
X0119550Y0114711D02*
X0121222Y0114711D01*
X0119550Y0116310D02*
X0123150Y0116310D01*
X0123150Y0117908D02*
X0122073Y0117908D01*
X0129550Y0117908D02*
X0137262Y0117908D01*
X0137225Y0117890D02*
X0136665Y0117483D01*
X0136175Y0116993D01*
X0135768Y0116433D01*
X0135454Y0115816D01*
X0135240Y0115157D01*
X0135131Y0114473D01*
X0135131Y0114127D01*
X0139531Y0114127D01*
X0139531Y0114127D01*
X0139531Y0118527D01*
X0139185Y0118527D01*
X0138501Y0118418D01*
X0137842Y0118204D01*
X0137225Y0117890D01*
X0137619Y0119507D02*
X0130943Y0119507D01*
X0131239Y0121105D02*
X0135482Y0121105D01*
X0135293Y0121294D02*
X0136699Y0119888D01*
X0138537Y0119127D01*
X0140526Y0119127D01*
X0142364Y0119888D01*
X0143770Y0121294D01*
X0144531Y0123132D01*
X0144531Y0125121D01*
X0143770Y0126959D01*
X0142364Y0128366D01*
X0140526Y0129127D01*
X0138537Y0129127D01*
X0136699Y0128366D01*
X0135293Y0126959D01*
X0134531Y0125121D01*
X0134531Y0123132D01*
X0135293Y0121294D01*
X0134709Y0122704D02*
X0131239Y0122704D01*
X0131239Y0124302D02*
X0134531Y0124302D01*
X0134854Y0125901D02*
X0130912Y0125901D01*
X0131239Y0127499D02*
X0135833Y0127499D01*
X0138467Y0129098D02*
X0131239Y0129098D01*
X0131239Y0130696D02*
X0136767Y0130696D01*
X0135527Y0132295D02*
X0131036Y0132295D01*
X0130080Y0133894D02*
X0135131Y0133894D01*
X0135349Y0135492D02*
X0131678Y0135492D01*
X0133277Y0137091D02*
X0136273Y0137091D01*
X0134875Y0138689D02*
X0138344Y0138689D01*
X0137936Y0140288D02*
X0136474Y0140288D01*
X0127423Y0140288D02*
X0127311Y0140288D01*
X0125824Y0138689D02*
X0107010Y0138689D01*
X0107010Y0137091D02*
X0124226Y0137091D01*
X0123473Y0135492D02*
X0106342Y0135492D01*
X0106842Y0133894D02*
X0110505Y0133894D01*
X0110210Y0132295D02*
X0107136Y0132295D01*
X0107136Y0130696D02*
X0110210Y0130696D01*
X0110210Y0129098D02*
X0107136Y0129098D01*
X0107136Y0127499D02*
X0110210Y0127499D01*
X0110210Y0125901D02*
X0107136Y0125901D01*
X0107136Y0124302D02*
X0110210Y0124302D01*
X0110210Y0122704D02*
X0107136Y0122704D01*
X0107136Y0121105D02*
X0110210Y0121105D01*
X0110210Y0119507D02*
X0107136Y0119507D01*
X0106719Y0117908D02*
X0110627Y0117908D01*
X0113150Y0116310D02*
X0106565Y0116310D01*
X0100996Y0112241D02*
X0100996Y0126013D01*
X0100996Y0128013D01*
X0100996Y0139784D01*
X0100673Y0140107D01*
X0094336Y0140288D02*
X0075286Y0140288D01*
X0075722Y0140107D02*
X0073749Y0140924D01*
X0071613Y0140924D01*
X0069640Y0140107D01*
X0068130Y0138597D01*
X0067313Y0136624D01*
X0067313Y0128551D01*
X0068130Y0126578D01*
X0069640Y0125068D01*
X0071613Y0124250D01*
X0073749Y0124250D01*
X0075722Y0125068D01*
X0077232Y0126578D01*
X0078050Y0128551D01*
X0078050Y0136624D01*
X0077232Y0138597D01*
X0075722Y0140107D01*
X0077140Y0138689D02*
X0094336Y0138689D01*
X0094336Y0137091D02*
X0077856Y0137091D01*
X0078050Y0135492D02*
X0095004Y0135492D01*
X0095150Y0133894D02*
X0078050Y0133894D01*
X0078050Y0132295D02*
X0094856Y0132295D01*
X0094856Y0130696D02*
X0078050Y0130696D01*
X0078050Y0129098D02*
X0094856Y0129098D01*
X0094856Y0127499D02*
X0077614Y0127499D01*
X0076555Y0125901D02*
X0094856Y0125901D01*
X0094856Y0124302D02*
X0073875Y0124302D01*
X0071488Y0124302D02*
X0049573Y0124302D01*
X0049573Y0122704D02*
X0094856Y0122704D01*
X0094856Y0121105D02*
X0049573Y0121105D01*
X0049573Y0119507D02*
X0094856Y0119507D01*
X0095273Y0117908D02*
X0049573Y0117908D01*
X0049573Y0116310D02*
X0091058Y0116310D01*
X0089492Y0114711D02*
X0049573Y0114711D01*
X0049573Y0113113D02*
X0057224Y0113113D01*
X0057834Y0113365D02*
X0055861Y0112548D01*
X0054350Y0111038D01*
X0053533Y0109065D01*
X0053533Y0100992D01*
X0053773Y0100412D01*
X0053773Y0066042D01*
X0043644Y0055913D01*
X0039699Y0055913D01*
X0037898Y0055167D01*
X0036519Y0053788D01*
X0031519Y0048788D01*
X0030773Y0046987D01*
X0030773Y0035038D01*
X0031519Y0033237D01*
X0032762Y0031994D01*
X0031698Y0032435D01*
X0029018Y0032435D01*
X0026542Y0031409D01*
X0025573Y0030440D01*
X0025573Y0074983D01*
X0032390Y0081800D01*
X0031102Y0078689D01*
X0031102Y0075069D01*
X0032487Y0071724D01*
X0035046Y0069165D01*
X0038391Y0067780D01*
X0042011Y0067780D01*
X0045355Y0069165D01*
X0047915Y0071724D01*
X0049300Y0075069D01*
X0049300Y0078689D01*
X0047915Y0082033D01*
X0045355Y0084593D01*
X0042011Y0085978D01*
X0038391Y0085978D01*
X0035279Y0084689D01*
X0038449Y0087859D01*
X0047449Y0096859D01*
X0048827Y0098237D01*
X0049573Y0100038D01*
X0049573Y0126478D01*
X0049673Y0126578D01*
X0050491Y0128551D01*
X0050491Y0136624D01*
X0049673Y0138597D01*
X0048322Y0139948D01*
X0048322Y0145136D01*
X0054999Y0151813D01*
X0092310Y0151813D01*
X0093486Y0152300D01*
X0094936Y0153750D01*
X0094936Y0152594D01*
X0099997Y0152594D01*
X0099997Y0151477D02*
X0054663Y0151477D01*
X0053065Y0149879D02*
X0094936Y0149879D01*
X0095056Y0148280D02*
X0051466Y0148280D01*
X0049868Y0146682D02*
X0108479Y0146682D01*
X0106880Y0148280D02*
X0106290Y0148280D01*
X0108673Y0151013D02*
X0114980Y0144706D01*
X0125957Y0144706D01*
X0124602Y0140288D02*
X0107010Y0140288D01*
X0107010Y0141886D02*
X0113425Y0141886D01*
X0111676Y0143485D02*
X0107010Y0143485D01*
X0105981Y0145083D02*
X0110077Y0145083D01*
X0101350Y0148280D02*
X0099997Y0148280D01*
X0099997Y0149879D02*
X0101350Y0149879D01*
X0094936Y0153076D02*
X0094262Y0153076D01*
X0091673Y0155013D02*
X0098673Y0162013D01*
X0103673Y0162013D01*
X0108673Y0157013D01*
X0108673Y0151013D01*
X0120673Y0158013D02*
X0160673Y0158013D01*
X0164673Y0162013D01*
X0224673Y0162013D01*
X0229461Y0166800D01*
X0230280Y0166800D01*
X0224673Y0172013D02*
X0229461Y0176800D01*
X0230280Y0176800D01*
X0224673Y0172013D02*
X0093673Y0172013D01*
X0087673Y0166013D01*
X0092673Y0162013D02*
X0096673Y0166013D01*
X0112673Y0166013D01*
X0120673Y0158013D01*
X0121999Y0161213D02*
X0114486Y0168725D01*
X0114275Y0168813D01*
X0138637Y0168813D01*
X0138273Y0167934D01*
X0138273Y0166701D01*
X0138745Y0165561D01*
X0139617Y0164689D01*
X0140141Y0164472D01*
X0140141Y0161213D01*
X0127929Y0161213D01*
X0128507Y0161599D01*
X0129064Y0162156D01*
X0129501Y0162811D01*
X0129803Y0163539D01*
X0129957Y0164312D01*
X0129957Y0164705D01*
X0125957Y0164705D01*
X0125957Y0164706D01*
X0125957Y0164706D01*
X0125957Y0168705D01*
X0126351Y0168705D01*
X0127123Y0168552D01*
X0127851Y0168250D01*
X0128507Y0167813D01*
X0129064Y0167255D01*
X0129501Y0166600D01*
X0129803Y0165872D01*
X0129957Y0165099D01*
X0129957Y0164706D01*
X0125957Y0164706D01*
X0125957Y0168705D01*
X0125563Y0168705D01*
X0124790Y0168552D01*
X0124062Y0168250D01*
X0123407Y0167813D01*
X0122850Y0167255D01*
X0122412Y0166600D01*
X0122110Y0165872D01*
X0121957Y0165099D01*
X0121957Y0164706D01*
X0125957Y0164706D01*
X0125957Y0164705D01*
X0121957Y0164705D01*
X0121957Y0164312D01*
X0122110Y0163539D01*
X0122412Y0162811D01*
X0122850Y0162156D01*
X0123407Y0161599D01*
X0123984Y0161213D01*
X0121999Y0161213D01*
X0122508Y0162667D02*
X0120545Y0162667D01*
X0121966Y0164265D02*
X0118946Y0164265D01*
X0117348Y0165864D02*
X0122109Y0165864D01*
X0123057Y0167462D02*
X0115749Y0167462D01*
X0125957Y0167462D02*
X0125957Y0167462D01*
X0125957Y0165864D02*
X0125957Y0165864D01*
X0128857Y0167462D02*
X0138273Y0167462D01*
X0138620Y0165864D02*
X0129805Y0165864D01*
X0129947Y0164265D02*
X0140141Y0164265D01*
X0140141Y0162667D02*
X0129405Y0162667D01*
X0143673Y0152013D02*
X0225492Y0152013D01*
X0230280Y0156800D01*
X0243673Y0147013D02*
X0304673Y0147013D01*
X0309673Y0142013D01*
X0305492Y0141668D02*
X0305492Y0140281D01*
X0307941Y0137831D01*
X0311405Y0137831D01*
X0313854Y0140281D01*
X0313854Y0142831D01*
X0320673Y0136013D01*
X0320673Y0011013D01*
X0158546Y0011013D01*
X0158546Y0017710D01*
X0158255Y0018413D01*
X0165350Y0018413D01*
X0165108Y0017829D01*
X0165108Y0015771D01*
X0165895Y0013870D01*
X0167350Y0012416D01*
X0169251Y0011628D01*
X0171308Y0011628D01*
X0173209Y0012416D01*
X0174664Y0013870D01*
X0175451Y0015771D01*
X0175451Y0017829D01*
X0175209Y0018413D01*
X0225350Y0018413D01*
X0225108Y0017829D01*
X0225108Y0015771D01*
X0225895Y0013870D01*
X0227350Y0012416D01*
X0229251Y0011628D01*
X0231308Y0011628D01*
X0233209Y0012416D01*
X0234664Y0013870D01*
X0235451Y0015771D01*
X0235451Y0017829D01*
X0235209Y0018413D01*
X0244092Y0018413D01*
X0244550Y0017954D01*
X0245432Y0017589D01*
X0252292Y0017589D01*
X0253174Y0017954D01*
X0253850Y0018629D01*
X0254215Y0019512D01*
X0254215Y0031884D01*
X0253850Y0032766D01*
X0253762Y0032853D01*
X0253762Y0034987D01*
X0253016Y0036788D01*
X0251638Y0038167D01*
X0250321Y0039483D01*
X0250321Y0043305D01*
X0249956Y0044187D01*
X0249281Y0044862D01*
X0248399Y0045228D01*
X0239570Y0045228D01*
X0238688Y0044862D01*
X0238013Y0044187D01*
X0237647Y0043305D01*
X0237647Y0034476D01*
X0238013Y0033594D01*
X0238688Y0032919D01*
X0239570Y0032554D01*
X0243392Y0032554D01*
X0243671Y0032274D01*
X0243509Y0031884D01*
X0243509Y0025613D01*
X0235385Y0025613D01*
X0235451Y0025771D01*
X0235451Y0027829D01*
X0234664Y0029730D01*
X0233209Y0031184D01*
X0231723Y0031800D01*
X0233209Y0032416D01*
X0234664Y0033870D01*
X0235451Y0035771D01*
X0235451Y0037829D01*
X0234664Y0039730D01*
X0233209Y0041184D01*
X0231723Y0041800D01*
X0233209Y0042416D01*
X0234664Y0043870D01*
X0235451Y0045771D01*
X0235451Y0047829D01*
X0234664Y0049730D01*
X0233209Y0051184D01*
X0231723Y0051800D01*
X0233209Y0052416D01*
X0234664Y0053870D01*
X0235451Y0055771D01*
X0235451Y0057829D01*
X0234664Y0059730D01*
X0233209Y0061184D01*
X0231308Y0061972D01*
X0229251Y0061972D01*
X0227350Y0061184D01*
X0225895Y0059730D01*
X0225108Y0057829D01*
X0225108Y0055771D01*
X0225895Y0053870D01*
X0227350Y0052416D01*
X0228836Y0051800D01*
X0227350Y0051184D01*
X0225895Y0049730D01*
X0225108Y0047829D01*
X0225108Y0045771D01*
X0225895Y0043870D01*
X0227350Y0042416D01*
X0228836Y0041800D01*
X0227350Y0041184D01*
X0225895Y0039730D01*
X0225108Y0037829D01*
X0225108Y0035771D01*
X0225895Y0033870D01*
X0227350Y0032416D01*
X0228836Y0031800D01*
X0227350Y0031184D01*
X0225895Y0029730D01*
X0225108Y0027829D01*
X0225108Y0025771D01*
X0225174Y0025613D01*
X0175385Y0025613D01*
X0175451Y0025771D01*
X0175451Y0027829D01*
X0174664Y0029730D01*
X0173209Y0031184D01*
X0171723Y0031800D01*
X0173209Y0032416D01*
X0174664Y0033870D01*
X0175451Y0035771D01*
X0175451Y0037829D01*
X0174664Y0039730D01*
X0173209Y0041184D01*
X0171308Y0041972D01*
X0169251Y0041972D01*
X0167350Y0041184D01*
X0165895Y0039730D01*
X0165108Y0037829D01*
X0165108Y0035771D01*
X0165895Y0033870D01*
X0167350Y0032416D01*
X0168836Y0031800D01*
X0167350Y0031184D01*
X0165895Y0029730D01*
X0165108Y0027829D01*
X0165108Y0025771D01*
X0165174Y0025613D01*
X0158546Y0025613D01*
X0158546Y0029521D01*
X0158180Y0030404D01*
X0157505Y0031079D01*
X0157502Y0031080D01*
X0157502Y0032126D01*
X0157505Y0032128D01*
X0158180Y0032803D01*
X0158546Y0033685D01*
X0158546Y0041333D01*
X0158180Y0042215D01*
X0157505Y0042890D01*
X0156623Y0043255D01*
X0148582Y0043255D01*
X0147700Y0042890D01*
X0147024Y0042215D01*
X0146659Y0041333D01*
X0146659Y0033685D01*
X0147024Y0032803D01*
X0147700Y0032128D01*
X0147702Y0032126D01*
X0147702Y0031080D01*
X0147700Y0031079D01*
X0147024Y0030404D01*
X0146659Y0029521D01*
X0146659Y0021874D01*
X0147024Y0020992D01*
X0147700Y0020317D01*
X0147702Y0020315D01*
X0147702Y0019269D01*
X0147700Y0019268D01*
X0147024Y0018593D01*
X0146659Y0017710D01*
X0146659Y0011013D01*
X0142404Y0011013D01*
X0142404Y0017710D01*
X0142039Y0018593D01*
X0141363Y0019268D01*
X0141361Y0019269D01*
X0141361Y0020315D01*
X0141363Y0020317D01*
X0142039Y0020992D01*
X0142404Y0021874D01*
X0142404Y0029521D01*
X0142039Y0030404D01*
X0141363Y0031079D01*
X0140481Y0031444D01*
X0132440Y0031444D01*
X0131558Y0031079D01*
X0130883Y0030404D01*
X0130517Y0029521D01*
X0130517Y0021874D01*
X0130883Y0020992D01*
X0131558Y0020317D01*
X0131561Y0020315D01*
X0131561Y0019269D01*
X0131558Y0019268D01*
X0131077Y0018787D01*
X0030829Y0018787D01*
X0030655Y0018961D01*
X0031698Y0018961D01*
X0034174Y0019986D01*
X0036070Y0021881D01*
X0037095Y0024358D01*
X0037095Y0027038D01*
X0036655Y0028102D01*
X0042898Y0021859D01*
X0044699Y0021113D01*
X0117648Y0021113D01*
X0119449Y0021859D01*
X0130199Y0032609D01*
X0131077Y0032609D01*
X0131558Y0032128D01*
X0132440Y0031762D01*
X0140481Y0031762D01*
X0141363Y0032128D01*
X0142039Y0032803D01*
X0142404Y0033685D01*
X0142404Y0041333D01*
X0142039Y0042215D01*
X0141363Y0042890D01*
X0140481Y0043255D01*
X0132440Y0043255D01*
X0131558Y0042890D01*
X0131077Y0042409D01*
X0127195Y0042409D01*
X0125394Y0041663D01*
X0124015Y0040284D01*
X0123519Y0039788D01*
X0114644Y0030913D01*
X0047703Y0030913D01*
X0040573Y0038042D01*
X0040573Y0043983D01*
X0042703Y0046113D01*
X0046648Y0046113D01*
X0048449Y0046859D01*
X0061449Y0059859D01*
X0062827Y0061237D01*
X0063573Y0063038D01*
X0063573Y0099310D01*
X0064270Y0100992D01*
X0064270Y0109065D01*
X0063453Y0111038D01*
X0061943Y0112548D01*
X0059969Y0113365D01*
X0057834Y0113365D01*
X0060579Y0113113D02*
X0089492Y0113113D01*
X0086645Y0111514D02*
X0086276Y0111514D01*
X0086276Y0109916D02*
X0086645Y0109916D01*
X0086645Y0108317D02*
X0086276Y0108317D01*
X0086276Y0106719D02*
X0086645Y0106719D01*
X0086645Y0105120D02*
X0104856Y0105120D01*
X0101350Y0103522D02*
X0099997Y0103522D01*
X0099997Y0101923D02*
X0101350Y0101923D01*
X0099997Y0100325D02*
X0090911Y0100325D01*
X0090880Y0100229D02*
X0091112Y0100943D01*
X0091229Y0101685D01*
X0091229Y0104844D01*
X0086645Y0104844D01*
X0086645Y0097291D01*
X0086836Y0097291D01*
X0087577Y0097409D01*
X0088291Y0097641D01*
X0088960Y0097981D01*
X0089567Y0098423D01*
X0090098Y0098953D01*
X0090539Y0099561D01*
X0090880Y0100229D01*
X0091229Y0101923D02*
X0094936Y0101923D01*
X0094997Y0103522D02*
X0091229Y0103522D01*
X0086645Y0103522D02*
X0086276Y0103522D01*
X0086461Y0105028D02*
X0085689Y0105028D01*
X0064673Y0084013D01*
X0064673Y0062013D01*
X0074673Y0052013D01*
X0074673Y0040013D01*
X0074571Y0039910D01*
X0074571Y0035929D01*
X0074963Y0035929D01*
X0075732Y0036082D01*
X0076457Y0036382D01*
X0077109Y0036818D01*
X0077663Y0037372D01*
X0078099Y0038024D01*
X0078399Y0038749D01*
X0078552Y0039518D01*
X0078552Y0039910D01*
X0074571Y0039910D01*
X0074571Y0039910D01*
X0074571Y0039910D01*
X0074571Y0035929D01*
X0074179Y0035929D01*
X0073410Y0036082D01*
X0072685Y0036382D01*
X0072033Y0036818D01*
X0071479Y0037372D01*
X0071043Y0038024D01*
X0070743Y0038749D01*
X0070590Y0039518D01*
X0070590Y0039910D01*
X0074571Y0039910D01*
X0078552Y0039910D01*
X0078552Y0040302D01*
X0078399Y0041071D01*
X0078099Y0041796D01*
X0077663Y0042448D01*
X0077109Y0043003D01*
X0076457Y0043438D01*
X0075732Y0043738D01*
X0074963Y0043891D01*
X0074571Y0043891D01*
X0074571Y0039910D01*
X0074571Y0039910D01*
X0074571Y0039910D01*
X0070590Y0039910D01*
X0070590Y0040302D01*
X0070743Y0041071D01*
X0071043Y0041796D01*
X0071479Y0042448D01*
X0072033Y0043003D01*
X0072685Y0043438D01*
X0073410Y0043738D01*
X0074179Y0043891D01*
X0074571Y0043891D01*
X0074571Y0039910D01*
X0074571Y0039581D02*
X0074571Y0039581D01*
X0074571Y0037983D02*
X0074571Y0037983D01*
X0074571Y0036384D02*
X0074571Y0036384D01*
X0076460Y0036384D02*
X0120115Y0036384D01*
X0118517Y0034786D02*
X0043830Y0034786D01*
X0044179Y0035929D02*
X0044571Y0035929D01*
X0044963Y0035929D01*
X0045732Y0036082D01*
X0046457Y0036382D01*
X0047109Y0036818D01*
X0047663Y0037372D01*
X0048099Y0038024D01*
X0048399Y0038749D01*
X0048552Y0039518D01*
X0048552Y0039910D01*
X0044571Y0039910D01*
X0044571Y0035929D01*
X0044571Y0039910D01*
X0044571Y0039910D01*
X0044571Y0039910D01*
X0048552Y0039910D01*
X0048552Y0040302D01*
X0048399Y0041071D01*
X0048099Y0041796D01*
X0047663Y0042448D01*
X0047109Y0043003D01*
X0046457Y0043438D01*
X0045732Y0043738D01*
X0044963Y0043891D01*
X0044571Y0043891D01*
X0044571Y0039910D01*
X0040590Y0039910D01*
X0040590Y0039518D01*
X0040743Y0038749D01*
X0041043Y0038024D01*
X0041479Y0037372D01*
X0042033Y0036818D01*
X0042685Y0036382D01*
X0043410Y0036082D01*
X0044179Y0035929D01*
X0044571Y0036384D02*
X0044571Y0036384D01*
X0044571Y0037983D02*
X0044571Y0037983D01*
X0044571Y0039581D02*
X0044571Y0039581D01*
X0044571Y0039910D02*
X0044571Y0039910D01*
X0044571Y0039910D01*
X0040590Y0039910D01*
X0040590Y0040302D01*
X0040743Y0041071D01*
X0041043Y0041796D01*
X0041479Y0042448D01*
X0042033Y0043003D01*
X0042685Y0043438D01*
X0043410Y0043738D01*
X0044179Y0043891D01*
X0044571Y0043891D01*
X0044571Y0039910D01*
X0044571Y0041180D02*
X0044571Y0041180D01*
X0044571Y0042778D02*
X0044571Y0042778D01*
X0047333Y0042778D02*
X0050960Y0042778D01*
X0050687Y0042505D02*
X0049990Y0040821D01*
X0049990Y0038999D01*
X0050687Y0037315D01*
X0051976Y0036027D01*
X0053660Y0035329D01*
X0055482Y0035329D01*
X0057166Y0036027D01*
X0058455Y0037315D01*
X0059152Y0038999D01*
X0059152Y0040821D01*
X0058455Y0042505D01*
X0057166Y0043794D01*
X0055482Y0044491D01*
X0053660Y0044491D01*
X0051976Y0043794D01*
X0050687Y0042505D01*
X0050138Y0041180D02*
X0048354Y0041180D01*
X0048552Y0039581D02*
X0049990Y0039581D01*
X0050411Y0037983D02*
X0048071Y0037983D01*
X0046460Y0036384D02*
X0051618Y0036384D01*
X0057524Y0036384D02*
X0061618Y0036384D01*
X0061976Y0036027D02*
X0063660Y0035329D01*
X0065482Y0035329D01*
X0067166Y0036027D01*
X0068455Y0037315D01*
X0069152Y0038999D01*
X0069152Y0040821D01*
X0068455Y0042505D01*
X0067166Y0043794D01*
X0065482Y0044491D01*
X0063660Y0044491D01*
X0061976Y0043794D01*
X0060687Y0042505D01*
X0059990Y0040821D01*
X0059990Y0038999D01*
X0060687Y0037315D01*
X0061976Y0036027D01*
X0060411Y0037983D02*
X0058731Y0037983D01*
X0059152Y0039581D02*
X0059990Y0039581D01*
X0060138Y0041180D02*
X0059004Y0041180D01*
X0058181Y0042778D02*
X0060960Y0042778D01*
X0063383Y0044377D02*
X0055758Y0044377D01*
X0053383Y0044377D02*
X0040967Y0044377D01*
X0040573Y0042778D02*
X0041809Y0042778D01*
X0040788Y0041180D02*
X0040573Y0041180D01*
X0040573Y0039581D02*
X0040590Y0039581D01*
X0040633Y0037983D02*
X0041071Y0037983D01*
X0042231Y0036384D02*
X0042682Y0036384D01*
X0045428Y0033187D02*
X0116918Y0033187D01*
X0115320Y0031589D02*
X0047027Y0031589D01*
X0037963Y0026793D02*
X0037095Y0026793D01*
X0037095Y0025195D02*
X0039561Y0025195D01*
X0041160Y0023596D02*
X0036780Y0023596D01*
X0036118Y0021998D02*
X0042758Y0021998D01*
X0034587Y0020399D02*
X0131475Y0020399D01*
X0131091Y0018801D02*
X0030815Y0018801D01*
X0023350Y0012407D02*
X0015673Y0012407D01*
X0015673Y0011013D02*
X0015673Y0136013D01*
X0019816Y0140155D01*
X0020012Y0139886D01*
X0020546Y0139351D01*
X0021157Y0138907D01*
X0021831Y0138564D01*
X0022467Y0138358D01*
X0020614Y0137590D01*
X0019095Y0136071D01*
X0018273Y0134087D01*
X0018273Y0131938D01*
X0019095Y0129954D01*
X0020614Y0128435D01*
X0021633Y0128013D01*
X0020614Y0127590D01*
X0019095Y0126071D01*
X0018273Y0124087D01*
X0018273Y0121938D01*
X0019095Y0119954D01*
X0020614Y0118435D01*
X0021633Y0118013D01*
X0020614Y0117590D01*
X0019095Y0116071D01*
X0018273Y0114087D01*
X0018273Y0111938D01*
X0019095Y0109954D01*
X0020614Y0108435D01*
X0021633Y0108013D01*
X0020614Y0107590D01*
X0019095Y0106071D01*
X0018273Y0104087D01*
X0018273Y0101938D01*
X0019095Y0099954D01*
X0020614Y0098435D01*
X0022599Y0097613D01*
X0030747Y0097613D01*
X0032732Y0098435D01*
X0034251Y0099954D01*
X0035073Y0101938D01*
X0035073Y0104087D01*
X0034251Y0106071D01*
X0032732Y0107590D01*
X0031713Y0108013D01*
X0032732Y0108435D01*
X0034251Y0109954D01*
X0035073Y0111938D01*
X0035073Y0114087D01*
X0034251Y0116071D01*
X0032732Y0117590D01*
X0031713Y0118013D01*
X0032732Y0118435D01*
X0034251Y0119954D01*
X0035073Y0121938D01*
X0035073Y0124087D01*
X0034251Y0126071D01*
X0032732Y0127590D01*
X0031713Y0128013D01*
X0032732Y0128435D01*
X0034251Y0129954D01*
X0035073Y0131938D01*
X0035073Y0134087D01*
X0034251Y0136071D01*
X0032732Y0137590D01*
X0030880Y0138358D01*
X0031516Y0138564D01*
X0032189Y0138907D01*
X0032800Y0139351D01*
X0033334Y0139886D01*
X0033779Y0140497D01*
X0034122Y0141170D01*
X0034355Y0141889D01*
X0034473Y0142635D01*
X0034473Y0142813D01*
X0026873Y0142813D01*
X0026873Y0143213D01*
X0034473Y0143213D01*
X0034473Y0143390D01*
X0034355Y0144137D01*
X0034122Y0144855D01*
X0033779Y0145528D01*
X0033427Y0146013D01*
X0040673Y0146013D01*
X0042038Y0147377D01*
X0041922Y0147098D01*
X0041922Y0139948D01*
X0040571Y0138597D01*
X0039754Y0136624D01*
X0039754Y0128551D01*
X0039773Y0128504D01*
X0039773Y0103042D01*
X0031519Y0094788D01*
X0016519Y0079788D01*
X0015773Y0077987D01*
X0015773Y0021038D01*
X0016519Y0019237D01*
X0017898Y0017859D01*
X0024645Y0011111D01*
X0024744Y0011013D01*
X0015673Y0011013D01*
X0015673Y0014005D02*
X0021751Y0014005D01*
X0020153Y0015604D02*
X0015673Y0015604D01*
X0015673Y0017202D02*
X0018554Y0017202D01*
X0017898Y0017859D02*
X0017898Y0017859D01*
X0016955Y0018801D02*
X0015673Y0018801D01*
X0015673Y0020399D02*
X0016038Y0020399D01*
X0015773Y0021998D02*
X0015673Y0021998D01*
X0015673Y0023596D02*
X0015773Y0023596D01*
X0015773Y0025195D02*
X0015673Y0025195D01*
X0015673Y0026793D02*
X0015773Y0026793D01*
X0015773Y0028392D02*
X0015673Y0028392D01*
X0015673Y0029990D02*
X0015773Y0029990D01*
X0015773Y0031589D02*
X0015673Y0031589D01*
X0015673Y0033187D02*
X0015773Y0033187D01*
X0015773Y0034786D02*
X0015673Y0034786D01*
X0015673Y0036384D02*
X0015773Y0036384D01*
X0015773Y0037983D02*
X0015673Y0037983D01*
X0015673Y0039581D02*
X0015773Y0039581D01*
X0015773Y0041180D02*
X0015673Y0041180D01*
X0015673Y0042778D02*
X0015773Y0042778D01*
X0015773Y0044377D02*
X0015673Y0044377D01*
X0015673Y0045975D02*
X0015773Y0045975D01*
X0015773Y0047574D02*
X0015673Y0047574D01*
X0015673Y0049172D02*
X0015773Y0049172D01*
X0015773Y0050771D02*
X0015673Y0050771D01*
X0015673Y0052369D02*
X0015773Y0052369D01*
X0015773Y0053968D02*
X0015673Y0053968D01*
X0015673Y0055566D02*
X0015773Y0055566D01*
X0015773Y0057165D02*
X0015673Y0057165D01*
X0015673Y0058763D02*
X0015773Y0058763D01*
X0015773Y0060362D02*
X0015673Y0060362D01*
X0015673Y0061960D02*
X0015773Y0061960D01*
X0015773Y0063559D02*
X0015673Y0063559D01*
X0015673Y0065158D02*
X0015773Y0065158D01*
X0015773Y0066756D02*
X0015673Y0066756D01*
X0015673Y0068355D02*
X0015773Y0068355D01*
X0015773Y0069953D02*
X0015673Y0069953D01*
X0015673Y0071552D02*
X0015773Y0071552D01*
X0015773Y0073150D02*
X0015673Y0073150D01*
X0015673Y0074749D02*
X0015773Y0074749D01*
X0015773Y0076347D02*
X0015673Y0076347D01*
X0015673Y0077946D02*
X0015773Y0077946D01*
X0015673Y0079544D02*
X0016418Y0079544D01*
X0015673Y0081143D02*
X0017874Y0081143D01*
X0019472Y0082741D02*
X0015673Y0082741D01*
X0015673Y0084340D02*
X0021071Y0084340D01*
X0022669Y0085938D02*
X0015673Y0085938D01*
X0015673Y0087537D02*
X0024268Y0087537D01*
X0025866Y0089135D02*
X0015673Y0089135D01*
X0015673Y0090734D02*
X0027465Y0090734D01*
X0029063Y0092332D02*
X0015673Y0092332D01*
X0015673Y0093931D02*
X0030662Y0093931D01*
X0032260Y0095529D02*
X0015673Y0095529D01*
X0015673Y0097128D02*
X0033859Y0097128D01*
X0033024Y0098726D02*
X0035457Y0098726D01*
X0034405Y0100325D02*
X0037056Y0100325D01*
X0038654Y0101923D02*
X0035067Y0101923D01*
X0035073Y0103522D02*
X0039773Y0103522D01*
X0039773Y0105120D02*
X0034645Y0105120D01*
X0033604Y0106719D02*
X0039773Y0106719D01*
X0039773Y0108317D02*
X0032449Y0108317D01*
X0034213Y0109916D02*
X0039773Y0109916D01*
X0039773Y0111514D02*
X0034898Y0111514D01*
X0035073Y0113113D02*
X0039773Y0113113D01*
X0039773Y0114711D02*
X0034814Y0114711D01*
X0034013Y0116310D02*
X0039773Y0116310D01*
X0039773Y0117908D02*
X0031965Y0117908D01*
X0033804Y0119507D02*
X0039773Y0119507D01*
X0039773Y0121105D02*
X0034728Y0121105D01*
X0035073Y0122704D02*
X0039773Y0122704D01*
X0039773Y0124302D02*
X0034984Y0124302D01*
X0034322Y0125901D02*
X0039773Y0125901D01*
X0039773Y0127499D02*
X0032823Y0127499D01*
X0033395Y0129098D02*
X0039754Y0129098D01*
X0039754Y0130696D02*
X0034559Y0130696D01*
X0035073Y0132295D02*
X0039754Y0132295D01*
X0039754Y0133894D02*
X0035073Y0133894D01*
X0034491Y0135492D02*
X0039754Y0135492D01*
X0039947Y0137091D02*
X0033232Y0137091D01*
X0031761Y0138689D02*
X0040663Y0138689D01*
X0041922Y0140288D02*
X0033626Y0140288D01*
X0034354Y0141886D02*
X0041922Y0141886D01*
X0041922Y0143485D02*
X0034458Y0143485D01*
X0034005Y0145083D02*
X0041922Y0145083D01*
X0041922Y0146682D02*
X0041342Y0146682D01*
X0045122Y0146461D02*
X0045122Y0132587D01*
X0050491Y0132295D02*
X0067313Y0132295D01*
X0067313Y0133894D02*
X0050491Y0133894D01*
X0050491Y0135492D02*
X0067313Y0135492D01*
X0067506Y0137091D02*
X0050297Y0137091D01*
X0049581Y0138689D02*
X0068222Y0138689D01*
X0070076Y0140288D02*
X0048322Y0140288D01*
X0048322Y0141886D02*
X0094336Y0141886D01*
X0094336Y0143485D02*
X0048322Y0143485D01*
X0048322Y0145083D02*
X0095365Y0145083D01*
X0085673Y0141013D02*
X0083673Y0143013D01*
X0059673Y0143013D01*
X0053673Y0155013D02*
X0045122Y0146461D01*
X0053673Y0155013D02*
X0091673Y0155013D01*
X0122196Y0133894D02*
X0123473Y0133894D01*
X0126673Y0135013D02*
X0143673Y0152013D01*
X0144999Y0148813D02*
X0165515Y0148813D01*
X0165108Y0147829D01*
X0165108Y0145771D01*
X0165895Y0143870D01*
X0167350Y0142416D01*
X0168836Y0141800D01*
X0167350Y0141184D01*
X0165895Y0139730D01*
X0165108Y0137829D01*
X0165108Y0135771D01*
X0165895Y0133870D01*
X0167350Y0132416D01*
X0168836Y0131800D01*
X0167350Y0131184D01*
X0165895Y0129730D01*
X0165108Y0127829D01*
X0165108Y0125771D01*
X0165895Y0123870D01*
X0167350Y0122416D01*
X0168836Y0121800D01*
X0167350Y0121184D01*
X0165895Y0119730D01*
X0165108Y0117829D01*
X0165108Y0115771D01*
X0165895Y0113870D01*
X0167350Y0112416D01*
X0168836Y0111800D01*
X0167350Y0111184D01*
X0165895Y0109730D01*
X0165838Y0109592D01*
X0165648Y0109513D01*
X0164748Y0108613D01*
X0154531Y0098396D01*
X0154531Y0100121D01*
X0153770Y0101959D01*
X0152364Y0103366D01*
X0150526Y0104127D01*
X0152364Y0104888D01*
X0153770Y0106294D01*
X0154531Y0108132D01*
X0154531Y0110121D01*
X0153770Y0111959D01*
X0152364Y0113366D01*
X0150526Y0114127D01*
X0152364Y0114888D01*
X0153770Y0116294D01*
X0154531Y0118132D01*
X0154531Y0120121D01*
X0153770Y0121959D01*
X0152364Y0123366D01*
X0150526Y0124127D01*
X0152364Y0124888D01*
X0153770Y0126294D01*
X0154531Y0128132D01*
X0154531Y0130121D01*
X0153770Y0131959D01*
X0152364Y0133366D01*
X0150526Y0134127D01*
X0148537Y0134127D01*
X0146699Y0133366D01*
X0145293Y0131959D01*
X0144531Y0130121D01*
X0144531Y0128132D01*
X0145293Y0126294D01*
X0146699Y0124888D01*
X0148537Y0124127D01*
X0150526Y0124127D01*
X0148537Y0124127D01*
X0146699Y0123366D01*
X0145293Y0121959D01*
X0144531Y0120121D01*
X0144531Y0118132D01*
X0145293Y0116294D01*
X0146699Y0114888D01*
X0148537Y0114127D01*
X0150526Y0114127D01*
X0148537Y0114127D01*
X0146699Y0113366D01*
X0145293Y0111959D01*
X0144531Y0110121D01*
X0144531Y0108132D01*
X0145293Y0106294D01*
X0146699Y0104888D01*
X0148537Y0104127D01*
X0150526Y0104127D01*
X0148537Y0104127D01*
X0146699Y0103366D01*
X0145293Y0101959D01*
X0144531Y0100121D01*
X0144531Y0098132D01*
X0145077Y0096815D01*
X0144861Y0096725D01*
X0144158Y0096023D01*
X0143770Y0096959D01*
X0142364Y0098366D01*
X0140526Y0099127D01*
X0142364Y0099888D01*
X0143770Y0101294D01*
X0144531Y0103132D01*
X0144531Y0105121D01*
X0143770Y0106959D01*
X0142364Y0108366D01*
X0140526Y0109127D01*
X0138537Y0109127D01*
X0136699Y0108366D01*
X0135293Y0106959D01*
X0134531Y0105121D01*
X0134531Y0103132D01*
X0135293Y0101294D01*
X0136699Y0099888D01*
X0138537Y0099127D01*
X0140526Y0099127D01*
X0138537Y0099127D01*
X0136699Y0098366D01*
X0135293Y0096959D01*
X0134531Y0095121D01*
X0134531Y0093132D01*
X0135293Y0091294D01*
X0136699Y0089888D01*
X0138537Y0089127D01*
X0139473Y0089127D01*
X0139473Y0089127D01*
X0138537Y0089127D01*
X0136699Y0088366D01*
X0135293Y0086959D01*
X0134531Y0085121D01*
X0134531Y0083132D01*
X0135293Y0081294D01*
X0136699Y0079888D01*
X0138537Y0079127D01*
X0140526Y0079127D01*
X0142364Y0079888D01*
X0143770Y0081294D01*
X0144531Y0083132D01*
X0144531Y0084601D01*
X0145386Y0085456D01*
X0145604Y0085983D01*
X0146699Y0084888D01*
X0148537Y0084127D01*
X0150006Y0084127D01*
X0150006Y0084127D01*
X0148537Y0084127D01*
X0146699Y0083366D01*
X0145293Y0081959D01*
X0144531Y0080121D01*
X0144531Y0078132D01*
X0145293Y0076294D01*
X0146699Y0074888D01*
X0148537Y0074127D01*
X0150006Y0074127D01*
X0150006Y0074127D01*
X0148537Y0074127D01*
X0146699Y0073366D01*
X0145759Y0072425D01*
X0144531Y0073652D01*
X0144531Y0075121D01*
X0143770Y0076959D01*
X0142364Y0078366D01*
X0140526Y0079127D01*
X0138537Y0079127D01*
X0136699Y0078366D01*
X0135293Y0076959D01*
X0134531Y0075121D01*
X0134531Y0073132D01*
X0135293Y0071294D01*
X0136699Y0069888D01*
X0138537Y0069127D01*
X0140006Y0069127D01*
X0140788Y0068345D01*
X0140562Y0068418D01*
X0139878Y0068527D01*
X0139532Y0068527D01*
X0139532Y0064127D01*
X0139531Y0064127D01*
X0139531Y0064127D01*
X0135131Y0064127D01*
X0135131Y0064473D01*
X0135240Y0065157D01*
X0135454Y0065816D01*
X0135768Y0066433D01*
X0136175Y0066993D01*
X0136665Y0067483D01*
X0137225Y0067890D01*
X0137842Y0068204D01*
X0138501Y0068418D01*
X0139185Y0068527D01*
X0139531Y0068527D01*
X0139531Y0064127D01*
X0135131Y0064127D01*
X0135131Y0063780D01*
X0135240Y0063096D01*
X0135454Y0062438D01*
X0135768Y0061821D01*
X0136175Y0061260D01*
X0136665Y0060771D01*
X0137225Y0060364D01*
X0137842Y0060049D01*
X0138501Y0059835D01*
X0139185Y0059727D01*
X0139531Y0059727D01*
X0139531Y0064127D01*
X0139417Y0064013D01*
X0134673Y0064013D01*
X0107673Y0091013D01*
X0105395Y0095529D02*
X0134700Y0095529D01*
X0134531Y0093931D02*
X0063573Y0093931D01*
X0063573Y0095529D02*
X0095951Y0095529D01*
X0094936Y0097128D02*
X0063573Y0097128D01*
X0063573Y0098726D02*
X0083051Y0098726D01*
X0082010Y0100325D02*
X0063994Y0100325D01*
X0064270Y0101923D02*
X0081692Y0101923D01*
X0081692Y0103522D02*
X0064270Y0103522D01*
X0064270Y0105120D02*
X0086276Y0105120D01*
X0081692Y0106719D02*
X0064270Y0106719D01*
X0064270Y0108317D02*
X0081692Y0108317D01*
X0082087Y0109916D02*
X0063918Y0109916D01*
X0062976Y0111514D02*
X0083234Y0111514D01*
X0090835Y0109916D02*
X0090857Y0109916D01*
X0091229Y0108317D02*
X0094407Y0108317D01*
X0095888Y0106719D02*
X0091229Y0106719D01*
X0094768Y0111918D02*
X0100673Y0111918D01*
X0100996Y0112241D01*
X0094768Y0111918D02*
X0093673Y0113013D01*
X0110996Y0106013D02*
X0116350Y0111367D01*
X0116350Y0126013D01*
X0126673Y0129359D02*
X0126673Y0135013D01*
X0139531Y0134127D02*
X0139532Y0134127D01*
X0143931Y0134127D01*
X0143931Y0134276D01*
X0146013Y0134276D01*
X0148489Y0135301D01*
X0150385Y0137196D01*
X0151410Y0139673D01*
X0151410Y0142353D01*
X0150385Y0144829D01*
X0148489Y0146724D01*
X0146013Y0147750D01*
X0143936Y0147750D01*
X0144999Y0148813D01*
X0144466Y0148280D02*
X0165295Y0148280D01*
X0165108Y0146682D02*
X0148532Y0146682D01*
X0150130Y0145083D02*
X0165393Y0145083D01*
X0166281Y0143485D02*
X0150941Y0143485D01*
X0151410Y0141886D02*
X0168629Y0141886D01*
X0166453Y0140288D02*
X0151410Y0140288D01*
X0151003Y0138689D02*
X0165464Y0138689D01*
X0165108Y0137091D02*
X0150279Y0137091D01*
X0148680Y0135492D02*
X0165224Y0135492D01*
X0165886Y0133894D02*
X0151089Y0133894D01*
X0153434Y0132295D02*
X0167641Y0132295D01*
X0166862Y0130696D02*
X0154293Y0130696D01*
X0154531Y0129098D02*
X0165634Y0129098D01*
X0165108Y0127499D02*
X0154269Y0127499D01*
X0153377Y0125901D02*
X0165108Y0125901D01*
X0165716Y0124302D02*
X0150950Y0124302D01*
X0153025Y0122704D02*
X0167062Y0122704D01*
X0167271Y0121105D02*
X0154124Y0121105D01*
X0154531Y0119507D02*
X0165803Y0119507D01*
X0165141Y0117908D02*
X0154439Y0117908D01*
X0153777Y0116310D02*
X0165108Y0116310D01*
X0165547Y0114711D02*
X0151937Y0114711D01*
X0152616Y0113113D02*
X0166653Y0113113D01*
X0168147Y0111514D02*
X0153954Y0111514D01*
X0154531Y0109916D02*
X0166082Y0109916D01*
X0164452Y0108317D02*
X0154531Y0108317D01*
X0153946Y0106719D02*
X0162854Y0106719D01*
X0161255Y0105120D02*
X0152596Y0105120D01*
X0151987Y0103522D02*
X0159657Y0103522D01*
X0158058Y0101923D02*
X0153785Y0101923D01*
X0154447Y0100325D02*
X0156460Y0100325D01*
X0154861Y0098726D02*
X0154531Y0098726D01*
X0147076Y0103522D02*
X0144531Y0103522D01*
X0144531Y0105120D02*
X0146467Y0105120D01*
X0145117Y0106719D02*
X0143870Y0106719D01*
X0144531Y0108317D02*
X0142412Y0108317D01*
X0141221Y0110049D02*
X0141838Y0110364D01*
X0142398Y0110771D01*
X0142888Y0111260D01*
X0143295Y0111821D01*
X0143609Y0112438D01*
X0143823Y0113096D01*
X0143931Y0113780D01*
X0143931Y0114127D01*
X0143931Y0114473D01*
X0143823Y0115157D01*
X0143609Y0115816D01*
X0143295Y0116433D01*
X0142888Y0116993D01*
X0142398Y0117483D01*
X0141838Y0117890D01*
X0141221Y0118204D01*
X0140562Y0118418D01*
X0139878Y0118527D01*
X0139532Y0118527D01*
X0139532Y0114127D01*
X0143931Y0114127D01*
X0139532Y0114127D01*
X0139532Y0114127D01*
X0139531Y0114127D01*
X0135131Y0114127D01*
X0135131Y0113780D01*
X0135240Y0113096D01*
X0135454Y0112438D01*
X0135768Y0111821D01*
X0136175Y0111260D01*
X0136665Y0110771D01*
X0137225Y0110364D01*
X0137842Y0110049D01*
X0138501Y0109835D01*
X0139185Y0109727D01*
X0139531Y0109727D01*
X0139531Y0114127D01*
X0134787Y0118871D01*
X0135706Y0116310D02*
X0129550Y0116310D01*
X0131479Y0114711D02*
X0135169Y0114711D01*
X0135237Y0113113D02*
X0132491Y0113113D01*
X0132491Y0111514D02*
X0135991Y0111514D01*
X0138253Y0109916D02*
X0132491Y0109916D01*
X0132491Y0108317D02*
X0136651Y0108317D01*
X0135193Y0106719D02*
X0132491Y0106719D01*
X0132491Y0105120D02*
X0134531Y0105120D01*
X0134531Y0103522D02*
X0132491Y0103522D01*
X0132491Y0101923D02*
X0135032Y0101923D01*
X0136262Y0100325D02*
X0132491Y0100325D01*
X0132442Y0098726D02*
X0137570Y0098726D01*
X0135461Y0097128D02*
X0131070Y0097128D01*
X0134863Y0092332D02*
X0063573Y0092332D01*
X0063573Y0090734D02*
X0135853Y0090734D01*
X0138517Y0089135D02*
X0063573Y0089135D01*
X0063573Y0087537D02*
X0135870Y0087537D01*
X0134870Y0085938D02*
X0081477Y0085938D01*
X0081381Y0085978D02*
X0077761Y0085978D01*
X0074417Y0084593D01*
X0071857Y0082033D01*
X0070472Y0078689D01*
X0070472Y0075069D01*
X0071857Y0071724D01*
X0074417Y0069165D01*
X0077761Y0067780D01*
X0081381Y0067780D01*
X0084725Y0069165D01*
X0087285Y0071724D01*
X0088670Y0075069D01*
X0088670Y0078689D01*
X0087285Y0082033D01*
X0084725Y0084593D01*
X0081381Y0085978D01*
X0077665Y0085938D02*
X0063573Y0085938D01*
X0063573Y0084340D02*
X0074164Y0084340D01*
X0072565Y0082741D02*
X0063573Y0082741D01*
X0063573Y0081143D02*
X0071488Y0081143D01*
X0070826Y0079544D02*
X0063573Y0079544D01*
X0063573Y0077946D02*
X0070472Y0077946D01*
X0070472Y0076347D02*
X0063573Y0076347D01*
X0063573Y0074749D02*
X0070604Y0074749D01*
X0071266Y0073150D02*
X0063573Y0073150D01*
X0063573Y0071552D02*
X0072030Y0071552D01*
X0073628Y0069953D02*
X0063573Y0069953D01*
X0063573Y0068355D02*
X0076373Y0068355D01*
X0082769Y0068355D02*
X0138305Y0068355D01*
X0139531Y0068355D02*
X0139532Y0068355D01*
X0140758Y0068355D02*
X0140778Y0068355D01*
X0139531Y0066756D02*
X0139532Y0066756D01*
X0139531Y0065158D02*
X0139532Y0065158D01*
X0139532Y0064127D02*
X0139532Y0059727D01*
X0139878Y0059727D01*
X0140562Y0059835D01*
X0141221Y0060049D01*
X0141838Y0060364D01*
X0142398Y0060771D01*
X0142888Y0061260D01*
X0143295Y0061821D01*
X0143609Y0062438D01*
X0143637Y0062523D01*
X0143960Y0062200D01*
X0144861Y0061300D01*
X0144996Y0061244D01*
X0144531Y0060121D01*
X0144531Y0058132D01*
X0145293Y0056294D01*
X0146699Y0054888D01*
X0148537Y0054127D01*
X0150526Y0054127D01*
X0152364Y0054888D01*
X0153770Y0056294D01*
X0154531Y0058132D01*
X0154531Y0060121D01*
X0154245Y0060813D01*
X0155348Y0060813D01*
X0155960Y0060200D01*
X0156861Y0059300D01*
X0158037Y0058813D01*
X0165515Y0058813D01*
X0165108Y0057829D01*
X0165108Y0055771D01*
X0165895Y0053870D01*
X0167350Y0052416D01*
X0169251Y0051628D01*
X0171308Y0051628D01*
X0173209Y0052416D01*
X0174664Y0053870D01*
X0175451Y0055771D01*
X0175451Y0057829D01*
X0175044Y0058813D01*
X0183310Y0058813D01*
X0184486Y0059300D01*
X0206486Y0081300D01*
X0207386Y0082200D01*
X0207873Y0083376D01*
X0207873Y0110687D01*
X0210786Y0113600D01*
X0226166Y0113600D01*
X0227350Y0112416D01*
X0228836Y0111800D01*
X0227350Y0111184D01*
X0225895Y0109730D01*
X0225108Y0107829D01*
X0225108Y0105771D01*
X0225895Y0103870D01*
X0227350Y0102416D01*
X0228836Y0101800D01*
X0227350Y0101184D01*
X0225895Y0099730D01*
X0225108Y0097829D01*
X0225108Y0095771D01*
X0225895Y0093870D01*
X0227350Y0092416D01*
X0228836Y0091800D01*
X0227350Y0091184D01*
X0225895Y0089730D01*
X0225108Y0087829D01*
X0225108Y0085771D01*
X0225895Y0083870D01*
X0227350Y0082416D01*
X0228836Y0081800D01*
X0227350Y0081184D01*
X0225895Y0079730D01*
X0225108Y0077829D01*
X0225108Y0075771D01*
X0225895Y0073870D01*
X0227350Y0072416D01*
X0229251Y0071628D01*
X0231308Y0071628D01*
X0233209Y0072416D01*
X0234664Y0073870D01*
X0235451Y0075771D01*
X0235451Y0077829D01*
X0234664Y0079730D01*
X0233209Y0081184D01*
X0231723Y0081800D01*
X0233209Y0082416D01*
X0233606Y0082813D01*
X0248960Y0082813D01*
X0249941Y0081831D01*
X0253405Y0081831D01*
X0255854Y0084281D01*
X0255854Y0087744D01*
X0253405Y0090194D01*
X0249941Y0090194D01*
X0248960Y0089213D01*
X0234878Y0089213D01*
X0234664Y0089730D01*
X0233209Y0091184D01*
X0231723Y0091800D01*
X0233209Y0092416D01*
X0234393Y0093600D01*
X0238097Y0093600D01*
X0239273Y0094087D01*
X0241486Y0096300D01*
X0242386Y0097200D01*
X0242873Y0098376D01*
X0242873Y0141687D01*
X0244999Y0143813D01*
X0303348Y0143813D01*
X0305492Y0141668D01*
X0305274Y0141886D02*
X0243072Y0141886D01*
X0242873Y0140288D02*
X0305492Y0140288D01*
X0307084Y0138689D02*
X0242873Y0138689D01*
X0242873Y0137091D02*
X0319595Y0137091D01*
X0320673Y0135492D02*
X0281125Y0135492D01*
X0280447Y0136170D02*
X0281957Y0134660D01*
X0282774Y0132687D01*
X0282774Y0124614D01*
X0282305Y0123483D01*
X0282305Y0050302D01*
X0292169Y0040438D01*
X0294776Y0043045D01*
X0296577Y0043791D01*
X0298848Y0043791D01*
X0299013Y0044187D01*
X0299688Y0044862D01*
X0300570Y0045228D01*
X0309399Y0045228D01*
X0310281Y0044862D01*
X0310956Y0044187D01*
X0311321Y0043305D01*
X0311321Y0034476D01*
X0310956Y0033594D01*
X0310281Y0032919D01*
X0309399Y0032554D01*
X0300570Y0032554D01*
X0299688Y0032919D01*
X0299098Y0033508D01*
X0297508Y0031918D01*
X0297522Y0031884D01*
X0297522Y0019512D01*
X0297157Y0018629D01*
X0296482Y0017954D01*
X0295599Y0017589D01*
X0288739Y0017589D01*
X0287857Y0017954D01*
X0287182Y0018629D01*
X0286817Y0019512D01*
X0286817Y0031884D01*
X0286831Y0031918D01*
X0273251Y0045497D01*
X0272506Y0047298D01*
X0272506Y0096191D01*
X0268637Y0096191D01*
X0268177Y0095082D01*
X0266667Y0093572D01*
X0264694Y0092754D01*
X0262558Y0092754D01*
X0260585Y0093572D01*
X0259075Y0095082D01*
X0258257Y0097055D01*
X0258257Y0105128D01*
X0259075Y0107101D01*
X0260585Y0108611D01*
X0262558Y0109428D01*
X0264694Y0109428D01*
X0266667Y0108611D01*
X0268177Y0107101D01*
X0268637Y0105991D01*
X0272506Y0105991D01*
X0272506Y0123483D01*
X0272037Y0124614D01*
X0272037Y0132687D01*
X0272854Y0134660D01*
X0274364Y0136170D01*
X0276338Y0136987D01*
X0278473Y0136987D01*
X0280447Y0136170D01*
X0282274Y0133894D02*
X0320673Y0133894D01*
X0320673Y0132295D02*
X0282774Y0132295D01*
X0282774Y0130696D02*
X0320673Y0130696D01*
X0320673Y0129098D02*
X0282774Y0129098D01*
X0282774Y0127499D02*
X0320673Y0127499D01*
X0320673Y0125901D02*
X0282774Y0125901D01*
X0282645Y0124302D02*
X0320673Y0124302D01*
X0320673Y0122704D02*
X0282305Y0122704D01*
X0282305Y0121105D02*
X0320673Y0121105D01*
X0320673Y0119507D02*
X0282305Y0119507D01*
X0282305Y0117908D02*
X0320673Y0117908D01*
X0320673Y0116310D02*
X0282305Y0116310D01*
X0282305Y0114711D02*
X0320673Y0114711D01*
X0320673Y0113113D02*
X0282305Y0113113D01*
X0282305Y0111514D02*
X0320673Y0111514D01*
X0320673Y0109916D02*
X0282305Y0109916D01*
X0282305Y0108317D02*
X0287850Y0108317D01*
X0288144Y0108611D02*
X0286634Y0107101D01*
X0285817Y0105128D01*
X0285817Y0097055D01*
X0286634Y0095082D01*
X0288144Y0093572D01*
X0290117Y0092754D01*
X0292253Y0092754D01*
X0294226Y0093572D01*
X0295736Y0095082D01*
X0296554Y0097055D01*
X0296554Y0105128D01*
X0295736Y0107101D01*
X0294226Y0108611D01*
X0292253Y0109428D01*
X0290117Y0109428D01*
X0288144Y0108611D01*
X0286476Y0106719D02*
X0282305Y0106719D01*
X0282305Y0105120D02*
X0285817Y0105120D01*
X0285817Y0103522D02*
X0282305Y0103522D01*
X0282305Y0101923D02*
X0285817Y0101923D01*
X0285817Y0100325D02*
X0282305Y0100325D01*
X0282305Y0098726D02*
X0285817Y0098726D01*
X0285817Y0097128D02*
X0282305Y0097128D01*
X0282305Y0095529D02*
X0286448Y0095529D01*
X0287785Y0093931D02*
X0282305Y0093931D01*
X0282305Y0092332D02*
X0320673Y0092332D01*
X0320673Y0090734D02*
X0282305Y0090734D01*
X0282305Y0089135D02*
X0320673Y0089135D01*
X0320673Y0087537D02*
X0282305Y0087537D01*
X0282305Y0085938D02*
X0320673Y0085938D01*
X0320673Y0084340D02*
X0282305Y0084340D01*
X0282305Y0082741D02*
X0320673Y0082741D01*
X0320673Y0081143D02*
X0310152Y0081143D01*
X0310026Y0081268D02*
X0309616Y0081505D01*
X0309158Y0081628D01*
X0305365Y0081628D01*
X0305365Y0076272D01*
X0304603Y0076272D01*
X0304603Y0081628D01*
X0300810Y0081628D01*
X0300352Y0081505D01*
X0299942Y0081268D01*
X0299607Y0080933D01*
X0299370Y0080522D01*
X0299247Y0080065D01*
X0299247Y0076272D01*
X0304603Y0076272D01*
X0304603Y0075509D01*
X0305365Y0075509D01*
X0305365Y0070154D01*
X0309158Y0070154D01*
X0309616Y0070276D01*
X0310026Y0070513D01*
X0310362Y0070848D01*
X0310599Y0071259D01*
X0310721Y0071717D01*
X0310721Y0075509D01*
X0305365Y0075509D01*
X0305365Y0076272D01*
X0310721Y0076272D01*
X0310721Y0080065D01*
X0310599Y0080522D01*
X0310362Y0080933D01*
X0310026Y0081268D01*
X0310721Y0079544D02*
X0320673Y0079544D01*
X0320673Y0077946D02*
X0310721Y0077946D01*
X0310721Y0076347D02*
X0320673Y0076347D01*
X0320673Y0074749D02*
X0310721Y0074749D01*
X0310721Y0073150D02*
X0320673Y0073150D01*
X0320673Y0071552D02*
X0310677Y0071552D01*
X0305365Y0071552D02*
X0304603Y0071552D01*
X0304603Y0070154D02*
X0300810Y0070154D01*
X0300352Y0070276D01*
X0299942Y0070513D01*
X0299607Y0070848D01*
X0299370Y0071259D01*
X0299247Y0071717D01*
X0299247Y0075509D01*
X0304603Y0075509D01*
X0304603Y0070154D01*
X0304603Y0073150D02*
X0305365Y0073150D01*
X0305365Y0074749D02*
X0304603Y0074749D01*
X0304984Y0075891D02*
X0296673Y0084202D01*
X0296673Y0118013D01*
X0296673Y0130013D01*
X0285673Y0141013D01*
X0261673Y0141013D01*
X0257673Y0137013D01*
X0257673Y0115013D01*
X0257673Y0083013D01*
X0250673Y0076013D01*
X0244106Y0076013D01*
X0243984Y0075891D01*
X0260673Y0059202D01*
X0260673Y0025698D01*
X0280358Y0025698D01*
X0279682Y0025195D02*
X0261350Y0025195D01*
X0261350Y0025021D02*
X0261350Y0026374D01*
X0265426Y0026374D01*
X0265426Y0031643D01*
X0265303Y0032101D01*
X0265066Y0032512D01*
X0264731Y0032847D01*
X0264321Y0033084D01*
X0263863Y0033206D01*
X0261350Y0033206D01*
X0261350Y0026374D01*
X0259997Y0026374D01*
X0259997Y0033206D01*
X0257483Y0033206D01*
X0257026Y0033084D01*
X0256615Y0032847D01*
X0256280Y0032512D01*
X0256043Y0032101D01*
X0255920Y0031643D01*
X0255920Y0026374D01*
X0259997Y0026374D01*
X0259997Y0025021D01*
X0261350Y0025021D01*
X0265426Y0025021D01*
X0265426Y0019752D01*
X0265303Y0019294D01*
X0265066Y0018884D01*
X0264731Y0018549D01*
X0264321Y0018312D01*
X0263863Y0018189D01*
X0261350Y0018189D01*
X0261350Y0025021D01*
X0259997Y0025021D02*
X0259997Y0018189D01*
X0257483Y0018189D01*
X0257026Y0018312D01*
X0256615Y0018549D01*
X0256280Y0018884D01*
X0256043Y0019294D01*
X0255920Y0019752D01*
X0255920Y0025021D01*
X0259997Y0025021D01*
X0259997Y0025195D02*
X0254215Y0025195D01*
X0254215Y0026793D02*
X0255920Y0026793D01*
X0255920Y0028392D02*
X0254215Y0028392D01*
X0254215Y0029990D02*
X0255920Y0029990D01*
X0255920Y0031589D02*
X0254215Y0031589D01*
X0253762Y0033187D02*
X0257413Y0033187D01*
X0259997Y0033187D02*
X0261350Y0033187D01*
X0261350Y0031589D02*
X0259997Y0031589D01*
X0259997Y0029990D02*
X0261350Y0029990D01*
X0261350Y0028392D02*
X0259997Y0028392D01*
X0259997Y0026793D02*
X0261350Y0026793D01*
X0261350Y0023596D02*
X0259997Y0023596D01*
X0259997Y0021998D02*
X0261350Y0021998D01*
X0261350Y0020399D02*
X0259997Y0020399D01*
X0259997Y0018801D02*
X0261350Y0018801D01*
X0264983Y0018801D02*
X0276048Y0018801D01*
X0275965Y0018884D02*
X0276300Y0018549D01*
X0276711Y0018312D01*
X0277169Y0018189D01*
X0279682Y0018189D01*
X0279682Y0025021D01*
X0281035Y0025021D01*
X0281035Y0026374D01*
X0285111Y0026374D01*
X0285111Y0031643D01*
X0284988Y0032101D01*
X0284751Y0032512D01*
X0284416Y0032847D01*
X0284006Y0033084D01*
X0283548Y0033206D01*
X0281035Y0033206D01*
X0281035Y0026374D01*
X0279682Y0026374D01*
X0279682Y0033206D01*
X0277169Y0033206D01*
X0276711Y0033084D01*
X0276300Y0032847D01*
X0275965Y0032512D01*
X0275728Y0032101D01*
X0275606Y0031643D01*
X0275606Y0026374D01*
X0279682Y0026374D01*
X0279682Y0025021D01*
X0275606Y0025021D01*
X0275606Y0019752D01*
X0275728Y0019294D01*
X0275965Y0018884D01*
X0275606Y0020399D02*
X0265426Y0020399D01*
X0265426Y0021998D02*
X0275606Y0021998D01*
X0275606Y0023596D02*
X0265426Y0023596D01*
X0265426Y0026793D02*
X0275606Y0026793D01*
X0275606Y0028392D02*
X0265426Y0028392D01*
X0265426Y0029990D02*
X0275606Y0029990D01*
X0275606Y0031589D02*
X0265426Y0031589D01*
X0263934Y0033187D02*
X0277098Y0033187D01*
X0279682Y0033187D02*
X0281035Y0033187D01*
X0281035Y0031589D02*
X0279682Y0031589D01*
X0279682Y0029990D02*
X0281035Y0029990D01*
X0281035Y0028392D02*
X0279682Y0028392D01*
X0279682Y0026793D02*
X0281035Y0026793D01*
X0281035Y0025195D02*
X0286817Y0025195D01*
X0286817Y0026793D02*
X0285111Y0026793D01*
X0285111Y0028392D02*
X0286817Y0028392D01*
X0286817Y0029990D02*
X0285111Y0029990D01*
X0285111Y0031589D02*
X0286817Y0031589D01*
X0285561Y0033187D02*
X0283619Y0033187D01*
X0283963Y0034786D02*
X0253762Y0034786D01*
X0253184Y0036384D02*
X0282364Y0036384D01*
X0280765Y0037983D02*
X0251822Y0037983D01*
X0250321Y0039581D02*
X0279167Y0039581D01*
X0277568Y0041180D02*
X0250321Y0041180D01*
X0250321Y0042778D02*
X0275970Y0042778D01*
X0274371Y0044377D02*
X0249766Y0044377D01*
X0238202Y0044377D02*
X0234874Y0044377D01*
X0235451Y0045975D02*
X0273053Y0045975D01*
X0272506Y0047574D02*
X0235451Y0047574D01*
X0234895Y0049172D02*
X0272506Y0049172D01*
X0272506Y0050771D02*
X0233622Y0050771D01*
X0233097Y0052369D02*
X0272506Y0052369D01*
X0272506Y0053968D02*
X0234704Y0053968D01*
X0235366Y0055566D02*
X0272506Y0055566D01*
X0272506Y0057165D02*
X0235451Y0057165D01*
X0235064Y0058763D02*
X0272506Y0058763D01*
X0272506Y0060362D02*
X0234031Y0060362D01*
X0232676Y0062890D02*
X0233258Y0063313D01*
X0233767Y0063822D01*
X0234190Y0064404D01*
X0234516Y0065045D01*
X0234739Y0065729D01*
X0234851Y0066440D01*
X0234851Y0066714D01*
X0230365Y0066714D01*
X0230365Y0062228D01*
X0230639Y0062228D01*
X0231350Y0062341D01*
X0232034Y0062563D01*
X0232676Y0062890D01*
X0233504Y0063559D02*
X0272506Y0063559D01*
X0272506Y0061960D02*
X0231335Y0061960D01*
X0230194Y0062228D02*
X0230194Y0066714D01*
X0230365Y0066714D01*
X0230365Y0066886D01*
X0230194Y0066886D01*
X0230194Y0071372D01*
X0229920Y0071372D01*
X0229209Y0071259D01*
X0228525Y0071037D01*
X0227883Y0070710D01*
X0227301Y0070287D01*
X0226792Y0069778D01*
X0226370Y0069196D01*
X0226043Y0068555D01*
X0225820Y0067871D01*
X0225708Y0067160D01*
X0225708Y0066886D01*
X0230194Y0066886D01*
X0230194Y0066714D01*
X0225708Y0066714D01*
X0225708Y0066440D01*
X0225820Y0065729D01*
X0226043Y0065045D01*
X0226370Y0064404D01*
X0226792Y0063822D01*
X0227301Y0063313D01*
X0227883Y0062890D01*
X0228525Y0062563D01*
X0229209Y0062341D01*
X0229920Y0062228D01*
X0230194Y0062228D01*
X0229224Y0061960D02*
X0187147Y0061960D01*
X0185548Y0060362D02*
X0226528Y0060362D01*
X0225495Y0058763D02*
X0208835Y0058763D01*
X0209854Y0057744D02*
X0207405Y0060194D01*
X0203941Y0060194D01*
X0202960Y0059213D01*
X0197386Y0059213D01*
X0196405Y0060194D01*
X0192941Y0060194D01*
X0190492Y0057744D01*
X0190492Y0054281D01*
X0192941Y0051831D01*
X0196405Y0051831D01*
X0197386Y0052813D01*
X0202960Y0052813D01*
X0203941Y0051831D01*
X0207405Y0051831D01*
X0209854Y0054281D01*
X0209854Y0057744D01*
X0209854Y0057165D02*
X0225108Y0057165D01*
X0225193Y0055566D02*
X0209854Y0055566D01*
X0209542Y0053968D02*
X0225855Y0053968D01*
X0227462Y0052369D02*
X0207943Y0052369D01*
X0203403Y0052369D02*
X0196943Y0052369D01*
X0194673Y0056013D02*
X0205673Y0056013D01*
X0203173Y0047513D02*
X0202461Y0046800D01*
X0170280Y0046800D01*
X0170365Y0046886D02*
X0174851Y0046886D01*
X0174851Y0047160D01*
X0174739Y0047871D01*
X0174516Y0048555D01*
X0174190Y0049196D01*
X0173767Y0049778D01*
X0173258Y0050287D01*
X0172676Y0050710D01*
X0172034Y0051037D01*
X0171350Y0051259D01*
X0170639Y0051372D01*
X0170365Y0051372D01*
X0170365Y0046886D01*
X0170194Y0046886D01*
X0170194Y0051372D01*
X0169920Y0051372D01*
X0169209Y0051259D01*
X0168525Y0051037D01*
X0167883Y0050710D01*
X0167301Y0050287D01*
X0166792Y0049778D01*
X0166370Y0049196D01*
X0166043Y0048555D01*
X0165820Y0047871D01*
X0165708Y0047160D01*
X0165708Y0046886D01*
X0170194Y0046886D01*
X0170194Y0046714D01*
X0170365Y0046714D01*
X0170365Y0042228D01*
X0170639Y0042228D01*
X0171350Y0042341D01*
X0172034Y0042563D01*
X0172676Y0042890D01*
X0173258Y0043313D01*
X0173767Y0043822D01*
X0174190Y0044404D01*
X0174516Y0045045D01*
X0174739Y0045729D01*
X0174851Y0046440D01*
X0174851Y0046714D01*
X0170365Y0046714D01*
X0170365Y0046886D01*
X0170194Y0046714D02*
X0170194Y0042228D01*
X0169920Y0042228D01*
X0169209Y0042341D01*
X0168525Y0042563D01*
X0167883Y0042890D01*
X0167301Y0043313D01*
X0166792Y0043822D01*
X0166370Y0044404D01*
X0166043Y0045045D01*
X0165820Y0045729D01*
X0165708Y0046440D01*
X0165708Y0046714D01*
X0170194Y0046714D01*
X0170194Y0045975D02*
X0170365Y0045975D01*
X0170365Y0044377D02*
X0170194Y0044377D01*
X0170194Y0042778D02*
X0170365Y0042778D01*
X0172457Y0042778D02*
X0226987Y0042778D01*
X0227346Y0041180D02*
X0173213Y0041180D01*
X0174725Y0039581D02*
X0225834Y0039581D01*
X0225172Y0037983D02*
X0175387Y0037983D01*
X0175451Y0036384D02*
X0225108Y0036384D01*
X0225516Y0034786D02*
X0175043Y0034786D01*
X0173981Y0033187D02*
X0226578Y0033187D01*
X0228327Y0031589D02*
X0172233Y0031589D01*
X0174403Y0029990D02*
X0226156Y0029990D01*
X0225341Y0028392D02*
X0175218Y0028392D01*
X0175451Y0026793D02*
X0225108Y0026793D01*
X0232233Y0031589D02*
X0243509Y0031589D01*
X0243509Y0029990D02*
X0234403Y0029990D01*
X0235218Y0028392D02*
X0243509Y0028392D01*
X0243509Y0026793D02*
X0235451Y0026793D01*
X0233981Y0033187D02*
X0238419Y0033187D01*
X0237647Y0034786D02*
X0235043Y0034786D01*
X0235451Y0036384D02*
X0237647Y0036384D01*
X0237647Y0037983D02*
X0235387Y0037983D01*
X0234725Y0039581D02*
X0237647Y0039581D01*
X0237647Y0041180D02*
X0233213Y0041180D01*
X0233572Y0042778D02*
X0237647Y0042778D01*
X0225685Y0044377D02*
X0174170Y0044377D01*
X0174778Y0045975D02*
X0225108Y0045975D01*
X0225108Y0047574D02*
X0174786Y0047574D01*
X0174202Y0049172D02*
X0225664Y0049172D01*
X0226937Y0050771D02*
X0172556Y0050771D01*
X0173097Y0052369D02*
X0192403Y0052369D01*
X0190805Y0053968D02*
X0174704Y0053968D01*
X0175366Y0055566D02*
X0190492Y0055566D01*
X0190492Y0057165D02*
X0175451Y0057165D01*
X0175064Y0058763D02*
X0191511Y0058763D01*
X0188745Y0063559D02*
X0227055Y0063559D01*
X0226006Y0065158D02*
X0190344Y0065158D01*
X0191942Y0066756D02*
X0230194Y0066756D01*
X0230365Y0066756D02*
X0272506Y0066756D01*
X0272506Y0065158D02*
X0234553Y0065158D01*
X0234851Y0066886D02*
X0230365Y0066886D01*
X0230365Y0071372D01*
X0230639Y0071372D01*
X0231350Y0071259D01*
X0232034Y0071037D01*
X0232676Y0070710D01*
X0233258Y0070287D01*
X0233767Y0069778D01*
X0234190Y0069196D01*
X0234516Y0068555D01*
X0234739Y0067871D01*
X0234851Y0067160D01*
X0234851Y0066886D01*
X0234581Y0068355D02*
X0272506Y0068355D01*
X0272506Y0069953D02*
X0233592Y0069953D01*
X0230365Y0069953D02*
X0230194Y0069953D01*
X0230194Y0068355D02*
X0230365Y0068355D01*
X0230365Y0065158D02*
X0230194Y0065158D01*
X0230194Y0063559D02*
X0230365Y0063559D01*
X0225978Y0068355D02*
X0193541Y0068355D01*
X0195139Y0069953D02*
X0226967Y0069953D01*
X0226616Y0073150D02*
X0198336Y0073150D01*
X0196738Y0071552D02*
X0238291Y0071552D01*
X0238247Y0071717D02*
X0238370Y0071259D01*
X0238607Y0070848D01*
X0238942Y0070513D01*
X0239352Y0070276D01*
X0239810Y0070154D01*
X0243603Y0070154D01*
X0243603Y0075509D01*
X0244365Y0075509D01*
X0244365Y0070154D01*
X0248158Y0070154D01*
X0248616Y0070276D01*
X0249026Y0070513D01*
X0249362Y0070848D01*
X0249599Y0071259D01*
X0249721Y0071717D01*
X0249721Y0075509D01*
X0244365Y0075509D01*
X0244365Y0076272D01*
X0243603Y0076272D01*
X0243603Y0081628D01*
X0239810Y0081628D01*
X0239352Y0081505D01*
X0238942Y0081268D01*
X0238607Y0080933D01*
X0238370Y0080522D01*
X0238247Y0080065D01*
X0238247Y0076272D01*
X0243603Y0076272D01*
X0243603Y0075509D01*
X0238247Y0075509D01*
X0238247Y0071717D01*
X0238247Y0073150D02*
X0233943Y0073150D01*
X0235028Y0074749D02*
X0238247Y0074749D01*
X0238247Y0076347D02*
X0235451Y0076347D01*
X0235403Y0077946D02*
X0238247Y0077946D01*
X0238247Y0079544D02*
X0234741Y0079544D01*
X0233251Y0081143D02*
X0238817Y0081143D01*
X0243603Y0081143D02*
X0244365Y0081143D01*
X0244365Y0081628D02*
X0248158Y0081628D01*
X0248616Y0081505D01*
X0249026Y0081268D01*
X0249362Y0080933D01*
X0249599Y0080522D01*
X0249721Y0080065D01*
X0249721Y0076272D01*
X0244365Y0076272D01*
X0244365Y0081628D01*
X0244365Y0079544D02*
X0243603Y0079544D01*
X0243603Y0077946D02*
X0244365Y0077946D01*
X0244365Y0076347D02*
X0243603Y0076347D01*
X0243603Y0074749D02*
X0244365Y0074749D01*
X0244365Y0073150D02*
X0243603Y0073150D01*
X0243603Y0071552D02*
X0244365Y0071552D01*
X0249677Y0071552D02*
X0272506Y0071552D01*
X0272506Y0073150D02*
X0249721Y0073150D01*
X0249721Y0074749D02*
X0272506Y0074749D01*
X0272506Y0076347D02*
X0249721Y0076347D01*
X0249721Y0077946D02*
X0272506Y0077946D01*
X0272506Y0079544D02*
X0249721Y0079544D01*
X0249152Y0081143D02*
X0272506Y0081143D01*
X0272506Y0082741D02*
X0254315Y0082741D01*
X0255854Y0084340D02*
X0272506Y0084340D01*
X0272506Y0085938D02*
X0255854Y0085938D01*
X0255854Y0087537D02*
X0272506Y0087537D01*
X0272506Y0089135D02*
X0254464Y0089135D01*
X0251673Y0086013D02*
X0231067Y0086013D01*
X0230280Y0086800D01*
X0225649Y0089135D02*
X0207873Y0089135D01*
X0207873Y0087537D02*
X0225108Y0087537D01*
X0225108Y0085938D02*
X0207873Y0085938D01*
X0207873Y0084340D02*
X0225701Y0084340D01*
X0227025Y0082741D02*
X0207610Y0082741D01*
X0206329Y0081143D02*
X0227308Y0081143D01*
X0225818Y0079544D02*
X0204730Y0079544D01*
X0203132Y0077946D02*
X0225156Y0077946D01*
X0225108Y0076347D02*
X0201533Y0076347D01*
X0199935Y0074749D02*
X0225531Y0074749D01*
X0233534Y0082741D02*
X0249032Y0082741D01*
X0238896Y0093931D02*
X0260226Y0093931D01*
X0258889Y0095529D02*
X0240715Y0095529D01*
X0242314Y0097128D02*
X0258257Y0097128D01*
X0258257Y0098726D02*
X0242873Y0098726D01*
X0242873Y0100325D02*
X0258257Y0100325D01*
X0258257Y0101923D02*
X0242873Y0101923D01*
X0242873Y0103522D02*
X0258257Y0103522D01*
X0258257Y0105120D02*
X0242873Y0105120D01*
X0242873Y0106719D02*
X0258917Y0106719D01*
X0260291Y0108317D02*
X0242873Y0108317D01*
X0242873Y0109916D02*
X0272506Y0109916D01*
X0272506Y0111514D02*
X0242873Y0111514D01*
X0242873Y0113113D02*
X0272506Y0113113D01*
X0272506Y0114711D02*
X0242873Y0114711D01*
X0242873Y0116310D02*
X0272506Y0116310D01*
X0272506Y0117908D02*
X0242873Y0117908D01*
X0242873Y0119507D02*
X0272506Y0119507D01*
X0272506Y0121105D02*
X0252826Y0121105D01*
X0252887Y0121131D02*
X0254398Y0122641D01*
X0255215Y0124614D01*
X0255215Y0132687D01*
X0254398Y0134660D01*
X0252887Y0136170D01*
X0250914Y0136987D01*
X0248779Y0136987D01*
X0246805Y0136170D01*
X0245295Y0134660D01*
X0244478Y0132687D01*
X0244478Y0124614D01*
X0245295Y0122641D01*
X0246805Y0121131D01*
X0248779Y0120313D01*
X0250914Y0120313D01*
X0252887Y0121131D01*
X0254424Y0122704D02*
X0272506Y0122704D01*
X0272166Y0124302D02*
X0255086Y0124302D01*
X0255215Y0125901D02*
X0272037Y0125901D01*
X0272037Y0127499D02*
X0255215Y0127499D01*
X0255215Y0129098D02*
X0272037Y0129098D01*
X0272037Y0130696D02*
X0255215Y0130696D01*
X0255215Y0132295D02*
X0272037Y0132295D01*
X0272537Y0133894D02*
X0254715Y0133894D01*
X0253566Y0135492D02*
X0273686Y0135492D01*
X0246127Y0135492D02*
X0242873Y0135492D01*
X0242873Y0133894D02*
X0244978Y0133894D01*
X0244478Y0132295D02*
X0242873Y0132295D01*
X0242873Y0130696D02*
X0244478Y0130696D01*
X0244478Y0129098D02*
X0242873Y0129098D01*
X0242873Y0127499D02*
X0244478Y0127499D01*
X0244478Y0125901D02*
X0242873Y0125901D01*
X0242873Y0124302D02*
X0244607Y0124302D01*
X0245269Y0122704D02*
X0242873Y0122704D01*
X0242873Y0121105D02*
X0246866Y0121105D01*
X0230280Y0116800D02*
X0209461Y0116800D01*
X0204673Y0112013D01*
X0204673Y0084013D01*
X0182673Y0062013D01*
X0158673Y0062013D01*
X0156673Y0064013D01*
X0146673Y0064013D01*
X0144673Y0066013D01*
X0144673Y0068985D01*
X0139531Y0074127D01*
X0135039Y0076347D02*
X0088670Y0076347D01*
X0088670Y0077946D02*
X0136279Y0077946D01*
X0137529Y0079544D02*
X0088316Y0079544D01*
X0087654Y0081143D02*
X0135445Y0081143D01*
X0134693Y0082741D02*
X0086577Y0082741D01*
X0084978Y0084340D02*
X0134531Y0084340D01*
X0139531Y0084127D02*
X0142673Y0087269D01*
X0142673Y0090013D01*
X0146673Y0094013D01*
X0154673Y0094013D01*
X0167461Y0106800D01*
X0170280Y0106800D01*
X0170280Y0096800D02*
X0167205Y0096800D01*
X0149531Y0079127D01*
X0144955Y0081143D02*
X0143618Y0081143D01*
X0144370Y0082741D02*
X0146075Y0082741D01*
X0144531Y0084340D02*
X0148023Y0084340D01*
X0145649Y0085938D02*
X0145586Y0085938D01*
X0144531Y0079544D02*
X0141534Y0079544D01*
X0142784Y0077946D02*
X0144609Y0077946D01*
X0144024Y0076347D02*
X0145271Y0076347D01*
X0144531Y0074749D02*
X0147036Y0074749D01*
X0146484Y0073150D02*
X0145034Y0073150D01*
X0149531Y0069127D02*
X0151917Y0071513D01*
X0186173Y0071513D01*
X0200673Y0086013D01*
X0200673Y0118013D01*
X0209461Y0126800D01*
X0230280Y0126800D01*
X0226653Y0113113D02*
X0210299Y0113113D01*
X0208700Y0111514D02*
X0228147Y0111514D01*
X0226082Y0109916D02*
X0207873Y0109916D01*
X0207873Y0108317D02*
X0225310Y0108317D01*
X0225108Y0106719D02*
X0207873Y0106719D01*
X0207873Y0105120D02*
X0225378Y0105120D01*
X0226244Y0103522D02*
X0207873Y0103522D01*
X0207873Y0101923D02*
X0228539Y0101923D01*
X0226490Y0100325D02*
X0207873Y0100325D01*
X0207873Y0098726D02*
X0225480Y0098726D01*
X0225108Y0097128D02*
X0207873Y0097128D01*
X0207873Y0095529D02*
X0225208Y0095529D01*
X0225870Y0093931D02*
X0207873Y0093931D01*
X0207873Y0092332D02*
X0227552Y0092332D01*
X0226899Y0090734D02*
X0207873Y0090734D01*
X0230280Y0096800D02*
X0237461Y0096800D01*
X0239673Y0099013D01*
X0239673Y0143013D01*
X0243673Y0147013D01*
X0244671Y0143485D02*
X0303676Y0143485D01*
X0312263Y0138689D02*
X0317997Y0138689D01*
X0316398Y0140288D02*
X0313854Y0140288D01*
X0313854Y0141886D02*
X0314800Y0141886D01*
X0320673Y0108317D02*
X0294520Y0108317D01*
X0295894Y0106719D02*
X0320673Y0106719D01*
X0320673Y0105120D02*
X0296554Y0105120D01*
X0296554Y0103522D02*
X0320673Y0103522D01*
X0320673Y0101923D02*
X0296554Y0101923D01*
X0296554Y0100325D02*
X0320673Y0100325D01*
X0320673Y0098726D02*
X0296554Y0098726D01*
X0296554Y0097128D02*
X0320673Y0097128D01*
X0320673Y0095529D02*
X0295922Y0095529D01*
X0294585Y0093931D02*
X0320673Y0093931D01*
X0305365Y0081143D02*
X0304603Y0081143D01*
X0304603Y0079544D02*
X0305365Y0079544D01*
X0305365Y0077946D02*
X0304603Y0077946D01*
X0304603Y0076347D02*
X0305365Y0076347D01*
X0299247Y0076347D02*
X0282305Y0076347D01*
X0282305Y0074749D02*
X0299247Y0074749D01*
X0299247Y0073150D02*
X0282305Y0073150D01*
X0282305Y0071552D02*
X0299291Y0071552D01*
X0299247Y0077946D02*
X0282305Y0077946D01*
X0282305Y0079544D02*
X0299247Y0079544D01*
X0299817Y0081143D02*
X0282305Y0081143D01*
X0272506Y0090734D02*
X0233660Y0090734D01*
X0233007Y0092332D02*
X0272506Y0092332D01*
X0272506Y0093931D02*
X0267026Y0093931D01*
X0268363Y0095529D02*
X0272506Y0095529D01*
X0272506Y0106719D02*
X0268335Y0106719D01*
X0266961Y0108317D02*
X0272506Y0108317D01*
X0282305Y0069953D02*
X0320673Y0069953D01*
X0320673Y0068355D02*
X0282305Y0068355D01*
X0282305Y0066756D02*
X0320673Y0066756D01*
X0320673Y0065158D02*
X0282305Y0065158D01*
X0282305Y0063559D02*
X0320673Y0063559D01*
X0320673Y0061960D02*
X0282305Y0061960D01*
X0282305Y0060362D02*
X0320673Y0060362D01*
X0320673Y0058763D02*
X0282305Y0058763D01*
X0282305Y0057165D02*
X0320673Y0057165D01*
X0320673Y0055566D02*
X0282305Y0055566D01*
X0282305Y0053968D02*
X0320673Y0053968D01*
X0320673Y0052369D02*
X0282305Y0052369D01*
X0282305Y0050771D02*
X0320673Y0050771D01*
X0320673Y0049172D02*
X0283435Y0049172D01*
X0285034Y0047574D02*
X0320673Y0047574D01*
X0320673Y0045975D02*
X0286632Y0045975D01*
X0288231Y0044377D02*
X0299202Y0044377D01*
X0294509Y0042778D02*
X0289829Y0042778D01*
X0291428Y0041180D02*
X0292911Y0041180D01*
X0298778Y0033187D02*
X0299419Y0033187D01*
X0297522Y0031589D02*
X0302567Y0031589D01*
X0302133Y0031409D02*
X0300237Y0029514D01*
X0299212Y0027038D01*
X0299212Y0024358D01*
X0300237Y0021881D01*
X0302133Y0019986D01*
X0304609Y0018961D01*
X0307289Y0018961D01*
X0309765Y0019986D01*
X0311660Y0021881D01*
X0312686Y0024358D01*
X0312686Y0027038D01*
X0311660Y0029514D01*
X0309765Y0031409D01*
X0307289Y0032435D01*
X0304609Y0032435D01*
X0302133Y0031409D01*
X0300714Y0029990D02*
X0297522Y0029990D01*
X0297522Y0028392D02*
X0299773Y0028392D01*
X0299212Y0026793D02*
X0297522Y0026793D01*
X0297522Y0025195D02*
X0299212Y0025195D01*
X0299527Y0023596D02*
X0297522Y0023596D01*
X0297522Y0021998D02*
X0300189Y0021998D01*
X0301720Y0020399D02*
X0297522Y0020399D01*
X0297228Y0018801D02*
X0320673Y0018801D01*
X0320673Y0020399D02*
X0310178Y0020399D01*
X0311708Y0021998D02*
X0320673Y0021998D01*
X0320673Y0023596D02*
X0312370Y0023596D01*
X0312686Y0025195D02*
X0320673Y0025195D01*
X0320673Y0026793D02*
X0312686Y0026793D01*
X0312125Y0028392D02*
X0320673Y0028392D01*
X0320673Y0029990D02*
X0311184Y0029990D01*
X0309331Y0031589D02*
X0320673Y0031589D01*
X0320673Y0033187D02*
X0310549Y0033187D01*
X0311321Y0034786D02*
X0320673Y0034786D01*
X0320673Y0036384D02*
X0311321Y0036384D01*
X0311321Y0037983D02*
X0320673Y0037983D01*
X0320673Y0039581D02*
X0311321Y0039581D01*
X0311321Y0041180D02*
X0320673Y0041180D01*
X0320673Y0042778D02*
X0311321Y0042778D01*
X0310766Y0044377D02*
X0320673Y0044377D01*
X0286817Y0023596D02*
X0285111Y0023596D01*
X0285111Y0025021D02*
X0281035Y0025021D01*
X0281035Y0018189D01*
X0283548Y0018189D01*
X0284006Y0018312D01*
X0284416Y0018549D01*
X0284751Y0018884D01*
X0284988Y0019294D01*
X0285111Y0019752D01*
X0285111Y0025021D01*
X0285111Y0021998D02*
X0286817Y0021998D01*
X0286817Y0020399D02*
X0285111Y0020399D01*
X0284668Y0018801D02*
X0287111Y0018801D01*
X0281035Y0018801D02*
X0279682Y0018801D01*
X0279682Y0020399D02*
X0281035Y0020399D01*
X0281035Y0021998D02*
X0279682Y0021998D01*
X0279682Y0023596D02*
X0281035Y0023596D01*
X0255920Y0023596D02*
X0254215Y0023596D01*
X0254215Y0021998D02*
X0255920Y0021998D01*
X0255920Y0020399D02*
X0254215Y0020399D01*
X0253920Y0018801D02*
X0256363Y0018801D01*
X0235451Y0017202D02*
X0320673Y0017202D01*
X0320673Y0015604D02*
X0235382Y0015604D01*
X0234720Y0014005D02*
X0320673Y0014005D01*
X0320673Y0012407D02*
X0233187Y0012407D01*
X0227372Y0012407D02*
X0173187Y0012407D01*
X0174720Y0014005D02*
X0225839Y0014005D01*
X0225177Y0015604D02*
X0175382Y0015604D01*
X0175451Y0017202D02*
X0225108Y0017202D01*
X0170365Y0047574D02*
X0170194Y0047574D01*
X0170194Y0049172D02*
X0170365Y0049172D01*
X0170365Y0050771D02*
X0170194Y0050771D01*
X0168003Y0050771D02*
X0052361Y0050771D01*
X0050763Y0049172D02*
X0166357Y0049172D01*
X0165773Y0047574D02*
X0049164Y0047574D01*
X0053960Y0052369D02*
X0167462Y0052369D01*
X0165855Y0053968D02*
X0055558Y0053968D01*
X0057157Y0055566D02*
X0146021Y0055566D01*
X0144932Y0057165D02*
X0058755Y0057165D01*
X0060354Y0058763D02*
X0144531Y0058763D01*
X0144631Y0060362D02*
X0141834Y0060362D01*
X0143366Y0061960D02*
X0144200Y0061960D01*
X0139532Y0061960D02*
X0139531Y0061960D01*
X0139531Y0060362D02*
X0139532Y0060362D01*
X0137228Y0060362D02*
X0061952Y0060362D01*
X0063127Y0061960D02*
X0135697Y0061960D01*
X0135167Y0063559D02*
X0063573Y0063559D01*
X0063573Y0065158D02*
X0135240Y0065158D01*
X0136003Y0066756D02*
X0063573Y0066756D01*
X0053773Y0066756D02*
X0025573Y0066756D01*
X0025573Y0065158D02*
X0052889Y0065158D01*
X0051290Y0063559D02*
X0025573Y0063559D01*
X0025573Y0061960D02*
X0049691Y0061960D01*
X0048093Y0060362D02*
X0025573Y0060362D01*
X0025573Y0058763D02*
X0046494Y0058763D01*
X0044896Y0057165D02*
X0025573Y0057165D01*
X0025573Y0055566D02*
X0038863Y0055566D01*
X0036699Y0053968D02*
X0025573Y0053968D01*
X0025573Y0052369D02*
X0035100Y0052369D01*
X0033502Y0050771D02*
X0025573Y0050771D01*
X0025573Y0049172D02*
X0031903Y0049172D01*
X0031016Y0047574D02*
X0025573Y0047574D01*
X0025573Y0045975D02*
X0030773Y0045975D01*
X0030773Y0044377D02*
X0025573Y0044377D01*
X0025573Y0042778D02*
X0030773Y0042778D01*
X0030773Y0041180D02*
X0025573Y0041180D01*
X0025573Y0039581D02*
X0030773Y0039581D01*
X0030773Y0037983D02*
X0025573Y0037983D01*
X0025573Y0036384D02*
X0030773Y0036384D01*
X0030878Y0034786D02*
X0025573Y0034786D01*
X0025573Y0033187D02*
X0031569Y0033187D01*
X0026976Y0031589D02*
X0025573Y0031589D01*
X0042566Y0045975D02*
X0165781Y0045975D01*
X0166389Y0044377D02*
X0065758Y0044377D01*
X0068181Y0042778D02*
X0071809Y0042778D01*
X0070788Y0041180D02*
X0069004Y0041180D01*
X0069152Y0039581D02*
X0070590Y0039581D01*
X0071071Y0037983D02*
X0068731Y0037983D01*
X0067524Y0036384D02*
X0072682Y0036384D01*
X0078071Y0037983D02*
X0121714Y0037983D01*
X0123312Y0039581D02*
X0078552Y0039581D01*
X0078354Y0041180D02*
X0124911Y0041180D01*
X0131446Y0042778D02*
X0077333Y0042778D01*
X0074571Y0042778D02*
X0074571Y0042778D01*
X0074571Y0041180D02*
X0074571Y0041180D01*
X0053773Y0068355D02*
X0043399Y0068355D01*
X0046143Y0069953D02*
X0053773Y0069953D01*
X0053773Y0071552D02*
X0047742Y0071552D01*
X0048505Y0073150D02*
X0053773Y0073150D01*
X0053773Y0074749D02*
X0049167Y0074749D01*
X0049300Y0076347D02*
X0053773Y0076347D01*
X0053773Y0077946D02*
X0049300Y0077946D01*
X0048946Y0079544D02*
X0053773Y0079544D01*
X0053773Y0081143D02*
X0048284Y0081143D01*
X0047207Y0082741D02*
X0053773Y0082741D01*
X0053773Y0084340D02*
X0045608Y0084340D01*
X0042107Y0085938D02*
X0053773Y0085938D01*
X0053773Y0087537D02*
X0038127Y0087537D01*
X0038295Y0085938D02*
X0036528Y0085938D01*
X0039725Y0089135D02*
X0053773Y0089135D01*
X0053773Y0090734D02*
X0041324Y0090734D01*
X0042922Y0092332D02*
X0053773Y0092332D01*
X0053773Y0093931D02*
X0044521Y0093931D01*
X0046120Y0095529D02*
X0053773Y0095529D01*
X0053773Y0097128D02*
X0047718Y0097128D01*
X0049030Y0098726D02*
X0053773Y0098726D01*
X0053773Y0100325D02*
X0049573Y0100325D01*
X0049573Y0101923D02*
X0053533Y0101923D01*
X0053533Y0103522D02*
X0049573Y0103522D01*
X0049573Y0105120D02*
X0053533Y0105120D01*
X0053533Y0106719D02*
X0049573Y0106719D01*
X0049573Y0108317D02*
X0053533Y0108317D01*
X0053886Y0109916D02*
X0049573Y0109916D01*
X0049573Y0111514D02*
X0054827Y0111514D01*
X0049573Y0125901D02*
X0068807Y0125901D01*
X0067748Y0127499D02*
X0050055Y0127499D01*
X0050491Y0129098D02*
X0067313Y0129098D01*
X0067313Y0130696D02*
X0050491Y0130696D01*
X0021586Y0138689D02*
X0018350Y0138689D01*
X0016751Y0137091D02*
X0020114Y0137091D01*
X0018855Y0135492D02*
X0015673Y0135492D01*
X0015673Y0133894D02*
X0018273Y0133894D01*
X0018273Y0132295D02*
X0015673Y0132295D01*
X0015673Y0130696D02*
X0018788Y0130696D01*
X0019951Y0129098D02*
X0015673Y0129098D01*
X0015673Y0127499D02*
X0020523Y0127499D01*
X0019025Y0125901D02*
X0015673Y0125901D01*
X0015673Y0124302D02*
X0018363Y0124302D01*
X0018273Y0122704D02*
X0015673Y0122704D01*
X0015673Y0121105D02*
X0018618Y0121105D01*
X0019542Y0119507D02*
X0015673Y0119507D01*
X0015673Y0117908D02*
X0021382Y0117908D01*
X0019334Y0116310D02*
X0015673Y0116310D01*
X0015673Y0114711D02*
X0018532Y0114711D01*
X0018273Y0113113D02*
X0015673Y0113113D01*
X0015673Y0111514D02*
X0018449Y0111514D01*
X0019133Y0109916D02*
X0015673Y0109916D01*
X0015673Y0108317D02*
X0020898Y0108317D01*
X0019743Y0106719D02*
X0015673Y0106719D01*
X0015673Y0105120D02*
X0018701Y0105120D01*
X0018273Y0103522D02*
X0015673Y0103522D01*
X0015673Y0101923D02*
X0018280Y0101923D01*
X0018942Y0100325D02*
X0015673Y0100325D01*
X0015673Y0098726D02*
X0020323Y0098726D01*
X0031733Y0081143D02*
X0032118Y0081143D01*
X0031456Y0079544D02*
X0030134Y0079544D01*
X0031102Y0077946D02*
X0028536Y0077946D01*
X0026937Y0076347D02*
X0031102Y0076347D01*
X0031234Y0074749D02*
X0025573Y0074749D01*
X0025573Y0073150D02*
X0031896Y0073150D01*
X0032660Y0071552D02*
X0025573Y0071552D01*
X0025573Y0069953D02*
X0034258Y0069953D01*
X0037003Y0068355D02*
X0025573Y0068355D01*
X0085513Y0069953D02*
X0136634Y0069953D01*
X0135186Y0071552D02*
X0087112Y0071552D01*
X0087875Y0073150D02*
X0134531Y0073150D01*
X0134531Y0074749D02*
X0088537Y0074749D01*
X0099997Y0095529D02*
X0101350Y0095529D01*
X0101350Y0097128D02*
X0099997Y0097128D01*
X0099997Y0098726D02*
X0101350Y0098726D01*
X0094936Y0098726D02*
X0089871Y0098726D01*
X0086645Y0098726D02*
X0086276Y0098726D01*
X0086276Y0100325D02*
X0086645Y0100325D01*
X0086645Y0101923D02*
X0086276Y0101923D01*
X0115716Y0097128D02*
X0121631Y0097128D01*
X0120258Y0098726D02*
X0117088Y0098726D01*
X0117136Y0100325D02*
X0120210Y0100325D01*
X0120210Y0101923D02*
X0117136Y0101923D01*
X0117136Y0103522D02*
X0120210Y0103522D01*
X0120210Y0105120D02*
X0117136Y0105120D01*
X0118163Y0108654D02*
X0118163Y0108654D01*
X0139532Y0109727D02*
X0139878Y0109727D01*
X0140562Y0109835D01*
X0141221Y0110049D01*
X0140810Y0109916D02*
X0144531Y0109916D01*
X0145109Y0111514D02*
X0143072Y0111514D01*
X0143826Y0113113D02*
X0146447Y0113113D01*
X0147126Y0114711D02*
X0143894Y0114711D01*
X0143357Y0116310D02*
X0145286Y0116310D01*
X0144624Y0117908D02*
X0141801Y0117908D01*
X0141444Y0119507D02*
X0144531Y0119507D01*
X0144939Y0121105D02*
X0143581Y0121105D01*
X0144354Y0122704D02*
X0146038Y0122704D01*
X0144531Y0124302D02*
X0148113Y0124302D01*
X0145686Y0125901D02*
X0144209Y0125901D01*
X0144794Y0127499D02*
X0143230Y0127499D01*
X0144531Y0129098D02*
X0140596Y0129098D01*
X0140562Y0129835D02*
X0141221Y0130049D01*
X0141838Y0130364D01*
X0142398Y0130771D01*
X0142888Y0131260D01*
X0143295Y0131821D01*
X0143609Y0132438D01*
X0143823Y0133096D01*
X0143931Y0133780D01*
X0143931Y0134127D01*
X0139532Y0134127D01*
X0139532Y0134127D01*
X0139532Y0129727D01*
X0139878Y0129727D01*
X0140562Y0129835D01*
X0139532Y0130696D02*
X0139531Y0130696D01*
X0139531Y0132295D02*
X0139532Y0132295D01*
X0139531Y0133894D02*
X0139532Y0133894D01*
X0143536Y0132295D02*
X0145629Y0132295D01*
X0144770Y0130696D02*
X0142296Y0130696D01*
X0143931Y0133894D02*
X0147974Y0133894D01*
X0139531Y0117908D02*
X0139532Y0117908D01*
X0139531Y0116310D02*
X0139532Y0116310D01*
X0139531Y0114711D02*
X0139532Y0114711D01*
X0139532Y0114127D02*
X0139532Y0109727D01*
X0139531Y0109916D02*
X0139532Y0109916D01*
X0139531Y0111514D02*
X0139532Y0111514D01*
X0139531Y0113113D02*
X0139532Y0113113D01*
X0139531Y0114127D02*
X0139532Y0114127D01*
X0144031Y0101923D02*
X0145278Y0101923D01*
X0144616Y0100325D02*
X0142801Y0100325D01*
X0141493Y0098726D02*
X0144531Y0098726D01*
X0144948Y0097128D02*
X0143602Y0097128D01*
X0139531Y0064127D02*
X0139532Y0064127D01*
X0139531Y0063559D02*
X0139532Y0063559D01*
X0153042Y0055566D02*
X0165193Y0055566D01*
X0165108Y0057165D02*
X0154131Y0057165D01*
X0154531Y0058763D02*
X0165495Y0058763D01*
X0155798Y0060362D02*
X0154432Y0060362D01*
X0157617Y0042778D02*
X0168103Y0042778D01*
X0167346Y0041180D02*
X0158546Y0041180D01*
X0158546Y0039581D02*
X0165834Y0039581D01*
X0165172Y0037983D02*
X0158546Y0037983D01*
X0158546Y0036384D02*
X0165108Y0036384D01*
X0165516Y0034786D02*
X0158546Y0034786D01*
X0158340Y0033187D02*
X0166578Y0033187D01*
X0168327Y0031589D02*
X0157502Y0031589D01*
X0158351Y0029990D02*
X0166156Y0029990D01*
X0165341Y0028392D02*
X0158546Y0028392D01*
X0158546Y0026793D02*
X0165108Y0026793D01*
X0165108Y0017202D02*
X0158546Y0017202D01*
X0158546Y0015604D02*
X0165177Y0015604D01*
X0165839Y0014005D02*
X0158546Y0014005D01*
X0158546Y0012407D02*
X0167372Y0012407D01*
X0147233Y0018801D02*
X0141830Y0018801D01*
X0141446Y0020399D02*
X0147617Y0020399D01*
X0146659Y0021998D02*
X0142404Y0021998D01*
X0142404Y0023596D02*
X0146659Y0023596D01*
X0146659Y0025195D02*
X0142404Y0025195D01*
X0142404Y0026793D02*
X0146659Y0026793D01*
X0146659Y0028392D02*
X0142404Y0028392D01*
X0142210Y0029990D02*
X0146853Y0029990D01*
X0147702Y0031589D02*
X0129179Y0031589D01*
X0130712Y0029990D02*
X0127581Y0029990D01*
X0125982Y0028392D02*
X0130517Y0028392D01*
X0130517Y0026793D02*
X0124384Y0026793D01*
X0122785Y0025195D02*
X0130517Y0025195D01*
X0130517Y0023596D02*
X0121186Y0023596D01*
X0119588Y0021998D02*
X0130517Y0021998D01*
X0142404Y0017202D02*
X0146659Y0017202D01*
X0146659Y0015604D02*
X0142404Y0015604D01*
X0142404Y0014005D02*
X0146659Y0014005D01*
X0146659Y0012407D02*
X0142404Y0012407D01*
X0142198Y0033187D02*
X0146865Y0033187D01*
X0146659Y0034786D02*
X0142404Y0034786D01*
X0142404Y0036384D02*
X0146659Y0036384D01*
X0146659Y0037983D02*
X0142404Y0037983D01*
X0142404Y0039581D02*
X0146659Y0039581D01*
X0146659Y0041180D02*
X0142404Y0041180D01*
X0141475Y0042778D02*
X0147588Y0042778D01*
D25*
X0127673Y0037013D03*
X0126673Y0013887D03*
X0194673Y0056013D03*
X0205673Y0056013D03*
X0203173Y0047513D03*
X0251673Y0086013D03*
X0257673Y0115013D03*
X0296673Y0118013D03*
X0309673Y0142013D03*
X0100673Y0158013D03*
X0092673Y0162013D03*
X0087673Y0166013D03*
X0059673Y0143013D03*
X0093673Y0113013D03*
X0035673Y0092013D03*
D26*
X0044673Y0101013D01*
X0044673Y0132139D01*
X0045122Y0132587D01*
X0058902Y0105028D02*
X0058673Y0104800D01*
X0058673Y0064013D01*
X0045673Y0051013D01*
X0040673Y0051013D01*
X0035673Y0046013D01*
X0035673Y0036013D01*
X0045673Y0026013D01*
X0116673Y0026013D01*
X0127673Y0037013D01*
X0128169Y0037509D01*
X0136461Y0037509D01*
X0152602Y0037509D02*
X0152602Y0025698D01*
X0152602Y0013887D01*
X0136461Y0013887D02*
X0136461Y0025698D01*
X0136461Y0013887D02*
X0126673Y0013887D01*
X0028799Y0013887D01*
X0020673Y0022013D01*
X0020673Y0077013D01*
X0035673Y0092013D01*
X0243984Y0038891D02*
X0248862Y0034013D01*
X0248862Y0025698D01*
X0277406Y0048272D02*
X0292169Y0033509D01*
X0292169Y0025698D01*
X0292169Y0033509D02*
X0297551Y0038891D01*
X0304984Y0038891D01*
X0277406Y0048272D02*
X0277406Y0101013D01*
X0277327Y0101091D01*
X0263626Y0101091D01*
X0277406Y0101013D02*
X0277406Y0128650D01*
D27*
X0248862Y0025698D02*
X0248862Y0024702D01*
X0246173Y0022013D01*
X0152602Y0022013D01*
X0152602Y0025698D01*
M02*
