G75*
%MOIN*%
%OFA0B0*%
%FSLAX25Y25*%
%IPPOS*%
%LPD*%
%AMOC8*
5,1,8,0,0,1.08239X$1,22.5*
%
%ADD10C,0.00000*%
%ADD11C,0.01400*%
%ADD12C,0.05543*%
%ADD13C,0.04362*%
%ADD14R,0.03937X0.04331*%
%ADD15R,0.04331X0.03937*%
%ADD16R,0.05512X0.03937*%
%ADD17R,0.03937X0.05512*%
%ADD18C,0.05200*%
%ADD19C,0.04400*%
%ADD20C,0.05937*%
%ADD21R,0.07874X0.07874*%
%ADD22C,0.06000*%
%ADD23C,0.01600*%
%ADD24OC8,0.03562*%
%ADD25C,0.02400*%
D10*
X0010673Y0006013D02*
X0010673Y0183178D01*
X0325634Y0183178D01*
X0325634Y0006013D01*
X0010673Y0006013D01*
X0026421Y0025698D02*
X0026423Y0025823D01*
X0026429Y0025948D01*
X0026439Y0026072D01*
X0026453Y0026196D01*
X0026470Y0026320D01*
X0026492Y0026443D01*
X0026518Y0026565D01*
X0026547Y0026687D01*
X0026580Y0026807D01*
X0026618Y0026926D01*
X0026658Y0027045D01*
X0026703Y0027161D01*
X0026751Y0027276D01*
X0026803Y0027390D01*
X0026859Y0027502D01*
X0026918Y0027612D01*
X0026980Y0027720D01*
X0027046Y0027827D01*
X0027115Y0027931D01*
X0027188Y0028032D01*
X0027263Y0028132D01*
X0027342Y0028229D01*
X0027424Y0028323D01*
X0027509Y0028415D01*
X0027596Y0028504D01*
X0027687Y0028590D01*
X0027780Y0028673D01*
X0027876Y0028754D01*
X0027974Y0028831D01*
X0028074Y0028905D01*
X0028177Y0028976D01*
X0028282Y0029043D01*
X0028390Y0029108D01*
X0028499Y0029168D01*
X0028610Y0029226D01*
X0028723Y0029279D01*
X0028837Y0029329D01*
X0028953Y0029376D01*
X0029070Y0029418D01*
X0029189Y0029457D01*
X0029309Y0029493D01*
X0029430Y0029524D01*
X0029552Y0029552D01*
X0029674Y0029575D01*
X0029798Y0029595D01*
X0029922Y0029611D01*
X0030046Y0029623D01*
X0030171Y0029631D01*
X0030296Y0029635D01*
X0030420Y0029635D01*
X0030545Y0029631D01*
X0030670Y0029623D01*
X0030794Y0029611D01*
X0030918Y0029595D01*
X0031042Y0029575D01*
X0031164Y0029552D01*
X0031286Y0029524D01*
X0031407Y0029493D01*
X0031527Y0029457D01*
X0031646Y0029418D01*
X0031763Y0029376D01*
X0031879Y0029329D01*
X0031993Y0029279D01*
X0032106Y0029226D01*
X0032217Y0029168D01*
X0032327Y0029108D01*
X0032434Y0029043D01*
X0032539Y0028976D01*
X0032642Y0028905D01*
X0032742Y0028831D01*
X0032840Y0028754D01*
X0032936Y0028673D01*
X0033029Y0028590D01*
X0033120Y0028504D01*
X0033207Y0028415D01*
X0033292Y0028323D01*
X0033374Y0028229D01*
X0033453Y0028132D01*
X0033528Y0028032D01*
X0033601Y0027931D01*
X0033670Y0027827D01*
X0033736Y0027720D01*
X0033798Y0027612D01*
X0033857Y0027502D01*
X0033913Y0027390D01*
X0033965Y0027276D01*
X0034013Y0027161D01*
X0034058Y0027045D01*
X0034098Y0026926D01*
X0034136Y0026807D01*
X0034169Y0026687D01*
X0034198Y0026565D01*
X0034224Y0026443D01*
X0034246Y0026320D01*
X0034263Y0026196D01*
X0034277Y0026072D01*
X0034287Y0025948D01*
X0034293Y0025823D01*
X0034295Y0025698D01*
X0034293Y0025573D01*
X0034287Y0025448D01*
X0034277Y0025324D01*
X0034263Y0025200D01*
X0034246Y0025076D01*
X0034224Y0024953D01*
X0034198Y0024831D01*
X0034169Y0024709D01*
X0034136Y0024589D01*
X0034098Y0024470D01*
X0034058Y0024351D01*
X0034013Y0024235D01*
X0033965Y0024120D01*
X0033913Y0024006D01*
X0033857Y0023894D01*
X0033798Y0023784D01*
X0033736Y0023676D01*
X0033670Y0023569D01*
X0033601Y0023465D01*
X0033528Y0023364D01*
X0033453Y0023264D01*
X0033374Y0023167D01*
X0033292Y0023073D01*
X0033207Y0022981D01*
X0033120Y0022892D01*
X0033029Y0022806D01*
X0032936Y0022723D01*
X0032840Y0022642D01*
X0032742Y0022565D01*
X0032642Y0022491D01*
X0032539Y0022420D01*
X0032434Y0022353D01*
X0032326Y0022288D01*
X0032217Y0022228D01*
X0032106Y0022170D01*
X0031993Y0022117D01*
X0031879Y0022067D01*
X0031763Y0022020D01*
X0031646Y0021978D01*
X0031527Y0021939D01*
X0031407Y0021903D01*
X0031286Y0021872D01*
X0031164Y0021844D01*
X0031042Y0021821D01*
X0030918Y0021801D01*
X0030794Y0021785D01*
X0030670Y0021773D01*
X0030545Y0021765D01*
X0030420Y0021761D01*
X0030296Y0021761D01*
X0030171Y0021765D01*
X0030046Y0021773D01*
X0029922Y0021785D01*
X0029798Y0021801D01*
X0029674Y0021821D01*
X0029552Y0021844D01*
X0029430Y0021872D01*
X0029309Y0021903D01*
X0029189Y0021939D01*
X0029070Y0021978D01*
X0028953Y0022020D01*
X0028837Y0022067D01*
X0028723Y0022117D01*
X0028610Y0022170D01*
X0028499Y0022228D01*
X0028389Y0022288D01*
X0028282Y0022353D01*
X0028177Y0022420D01*
X0028074Y0022491D01*
X0027974Y0022565D01*
X0027876Y0022642D01*
X0027780Y0022723D01*
X0027687Y0022806D01*
X0027596Y0022892D01*
X0027509Y0022981D01*
X0027424Y0023073D01*
X0027342Y0023167D01*
X0027263Y0023264D01*
X0027188Y0023364D01*
X0027115Y0023465D01*
X0027046Y0023569D01*
X0026980Y0023676D01*
X0026918Y0023784D01*
X0026859Y0023894D01*
X0026803Y0024006D01*
X0026751Y0024120D01*
X0026703Y0024235D01*
X0026658Y0024351D01*
X0026618Y0024470D01*
X0026580Y0024589D01*
X0026547Y0024709D01*
X0026518Y0024831D01*
X0026492Y0024953D01*
X0026470Y0025076D01*
X0026453Y0025200D01*
X0026439Y0025324D01*
X0026429Y0025448D01*
X0026423Y0025573D01*
X0026421Y0025698D01*
X0033902Y0076879D02*
X0033904Y0077037D01*
X0033910Y0077195D01*
X0033920Y0077353D01*
X0033934Y0077511D01*
X0033952Y0077668D01*
X0033973Y0077825D01*
X0033999Y0077981D01*
X0034029Y0078137D01*
X0034062Y0078292D01*
X0034100Y0078445D01*
X0034141Y0078598D01*
X0034186Y0078750D01*
X0034235Y0078901D01*
X0034288Y0079050D01*
X0034344Y0079198D01*
X0034404Y0079344D01*
X0034468Y0079489D01*
X0034536Y0079632D01*
X0034607Y0079774D01*
X0034681Y0079914D01*
X0034759Y0080051D01*
X0034841Y0080187D01*
X0034925Y0080321D01*
X0035014Y0080452D01*
X0035105Y0080581D01*
X0035200Y0080708D01*
X0035297Y0080833D01*
X0035398Y0080955D01*
X0035502Y0081074D01*
X0035609Y0081191D01*
X0035719Y0081305D01*
X0035832Y0081416D01*
X0035947Y0081525D01*
X0036065Y0081630D01*
X0036186Y0081732D01*
X0036309Y0081832D01*
X0036435Y0081928D01*
X0036563Y0082021D01*
X0036693Y0082111D01*
X0036826Y0082197D01*
X0036961Y0082281D01*
X0037097Y0082360D01*
X0037236Y0082437D01*
X0037377Y0082509D01*
X0037519Y0082579D01*
X0037663Y0082644D01*
X0037809Y0082706D01*
X0037956Y0082764D01*
X0038105Y0082819D01*
X0038255Y0082870D01*
X0038406Y0082917D01*
X0038558Y0082960D01*
X0038711Y0082999D01*
X0038866Y0083035D01*
X0039021Y0083066D01*
X0039177Y0083094D01*
X0039333Y0083118D01*
X0039490Y0083138D01*
X0039648Y0083154D01*
X0039805Y0083166D01*
X0039964Y0083174D01*
X0040122Y0083178D01*
X0040280Y0083178D01*
X0040438Y0083174D01*
X0040597Y0083166D01*
X0040754Y0083154D01*
X0040912Y0083138D01*
X0041069Y0083118D01*
X0041225Y0083094D01*
X0041381Y0083066D01*
X0041536Y0083035D01*
X0041691Y0082999D01*
X0041844Y0082960D01*
X0041996Y0082917D01*
X0042147Y0082870D01*
X0042297Y0082819D01*
X0042446Y0082764D01*
X0042593Y0082706D01*
X0042739Y0082644D01*
X0042883Y0082579D01*
X0043025Y0082509D01*
X0043166Y0082437D01*
X0043305Y0082360D01*
X0043441Y0082281D01*
X0043576Y0082197D01*
X0043709Y0082111D01*
X0043839Y0082021D01*
X0043967Y0081928D01*
X0044093Y0081832D01*
X0044216Y0081732D01*
X0044337Y0081630D01*
X0044455Y0081525D01*
X0044570Y0081416D01*
X0044683Y0081305D01*
X0044793Y0081191D01*
X0044900Y0081074D01*
X0045004Y0080955D01*
X0045105Y0080833D01*
X0045202Y0080708D01*
X0045297Y0080581D01*
X0045388Y0080452D01*
X0045477Y0080321D01*
X0045561Y0080187D01*
X0045643Y0080051D01*
X0045721Y0079914D01*
X0045795Y0079774D01*
X0045866Y0079632D01*
X0045934Y0079489D01*
X0045998Y0079344D01*
X0046058Y0079198D01*
X0046114Y0079050D01*
X0046167Y0078901D01*
X0046216Y0078750D01*
X0046261Y0078598D01*
X0046302Y0078445D01*
X0046340Y0078292D01*
X0046373Y0078137D01*
X0046403Y0077981D01*
X0046429Y0077825D01*
X0046450Y0077668D01*
X0046468Y0077511D01*
X0046482Y0077353D01*
X0046492Y0077195D01*
X0046498Y0077037D01*
X0046500Y0076879D01*
X0046498Y0076721D01*
X0046492Y0076563D01*
X0046482Y0076405D01*
X0046468Y0076247D01*
X0046450Y0076090D01*
X0046429Y0075933D01*
X0046403Y0075777D01*
X0046373Y0075621D01*
X0046340Y0075466D01*
X0046302Y0075313D01*
X0046261Y0075160D01*
X0046216Y0075008D01*
X0046167Y0074857D01*
X0046114Y0074708D01*
X0046058Y0074560D01*
X0045998Y0074414D01*
X0045934Y0074269D01*
X0045866Y0074126D01*
X0045795Y0073984D01*
X0045721Y0073844D01*
X0045643Y0073707D01*
X0045561Y0073571D01*
X0045477Y0073437D01*
X0045388Y0073306D01*
X0045297Y0073177D01*
X0045202Y0073050D01*
X0045105Y0072925D01*
X0045004Y0072803D01*
X0044900Y0072684D01*
X0044793Y0072567D01*
X0044683Y0072453D01*
X0044570Y0072342D01*
X0044455Y0072233D01*
X0044337Y0072128D01*
X0044216Y0072026D01*
X0044093Y0071926D01*
X0043967Y0071830D01*
X0043839Y0071737D01*
X0043709Y0071647D01*
X0043576Y0071561D01*
X0043441Y0071477D01*
X0043305Y0071398D01*
X0043166Y0071321D01*
X0043025Y0071249D01*
X0042883Y0071179D01*
X0042739Y0071114D01*
X0042593Y0071052D01*
X0042446Y0070994D01*
X0042297Y0070939D01*
X0042147Y0070888D01*
X0041996Y0070841D01*
X0041844Y0070798D01*
X0041691Y0070759D01*
X0041536Y0070723D01*
X0041381Y0070692D01*
X0041225Y0070664D01*
X0041069Y0070640D01*
X0040912Y0070620D01*
X0040754Y0070604D01*
X0040597Y0070592D01*
X0040438Y0070584D01*
X0040280Y0070580D01*
X0040122Y0070580D01*
X0039964Y0070584D01*
X0039805Y0070592D01*
X0039648Y0070604D01*
X0039490Y0070620D01*
X0039333Y0070640D01*
X0039177Y0070664D01*
X0039021Y0070692D01*
X0038866Y0070723D01*
X0038711Y0070759D01*
X0038558Y0070798D01*
X0038406Y0070841D01*
X0038255Y0070888D01*
X0038105Y0070939D01*
X0037956Y0070994D01*
X0037809Y0071052D01*
X0037663Y0071114D01*
X0037519Y0071179D01*
X0037377Y0071249D01*
X0037236Y0071321D01*
X0037097Y0071398D01*
X0036961Y0071477D01*
X0036826Y0071561D01*
X0036693Y0071647D01*
X0036563Y0071737D01*
X0036435Y0071830D01*
X0036309Y0071926D01*
X0036186Y0072026D01*
X0036065Y0072128D01*
X0035947Y0072233D01*
X0035832Y0072342D01*
X0035719Y0072453D01*
X0035609Y0072567D01*
X0035502Y0072684D01*
X0035398Y0072803D01*
X0035297Y0072925D01*
X0035200Y0073050D01*
X0035105Y0073177D01*
X0035014Y0073306D01*
X0034925Y0073437D01*
X0034841Y0073571D01*
X0034759Y0073707D01*
X0034681Y0073844D01*
X0034607Y0073984D01*
X0034536Y0074126D01*
X0034468Y0074269D01*
X0034404Y0074414D01*
X0034344Y0074560D01*
X0034288Y0074708D01*
X0034235Y0074857D01*
X0034186Y0075008D01*
X0034141Y0075160D01*
X0034100Y0075313D01*
X0034062Y0075466D01*
X0034029Y0075621D01*
X0033999Y0075777D01*
X0033973Y0075933D01*
X0033952Y0076090D01*
X0033934Y0076247D01*
X0033920Y0076405D01*
X0033910Y0076563D01*
X0033904Y0076721D01*
X0033902Y0076879D01*
X0073272Y0076879D02*
X0073274Y0077037D01*
X0073280Y0077195D01*
X0073290Y0077353D01*
X0073304Y0077511D01*
X0073322Y0077668D01*
X0073343Y0077825D01*
X0073369Y0077981D01*
X0073399Y0078137D01*
X0073432Y0078292D01*
X0073470Y0078445D01*
X0073511Y0078598D01*
X0073556Y0078750D01*
X0073605Y0078901D01*
X0073658Y0079050D01*
X0073714Y0079198D01*
X0073774Y0079344D01*
X0073838Y0079489D01*
X0073906Y0079632D01*
X0073977Y0079774D01*
X0074051Y0079914D01*
X0074129Y0080051D01*
X0074211Y0080187D01*
X0074295Y0080321D01*
X0074384Y0080452D01*
X0074475Y0080581D01*
X0074570Y0080708D01*
X0074667Y0080833D01*
X0074768Y0080955D01*
X0074872Y0081074D01*
X0074979Y0081191D01*
X0075089Y0081305D01*
X0075202Y0081416D01*
X0075317Y0081525D01*
X0075435Y0081630D01*
X0075556Y0081732D01*
X0075679Y0081832D01*
X0075805Y0081928D01*
X0075933Y0082021D01*
X0076063Y0082111D01*
X0076196Y0082197D01*
X0076331Y0082281D01*
X0076467Y0082360D01*
X0076606Y0082437D01*
X0076747Y0082509D01*
X0076889Y0082579D01*
X0077033Y0082644D01*
X0077179Y0082706D01*
X0077326Y0082764D01*
X0077475Y0082819D01*
X0077625Y0082870D01*
X0077776Y0082917D01*
X0077928Y0082960D01*
X0078081Y0082999D01*
X0078236Y0083035D01*
X0078391Y0083066D01*
X0078547Y0083094D01*
X0078703Y0083118D01*
X0078860Y0083138D01*
X0079018Y0083154D01*
X0079175Y0083166D01*
X0079334Y0083174D01*
X0079492Y0083178D01*
X0079650Y0083178D01*
X0079808Y0083174D01*
X0079967Y0083166D01*
X0080124Y0083154D01*
X0080282Y0083138D01*
X0080439Y0083118D01*
X0080595Y0083094D01*
X0080751Y0083066D01*
X0080906Y0083035D01*
X0081061Y0082999D01*
X0081214Y0082960D01*
X0081366Y0082917D01*
X0081517Y0082870D01*
X0081667Y0082819D01*
X0081816Y0082764D01*
X0081963Y0082706D01*
X0082109Y0082644D01*
X0082253Y0082579D01*
X0082395Y0082509D01*
X0082536Y0082437D01*
X0082675Y0082360D01*
X0082811Y0082281D01*
X0082946Y0082197D01*
X0083079Y0082111D01*
X0083209Y0082021D01*
X0083337Y0081928D01*
X0083463Y0081832D01*
X0083586Y0081732D01*
X0083707Y0081630D01*
X0083825Y0081525D01*
X0083940Y0081416D01*
X0084053Y0081305D01*
X0084163Y0081191D01*
X0084270Y0081074D01*
X0084374Y0080955D01*
X0084475Y0080833D01*
X0084572Y0080708D01*
X0084667Y0080581D01*
X0084758Y0080452D01*
X0084847Y0080321D01*
X0084931Y0080187D01*
X0085013Y0080051D01*
X0085091Y0079914D01*
X0085165Y0079774D01*
X0085236Y0079632D01*
X0085304Y0079489D01*
X0085368Y0079344D01*
X0085428Y0079198D01*
X0085484Y0079050D01*
X0085537Y0078901D01*
X0085586Y0078750D01*
X0085631Y0078598D01*
X0085672Y0078445D01*
X0085710Y0078292D01*
X0085743Y0078137D01*
X0085773Y0077981D01*
X0085799Y0077825D01*
X0085820Y0077668D01*
X0085838Y0077511D01*
X0085852Y0077353D01*
X0085862Y0077195D01*
X0085868Y0077037D01*
X0085870Y0076879D01*
X0085868Y0076721D01*
X0085862Y0076563D01*
X0085852Y0076405D01*
X0085838Y0076247D01*
X0085820Y0076090D01*
X0085799Y0075933D01*
X0085773Y0075777D01*
X0085743Y0075621D01*
X0085710Y0075466D01*
X0085672Y0075313D01*
X0085631Y0075160D01*
X0085586Y0075008D01*
X0085537Y0074857D01*
X0085484Y0074708D01*
X0085428Y0074560D01*
X0085368Y0074414D01*
X0085304Y0074269D01*
X0085236Y0074126D01*
X0085165Y0073984D01*
X0085091Y0073844D01*
X0085013Y0073707D01*
X0084931Y0073571D01*
X0084847Y0073437D01*
X0084758Y0073306D01*
X0084667Y0073177D01*
X0084572Y0073050D01*
X0084475Y0072925D01*
X0084374Y0072803D01*
X0084270Y0072684D01*
X0084163Y0072567D01*
X0084053Y0072453D01*
X0083940Y0072342D01*
X0083825Y0072233D01*
X0083707Y0072128D01*
X0083586Y0072026D01*
X0083463Y0071926D01*
X0083337Y0071830D01*
X0083209Y0071737D01*
X0083079Y0071647D01*
X0082946Y0071561D01*
X0082811Y0071477D01*
X0082675Y0071398D01*
X0082536Y0071321D01*
X0082395Y0071249D01*
X0082253Y0071179D01*
X0082109Y0071114D01*
X0081963Y0071052D01*
X0081816Y0070994D01*
X0081667Y0070939D01*
X0081517Y0070888D01*
X0081366Y0070841D01*
X0081214Y0070798D01*
X0081061Y0070759D01*
X0080906Y0070723D01*
X0080751Y0070692D01*
X0080595Y0070664D01*
X0080439Y0070640D01*
X0080282Y0070620D01*
X0080124Y0070604D01*
X0079967Y0070592D01*
X0079808Y0070584D01*
X0079650Y0070580D01*
X0079492Y0070580D01*
X0079334Y0070584D01*
X0079175Y0070592D01*
X0079018Y0070604D01*
X0078860Y0070620D01*
X0078703Y0070640D01*
X0078547Y0070664D01*
X0078391Y0070692D01*
X0078236Y0070723D01*
X0078081Y0070759D01*
X0077928Y0070798D01*
X0077776Y0070841D01*
X0077625Y0070888D01*
X0077475Y0070939D01*
X0077326Y0070994D01*
X0077179Y0071052D01*
X0077033Y0071114D01*
X0076889Y0071179D01*
X0076747Y0071249D01*
X0076606Y0071321D01*
X0076467Y0071398D01*
X0076331Y0071477D01*
X0076196Y0071561D01*
X0076063Y0071647D01*
X0075933Y0071737D01*
X0075805Y0071830D01*
X0075679Y0071926D01*
X0075556Y0072026D01*
X0075435Y0072128D01*
X0075317Y0072233D01*
X0075202Y0072342D01*
X0075089Y0072453D01*
X0074979Y0072567D01*
X0074872Y0072684D01*
X0074768Y0072803D01*
X0074667Y0072925D01*
X0074570Y0073050D01*
X0074475Y0073177D01*
X0074384Y0073306D01*
X0074295Y0073437D01*
X0074211Y0073571D01*
X0074129Y0073707D01*
X0074051Y0073844D01*
X0073977Y0073984D01*
X0073906Y0074126D01*
X0073838Y0074269D01*
X0073774Y0074414D01*
X0073714Y0074560D01*
X0073658Y0074708D01*
X0073605Y0074857D01*
X0073556Y0075008D01*
X0073511Y0075160D01*
X0073470Y0075313D01*
X0073432Y0075466D01*
X0073399Y0075621D01*
X0073369Y0075777D01*
X0073343Y0075933D01*
X0073322Y0076090D01*
X0073304Y0076247D01*
X0073290Y0076405D01*
X0073280Y0076563D01*
X0073274Y0076721D01*
X0073272Y0076879D01*
X0140736Y0141013D02*
X0140738Y0141138D01*
X0140744Y0141263D01*
X0140754Y0141387D01*
X0140768Y0141511D01*
X0140785Y0141635D01*
X0140807Y0141758D01*
X0140833Y0141880D01*
X0140862Y0142002D01*
X0140895Y0142122D01*
X0140933Y0142241D01*
X0140973Y0142360D01*
X0141018Y0142476D01*
X0141066Y0142591D01*
X0141118Y0142705D01*
X0141174Y0142817D01*
X0141233Y0142927D01*
X0141295Y0143035D01*
X0141361Y0143142D01*
X0141430Y0143246D01*
X0141503Y0143347D01*
X0141578Y0143447D01*
X0141657Y0143544D01*
X0141739Y0143638D01*
X0141824Y0143730D01*
X0141911Y0143819D01*
X0142002Y0143905D01*
X0142095Y0143988D01*
X0142191Y0144069D01*
X0142289Y0144146D01*
X0142389Y0144220D01*
X0142492Y0144291D01*
X0142597Y0144358D01*
X0142705Y0144423D01*
X0142814Y0144483D01*
X0142925Y0144541D01*
X0143038Y0144594D01*
X0143152Y0144644D01*
X0143268Y0144691D01*
X0143385Y0144733D01*
X0143504Y0144772D01*
X0143624Y0144808D01*
X0143745Y0144839D01*
X0143867Y0144867D01*
X0143989Y0144890D01*
X0144113Y0144910D01*
X0144237Y0144926D01*
X0144361Y0144938D01*
X0144486Y0144946D01*
X0144611Y0144950D01*
X0144735Y0144950D01*
X0144860Y0144946D01*
X0144985Y0144938D01*
X0145109Y0144926D01*
X0145233Y0144910D01*
X0145357Y0144890D01*
X0145479Y0144867D01*
X0145601Y0144839D01*
X0145722Y0144808D01*
X0145842Y0144772D01*
X0145961Y0144733D01*
X0146078Y0144691D01*
X0146194Y0144644D01*
X0146308Y0144594D01*
X0146421Y0144541D01*
X0146532Y0144483D01*
X0146642Y0144423D01*
X0146749Y0144358D01*
X0146854Y0144291D01*
X0146957Y0144220D01*
X0147057Y0144146D01*
X0147155Y0144069D01*
X0147251Y0143988D01*
X0147344Y0143905D01*
X0147435Y0143819D01*
X0147522Y0143730D01*
X0147607Y0143638D01*
X0147689Y0143544D01*
X0147768Y0143447D01*
X0147843Y0143347D01*
X0147916Y0143246D01*
X0147985Y0143142D01*
X0148051Y0143035D01*
X0148113Y0142927D01*
X0148172Y0142817D01*
X0148228Y0142705D01*
X0148280Y0142591D01*
X0148328Y0142476D01*
X0148373Y0142360D01*
X0148413Y0142241D01*
X0148451Y0142122D01*
X0148484Y0142002D01*
X0148513Y0141880D01*
X0148539Y0141758D01*
X0148561Y0141635D01*
X0148578Y0141511D01*
X0148592Y0141387D01*
X0148602Y0141263D01*
X0148608Y0141138D01*
X0148610Y0141013D01*
X0148608Y0140888D01*
X0148602Y0140763D01*
X0148592Y0140639D01*
X0148578Y0140515D01*
X0148561Y0140391D01*
X0148539Y0140268D01*
X0148513Y0140146D01*
X0148484Y0140024D01*
X0148451Y0139904D01*
X0148413Y0139785D01*
X0148373Y0139666D01*
X0148328Y0139550D01*
X0148280Y0139435D01*
X0148228Y0139321D01*
X0148172Y0139209D01*
X0148113Y0139099D01*
X0148051Y0138991D01*
X0147985Y0138884D01*
X0147916Y0138780D01*
X0147843Y0138679D01*
X0147768Y0138579D01*
X0147689Y0138482D01*
X0147607Y0138388D01*
X0147522Y0138296D01*
X0147435Y0138207D01*
X0147344Y0138121D01*
X0147251Y0138038D01*
X0147155Y0137957D01*
X0147057Y0137880D01*
X0146957Y0137806D01*
X0146854Y0137735D01*
X0146749Y0137668D01*
X0146641Y0137603D01*
X0146532Y0137543D01*
X0146421Y0137485D01*
X0146308Y0137432D01*
X0146194Y0137382D01*
X0146078Y0137335D01*
X0145961Y0137293D01*
X0145842Y0137254D01*
X0145722Y0137218D01*
X0145601Y0137187D01*
X0145479Y0137159D01*
X0145357Y0137136D01*
X0145233Y0137116D01*
X0145109Y0137100D01*
X0144985Y0137088D01*
X0144860Y0137080D01*
X0144735Y0137076D01*
X0144611Y0137076D01*
X0144486Y0137080D01*
X0144361Y0137088D01*
X0144237Y0137100D01*
X0144113Y0137116D01*
X0143989Y0137136D01*
X0143867Y0137159D01*
X0143745Y0137187D01*
X0143624Y0137218D01*
X0143504Y0137254D01*
X0143385Y0137293D01*
X0143268Y0137335D01*
X0143152Y0137382D01*
X0143038Y0137432D01*
X0142925Y0137485D01*
X0142814Y0137543D01*
X0142704Y0137603D01*
X0142597Y0137668D01*
X0142492Y0137735D01*
X0142389Y0137806D01*
X0142289Y0137880D01*
X0142191Y0137957D01*
X0142095Y0138038D01*
X0142002Y0138121D01*
X0141911Y0138207D01*
X0141824Y0138296D01*
X0141739Y0138388D01*
X0141657Y0138482D01*
X0141578Y0138579D01*
X0141503Y0138679D01*
X0141430Y0138780D01*
X0141361Y0138884D01*
X0141295Y0138991D01*
X0141233Y0139099D01*
X0141174Y0139209D01*
X0141118Y0139321D01*
X0141066Y0139435D01*
X0141018Y0139550D01*
X0140973Y0139666D01*
X0140933Y0139785D01*
X0140895Y0139904D01*
X0140862Y0140024D01*
X0140833Y0140146D01*
X0140807Y0140268D01*
X0140785Y0140391D01*
X0140768Y0140515D01*
X0140754Y0140639D01*
X0140744Y0140763D01*
X0140738Y0140888D01*
X0140736Y0141013D01*
X0024059Y0163493D02*
X0024061Y0163651D01*
X0024067Y0163809D01*
X0024077Y0163967D01*
X0024091Y0164125D01*
X0024109Y0164282D01*
X0024130Y0164439D01*
X0024156Y0164595D01*
X0024186Y0164751D01*
X0024219Y0164906D01*
X0024257Y0165059D01*
X0024298Y0165212D01*
X0024343Y0165364D01*
X0024392Y0165515D01*
X0024445Y0165664D01*
X0024501Y0165812D01*
X0024561Y0165958D01*
X0024625Y0166103D01*
X0024693Y0166246D01*
X0024764Y0166388D01*
X0024838Y0166528D01*
X0024916Y0166665D01*
X0024998Y0166801D01*
X0025082Y0166935D01*
X0025171Y0167066D01*
X0025262Y0167195D01*
X0025357Y0167322D01*
X0025454Y0167447D01*
X0025555Y0167569D01*
X0025659Y0167688D01*
X0025766Y0167805D01*
X0025876Y0167919D01*
X0025989Y0168030D01*
X0026104Y0168139D01*
X0026222Y0168244D01*
X0026343Y0168346D01*
X0026466Y0168446D01*
X0026592Y0168542D01*
X0026720Y0168635D01*
X0026850Y0168725D01*
X0026983Y0168811D01*
X0027118Y0168895D01*
X0027254Y0168974D01*
X0027393Y0169051D01*
X0027534Y0169123D01*
X0027676Y0169193D01*
X0027820Y0169258D01*
X0027966Y0169320D01*
X0028113Y0169378D01*
X0028262Y0169433D01*
X0028412Y0169484D01*
X0028563Y0169531D01*
X0028715Y0169574D01*
X0028868Y0169613D01*
X0029023Y0169649D01*
X0029178Y0169680D01*
X0029334Y0169708D01*
X0029490Y0169732D01*
X0029647Y0169752D01*
X0029805Y0169768D01*
X0029962Y0169780D01*
X0030121Y0169788D01*
X0030279Y0169792D01*
X0030437Y0169792D01*
X0030595Y0169788D01*
X0030754Y0169780D01*
X0030911Y0169768D01*
X0031069Y0169752D01*
X0031226Y0169732D01*
X0031382Y0169708D01*
X0031538Y0169680D01*
X0031693Y0169649D01*
X0031848Y0169613D01*
X0032001Y0169574D01*
X0032153Y0169531D01*
X0032304Y0169484D01*
X0032454Y0169433D01*
X0032603Y0169378D01*
X0032750Y0169320D01*
X0032896Y0169258D01*
X0033040Y0169193D01*
X0033182Y0169123D01*
X0033323Y0169051D01*
X0033462Y0168974D01*
X0033598Y0168895D01*
X0033733Y0168811D01*
X0033866Y0168725D01*
X0033996Y0168635D01*
X0034124Y0168542D01*
X0034250Y0168446D01*
X0034373Y0168346D01*
X0034494Y0168244D01*
X0034612Y0168139D01*
X0034727Y0168030D01*
X0034840Y0167919D01*
X0034950Y0167805D01*
X0035057Y0167688D01*
X0035161Y0167569D01*
X0035262Y0167447D01*
X0035359Y0167322D01*
X0035454Y0167195D01*
X0035545Y0167066D01*
X0035634Y0166935D01*
X0035718Y0166801D01*
X0035800Y0166665D01*
X0035878Y0166528D01*
X0035952Y0166388D01*
X0036023Y0166246D01*
X0036091Y0166103D01*
X0036155Y0165958D01*
X0036215Y0165812D01*
X0036271Y0165664D01*
X0036324Y0165515D01*
X0036373Y0165364D01*
X0036418Y0165212D01*
X0036459Y0165059D01*
X0036497Y0164906D01*
X0036530Y0164751D01*
X0036560Y0164595D01*
X0036586Y0164439D01*
X0036607Y0164282D01*
X0036625Y0164125D01*
X0036639Y0163967D01*
X0036649Y0163809D01*
X0036655Y0163651D01*
X0036657Y0163493D01*
X0036655Y0163335D01*
X0036649Y0163177D01*
X0036639Y0163019D01*
X0036625Y0162861D01*
X0036607Y0162704D01*
X0036586Y0162547D01*
X0036560Y0162391D01*
X0036530Y0162235D01*
X0036497Y0162080D01*
X0036459Y0161927D01*
X0036418Y0161774D01*
X0036373Y0161622D01*
X0036324Y0161471D01*
X0036271Y0161322D01*
X0036215Y0161174D01*
X0036155Y0161028D01*
X0036091Y0160883D01*
X0036023Y0160740D01*
X0035952Y0160598D01*
X0035878Y0160458D01*
X0035800Y0160321D01*
X0035718Y0160185D01*
X0035634Y0160051D01*
X0035545Y0159920D01*
X0035454Y0159791D01*
X0035359Y0159664D01*
X0035262Y0159539D01*
X0035161Y0159417D01*
X0035057Y0159298D01*
X0034950Y0159181D01*
X0034840Y0159067D01*
X0034727Y0158956D01*
X0034612Y0158847D01*
X0034494Y0158742D01*
X0034373Y0158640D01*
X0034250Y0158540D01*
X0034124Y0158444D01*
X0033996Y0158351D01*
X0033866Y0158261D01*
X0033733Y0158175D01*
X0033598Y0158091D01*
X0033462Y0158012D01*
X0033323Y0157935D01*
X0033182Y0157863D01*
X0033040Y0157793D01*
X0032896Y0157728D01*
X0032750Y0157666D01*
X0032603Y0157608D01*
X0032454Y0157553D01*
X0032304Y0157502D01*
X0032153Y0157455D01*
X0032001Y0157412D01*
X0031848Y0157373D01*
X0031693Y0157337D01*
X0031538Y0157306D01*
X0031382Y0157278D01*
X0031226Y0157254D01*
X0031069Y0157234D01*
X0030911Y0157218D01*
X0030754Y0157206D01*
X0030595Y0157198D01*
X0030437Y0157194D01*
X0030279Y0157194D01*
X0030121Y0157198D01*
X0029962Y0157206D01*
X0029805Y0157218D01*
X0029647Y0157234D01*
X0029490Y0157254D01*
X0029334Y0157278D01*
X0029178Y0157306D01*
X0029023Y0157337D01*
X0028868Y0157373D01*
X0028715Y0157412D01*
X0028563Y0157455D01*
X0028412Y0157502D01*
X0028262Y0157553D01*
X0028113Y0157608D01*
X0027966Y0157666D01*
X0027820Y0157728D01*
X0027676Y0157793D01*
X0027534Y0157863D01*
X0027393Y0157935D01*
X0027254Y0158012D01*
X0027118Y0158091D01*
X0026983Y0158175D01*
X0026850Y0158261D01*
X0026720Y0158351D01*
X0026592Y0158444D01*
X0026466Y0158540D01*
X0026343Y0158640D01*
X0026222Y0158742D01*
X0026104Y0158847D01*
X0025989Y0158956D01*
X0025876Y0159067D01*
X0025766Y0159181D01*
X0025659Y0159298D01*
X0025555Y0159417D01*
X0025454Y0159539D01*
X0025357Y0159664D01*
X0025262Y0159791D01*
X0025171Y0159920D01*
X0025082Y0160051D01*
X0024998Y0160185D01*
X0024916Y0160321D01*
X0024838Y0160458D01*
X0024764Y0160598D01*
X0024693Y0160740D01*
X0024625Y0160883D01*
X0024561Y0161028D01*
X0024501Y0161174D01*
X0024445Y0161322D01*
X0024392Y0161471D01*
X0024343Y0161622D01*
X0024298Y0161774D01*
X0024257Y0161927D01*
X0024219Y0162080D01*
X0024186Y0162235D01*
X0024156Y0162391D01*
X0024130Y0162547D01*
X0024109Y0162704D01*
X0024091Y0162861D01*
X0024077Y0163019D01*
X0024067Y0163177D01*
X0024061Y0163335D01*
X0024059Y0163493D01*
X0299650Y0163493D02*
X0299652Y0163651D01*
X0299658Y0163809D01*
X0299668Y0163967D01*
X0299682Y0164125D01*
X0299700Y0164282D01*
X0299721Y0164439D01*
X0299747Y0164595D01*
X0299777Y0164751D01*
X0299810Y0164906D01*
X0299848Y0165059D01*
X0299889Y0165212D01*
X0299934Y0165364D01*
X0299983Y0165515D01*
X0300036Y0165664D01*
X0300092Y0165812D01*
X0300152Y0165958D01*
X0300216Y0166103D01*
X0300284Y0166246D01*
X0300355Y0166388D01*
X0300429Y0166528D01*
X0300507Y0166665D01*
X0300589Y0166801D01*
X0300673Y0166935D01*
X0300762Y0167066D01*
X0300853Y0167195D01*
X0300948Y0167322D01*
X0301045Y0167447D01*
X0301146Y0167569D01*
X0301250Y0167688D01*
X0301357Y0167805D01*
X0301467Y0167919D01*
X0301580Y0168030D01*
X0301695Y0168139D01*
X0301813Y0168244D01*
X0301934Y0168346D01*
X0302057Y0168446D01*
X0302183Y0168542D01*
X0302311Y0168635D01*
X0302441Y0168725D01*
X0302574Y0168811D01*
X0302709Y0168895D01*
X0302845Y0168974D01*
X0302984Y0169051D01*
X0303125Y0169123D01*
X0303267Y0169193D01*
X0303411Y0169258D01*
X0303557Y0169320D01*
X0303704Y0169378D01*
X0303853Y0169433D01*
X0304003Y0169484D01*
X0304154Y0169531D01*
X0304306Y0169574D01*
X0304459Y0169613D01*
X0304614Y0169649D01*
X0304769Y0169680D01*
X0304925Y0169708D01*
X0305081Y0169732D01*
X0305238Y0169752D01*
X0305396Y0169768D01*
X0305553Y0169780D01*
X0305712Y0169788D01*
X0305870Y0169792D01*
X0306028Y0169792D01*
X0306186Y0169788D01*
X0306345Y0169780D01*
X0306502Y0169768D01*
X0306660Y0169752D01*
X0306817Y0169732D01*
X0306973Y0169708D01*
X0307129Y0169680D01*
X0307284Y0169649D01*
X0307439Y0169613D01*
X0307592Y0169574D01*
X0307744Y0169531D01*
X0307895Y0169484D01*
X0308045Y0169433D01*
X0308194Y0169378D01*
X0308341Y0169320D01*
X0308487Y0169258D01*
X0308631Y0169193D01*
X0308773Y0169123D01*
X0308914Y0169051D01*
X0309053Y0168974D01*
X0309189Y0168895D01*
X0309324Y0168811D01*
X0309457Y0168725D01*
X0309587Y0168635D01*
X0309715Y0168542D01*
X0309841Y0168446D01*
X0309964Y0168346D01*
X0310085Y0168244D01*
X0310203Y0168139D01*
X0310318Y0168030D01*
X0310431Y0167919D01*
X0310541Y0167805D01*
X0310648Y0167688D01*
X0310752Y0167569D01*
X0310853Y0167447D01*
X0310950Y0167322D01*
X0311045Y0167195D01*
X0311136Y0167066D01*
X0311225Y0166935D01*
X0311309Y0166801D01*
X0311391Y0166665D01*
X0311469Y0166528D01*
X0311543Y0166388D01*
X0311614Y0166246D01*
X0311682Y0166103D01*
X0311746Y0165958D01*
X0311806Y0165812D01*
X0311862Y0165664D01*
X0311915Y0165515D01*
X0311964Y0165364D01*
X0312009Y0165212D01*
X0312050Y0165059D01*
X0312088Y0164906D01*
X0312121Y0164751D01*
X0312151Y0164595D01*
X0312177Y0164439D01*
X0312198Y0164282D01*
X0312216Y0164125D01*
X0312230Y0163967D01*
X0312240Y0163809D01*
X0312246Y0163651D01*
X0312248Y0163493D01*
X0312246Y0163335D01*
X0312240Y0163177D01*
X0312230Y0163019D01*
X0312216Y0162861D01*
X0312198Y0162704D01*
X0312177Y0162547D01*
X0312151Y0162391D01*
X0312121Y0162235D01*
X0312088Y0162080D01*
X0312050Y0161927D01*
X0312009Y0161774D01*
X0311964Y0161622D01*
X0311915Y0161471D01*
X0311862Y0161322D01*
X0311806Y0161174D01*
X0311746Y0161028D01*
X0311682Y0160883D01*
X0311614Y0160740D01*
X0311543Y0160598D01*
X0311469Y0160458D01*
X0311391Y0160321D01*
X0311309Y0160185D01*
X0311225Y0160051D01*
X0311136Y0159920D01*
X0311045Y0159791D01*
X0310950Y0159664D01*
X0310853Y0159539D01*
X0310752Y0159417D01*
X0310648Y0159298D01*
X0310541Y0159181D01*
X0310431Y0159067D01*
X0310318Y0158956D01*
X0310203Y0158847D01*
X0310085Y0158742D01*
X0309964Y0158640D01*
X0309841Y0158540D01*
X0309715Y0158444D01*
X0309587Y0158351D01*
X0309457Y0158261D01*
X0309324Y0158175D01*
X0309189Y0158091D01*
X0309053Y0158012D01*
X0308914Y0157935D01*
X0308773Y0157863D01*
X0308631Y0157793D01*
X0308487Y0157728D01*
X0308341Y0157666D01*
X0308194Y0157608D01*
X0308045Y0157553D01*
X0307895Y0157502D01*
X0307744Y0157455D01*
X0307592Y0157412D01*
X0307439Y0157373D01*
X0307284Y0157337D01*
X0307129Y0157306D01*
X0306973Y0157278D01*
X0306817Y0157254D01*
X0306660Y0157234D01*
X0306502Y0157218D01*
X0306345Y0157206D01*
X0306186Y0157198D01*
X0306028Y0157194D01*
X0305870Y0157194D01*
X0305712Y0157198D01*
X0305553Y0157206D01*
X0305396Y0157218D01*
X0305238Y0157234D01*
X0305081Y0157254D01*
X0304925Y0157278D01*
X0304769Y0157306D01*
X0304614Y0157337D01*
X0304459Y0157373D01*
X0304306Y0157412D01*
X0304154Y0157455D01*
X0304003Y0157502D01*
X0303853Y0157553D01*
X0303704Y0157608D01*
X0303557Y0157666D01*
X0303411Y0157728D01*
X0303267Y0157793D01*
X0303125Y0157863D01*
X0302984Y0157935D01*
X0302845Y0158012D01*
X0302709Y0158091D01*
X0302574Y0158175D01*
X0302441Y0158261D01*
X0302311Y0158351D01*
X0302183Y0158444D01*
X0302057Y0158540D01*
X0301934Y0158640D01*
X0301813Y0158742D01*
X0301695Y0158847D01*
X0301580Y0158956D01*
X0301467Y0159067D01*
X0301357Y0159181D01*
X0301250Y0159298D01*
X0301146Y0159417D01*
X0301045Y0159539D01*
X0300948Y0159664D01*
X0300853Y0159791D01*
X0300762Y0159920D01*
X0300673Y0160051D01*
X0300589Y0160185D01*
X0300507Y0160321D01*
X0300429Y0160458D01*
X0300355Y0160598D01*
X0300284Y0160740D01*
X0300216Y0160883D01*
X0300152Y0161028D01*
X0300092Y0161174D01*
X0300036Y0161322D01*
X0299983Y0161471D01*
X0299934Y0161622D01*
X0299889Y0161774D01*
X0299848Y0161927D01*
X0299810Y0162080D01*
X0299777Y0162235D01*
X0299747Y0162391D01*
X0299721Y0162547D01*
X0299700Y0162704D01*
X0299682Y0162861D01*
X0299668Y0163019D01*
X0299658Y0163177D01*
X0299652Y0163335D01*
X0299650Y0163493D01*
X0302012Y0025698D02*
X0302014Y0025823D01*
X0302020Y0025948D01*
X0302030Y0026072D01*
X0302044Y0026196D01*
X0302061Y0026320D01*
X0302083Y0026443D01*
X0302109Y0026565D01*
X0302138Y0026687D01*
X0302171Y0026807D01*
X0302209Y0026926D01*
X0302249Y0027045D01*
X0302294Y0027161D01*
X0302342Y0027276D01*
X0302394Y0027390D01*
X0302450Y0027502D01*
X0302509Y0027612D01*
X0302571Y0027720D01*
X0302637Y0027827D01*
X0302706Y0027931D01*
X0302779Y0028032D01*
X0302854Y0028132D01*
X0302933Y0028229D01*
X0303015Y0028323D01*
X0303100Y0028415D01*
X0303187Y0028504D01*
X0303278Y0028590D01*
X0303371Y0028673D01*
X0303467Y0028754D01*
X0303565Y0028831D01*
X0303665Y0028905D01*
X0303768Y0028976D01*
X0303873Y0029043D01*
X0303981Y0029108D01*
X0304090Y0029168D01*
X0304201Y0029226D01*
X0304314Y0029279D01*
X0304428Y0029329D01*
X0304544Y0029376D01*
X0304661Y0029418D01*
X0304780Y0029457D01*
X0304900Y0029493D01*
X0305021Y0029524D01*
X0305143Y0029552D01*
X0305265Y0029575D01*
X0305389Y0029595D01*
X0305513Y0029611D01*
X0305637Y0029623D01*
X0305762Y0029631D01*
X0305887Y0029635D01*
X0306011Y0029635D01*
X0306136Y0029631D01*
X0306261Y0029623D01*
X0306385Y0029611D01*
X0306509Y0029595D01*
X0306633Y0029575D01*
X0306755Y0029552D01*
X0306877Y0029524D01*
X0306998Y0029493D01*
X0307118Y0029457D01*
X0307237Y0029418D01*
X0307354Y0029376D01*
X0307470Y0029329D01*
X0307584Y0029279D01*
X0307697Y0029226D01*
X0307808Y0029168D01*
X0307918Y0029108D01*
X0308025Y0029043D01*
X0308130Y0028976D01*
X0308233Y0028905D01*
X0308333Y0028831D01*
X0308431Y0028754D01*
X0308527Y0028673D01*
X0308620Y0028590D01*
X0308711Y0028504D01*
X0308798Y0028415D01*
X0308883Y0028323D01*
X0308965Y0028229D01*
X0309044Y0028132D01*
X0309119Y0028032D01*
X0309192Y0027931D01*
X0309261Y0027827D01*
X0309327Y0027720D01*
X0309389Y0027612D01*
X0309448Y0027502D01*
X0309504Y0027390D01*
X0309556Y0027276D01*
X0309604Y0027161D01*
X0309649Y0027045D01*
X0309689Y0026926D01*
X0309727Y0026807D01*
X0309760Y0026687D01*
X0309789Y0026565D01*
X0309815Y0026443D01*
X0309837Y0026320D01*
X0309854Y0026196D01*
X0309868Y0026072D01*
X0309878Y0025948D01*
X0309884Y0025823D01*
X0309886Y0025698D01*
X0309884Y0025573D01*
X0309878Y0025448D01*
X0309868Y0025324D01*
X0309854Y0025200D01*
X0309837Y0025076D01*
X0309815Y0024953D01*
X0309789Y0024831D01*
X0309760Y0024709D01*
X0309727Y0024589D01*
X0309689Y0024470D01*
X0309649Y0024351D01*
X0309604Y0024235D01*
X0309556Y0024120D01*
X0309504Y0024006D01*
X0309448Y0023894D01*
X0309389Y0023784D01*
X0309327Y0023676D01*
X0309261Y0023569D01*
X0309192Y0023465D01*
X0309119Y0023364D01*
X0309044Y0023264D01*
X0308965Y0023167D01*
X0308883Y0023073D01*
X0308798Y0022981D01*
X0308711Y0022892D01*
X0308620Y0022806D01*
X0308527Y0022723D01*
X0308431Y0022642D01*
X0308333Y0022565D01*
X0308233Y0022491D01*
X0308130Y0022420D01*
X0308025Y0022353D01*
X0307917Y0022288D01*
X0307808Y0022228D01*
X0307697Y0022170D01*
X0307584Y0022117D01*
X0307470Y0022067D01*
X0307354Y0022020D01*
X0307237Y0021978D01*
X0307118Y0021939D01*
X0306998Y0021903D01*
X0306877Y0021872D01*
X0306755Y0021844D01*
X0306633Y0021821D01*
X0306509Y0021801D01*
X0306385Y0021785D01*
X0306261Y0021773D01*
X0306136Y0021765D01*
X0306011Y0021761D01*
X0305887Y0021761D01*
X0305762Y0021765D01*
X0305637Y0021773D01*
X0305513Y0021785D01*
X0305389Y0021801D01*
X0305265Y0021821D01*
X0305143Y0021844D01*
X0305021Y0021872D01*
X0304900Y0021903D01*
X0304780Y0021939D01*
X0304661Y0021978D01*
X0304544Y0022020D01*
X0304428Y0022067D01*
X0304314Y0022117D01*
X0304201Y0022170D01*
X0304090Y0022228D01*
X0303980Y0022288D01*
X0303873Y0022353D01*
X0303768Y0022420D01*
X0303665Y0022491D01*
X0303565Y0022565D01*
X0303467Y0022642D01*
X0303371Y0022723D01*
X0303278Y0022806D01*
X0303187Y0022892D01*
X0303100Y0022981D01*
X0303015Y0023073D01*
X0302933Y0023167D01*
X0302854Y0023264D01*
X0302779Y0023364D01*
X0302706Y0023465D01*
X0302637Y0023569D01*
X0302571Y0023676D01*
X0302509Y0023784D01*
X0302450Y0023894D01*
X0302394Y0024006D01*
X0302342Y0024120D01*
X0302294Y0024235D01*
X0302249Y0024351D01*
X0302209Y0024470D01*
X0302171Y0024589D01*
X0302138Y0024709D01*
X0302109Y0024831D01*
X0302083Y0024953D01*
X0302061Y0025076D01*
X0302044Y0025200D01*
X0302030Y0025324D01*
X0302020Y0025448D01*
X0302014Y0025573D01*
X0302012Y0025698D01*
D11*
X0157973Y0161713D02*
X0155171Y0161713D01*
X0154237Y0162647D01*
X0154237Y0163581D01*
X0155171Y0164515D01*
X0157973Y0164515D01*
X0155171Y0164515D02*
X0154237Y0165449D01*
X0154237Y0166383D01*
X0155171Y0167317D01*
X0157973Y0167317D01*
X0157973Y0161713D01*
X0151528Y0162647D02*
X0151528Y0166383D01*
X0150594Y0167317D01*
X0148725Y0167317D01*
X0147791Y0166383D01*
X0147791Y0162647D01*
X0148725Y0161713D01*
X0150594Y0161713D01*
X0151528Y0162647D01*
X0145082Y0167317D02*
X0141346Y0167317D01*
X0143214Y0167317D02*
X0143214Y0161713D01*
D12*
X0170280Y0156800D03*
X0170280Y0146800D03*
X0170280Y0136800D03*
X0170280Y0126800D03*
X0170280Y0116800D03*
X0170280Y0106800D03*
X0170280Y0096800D03*
X0170280Y0086800D03*
X0170280Y0076800D03*
X0170280Y0066800D03*
X0170280Y0056800D03*
X0170280Y0046800D03*
X0170280Y0036800D03*
X0170280Y0026800D03*
X0170280Y0016800D03*
X0230280Y0016800D03*
X0230280Y0026800D03*
X0230280Y0036800D03*
X0230280Y0046800D03*
X0230280Y0056800D03*
X0230280Y0066800D03*
X0230280Y0076800D03*
X0230280Y0086800D03*
X0230280Y0096800D03*
X0230280Y0106800D03*
X0230280Y0116800D03*
X0230280Y0126800D03*
X0230280Y0136800D03*
X0230280Y0146800D03*
X0230280Y0156800D03*
X0230280Y0166800D03*
X0230280Y0176800D03*
X0170280Y0176800D03*
X0170280Y0166800D03*
D13*
X0074571Y0039910D03*
X0064571Y0039910D03*
X0054571Y0039910D03*
X0044571Y0039910D03*
D14*
X0028020Y0092013D03*
X0021327Y0092013D03*
X0039327Y0103013D03*
X0046020Y0103013D03*
X0055327Y0133013D03*
X0062020Y0133013D03*
X0182327Y0156013D03*
X0189020Y0156013D03*
X0212327Y0056013D03*
X0219020Y0056013D03*
X0189020Y0051013D03*
X0182327Y0051013D03*
D15*
X0182327Y0066013D03*
X0189020Y0066013D03*
X0212327Y0041013D03*
X0219020Y0041013D03*
X0122673Y0084666D03*
X0122673Y0091359D03*
X0073020Y0049013D03*
X0066327Y0049013D03*
D16*
X0256343Y0121013D03*
X0265004Y0124753D03*
X0265004Y0117272D03*
X0296343Y0111013D03*
X0305004Y0114753D03*
X0305004Y0107272D03*
D17*
X0304413Y0126682D03*
X0296933Y0126682D03*
X0300673Y0135343D03*
X0250673Y0110343D03*
X0246933Y0101682D03*
X0254413Y0101682D03*
D18*
X0149531Y0099127D03*
X0139531Y0104127D03*
X0149531Y0109127D03*
X0139531Y0114127D03*
X0149531Y0119127D03*
X0139531Y0124127D03*
X0149531Y0129127D03*
X0139531Y0134127D03*
X0139531Y0094127D03*
X0149531Y0089127D03*
X0139531Y0084127D03*
X0149531Y0079127D03*
X0139531Y0074127D03*
X0149531Y0069127D03*
X0139531Y0064127D03*
X0149531Y0059127D03*
D19*
X0125957Y0144706D03*
X0115957Y0154706D03*
X0125957Y0164706D03*
D20*
X0072681Y0135556D02*
X0072681Y0129619D01*
X0045122Y0129619D02*
X0045122Y0135556D01*
X0058902Y0107997D02*
X0058902Y0102060D01*
X0086461Y0102060D02*
X0086461Y0107997D01*
X0249846Y0125682D02*
X0249846Y0131619D01*
X0277406Y0131619D02*
X0277406Y0125682D01*
X0291185Y0104060D02*
X0291185Y0098123D01*
X0263626Y0098123D02*
X0263626Y0104060D01*
D21*
X0243984Y0075891D03*
X0243984Y0038891D03*
X0304984Y0038891D03*
X0304984Y0075891D03*
D22*
X0029673Y0103013D02*
X0023673Y0103013D01*
X0023673Y0113013D02*
X0029673Y0113013D01*
X0029673Y0123013D02*
X0023673Y0123013D01*
X0023673Y0133013D02*
X0029673Y0133013D01*
X0029673Y0143013D02*
X0023673Y0143013D01*
D23*
X0026673Y0143013D02*
X0059673Y0143013D01*
X0068130Y0138597D02*
X0067313Y0136624D01*
X0067313Y0136213D01*
X0066157Y0136213D01*
X0066023Y0136537D01*
X0065348Y0137213D01*
X0064466Y0137578D01*
X0059574Y0137578D01*
X0058692Y0137213D01*
X0058673Y0137194D01*
X0058655Y0137213D01*
X0057773Y0137578D01*
X0052881Y0137578D01*
X0051999Y0137213D01*
X0051324Y0136537D01*
X0051189Y0136213D01*
X0050491Y0136213D01*
X0050491Y0136624D01*
X0049673Y0138597D01*
X0048163Y0140107D01*
X0046190Y0140924D01*
X0044054Y0140924D01*
X0042081Y0140107D01*
X0040571Y0138597D01*
X0039754Y0136624D01*
X0039754Y0129458D01*
X0035037Y0134174D01*
X0034251Y0136071D01*
X0032732Y0137590D01*
X0030880Y0138358D01*
X0031516Y0138564D01*
X0032189Y0138907D01*
X0032800Y0139351D01*
X0033334Y0139886D01*
X0033779Y0140497D01*
X0034122Y0141170D01*
X0034355Y0141889D01*
X0034473Y0142635D01*
X0034473Y0142813D01*
X0026873Y0142813D01*
X0026873Y0143213D01*
X0034473Y0143213D01*
X0034473Y0143390D01*
X0034355Y0144137D01*
X0034122Y0144855D01*
X0033779Y0145528D01*
X0033427Y0146013D01*
X0040673Y0146013D01*
X0050673Y0156013D01*
X0050673Y0166013D01*
X0060673Y0176013D01*
X0165108Y0176013D01*
X0165108Y0175771D01*
X0165339Y0175213D01*
X0080037Y0175213D01*
X0078861Y0174725D01*
X0070861Y0166725D01*
X0069960Y0165825D01*
X0069473Y0164649D01*
X0069473Y0163376D01*
X0069481Y0163357D01*
X0069481Y0139948D01*
X0068130Y0138597D01*
X0068222Y0138689D02*
X0049581Y0138689D01*
X0050297Y0137091D02*
X0051877Y0137091D01*
X0047727Y0140288D02*
X0069481Y0140288D01*
X0069481Y0141886D02*
X0034354Y0141886D01*
X0034458Y0143485D02*
X0069481Y0143485D01*
X0069481Y0145083D02*
X0034005Y0145083D01*
X0033626Y0140288D02*
X0042517Y0140288D01*
X0040663Y0138689D02*
X0031761Y0138689D01*
X0033232Y0137091D02*
X0039947Y0137091D01*
X0039754Y0135492D02*
X0034491Y0135492D01*
X0035318Y0133894D02*
X0039754Y0133894D01*
X0039754Y0132295D02*
X0036916Y0132295D01*
X0038515Y0130696D02*
X0039754Y0130696D01*
X0045122Y0132587D02*
X0045547Y0133013D01*
X0055327Y0133013D01*
X0062020Y0133013D02*
X0072256Y0133013D01*
X0072681Y0132587D01*
X0072681Y0164005D01*
X0072673Y0164013D01*
X0080673Y0172013D01*
X0198673Y0172013D01*
X0212673Y0158013D01*
X0212673Y0088013D01*
X0223886Y0076800D01*
X0230280Y0076800D01*
X0235028Y0074749D02*
X0238247Y0074749D01*
X0238247Y0075509D02*
X0238247Y0071717D01*
X0238370Y0071259D01*
X0238607Y0070848D01*
X0238942Y0070513D01*
X0239352Y0070276D01*
X0239810Y0070154D01*
X0243603Y0070154D01*
X0243603Y0075509D01*
X0244365Y0075509D01*
X0244365Y0070154D01*
X0248158Y0070154D01*
X0248616Y0070276D01*
X0249026Y0070513D01*
X0249362Y0070848D01*
X0249599Y0071259D01*
X0249721Y0071717D01*
X0249721Y0075509D01*
X0244365Y0075509D01*
X0244365Y0076272D01*
X0243603Y0076272D01*
X0243603Y0081628D01*
X0239810Y0081628D01*
X0239352Y0081505D01*
X0238942Y0081268D01*
X0238607Y0080933D01*
X0238370Y0080522D01*
X0238247Y0080065D01*
X0238247Y0076272D01*
X0243603Y0076272D01*
X0243603Y0075509D01*
X0238247Y0075509D01*
X0238247Y0076347D02*
X0235451Y0076347D01*
X0235451Y0075771D02*
X0235451Y0077829D01*
X0234664Y0079730D01*
X0233209Y0081184D01*
X0231723Y0081800D01*
X0233209Y0082416D01*
X0234664Y0083870D01*
X0235451Y0085771D01*
X0235451Y0087829D01*
X0234664Y0089730D01*
X0233209Y0091184D01*
X0231723Y0091800D01*
X0233209Y0092416D01*
X0234664Y0093870D01*
X0235451Y0095771D01*
X0235451Y0097829D01*
X0234664Y0099730D01*
X0233209Y0101184D01*
X0231723Y0101800D01*
X0233209Y0102416D01*
X0234664Y0103870D01*
X0235451Y0105771D01*
X0235451Y0107829D01*
X0234664Y0109730D01*
X0233209Y0111184D01*
X0231723Y0111800D01*
X0233209Y0112416D01*
X0234664Y0113870D01*
X0235451Y0115771D01*
X0235451Y0117829D01*
X0234664Y0119730D01*
X0233209Y0121184D01*
X0231723Y0121800D01*
X0233209Y0122416D01*
X0234664Y0123870D01*
X0235451Y0125771D01*
X0235451Y0127829D01*
X0234664Y0129730D01*
X0233209Y0131184D01*
X0231723Y0131800D01*
X0233209Y0132416D01*
X0234664Y0133870D01*
X0235451Y0135771D01*
X0235451Y0137829D01*
X0234664Y0139730D01*
X0233209Y0141184D01*
X0231723Y0141800D01*
X0233209Y0142416D01*
X0234664Y0143870D01*
X0235451Y0145771D01*
X0235451Y0147829D01*
X0234664Y0149730D01*
X0233209Y0151184D01*
X0231723Y0151800D01*
X0233209Y0152416D01*
X0234664Y0153870D01*
X0235451Y0155771D01*
X0235451Y0157829D01*
X0234664Y0159730D01*
X0233209Y0161184D01*
X0231723Y0161800D01*
X0233209Y0162416D01*
X0234664Y0163870D01*
X0235451Y0165771D01*
X0235451Y0167829D01*
X0234664Y0169730D01*
X0233209Y0171184D01*
X0231723Y0171800D01*
X0233209Y0172416D01*
X0234664Y0173870D01*
X0235451Y0175771D01*
X0235451Y0176013D01*
X0275673Y0176013D01*
X0285673Y0166013D01*
X0285673Y0156013D01*
X0295673Y0146013D01*
X0307760Y0146013D01*
X0305492Y0143744D01*
X0305492Y0140281D01*
X0306473Y0139300D01*
X0306473Y0133267D01*
X0305044Y0131838D01*
X0304929Y0131838D01*
X0305042Y0132110D01*
X0305042Y0138577D01*
X0304676Y0139459D01*
X0304001Y0140134D01*
X0303119Y0140499D01*
X0298227Y0140499D01*
X0297345Y0140134D01*
X0296670Y0139459D01*
X0296320Y0138613D01*
X0292957Y0138613D01*
X0291634Y0138065D01*
X0290621Y0137052D01*
X0288133Y0134564D01*
X0287585Y0133240D01*
X0287585Y0110297D01*
X0287585Y0108052D01*
X0286634Y0107101D01*
X0285817Y0105128D01*
X0285817Y0097055D01*
X0286634Y0095082D01*
X0288144Y0093572D01*
X0290117Y0092754D01*
X0292253Y0092754D01*
X0294226Y0093572D01*
X0295736Y0095082D01*
X0296554Y0097055D01*
X0296554Y0105128D01*
X0295925Y0106644D01*
X0299576Y0106644D01*
X0300448Y0107005D01*
X0300448Y0105067D01*
X0300571Y0104609D01*
X0300808Y0104199D01*
X0301143Y0103864D01*
X0301553Y0103627D01*
X0302011Y0103504D01*
X0304820Y0103504D01*
X0304820Y0107088D01*
X0305188Y0107088D01*
X0305188Y0103504D01*
X0307997Y0103504D01*
X0308455Y0103627D01*
X0308865Y0103864D01*
X0309200Y0104199D01*
X0309437Y0104609D01*
X0309560Y0105067D01*
X0309560Y0107088D01*
X0305188Y0107088D01*
X0305188Y0107457D01*
X0309560Y0107457D01*
X0309560Y0109478D01*
X0309437Y0109936D01*
X0309200Y0110346D01*
X0308891Y0110655D01*
X0309119Y0110750D01*
X0309794Y0111425D01*
X0310160Y0112307D01*
X0310160Y0117199D01*
X0309794Y0118081D01*
X0309119Y0118756D01*
X0308237Y0119121D01*
X0308204Y0119121D01*
X0308204Y0122354D01*
X0308416Y0122566D01*
X0308782Y0123449D01*
X0308782Y0126525D01*
X0312386Y0130129D01*
X0312873Y0131305D01*
X0312873Y0139300D01*
X0313854Y0140281D01*
X0313854Y0142831D01*
X0320673Y0136013D01*
X0320673Y0011013D01*
X0129712Y0011013D01*
X0130854Y0012155D01*
X0130854Y0012977D01*
X0136290Y0018413D01*
X0165350Y0018413D01*
X0165108Y0017829D01*
X0165108Y0015771D01*
X0165895Y0013870D01*
X0167350Y0012416D01*
X0169251Y0011628D01*
X0171308Y0011628D01*
X0173209Y0012416D01*
X0174664Y0013870D01*
X0175451Y0015771D01*
X0175451Y0017829D01*
X0175209Y0018413D01*
X0185389Y0018413D01*
X0186712Y0018961D01*
X0187725Y0019973D01*
X0187725Y0019973D01*
X0192072Y0024320D01*
X0192620Y0025643D01*
X0192620Y0047085D01*
X0193023Y0047488D01*
X0193388Y0048370D01*
X0193388Y0051831D01*
X0196405Y0051831D01*
X0198854Y0054281D01*
X0198854Y0057744D01*
X0196405Y0060194D01*
X0192941Y0060194D01*
X0191960Y0059213D01*
X0190564Y0059213D01*
X0187533Y0062244D01*
X0188835Y0062244D01*
X0188835Y0065828D01*
X0189204Y0065828D01*
X0189204Y0062244D01*
X0191422Y0062244D01*
X0191880Y0062367D01*
X0192290Y0062604D01*
X0192625Y0062939D01*
X0192862Y0063349D01*
X0192985Y0063807D01*
X0192985Y0065828D01*
X0189204Y0065828D01*
X0189204Y0066197D01*
X0188835Y0066197D01*
X0188835Y0069781D01*
X0186617Y0069781D01*
X0186198Y0069669D01*
X0185852Y0070016D01*
X0185527Y0070150D01*
X0185527Y0078341D01*
X0191733Y0084546D01*
X0192220Y0085723D01*
X0192220Y0151760D01*
X0192348Y0151813D01*
X0193023Y0152488D01*
X0193388Y0153370D01*
X0193388Y0158655D01*
X0193023Y0159537D01*
X0192348Y0160213D01*
X0191466Y0160578D01*
X0186574Y0160578D01*
X0185692Y0160213D01*
X0185673Y0160194D01*
X0185655Y0160213D01*
X0184773Y0160578D01*
X0179881Y0160578D01*
X0178999Y0160213D01*
X0178324Y0159537D01*
X0178189Y0159213D01*
X0174878Y0159213D01*
X0174664Y0159730D01*
X0173209Y0161184D01*
X0171723Y0161800D01*
X0173209Y0162416D01*
X0174664Y0163870D01*
X0175451Y0165771D01*
X0175451Y0167829D01*
X0175044Y0168813D01*
X0197348Y0168813D01*
X0209473Y0156687D01*
X0209473Y0087376D01*
X0209960Y0086200D01*
X0210861Y0085300D01*
X0222073Y0074087D01*
X0223249Y0073600D01*
X0226166Y0073600D01*
X0227350Y0072416D01*
X0229251Y0071628D01*
X0231308Y0071628D01*
X0233209Y0072416D01*
X0234664Y0073870D01*
X0235451Y0075771D01*
X0235403Y0077946D02*
X0238247Y0077946D01*
X0238247Y0079544D02*
X0234741Y0079544D01*
X0233251Y0081143D02*
X0238817Y0081143D01*
X0243603Y0081143D02*
X0244365Y0081143D01*
X0244365Y0081628D02*
X0248158Y0081628D01*
X0248616Y0081505D01*
X0249026Y0081268D01*
X0249362Y0080933D01*
X0249599Y0080522D01*
X0249721Y0080065D01*
X0249721Y0076272D01*
X0244365Y0076272D01*
X0244365Y0081628D01*
X0244365Y0079544D02*
X0243603Y0079544D01*
X0243603Y0077946D02*
X0244365Y0077946D01*
X0244365Y0076347D02*
X0243603Y0076347D01*
X0243984Y0075891D02*
X0246933Y0078839D01*
X0246933Y0101682D01*
X0246749Y0101866D02*
X0246749Y0101498D01*
X0243165Y0101498D01*
X0243165Y0098689D01*
X0243287Y0098231D01*
X0243524Y0097821D01*
X0243859Y0097486D01*
X0244270Y0097249D01*
X0244728Y0097126D01*
X0246749Y0097126D01*
X0246749Y0101498D01*
X0247117Y0101498D01*
X0247117Y0097126D01*
X0249139Y0097126D01*
X0249596Y0097249D01*
X0250007Y0097486D01*
X0250316Y0097795D01*
X0250410Y0097566D01*
X0251085Y0096891D01*
X0251213Y0096838D01*
X0251213Y0090194D01*
X0249941Y0090194D01*
X0247492Y0087744D01*
X0247492Y0084281D01*
X0249941Y0081831D01*
X0253405Y0081831D01*
X0255854Y0084281D01*
X0255854Y0085668D01*
X0257126Y0086940D01*
X0257613Y0088116D01*
X0257613Y0096838D01*
X0257741Y0096891D01*
X0258257Y0097407D01*
X0258257Y0097055D01*
X0259075Y0095082D01*
X0260585Y0093572D01*
X0262558Y0092754D01*
X0264694Y0092754D01*
X0266667Y0093572D01*
X0268177Y0095082D01*
X0268994Y0097055D01*
X0268994Y0105128D01*
X0268297Y0106813D01*
X0270310Y0106813D01*
X0271486Y0107300D01*
X0272386Y0108200D01*
X0275386Y0111200D01*
X0275873Y0112376D01*
X0275873Y0120506D01*
X0276338Y0120313D01*
X0278473Y0120313D01*
X0280447Y0121131D01*
X0281957Y0122641D01*
X0282774Y0124614D01*
X0282774Y0132687D01*
X0281957Y0134660D01*
X0280447Y0136170D01*
X0278473Y0136987D01*
X0276338Y0136987D01*
X0274364Y0136170D01*
X0272854Y0134660D01*
X0272037Y0132687D01*
X0272037Y0127174D01*
X0271746Y0127466D01*
X0270570Y0127953D01*
X0269847Y0127953D01*
X0269794Y0128081D01*
X0269119Y0128756D01*
X0268237Y0129121D01*
X0261771Y0129121D01*
X0260889Y0128756D01*
X0260213Y0128081D01*
X0259848Y0127199D01*
X0259848Y0125268D01*
X0259576Y0125381D01*
X0255215Y0125381D01*
X0255215Y0132687D01*
X0254398Y0134660D01*
X0252887Y0136170D01*
X0250914Y0136987D01*
X0248779Y0136987D01*
X0246805Y0136170D01*
X0245295Y0134660D01*
X0244478Y0132687D01*
X0244478Y0124614D01*
X0245295Y0122641D01*
X0246805Y0121131D01*
X0247073Y0121020D01*
X0247073Y0114862D01*
X0246670Y0114459D01*
X0246305Y0113577D01*
X0246305Y0107110D01*
X0246666Y0106238D01*
X0244728Y0106238D01*
X0244270Y0106115D01*
X0243859Y0105878D01*
X0243524Y0105543D01*
X0243287Y0105133D01*
X0243165Y0104675D01*
X0243165Y0101866D01*
X0246749Y0101866D01*
X0246749Y0100325D02*
X0247117Y0100325D01*
X0247117Y0098726D02*
X0246749Y0098726D01*
X0246749Y0097128D02*
X0247117Y0097128D01*
X0249145Y0097128D02*
X0250849Y0097128D01*
X0251213Y0095529D02*
X0235351Y0095529D01*
X0235451Y0097128D02*
X0244721Y0097128D01*
X0243165Y0098726D02*
X0235079Y0098726D01*
X0234069Y0100325D02*
X0243165Y0100325D01*
X0243165Y0101923D02*
X0232020Y0101923D01*
X0234315Y0103522D02*
X0243165Y0103522D01*
X0243284Y0105120D02*
X0235182Y0105120D01*
X0235451Y0106719D02*
X0246467Y0106719D01*
X0246305Y0108317D02*
X0235249Y0108317D01*
X0234477Y0109916D02*
X0246305Y0109916D01*
X0246305Y0111514D02*
X0232412Y0111514D01*
X0233906Y0113113D02*
X0246305Y0113113D01*
X0246923Y0114711D02*
X0235012Y0114711D01*
X0235451Y0116310D02*
X0247073Y0116310D01*
X0247073Y0117908D02*
X0235418Y0117908D01*
X0234756Y0119507D02*
X0247073Y0119507D01*
X0246866Y0121105D02*
X0233288Y0121105D01*
X0233497Y0122704D02*
X0245269Y0122704D01*
X0244607Y0124302D02*
X0234843Y0124302D01*
X0235451Y0125901D02*
X0244478Y0125901D01*
X0244478Y0127499D02*
X0235451Y0127499D01*
X0234925Y0129098D02*
X0244478Y0129098D01*
X0244478Y0130696D02*
X0233697Y0130696D01*
X0232918Y0132295D02*
X0244478Y0132295D01*
X0244978Y0133894D02*
X0234673Y0133894D01*
X0235335Y0135492D02*
X0246127Y0135492D01*
X0253566Y0135492D02*
X0273686Y0135492D01*
X0272537Y0133894D02*
X0254715Y0133894D01*
X0255215Y0132295D02*
X0272037Y0132295D01*
X0272037Y0130696D02*
X0255215Y0130696D01*
X0255215Y0129098D02*
X0261714Y0129098D01*
X0259973Y0127499D02*
X0255215Y0127499D01*
X0255215Y0125901D02*
X0259848Y0125901D01*
X0265004Y0124753D02*
X0269933Y0124753D01*
X0272673Y0122013D01*
X0272673Y0113013D01*
X0269673Y0110013D01*
X0258673Y0110013D01*
X0254413Y0105753D01*
X0254413Y0101682D01*
X0254413Y0088753D01*
X0251673Y0086013D01*
X0249032Y0082741D02*
X0233534Y0082741D01*
X0234858Y0084340D02*
X0247492Y0084340D01*
X0247492Y0085938D02*
X0235451Y0085938D01*
X0235451Y0087537D02*
X0247492Y0087537D01*
X0248883Y0089135D02*
X0234910Y0089135D01*
X0233660Y0090734D02*
X0251213Y0090734D01*
X0251213Y0092332D02*
X0233007Y0092332D01*
X0234689Y0093931D02*
X0251213Y0093931D01*
X0257613Y0093931D02*
X0260226Y0093931D01*
X0258889Y0095529D02*
X0257613Y0095529D01*
X0257978Y0097128D02*
X0258257Y0097128D01*
X0267026Y0093931D02*
X0287785Y0093931D01*
X0286448Y0095529D02*
X0268363Y0095529D01*
X0268994Y0097128D02*
X0285817Y0097128D01*
X0285817Y0098726D02*
X0268994Y0098726D01*
X0268994Y0100325D02*
X0285817Y0100325D01*
X0285817Y0101923D02*
X0268994Y0101923D01*
X0268994Y0103522D02*
X0285817Y0103522D01*
X0285817Y0105120D02*
X0268994Y0105120D01*
X0268335Y0106719D02*
X0286476Y0106719D01*
X0287585Y0108317D02*
X0272503Y0108317D01*
X0274102Y0109916D02*
X0287585Y0109916D01*
X0287585Y0111514D02*
X0275516Y0111514D01*
X0275873Y0113113D02*
X0287585Y0113113D01*
X0287585Y0114711D02*
X0275873Y0114711D01*
X0275873Y0116310D02*
X0287585Y0116310D01*
X0287585Y0117908D02*
X0275873Y0117908D01*
X0275873Y0119507D02*
X0287585Y0119507D01*
X0287585Y0121105D02*
X0280386Y0121105D01*
X0281983Y0122704D02*
X0287585Y0122704D01*
X0287585Y0124302D02*
X0282645Y0124302D01*
X0282774Y0125901D02*
X0287585Y0125901D01*
X0287585Y0127499D02*
X0282774Y0127499D01*
X0282774Y0129098D02*
X0287585Y0129098D01*
X0287585Y0130696D02*
X0282774Y0130696D01*
X0282774Y0132295D02*
X0287585Y0132295D01*
X0287856Y0133894D02*
X0282274Y0133894D01*
X0281125Y0135492D02*
X0289061Y0135492D01*
X0290660Y0137091D02*
X0235451Y0137091D01*
X0235095Y0138689D02*
X0296351Y0138689D01*
X0297716Y0140288D02*
X0234106Y0140288D01*
X0231930Y0141886D02*
X0305492Y0141886D01*
X0305492Y0140288D02*
X0303630Y0140288D01*
X0304995Y0138689D02*
X0306473Y0138689D01*
X0306473Y0137091D02*
X0305042Y0137091D01*
X0305042Y0135492D02*
X0306473Y0135492D01*
X0306473Y0133894D02*
X0305042Y0133894D01*
X0305042Y0132295D02*
X0305501Y0132295D01*
X0309673Y0131942D02*
X0304413Y0126682D01*
X0305004Y0126091D01*
X0305004Y0114753D01*
X0310160Y0114711D02*
X0320673Y0114711D01*
X0320673Y0113113D02*
X0310160Y0113113D01*
X0309832Y0111514D02*
X0320673Y0111514D01*
X0320673Y0109916D02*
X0309442Y0109916D01*
X0309560Y0108317D02*
X0320673Y0108317D01*
X0320673Y0106719D02*
X0309560Y0106719D01*
X0309560Y0105120D02*
X0320673Y0105120D01*
X0320673Y0103522D02*
X0308063Y0103522D01*
X0305188Y0103522D02*
X0304820Y0103522D01*
X0304820Y0105120D02*
X0305188Y0105120D01*
X0305188Y0106719D02*
X0304820Y0106719D01*
X0305004Y0107272D02*
X0305004Y0075910D01*
X0304984Y0075891D01*
X0304603Y0076272D02*
X0304603Y0075509D01*
X0305365Y0075509D01*
X0305365Y0070154D01*
X0309158Y0070154D01*
X0309616Y0070276D01*
X0310026Y0070513D01*
X0310362Y0070848D01*
X0310599Y0071259D01*
X0310721Y0071717D01*
X0310721Y0075509D01*
X0305365Y0075509D01*
X0305365Y0076272D01*
X0304603Y0076272D01*
X0304603Y0081628D01*
X0300810Y0081628D01*
X0300352Y0081505D01*
X0299942Y0081268D01*
X0299607Y0080933D01*
X0299370Y0080522D01*
X0299247Y0080065D01*
X0299247Y0076272D01*
X0304603Y0076272D01*
X0304603Y0076347D02*
X0305365Y0076347D01*
X0305365Y0076272D02*
X0305365Y0081628D01*
X0309158Y0081628D01*
X0309616Y0081505D01*
X0310026Y0081268D01*
X0310362Y0080933D01*
X0310599Y0080522D01*
X0310721Y0080065D01*
X0310721Y0076272D01*
X0305365Y0076272D01*
X0304603Y0075509D02*
X0304603Y0070154D01*
X0300810Y0070154D01*
X0300352Y0070276D01*
X0299942Y0070513D01*
X0299607Y0070848D01*
X0299370Y0071259D01*
X0299247Y0071717D01*
X0299247Y0075509D01*
X0304603Y0075509D01*
X0304603Y0074749D02*
X0305365Y0074749D01*
X0305365Y0073150D02*
X0304603Y0073150D01*
X0304603Y0071552D02*
X0305365Y0071552D01*
X0310677Y0071552D02*
X0320673Y0071552D01*
X0320673Y0073150D02*
X0310721Y0073150D01*
X0310721Y0074749D02*
X0320673Y0074749D01*
X0320673Y0076347D02*
X0310721Y0076347D01*
X0310721Y0077946D02*
X0320673Y0077946D01*
X0320673Y0079544D02*
X0310721Y0079544D01*
X0310152Y0081143D02*
X0320673Y0081143D01*
X0320673Y0082741D02*
X0254315Y0082741D01*
X0255854Y0084340D02*
X0320673Y0084340D01*
X0320673Y0085938D02*
X0256124Y0085938D01*
X0257373Y0087537D02*
X0320673Y0087537D01*
X0320673Y0089135D02*
X0257613Y0089135D01*
X0257613Y0090734D02*
X0320673Y0090734D01*
X0320673Y0092332D02*
X0257613Y0092332D01*
X0249152Y0081143D02*
X0299817Y0081143D01*
X0299247Y0079544D02*
X0249721Y0079544D01*
X0249721Y0077946D02*
X0299247Y0077946D01*
X0299247Y0076347D02*
X0249721Y0076347D01*
X0249721Y0074749D02*
X0299247Y0074749D01*
X0299247Y0073150D02*
X0249721Y0073150D01*
X0249677Y0071552D02*
X0299291Y0071552D01*
X0304603Y0077946D02*
X0305365Y0077946D01*
X0305365Y0079544D02*
X0304603Y0079544D01*
X0304603Y0081143D02*
X0305365Y0081143D01*
X0294585Y0093931D02*
X0320673Y0093931D01*
X0320673Y0095529D02*
X0295922Y0095529D01*
X0296554Y0097128D02*
X0320673Y0097128D01*
X0320673Y0098726D02*
X0296554Y0098726D01*
X0296554Y0100325D02*
X0320673Y0100325D01*
X0320673Y0101923D02*
X0296554Y0101923D01*
X0296554Y0103522D02*
X0301944Y0103522D01*
X0300448Y0105120D02*
X0296554Y0105120D01*
X0299756Y0106719D02*
X0300448Y0106719D01*
X0299848Y0115268D02*
X0299576Y0115381D01*
X0294785Y0115381D01*
X0294785Y0122126D01*
X0296749Y0122126D01*
X0296749Y0126498D01*
X0297117Y0126498D01*
X0297117Y0122126D01*
X0299139Y0122126D01*
X0299596Y0122249D01*
X0300007Y0122486D01*
X0300316Y0122795D01*
X0300410Y0122566D01*
X0301085Y0121891D01*
X0301804Y0121594D01*
X0301804Y0119121D01*
X0301771Y0119121D01*
X0300889Y0118756D01*
X0300213Y0118081D01*
X0299848Y0117199D01*
X0299848Y0115268D01*
X0299848Y0116310D02*
X0294785Y0116310D01*
X0294785Y0117908D02*
X0300142Y0117908D01*
X0301804Y0119507D02*
X0294785Y0119507D01*
X0294785Y0121105D02*
X0301804Y0121105D01*
X0300353Y0122704D02*
X0300225Y0122704D01*
X0297117Y0122704D02*
X0296749Y0122704D01*
X0296749Y0124302D02*
X0297117Y0124302D01*
X0297117Y0125901D02*
X0296749Y0125901D01*
X0296933Y0126682D02*
X0296933Y0118272D01*
X0296673Y0118013D01*
X0308204Y0119507D02*
X0320673Y0119507D01*
X0320673Y0121105D02*
X0308204Y0121105D01*
X0308473Y0122704D02*
X0320673Y0122704D01*
X0320673Y0124302D02*
X0308782Y0124302D01*
X0308782Y0125901D02*
X0320673Y0125901D01*
X0320673Y0127499D02*
X0309756Y0127499D01*
X0311355Y0129098D02*
X0320673Y0129098D01*
X0320673Y0130696D02*
X0312621Y0130696D01*
X0312873Y0132295D02*
X0320673Y0132295D01*
X0320673Y0133894D02*
X0312873Y0133894D01*
X0312873Y0135492D02*
X0320673Y0135492D01*
X0319595Y0137091D02*
X0312873Y0137091D01*
X0312873Y0138689D02*
X0317997Y0138689D01*
X0316398Y0140288D02*
X0313854Y0140288D01*
X0313854Y0141886D02*
X0314800Y0141886D01*
X0309673Y0142013D02*
X0309673Y0131942D01*
X0305492Y0143485D02*
X0234278Y0143485D01*
X0235166Y0145083D02*
X0306831Y0145083D01*
X0295004Y0146682D02*
X0235451Y0146682D01*
X0235264Y0148280D02*
X0293406Y0148280D01*
X0291807Y0149879D02*
X0234515Y0149879D01*
X0232502Y0151477D02*
X0290209Y0151477D01*
X0288610Y0153076D02*
X0233869Y0153076D01*
X0234997Y0154674D02*
X0287012Y0154674D01*
X0285673Y0156273D02*
X0235451Y0156273D01*
X0235434Y0157871D02*
X0285673Y0157871D01*
X0285673Y0159470D02*
X0234771Y0159470D01*
X0233325Y0161068D02*
X0285673Y0161068D01*
X0285673Y0162667D02*
X0233460Y0162667D01*
X0234827Y0164265D02*
X0285673Y0164265D01*
X0285673Y0165864D02*
X0235451Y0165864D01*
X0235451Y0167462D02*
X0284224Y0167462D01*
X0282625Y0169061D02*
X0234941Y0169061D01*
X0233734Y0170659D02*
X0281027Y0170659D01*
X0279428Y0172258D02*
X0232828Y0172258D01*
X0234650Y0173856D02*
X0277830Y0173856D01*
X0276231Y0175455D02*
X0235320Y0175455D01*
X0208289Y0157871D02*
X0193388Y0157871D01*
X0193388Y0156273D02*
X0209473Y0156273D01*
X0209473Y0154674D02*
X0193388Y0154674D01*
X0193266Y0153076D02*
X0209473Y0153076D01*
X0209473Y0151477D02*
X0192220Y0151477D01*
X0192220Y0149879D02*
X0209473Y0149879D01*
X0209473Y0148280D02*
X0192220Y0148280D01*
X0192220Y0146682D02*
X0209473Y0146682D01*
X0209473Y0145083D02*
X0192220Y0145083D01*
X0192220Y0143485D02*
X0209473Y0143485D01*
X0209473Y0141886D02*
X0192220Y0141886D01*
X0192220Y0140288D02*
X0209473Y0140288D01*
X0209473Y0138689D02*
X0192220Y0138689D01*
X0192220Y0137091D02*
X0209473Y0137091D01*
X0209473Y0135492D02*
X0192220Y0135492D01*
X0192220Y0133894D02*
X0209473Y0133894D01*
X0209473Y0132295D02*
X0192220Y0132295D01*
X0192220Y0130696D02*
X0209473Y0130696D01*
X0209473Y0129098D02*
X0192220Y0129098D01*
X0192220Y0127499D02*
X0209473Y0127499D01*
X0209473Y0125901D02*
X0192220Y0125901D01*
X0192220Y0124302D02*
X0209473Y0124302D01*
X0209473Y0122704D02*
X0192220Y0122704D01*
X0192220Y0121105D02*
X0209473Y0121105D01*
X0209473Y0119507D02*
X0192220Y0119507D01*
X0192220Y0117908D02*
X0209473Y0117908D01*
X0209473Y0116310D02*
X0192220Y0116310D01*
X0192220Y0114711D02*
X0209473Y0114711D01*
X0209473Y0113113D02*
X0192220Y0113113D01*
X0192220Y0111514D02*
X0209473Y0111514D01*
X0209473Y0109916D02*
X0192220Y0109916D01*
X0192220Y0108317D02*
X0209473Y0108317D01*
X0209473Y0106719D02*
X0192220Y0106719D01*
X0192220Y0105120D02*
X0209473Y0105120D01*
X0209473Y0103522D02*
X0192220Y0103522D01*
X0192220Y0101923D02*
X0209473Y0101923D01*
X0209473Y0100325D02*
X0192220Y0100325D01*
X0192220Y0098726D02*
X0209473Y0098726D01*
X0209473Y0097128D02*
X0192220Y0097128D01*
X0192220Y0095529D02*
X0209473Y0095529D01*
X0209473Y0093931D02*
X0192220Y0093931D01*
X0192220Y0092332D02*
X0209473Y0092332D01*
X0209473Y0090734D02*
X0192220Y0090734D01*
X0192220Y0089135D02*
X0209473Y0089135D01*
X0209473Y0087537D02*
X0192220Y0087537D01*
X0192220Y0085938D02*
X0210222Y0085938D01*
X0211821Y0084340D02*
X0191526Y0084340D01*
X0189927Y0082741D02*
X0213419Y0082741D01*
X0215018Y0081143D02*
X0188329Y0081143D01*
X0186730Y0079544D02*
X0216616Y0079544D01*
X0218215Y0077946D02*
X0185527Y0077946D01*
X0185527Y0076347D02*
X0219813Y0076347D01*
X0221412Y0074749D02*
X0185527Y0074749D01*
X0185527Y0073150D02*
X0226616Y0073150D01*
X0227883Y0070710D02*
X0228525Y0071037D01*
X0229209Y0071259D01*
X0229920Y0071372D01*
X0230194Y0071372D01*
X0230194Y0066886D01*
X0230365Y0066886D01*
X0230365Y0071372D01*
X0230639Y0071372D01*
X0231350Y0071259D01*
X0232034Y0071037D01*
X0232676Y0070710D01*
X0233258Y0070287D01*
X0233767Y0069778D01*
X0234190Y0069196D01*
X0234516Y0068555D01*
X0234739Y0067871D01*
X0234851Y0067160D01*
X0234851Y0066886D01*
X0230365Y0066886D01*
X0230365Y0066714D01*
X0230365Y0062228D01*
X0230639Y0062228D01*
X0231350Y0062341D01*
X0232034Y0062563D01*
X0232676Y0062890D01*
X0233258Y0063313D01*
X0233767Y0063822D01*
X0234190Y0064404D01*
X0234516Y0065045D01*
X0234739Y0065729D01*
X0234851Y0066440D01*
X0234851Y0066714D01*
X0230365Y0066714D01*
X0230194Y0066714D01*
X0230194Y0062228D01*
X0229920Y0062228D01*
X0229209Y0062341D01*
X0228525Y0062563D01*
X0227883Y0062890D01*
X0227301Y0063313D01*
X0226792Y0063822D01*
X0226370Y0064404D01*
X0226043Y0065045D01*
X0225820Y0065729D01*
X0225708Y0066440D01*
X0225708Y0066714D01*
X0230194Y0066714D01*
X0230194Y0066886D01*
X0225708Y0066886D01*
X0225708Y0067160D01*
X0225820Y0067871D01*
X0226043Y0068555D01*
X0226370Y0069196D01*
X0226792Y0069778D01*
X0227301Y0070287D01*
X0227883Y0070710D01*
X0226967Y0069953D02*
X0185914Y0069953D01*
X0185527Y0071552D02*
X0238291Y0071552D01*
X0238247Y0073150D02*
X0233943Y0073150D01*
X0233592Y0069953D02*
X0320673Y0069953D01*
X0320673Y0068355D02*
X0234581Y0068355D01*
X0234894Y0066800D02*
X0230280Y0066800D01*
X0230067Y0067013D01*
X0201673Y0067013D01*
X0200673Y0066013D01*
X0200673Y0050013D01*
X0203173Y0047513D01*
X0209673Y0041013D01*
X0212327Y0041013D01*
X0212142Y0041180D02*
X0192620Y0041180D01*
X0192620Y0042778D02*
X0208361Y0042778D01*
X0208361Y0043218D02*
X0208361Y0041197D01*
X0212142Y0041197D01*
X0212142Y0040828D01*
X0208361Y0040828D01*
X0208361Y0038807D01*
X0208484Y0038349D01*
X0208721Y0037939D01*
X0209056Y0037604D01*
X0209467Y0037367D01*
X0209924Y0037244D01*
X0212142Y0037244D01*
X0212142Y0040828D01*
X0212511Y0040828D01*
X0212511Y0037244D01*
X0214729Y0037244D01*
X0215148Y0037356D01*
X0215495Y0037009D01*
X0216377Y0036644D01*
X0221662Y0036644D01*
X0222545Y0037009D01*
X0223220Y0037685D01*
X0223585Y0038567D01*
X0223585Y0043458D01*
X0223220Y0044341D01*
X0222545Y0045016D01*
X0222220Y0045150D01*
X0222220Y0051760D01*
X0222348Y0051813D01*
X0223023Y0052488D01*
X0223157Y0052813D01*
X0226953Y0052813D01*
X0227350Y0052416D01*
X0228836Y0051800D01*
X0227350Y0051184D01*
X0225895Y0049730D01*
X0225108Y0047829D01*
X0225108Y0045771D01*
X0225895Y0043870D01*
X0227350Y0042416D01*
X0228836Y0041800D01*
X0227350Y0041184D01*
X0225895Y0039730D01*
X0225108Y0037829D01*
X0225108Y0035771D01*
X0225895Y0033870D01*
X0227350Y0032416D01*
X0228836Y0031800D01*
X0227350Y0031184D01*
X0225895Y0029730D01*
X0225108Y0027829D01*
X0225108Y0025771D01*
X0225895Y0023870D01*
X0227350Y0022416D01*
X0228836Y0021800D01*
X0227350Y0021184D01*
X0225895Y0019730D01*
X0225108Y0017829D01*
X0225108Y0015771D01*
X0225895Y0013870D01*
X0227350Y0012416D01*
X0229251Y0011628D01*
X0231308Y0011628D01*
X0233209Y0012416D01*
X0234664Y0013870D01*
X0235451Y0015771D01*
X0235451Y0017829D01*
X0234664Y0019730D01*
X0233209Y0021184D01*
X0231723Y0021800D01*
X0233209Y0022416D01*
X0234664Y0023870D01*
X0235451Y0025771D01*
X0235451Y0027829D01*
X0234664Y0029730D01*
X0233209Y0031184D01*
X0231723Y0031800D01*
X0233209Y0032416D01*
X0234664Y0033870D01*
X0235451Y0035771D01*
X0235451Y0037829D01*
X0234664Y0039730D01*
X0233209Y0041184D01*
X0231723Y0041800D01*
X0233209Y0042416D01*
X0234664Y0043870D01*
X0235451Y0045771D01*
X0235451Y0047829D01*
X0234664Y0049730D01*
X0233209Y0051184D01*
X0231723Y0051800D01*
X0233209Y0052416D01*
X0234664Y0053870D01*
X0235451Y0055771D01*
X0235451Y0057829D01*
X0234664Y0059730D01*
X0233209Y0061184D01*
X0231308Y0061972D01*
X0229251Y0061972D01*
X0227350Y0061184D01*
X0225895Y0059730D01*
X0225681Y0059213D01*
X0223157Y0059213D01*
X0223023Y0059537D01*
X0222348Y0060213D01*
X0221466Y0060578D01*
X0216574Y0060578D01*
X0215692Y0060213D01*
X0215673Y0060194D01*
X0215655Y0060213D01*
X0214773Y0060578D01*
X0209881Y0060578D01*
X0208999Y0060213D01*
X0208324Y0059537D01*
X0208247Y0059352D01*
X0207405Y0060194D01*
X0203941Y0060194D01*
X0201492Y0057744D01*
X0201492Y0054281D01*
X0203941Y0051831D01*
X0207405Y0051831D01*
X0208247Y0052673D01*
X0208324Y0052488D01*
X0208999Y0051813D01*
X0209881Y0051447D01*
X0214773Y0051447D01*
X0215655Y0051813D01*
X0215673Y0051831D01*
X0215692Y0051813D01*
X0215820Y0051760D01*
X0215820Y0045150D01*
X0215495Y0045016D01*
X0215148Y0044669D01*
X0214729Y0044781D01*
X0212511Y0044781D01*
X0212511Y0041197D01*
X0212142Y0041197D01*
X0212142Y0044781D01*
X0209924Y0044781D01*
X0209467Y0044658D01*
X0209056Y0044421D01*
X0208721Y0044086D01*
X0208484Y0043676D01*
X0208361Y0043218D01*
X0209012Y0044377D02*
X0192620Y0044377D01*
X0192620Y0045975D02*
X0215820Y0045975D01*
X0215820Y0047574D02*
X0193058Y0047574D01*
X0193388Y0049172D02*
X0215820Y0049172D01*
X0215820Y0050771D02*
X0193388Y0050771D01*
X0196943Y0052369D02*
X0203403Y0052369D01*
X0201805Y0053968D02*
X0198542Y0053968D01*
X0198854Y0055566D02*
X0201492Y0055566D01*
X0201492Y0057165D02*
X0198854Y0057165D01*
X0197835Y0058763D02*
X0202511Y0058763D01*
X0205673Y0056013D02*
X0212327Y0056013D01*
X0215294Y0060362D02*
X0216052Y0060362D01*
X0221987Y0060362D02*
X0226528Y0060362D01*
X0229224Y0061960D02*
X0187816Y0061960D01*
X0188835Y0063559D02*
X0189204Y0063559D01*
X0189204Y0065158D02*
X0188835Y0065158D01*
X0189020Y0066013D02*
X0200673Y0066013D01*
X0192985Y0066197D02*
X0192985Y0068218D01*
X0192862Y0068676D01*
X0192625Y0069086D01*
X0192290Y0069421D01*
X0191880Y0069658D01*
X0191422Y0069781D01*
X0189204Y0069781D01*
X0189204Y0066197D01*
X0192985Y0066197D01*
X0192985Y0066756D02*
X0230194Y0066756D01*
X0230365Y0066756D02*
X0320673Y0066756D01*
X0320673Y0065158D02*
X0234553Y0065158D01*
X0234894Y0066800D02*
X0243984Y0075891D01*
X0243603Y0074749D02*
X0244365Y0074749D01*
X0244365Y0073150D02*
X0243603Y0073150D01*
X0243603Y0071552D02*
X0244365Y0071552D01*
X0233504Y0063559D02*
X0320673Y0063559D01*
X0320673Y0061960D02*
X0231335Y0061960D01*
X0230365Y0063559D02*
X0230194Y0063559D01*
X0230194Y0065158D02*
X0230365Y0065158D01*
X0230365Y0068355D02*
X0230194Y0068355D01*
X0230194Y0069953D02*
X0230365Y0069953D01*
X0225978Y0068355D02*
X0192948Y0068355D01*
X0192985Y0065158D02*
X0226006Y0065158D01*
X0227055Y0063559D02*
X0192919Y0063559D01*
X0189415Y0060362D02*
X0209360Y0060362D01*
X0219020Y0056013D02*
X0219020Y0041013D01*
X0223585Y0041180D02*
X0227346Y0041180D01*
X0226987Y0042778D02*
X0223585Y0042778D01*
X0223183Y0044377D02*
X0225685Y0044377D01*
X0225108Y0045975D02*
X0222220Y0045975D01*
X0222220Y0047574D02*
X0225108Y0047574D01*
X0225664Y0049172D02*
X0222220Y0049172D01*
X0222220Y0050771D02*
X0226937Y0050771D01*
X0227462Y0052369D02*
X0222904Y0052369D01*
X0219020Y0056013D02*
X0229492Y0056013D01*
X0230280Y0056800D01*
X0235064Y0058763D02*
X0320673Y0058763D01*
X0320673Y0057165D02*
X0235451Y0057165D01*
X0235366Y0055566D02*
X0320673Y0055566D01*
X0320673Y0053968D02*
X0234704Y0053968D01*
X0233097Y0052369D02*
X0320673Y0052369D01*
X0320673Y0050771D02*
X0233622Y0050771D01*
X0234895Y0049172D02*
X0320673Y0049172D01*
X0320673Y0047574D02*
X0235451Y0047574D01*
X0235451Y0045975D02*
X0320673Y0045975D01*
X0320673Y0044377D02*
X0310766Y0044377D01*
X0310956Y0044187D02*
X0310281Y0044862D01*
X0309399Y0045228D01*
X0300570Y0045228D01*
X0299688Y0044862D01*
X0299013Y0044187D01*
X0298647Y0043305D01*
X0298647Y0034476D01*
X0299013Y0033594D01*
X0299688Y0032919D01*
X0300570Y0032554D01*
X0309399Y0032554D01*
X0310281Y0032919D01*
X0310956Y0033594D01*
X0311321Y0034476D01*
X0311321Y0043305D01*
X0310956Y0044187D01*
X0311321Y0042778D02*
X0320673Y0042778D01*
X0320673Y0041180D02*
X0311321Y0041180D01*
X0311321Y0039581D02*
X0320673Y0039581D01*
X0320673Y0037983D02*
X0311321Y0037983D01*
X0311321Y0036384D02*
X0320673Y0036384D01*
X0320673Y0034786D02*
X0311321Y0034786D01*
X0310549Y0033187D02*
X0320673Y0033187D01*
X0320673Y0031589D02*
X0309331Y0031589D01*
X0309765Y0031409D02*
X0307289Y0032435D01*
X0304609Y0032435D01*
X0302133Y0031409D01*
X0300237Y0029514D01*
X0299212Y0027038D01*
X0299212Y0024358D01*
X0300237Y0021881D01*
X0302133Y0019986D01*
X0304609Y0018961D01*
X0307289Y0018961D01*
X0309765Y0019986D01*
X0311660Y0021881D01*
X0312686Y0024358D01*
X0312686Y0027038D01*
X0311660Y0029514D01*
X0309765Y0031409D01*
X0311184Y0029990D02*
X0320673Y0029990D01*
X0320673Y0028392D02*
X0312125Y0028392D01*
X0312686Y0026793D02*
X0320673Y0026793D01*
X0320673Y0025195D02*
X0312686Y0025195D01*
X0312370Y0023596D02*
X0320673Y0023596D01*
X0320673Y0021998D02*
X0311708Y0021998D01*
X0310178Y0020399D02*
X0320673Y0020399D01*
X0320673Y0018801D02*
X0235049Y0018801D01*
X0235451Y0017202D02*
X0320673Y0017202D01*
X0320673Y0015604D02*
X0235382Y0015604D01*
X0234720Y0014005D02*
X0320673Y0014005D01*
X0320673Y0012407D02*
X0233187Y0012407D01*
X0227372Y0012407D02*
X0173187Y0012407D01*
X0174720Y0014005D02*
X0225839Y0014005D01*
X0225177Y0015604D02*
X0175382Y0015604D01*
X0175451Y0017202D02*
X0225108Y0017202D01*
X0225510Y0018801D02*
X0186326Y0018801D01*
X0188151Y0020399D02*
X0226565Y0020399D01*
X0228359Y0021998D02*
X0189749Y0021998D01*
X0191348Y0023596D02*
X0226169Y0023596D01*
X0225347Y0025195D02*
X0192434Y0025195D01*
X0192620Y0026793D02*
X0225108Y0026793D01*
X0225341Y0028392D02*
X0192620Y0028392D01*
X0192620Y0029990D02*
X0226156Y0029990D01*
X0228327Y0031589D02*
X0192620Y0031589D01*
X0192620Y0033187D02*
X0226578Y0033187D01*
X0225516Y0034786D02*
X0192620Y0034786D01*
X0192620Y0036384D02*
X0225108Y0036384D01*
X0225172Y0037983D02*
X0223343Y0037983D01*
X0223585Y0039581D02*
X0225834Y0039581D01*
X0233213Y0041180D02*
X0237647Y0041180D01*
X0237647Y0042778D02*
X0233572Y0042778D01*
X0234874Y0044377D02*
X0238202Y0044377D01*
X0238013Y0044187D02*
X0237647Y0043305D01*
X0237647Y0034476D01*
X0238013Y0033594D01*
X0238688Y0032919D01*
X0239570Y0032554D01*
X0248399Y0032554D01*
X0249281Y0032919D01*
X0249956Y0033594D01*
X0250321Y0034476D01*
X0250321Y0043305D01*
X0249956Y0044187D01*
X0249281Y0044862D01*
X0248399Y0045228D01*
X0239570Y0045228D01*
X0238688Y0044862D01*
X0238013Y0044187D01*
X0237647Y0039581D02*
X0234725Y0039581D01*
X0235387Y0037983D02*
X0237647Y0037983D01*
X0237647Y0036384D02*
X0235451Y0036384D01*
X0235043Y0034786D02*
X0237647Y0034786D01*
X0238419Y0033187D02*
X0233981Y0033187D01*
X0232233Y0031589D02*
X0302567Y0031589D01*
X0300714Y0029990D02*
X0234403Y0029990D01*
X0235218Y0028392D02*
X0299773Y0028392D01*
X0299212Y0026793D02*
X0235451Y0026793D01*
X0235212Y0025195D02*
X0299212Y0025195D01*
X0299527Y0023596D02*
X0234390Y0023596D01*
X0232200Y0021998D02*
X0300189Y0021998D01*
X0301720Y0020399D02*
X0233994Y0020399D01*
X0249549Y0033187D02*
X0299419Y0033187D01*
X0298647Y0034786D02*
X0250321Y0034786D01*
X0250321Y0036384D02*
X0298647Y0036384D01*
X0298647Y0037983D02*
X0250321Y0037983D01*
X0250321Y0039581D02*
X0298647Y0039581D01*
X0298647Y0041180D02*
X0250321Y0041180D01*
X0250321Y0042778D02*
X0298647Y0042778D01*
X0299202Y0044377D02*
X0249766Y0044377D01*
X0234031Y0060362D02*
X0320673Y0060362D01*
X0256861Y0112725D02*
X0255042Y0110907D01*
X0255042Y0113577D01*
X0254676Y0114459D01*
X0254273Y0114862D01*
X0254273Y0116644D01*
X0259576Y0116644D01*
X0260448Y0117005D01*
X0260448Y0115067D01*
X0260571Y0114609D01*
X0260808Y0114199D01*
X0261143Y0113864D01*
X0261553Y0113627D01*
X0262011Y0113504D01*
X0264820Y0113504D01*
X0264820Y0117088D01*
X0265188Y0117088D01*
X0265188Y0113504D01*
X0267997Y0113504D01*
X0268455Y0113627D01*
X0268865Y0113864D01*
X0269200Y0114199D01*
X0269437Y0114609D01*
X0269473Y0114744D01*
X0269473Y0114338D01*
X0268348Y0113213D01*
X0258037Y0113213D01*
X0256861Y0112725D01*
X0257796Y0113113D02*
X0255042Y0113113D01*
X0255042Y0111514D02*
X0255650Y0111514D01*
X0254424Y0114711D02*
X0260543Y0114711D01*
X0261673Y0115013D02*
X0263933Y0117272D01*
X0265004Y0117272D01*
X0264820Y0117088D02*
X0260537Y0117088D01*
X0260905Y0117457D01*
X0264820Y0117457D01*
X0264820Y0117088D01*
X0264820Y0116310D02*
X0265188Y0116310D01*
X0265188Y0114711D02*
X0264820Y0114711D01*
X0261673Y0115013D02*
X0257673Y0115013D01*
X0260448Y0116310D02*
X0254273Y0116310D01*
X0269465Y0114711D02*
X0269473Y0114711D01*
X0271664Y0127499D02*
X0272037Y0127499D01*
X0272037Y0129098D02*
X0268293Y0129098D01*
X0309866Y0117908D02*
X0320673Y0117908D01*
X0320673Y0116310D02*
X0310160Y0116310D01*
X0206691Y0159470D02*
X0193051Y0159470D01*
X0189020Y0156013D02*
X0189020Y0086359D01*
X0182327Y0079666D01*
X0182327Y0066013D01*
X0188835Y0066756D02*
X0189204Y0066756D01*
X0189204Y0068355D02*
X0188835Y0068355D01*
X0170280Y0066800D02*
X0163886Y0066800D01*
X0158673Y0072013D01*
X0158673Y0078013D01*
X0152673Y0084013D01*
X0146673Y0084013D01*
X0141673Y0089013D01*
X0136173Y0089013D01*
X0133827Y0091359D01*
X0122673Y0091359D01*
X0122673Y0107422D01*
X0124264Y0109013D01*
X0141673Y0109013D01*
X0144673Y0112013D01*
X0144673Y0126013D01*
X0147673Y0129013D01*
X0149673Y0129013D01*
X0155673Y0135013D01*
X0155673Y0135269D01*
X0155673Y0144013D01*
X0149673Y0150013D01*
X0129673Y0150013D01*
X0125957Y0146296D01*
X0125957Y0144706D01*
X0121796Y0146682D02*
X0118873Y0146682D01*
X0118873Y0148280D02*
X0123026Y0148280D01*
X0123351Y0148605D02*
X0122057Y0147311D01*
X0121357Y0145621D01*
X0121357Y0143791D01*
X0122057Y0142100D01*
X0123351Y0140806D01*
X0125042Y0140106D01*
X0126872Y0140106D01*
X0128562Y0140806D01*
X0129856Y0142100D01*
X0130557Y0143791D01*
X0130557Y0145621D01*
X0130337Y0146151D01*
X0130999Y0146813D01*
X0141071Y0146813D01*
X0140857Y0146724D01*
X0138962Y0144829D01*
X0137936Y0142353D01*
X0137936Y0139673D01*
X0138461Y0138405D01*
X0137842Y0138204D01*
X0137225Y0137890D01*
X0136665Y0137483D01*
X0136175Y0136993D01*
X0135768Y0136433D01*
X0135454Y0135816D01*
X0135240Y0135157D01*
X0135131Y0134473D01*
X0135131Y0134127D01*
X0139531Y0134127D01*
X0139531Y0134127D01*
X0135131Y0134127D01*
X0135131Y0133780D01*
X0135240Y0133096D01*
X0135454Y0132438D01*
X0135768Y0131821D01*
X0136175Y0131260D01*
X0136665Y0130771D01*
X0137225Y0130364D01*
X0137842Y0130049D01*
X0138501Y0129835D01*
X0139185Y0129727D01*
X0139531Y0129727D01*
X0139531Y0134127D01*
X0139532Y0134127D01*
X0143931Y0134127D01*
X0143931Y0134276D01*
X0146013Y0134276D01*
X0148489Y0135301D01*
X0150385Y0137196D01*
X0151410Y0139673D01*
X0151410Y0142353D01*
X0150422Y0144738D01*
X0152473Y0142687D01*
X0152473Y0136594D01*
X0150006Y0134127D01*
X0148537Y0134127D01*
X0146699Y0133366D01*
X0145293Y0131959D01*
X0144726Y0130591D01*
X0142432Y0128297D01*
X0142364Y0128366D01*
X0140526Y0129127D01*
X0138537Y0129127D01*
X0136699Y0128366D01*
X0135660Y0127327D01*
X0121885Y0127327D01*
X0118873Y0130338D01*
X0118873Y0151117D01*
X0119856Y0152100D01*
X0120557Y0153791D01*
X0120557Y0155621D01*
X0119856Y0157311D01*
X0119355Y0157813D01*
X0120348Y0157813D01*
X0126648Y0151513D01*
X0124144Y0149009D01*
X0124016Y0148880D01*
X0123351Y0148605D01*
X0125014Y0149879D02*
X0118873Y0149879D01*
X0119234Y0151477D02*
X0126612Y0151477D01*
X0125085Y0153076D02*
X0120261Y0153076D01*
X0120557Y0154674D02*
X0123486Y0154674D01*
X0121888Y0156273D02*
X0120287Y0156273D01*
X0115957Y0154706D02*
X0115673Y0154422D01*
X0115673Y0129013D01*
X0120559Y0124127D01*
X0139531Y0124127D01*
X0135833Y0127499D02*
X0121712Y0127499D01*
X0120113Y0129098D02*
X0138467Y0129098D01*
X0139532Y0129727D02*
X0139878Y0129727D01*
X0140562Y0129835D01*
X0141221Y0130049D01*
X0141838Y0130364D01*
X0142398Y0130771D01*
X0142888Y0131260D01*
X0143295Y0131821D01*
X0143609Y0132438D01*
X0143823Y0133096D01*
X0143931Y0133780D01*
X0143931Y0134127D01*
X0139532Y0134127D01*
X0139532Y0134127D01*
X0139532Y0129727D01*
X0139531Y0130696D02*
X0139532Y0130696D01*
X0139531Y0132295D02*
X0139532Y0132295D01*
X0139531Y0133894D02*
X0139532Y0133894D01*
X0143536Y0132295D02*
X0145629Y0132295D01*
X0144770Y0130696D02*
X0142296Y0130696D01*
X0143233Y0129098D02*
X0140596Y0129098D01*
X0136767Y0130696D02*
X0118873Y0130696D01*
X0118873Y0132295D02*
X0135527Y0132295D01*
X0135131Y0133894D02*
X0118873Y0133894D01*
X0118873Y0135492D02*
X0135349Y0135492D01*
X0136273Y0137091D02*
X0118873Y0137091D01*
X0118873Y0138689D02*
X0138344Y0138689D01*
X0137936Y0140288D02*
X0127311Y0140288D01*
X0124602Y0140288D02*
X0118873Y0140288D01*
X0118873Y0141886D02*
X0122271Y0141886D01*
X0121483Y0143485D02*
X0118873Y0143485D01*
X0118873Y0145083D02*
X0121357Y0145083D01*
X0129643Y0141886D02*
X0137936Y0141886D01*
X0138405Y0143485D02*
X0130430Y0143485D01*
X0130557Y0145083D02*
X0139216Y0145083D01*
X0140815Y0146682D02*
X0130868Y0146682D01*
X0128673Y0154013D02*
X0121673Y0161013D01*
X0112673Y0161013D01*
X0106673Y0155013D01*
X0106673Y0068013D01*
X0102673Y0064013D01*
X0066673Y0064013D01*
X0054571Y0051910D01*
X0054571Y0039910D01*
X0057771Y0043189D02*
X0057771Y0050585D01*
X0067999Y0060813D01*
X0069071Y0060813D01*
X0068861Y0060725D01*
X0064514Y0056379D01*
X0063614Y0055479D01*
X0063127Y0054303D01*
X0063127Y0053150D01*
X0062802Y0053016D01*
X0062127Y0052341D01*
X0061761Y0051458D01*
X0061761Y0048836D01*
X0061371Y0047893D01*
X0061371Y0043189D01*
X0060687Y0042505D01*
X0059990Y0040821D01*
X0059990Y0038999D01*
X0060687Y0037315D01*
X0061976Y0036027D01*
X0063660Y0035329D01*
X0065482Y0035329D01*
X0067166Y0036027D01*
X0068455Y0037315D01*
X0069152Y0038999D01*
X0069152Y0040821D01*
X0068455Y0042505D01*
X0067771Y0043189D01*
X0067771Y0044644D01*
X0068970Y0044644D01*
X0069852Y0045009D01*
X0070198Y0045356D01*
X0070617Y0045244D01*
X0072835Y0045244D01*
X0072835Y0048828D01*
X0073204Y0048828D01*
X0073204Y0045244D01*
X0075422Y0045244D01*
X0075880Y0045367D01*
X0076290Y0045604D01*
X0076625Y0045939D01*
X0076862Y0046349D01*
X0076985Y0046807D01*
X0076985Y0048828D01*
X0073204Y0048828D01*
X0073204Y0049197D01*
X0072835Y0049197D01*
X0072835Y0052781D01*
X0070617Y0052781D01*
X0070198Y0052669D01*
X0070027Y0052841D01*
X0071999Y0054813D01*
X0107310Y0054813D01*
X0108486Y0055300D01*
X0109386Y0056200D01*
X0125386Y0072200D01*
X0125873Y0073376D01*
X0125873Y0080528D01*
X0126198Y0080663D01*
X0126873Y0081338D01*
X0127239Y0082220D01*
X0127239Y0087112D01*
X0126873Y0087994D01*
X0126855Y0088013D01*
X0126873Y0088031D01*
X0126926Y0088159D01*
X0132501Y0088159D01*
X0133460Y0087200D01*
X0134361Y0086300D01*
X0134923Y0086067D01*
X0134531Y0085121D01*
X0134531Y0083132D01*
X0135293Y0081294D01*
X0136699Y0079888D01*
X0138537Y0079127D01*
X0140526Y0079127D01*
X0142364Y0079888D01*
X0143770Y0081294D01*
X0144091Y0082069D01*
X0144861Y0081300D01*
X0144996Y0081244D01*
X0144531Y0080121D01*
X0144531Y0078132D01*
X0145293Y0076294D01*
X0146699Y0074888D01*
X0148537Y0074127D01*
X0150526Y0074127D01*
X0152364Y0074888D01*
X0153770Y0076294D01*
X0154384Y0077776D01*
X0155473Y0076687D01*
X0155473Y0071376D01*
X0155960Y0070200D01*
X0156861Y0069300D01*
X0162073Y0064087D01*
X0163249Y0063600D01*
X0166166Y0063600D01*
X0167350Y0062416D01*
X0168836Y0061800D01*
X0167350Y0061184D01*
X0165895Y0059730D01*
X0165108Y0057829D01*
X0165108Y0056103D01*
X0160272Y0060939D01*
X0159372Y0061840D01*
X0158196Y0062327D01*
X0153403Y0062327D01*
X0152364Y0063366D01*
X0150526Y0064127D01*
X0152364Y0064888D01*
X0153770Y0066294D01*
X0154531Y0068132D01*
X0154531Y0070121D01*
X0153770Y0071959D01*
X0152364Y0073366D01*
X0150526Y0074127D01*
X0148537Y0074127D01*
X0146699Y0073366D01*
X0145293Y0071959D01*
X0144531Y0070121D01*
X0144531Y0068132D01*
X0145293Y0066294D01*
X0146699Y0064888D01*
X0148537Y0064127D01*
X0150526Y0064127D01*
X0148537Y0064127D01*
X0146699Y0063366D01*
X0145293Y0061959D01*
X0144531Y0060121D01*
X0144531Y0058132D01*
X0145293Y0056294D01*
X0146699Y0054888D01*
X0148537Y0054127D01*
X0150526Y0054127D01*
X0152364Y0054888D01*
X0153403Y0055927D01*
X0156234Y0055927D01*
X0162861Y0049300D01*
X0164037Y0048813D01*
X0166174Y0048813D01*
X0166043Y0048555D01*
X0165820Y0047871D01*
X0165708Y0047160D01*
X0165708Y0046886D01*
X0170194Y0046886D01*
X0170194Y0046714D01*
X0170365Y0046714D01*
X0170365Y0042228D01*
X0170639Y0042228D01*
X0171350Y0042341D01*
X0172034Y0042563D01*
X0172676Y0042890D01*
X0173258Y0043313D01*
X0173767Y0043822D01*
X0174190Y0044404D01*
X0174516Y0045045D01*
X0174739Y0045729D01*
X0174851Y0046440D01*
X0174851Y0046714D01*
X0170365Y0046714D01*
X0170365Y0046886D01*
X0174851Y0046886D01*
X0174851Y0047160D01*
X0174739Y0047871D01*
X0174516Y0048555D01*
X0174385Y0048813D01*
X0177958Y0048813D01*
X0177958Y0048370D01*
X0178324Y0047488D01*
X0178999Y0046813D01*
X0179881Y0046447D01*
X0184773Y0046447D01*
X0185420Y0046715D01*
X0185420Y0027850D01*
X0183182Y0025613D01*
X0175385Y0025613D01*
X0175451Y0025771D01*
X0175451Y0027829D01*
X0174664Y0029730D01*
X0173209Y0031184D01*
X0171723Y0031800D01*
X0173209Y0032416D01*
X0174664Y0033870D01*
X0175451Y0035771D01*
X0175451Y0037829D01*
X0174664Y0039730D01*
X0173209Y0041184D01*
X0171308Y0041972D01*
X0169251Y0041972D01*
X0167350Y0041184D01*
X0166566Y0040400D01*
X0165745Y0040400D01*
X0164421Y0039852D01*
X0157182Y0032613D01*
X0137164Y0032613D01*
X0131854Y0037923D01*
X0131854Y0038744D01*
X0129405Y0041194D01*
X0125941Y0041194D01*
X0123492Y0038744D01*
X0123492Y0035281D01*
X0125941Y0032831D01*
X0126763Y0032831D01*
X0133634Y0025961D01*
X0134474Y0025613D01*
X0134083Y0025613D01*
X0132760Y0025065D01*
X0125763Y0018068D01*
X0124941Y0018068D01*
X0122492Y0015618D01*
X0122492Y0012155D01*
X0123634Y0011013D01*
X0015673Y0011013D01*
X0015673Y0093141D01*
X0015861Y0092953D01*
X0016958Y0091856D01*
X0016958Y0089370D01*
X0017324Y0088488D01*
X0017999Y0087813D01*
X0018881Y0087447D01*
X0023773Y0087447D01*
X0024655Y0087813D01*
X0024673Y0087831D01*
X0024692Y0087813D01*
X0025574Y0087447D01*
X0030466Y0087447D01*
X0031348Y0087813D01*
X0032023Y0088488D01*
X0032157Y0088813D01*
X0032960Y0088813D01*
X0033941Y0087831D01*
X0037405Y0087831D01*
X0038386Y0088813D01*
X0041310Y0088813D01*
X0042486Y0089300D01*
X0043386Y0090200D01*
X0048386Y0095200D01*
X0048873Y0096376D01*
X0048873Y0098616D01*
X0049348Y0098813D01*
X0050023Y0099488D01*
X0050388Y0100370D01*
X0050388Y0105655D01*
X0050023Y0106537D01*
X0049348Y0107213D01*
X0048466Y0107578D01*
X0043574Y0107578D01*
X0042692Y0107213D01*
X0042673Y0107194D01*
X0042655Y0107213D01*
X0041773Y0107578D01*
X0036881Y0107578D01*
X0035999Y0107213D01*
X0035324Y0106537D01*
X0035189Y0106213D01*
X0034110Y0106213D01*
X0032732Y0107590D01*
X0031713Y0108013D01*
X0032732Y0108435D01*
X0034110Y0109813D01*
X0053843Y0109813D01*
X0053533Y0109065D01*
X0053533Y0100992D01*
X0054350Y0099019D01*
X0055861Y0097509D01*
X0057834Y0096691D01*
X0059969Y0096691D01*
X0061943Y0097509D01*
X0063453Y0099019D01*
X0064270Y0100992D01*
X0064270Y0109065D01*
X0063960Y0109813D01*
X0082037Y0109813D01*
X0081810Y0109113D01*
X0081692Y0108372D01*
X0081692Y0105213D01*
X0086276Y0105213D01*
X0086276Y0104844D01*
X0081692Y0104844D01*
X0081692Y0101685D01*
X0081810Y0100943D01*
X0082041Y0100229D01*
X0082382Y0099561D01*
X0082823Y0098953D01*
X0083354Y0098423D01*
X0083961Y0097981D01*
X0084630Y0097641D01*
X0085344Y0097409D01*
X0086085Y0097291D01*
X0086276Y0097291D01*
X0086276Y0104844D01*
X0086645Y0104844D01*
X0086645Y0105213D01*
X0091229Y0105213D01*
X0091229Y0108372D01*
X0091112Y0109113D01*
X0090885Y0109813D01*
X0090960Y0109813D01*
X0091941Y0108831D01*
X0095405Y0108831D01*
X0097854Y0111281D01*
X0097854Y0114744D01*
X0095405Y0117194D01*
X0093380Y0117194D01*
X0094486Y0118300D01*
X0095386Y0119200D01*
X0095873Y0120376D01*
X0095873Y0159300D01*
X0096854Y0160281D01*
X0096854Y0163744D01*
X0094405Y0166194D01*
X0091854Y0166194D01*
X0091854Y0167744D01*
X0090786Y0168813D01*
X0138610Y0168813D01*
X0138246Y0167934D01*
X0138246Y0166701D01*
X0138718Y0165561D01*
X0139590Y0164689D01*
X0140114Y0164472D01*
X0140114Y0161096D01*
X0140586Y0159957D01*
X0141458Y0159085D01*
X0142597Y0158613D01*
X0143831Y0158613D01*
X0144970Y0159085D01*
X0145842Y0159957D01*
X0145917Y0160137D01*
X0146035Y0160019D01*
X0146969Y0159085D01*
X0148109Y0158613D01*
X0151210Y0158613D01*
X0152350Y0159085D01*
X0152882Y0159617D01*
X0153415Y0159085D01*
X0154554Y0158613D01*
X0158590Y0158613D01*
X0159729Y0159085D01*
X0160601Y0159957D01*
X0161073Y0161096D01*
X0161073Y0167934D01*
X0160709Y0168813D01*
X0165515Y0168813D01*
X0165108Y0167829D01*
X0165108Y0165771D01*
X0165895Y0163870D01*
X0167350Y0162416D01*
X0168836Y0161800D01*
X0167350Y0161184D01*
X0165895Y0159730D01*
X0165108Y0157829D01*
X0165108Y0155771D01*
X0165895Y0153870D01*
X0167350Y0152416D01*
X0168836Y0151800D01*
X0167350Y0151184D01*
X0166166Y0150000D01*
X0159211Y0150000D01*
X0152486Y0156725D01*
X0151310Y0157213D01*
X0129999Y0157213D01*
X0126480Y0160731D01*
X0127123Y0160859D01*
X0127851Y0161161D01*
X0128507Y0161599D01*
X0129064Y0162156D01*
X0129501Y0162811D01*
X0129803Y0163539D01*
X0129957Y0164312D01*
X0129957Y0164705D01*
X0125957Y0164705D01*
X0125957Y0164706D01*
X0125957Y0164706D01*
X0125957Y0168705D01*
X0126351Y0168705D01*
X0127123Y0168552D01*
X0127851Y0168250D01*
X0128507Y0167813D01*
X0129064Y0167255D01*
X0129501Y0166600D01*
X0129803Y0165872D01*
X0129957Y0165099D01*
X0129957Y0164706D01*
X0125957Y0164706D01*
X0125957Y0168705D01*
X0125563Y0168705D01*
X0124790Y0168552D01*
X0124062Y0168250D01*
X0123407Y0167813D01*
X0122850Y0167255D01*
X0122412Y0166600D01*
X0122110Y0165872D01*
X0121957Y0165099D01*
X0121957Y0164706D01*
X0125957Y0164706D01*
X0107366Y0164706D01*
X0100673Y0158013D01*
X0103960Y0156825D02*
X0103473Y0155649D01*
X0103473Y0069338D01*
X0101348Y0067213D01*
X0066037Y0067213D01*
X0064861Y0066725D01*
X0063960Y0065825D01*
X0051858Y0053723D01*
X0051371Y0052547D01*
X0051371Y0043189D01*
X0050687Y0042505D01*
X0049990Y0040821D01*
X0049990Y0038999D01*
X0050687Y0037315D01*
X0051976Y0036027D01*
X0053660Y0035329D01*
X0055482Y0035329D01*
X0057166Y0036027D01*
X0058455Y0037315D01*
X0059152Y0038999D01*
X0059152Y0040821D01*
X0058455Y0042505D01*
X0057771Y0043189D01*
X0058181Y0042778D02*
X0060960Y0042778D01*
X0061371Y0044377D02*
X0057771Y0044377D01*
X0057771Y0045975D02*
X0061371Y0045975D01*
X0061371Y0047574D02*
X0057771Y0047574D01*
X0057771Y0049172D02*
X0061761Y0049172D01*
X0061761Y0050771D02*
X0057957Y0050771D01*
X0059556Y0052369D02*
X0062156Y0052369D01*
X0063127Y0053968D02*
X0061154Y0053968D01*
X0062753Y0055566D02*
X0063702Y0055566D01*
X0064351Y0057165D02*
X0065300Y0057165D01*
X0065950Y0058763D02*
X0066899Y0058763D01*
X0067548Y0060362D02*
X0068497Y0060362D01*
X0070673Y0058013D02*
X0066327Y0053666D01*
X0066327Y0049013D01*
X0064571Y0047257D01*
X0064571Y0039910D01*
X0060411Y0037983D02*
X0058731Y0037983D01*
X0059152Y0039581D02*
X0059990Y0039581D01*
X0060138Y0041180D02*
X0059004Y0041180D01*
X0057524Y0036384D02*
X0061618Y0036384D01*
X0067524Y0036384D02*
X0072682Y0036384D01*
X0072685Y0036382D02*
X0073410Y0036082D01*
X0074179Y0035929D01*
X0074571Y0035929D01*
X0074963Y0035929D01*
X0075732Y0036082D01*
X0076457Y0036382D01*
X0077109Y0036818D01*
X0077663Y0037372D01*
X0078099Y0038024D01*
X0078399Y0038749D01*
X0078552Y0039518D01*
X0078552Y0039910D01*
X0074571Y0039910D01*
X0074571Y0035929D01*
X0074571Y0039910D01*
X0074571Y0039910D01*
X0074571Y0039910D01*
X0074571Y0035910D01*
X0070673Y0032013D01*
X0048673Y0032013D01*
X0044571Y0036115D01*
X0044571Y0039910D01*
X0044571Y0035929D01*
X0044963Y0035929D01*
X0045732Y0036082D01*
X0046457Y0036382D01*
X0047109Y0036818D01*
X0047663Y0037372D01*
X0048099Y0038024D01*
X0048399Y0038749D01*
X0048552Y0039518D01*
X0048552Y0039910D01*
X0044571Y0039910D01*
X0044571Y0039910D01*
X0044571Y0039910D01*
X0044571Y0035929D01*
X0044179Y0035929D01*
X0043410Y0036082D01*
X0042685Y0036382D01*
X0042033Y0036818D01*
X0041479Y0037372D01*
X0041043Y0038024D01*
X0040743Y0038749D01*
X0040590Y0039518D01*
X0040590Y0039910D01*
X0044571Y0039910D01*
X0048552Y0039910D01*
X0048552Y0040302D01*
X0048399Y0041071D01*
X0048099Y0041796D01*
X0047663Y0042448D01*
X0047109Y0043003D01*
X0046457Y0043438D01*
X0045732Y0043738D01*
X0044963Y0043891D01*
X0044571Y0043891D01*
X0044571Y0039910D01*
X0044571Y0039910D01*
X0044571Y0039910D01*
X0040590Y0039910D01*
X0040590Y0040302D01*
X0040743Y0041071D01*
X0041043Y0041796D01*
X0041479Y0042448D01*
X0042033Y0043003D01*
X0042685Y0043438D01*
X0043410Y0043738D01*
X0044179Y0043891D01*
X0044571Y0043891D01*
X0044571Y0039910D01*
X0044571Y0039581D02*
X0044571Y0039581D01*
X0044571Y0037983D02*
X0044571Y0037983D01*
X0044571Y0036384D02*
X0044571Y0036384D01*
X0046460Y0036384D02*
X0051618Y0036384D01*
X0050411Y0037983D02*
X0048071Y0037983D01*
X0048552Y0039581D02*
X0049990Y0039581D01*
X0050138Y0041180D02*
X0048354Y0041180D01*
X0047333Y0042778D02*
X0050960Y0042778D01*
X0051371Y0044377D02*
X0015673Y0044377D01*
X0015673Y0045975D02*
X0051371Y0045975D01*
X0051371Y0047574D02*
X0015673Y0047574D01*
X0015673Y0049172D02*
X0051371Y0049172D01*
X0051371Y0050771D02*
X0015673Y0050771D01*
X0015673Y0052369D02*
X0051371Y0052369D01*
X0052103Y0053968D02*
X0015673Y0053968D01*
X0015673Y0055566D02*
X0053702Y0055566D01*
X0055300Y0057165D02*
X0015673Y0057165D01*
X0015673Y0058763D02*
X0056899Y0058763D01*
X0058497Y0060362D02*
X0015673Y0060362D01*
X0015673Y0061960D02*
X0060096Y0061960D01*
X0061694Y0063559D02*
X0015673Y0063559D01*
X0015673Y0065158D02*
X0063293Y0065158D01*
X0064934Y0066756D02*
X0015673Y0066756D01*
X0015673Y0068355D02*
X0037003Y0068355D01*
X0038391Y0067780D02*
X0042011Y0067780D01*
X0045355Y0069165D01*
X0047915Y0071724D01*
X0049300Y0075069D01*
X0049300Y0078689D01*
X0047915Y0082033D01*
X0045355Y0084593D01*
X0042011Y0085978D01*
X0038391Y0085978D01*
X0035046Y0084593D01*
X0032487Y0082033D01*
X0031102Y0078689D01*
X0031102Y0075069D01*
X0032487Y0071724D01*
X0035046Y0069165D01*
X0038391Y0067780D01*
X0034258Y0069953D02*
X0015673Y0069953D01*
X0015673Y0071552D02*
X0032660Y0071552D01*
X0031896Y0073150D02*
X0015673Y0073150D01*
X0015673Y0074749D02*
X0031234Y0074749D01*
X0031102Y0076347D02*
X0015673Y0076347D01*
X0015673Y0077946D02*
X0031102Y0077946D01*
X0031456Y0079544D02*
X0015673Y0079544D01*
X0015673Y0081143D02*
X0032118Y0081143D01*
X0033195Y0082741D02*
X0015673Y0082741D01*
X0015673Y0084340D02*
X0034793Y0084340D01*
X0038295Y0085938D02*
X0015673Y0085938D01*
X0015673Y0087537D02*
X0018665Y0087537D01*
X0017055Y0089135D02*
X0015673Y0089135D01*
X0015673Y0090734D02*
X0016958Y0090734D01*
X0016482Y0092332D02*
X0015673Y0092332D01*
X0017673Y0095666D02*
X0017673Y0127013D01*
X0023673Y0133013D01*
X0026673Y0133013D01*
X0031673Y0133013D01*
X0044673Y0120013D01*
X0083673Y0120013D01*
X0087673Y0124013D01*
X0087673Y0166013D01*
X0091854Y0167462D02*
X0123057Y0167462D01*
X0122109Y0165864D02*
X0094735Y0165864D01*
X0096334Y0164265D02*
X0121966Y0164265D01*
X0121957Y0164312D02*
X0121976Y0164213D01*
X0112037Y0164213D01*
X0110861Y0163725D01*
X0109960Y0162825D01*
X0103960Y0156825D01*
X0103732Y0156273D02*
X0095873Y0156273D01*
X0095873Y0157871D02*
X0105006Y0157871D01*
X0106605Y0159470D02*
X0096043Y0159470D01*
X0096854Y0161068D02*
X0108203Y0161068D01*
X0109802Y0162667D02*
X0096854Y0162667D01*
X0092673Y0162013D02*
X0092673Y0121013D01*
X0087673Y0116013D01*
X0037673Y0116013D01*
X0030673Y0123013D01*
X0026673Y0123013D01*
X0026673Y0113013D02*
X0093673Y0113013D01*
X0097854Y0113113D02*
X0103473Y0113113D01*
X0103473Y0114711D02*
X0097854Y0114711D01*
X0096289Y0116310D02*
X0103473Y0116310D01*
X0103473Y0117908D02*
X0094094Y0117908D01*
X0095513Y0119507D02*
X0103473Y0119507D01*
X0103473Y0121105D02*
X0095873Y0121105D01*
X0095873Y0122704D02*
X0103473Y0122704D01*
X0103473Y0124302D02*
X0095873Y0124302D01*
X0095873Y0125901D02*
X0103473Y0125901D01*
X0103473Y0127499D02*
X0095873Y0127499D01*
X0095873Y0129098D02*
X0103473Y0129098D01*
X0103473Y0130696D02*
X0095873Y0130696D01*
X0095873Y0132295D02*
X0103473Y0132295D01*
X0103473Y0133894D02*
X0095873Y0133894D01*
X0095873Y0135492D02*
X0103473Y0135492D01*
X0103473Y0137091D02*
X0095873Y0137091D01*
X0095873Y0138689D02*
X0103473Y0138689D01*
X0103473Y0140288D02*
X0095873Y0140288D01*
X0095873Y0141886D02*
X0103473Y0141886D01*
X0103473Y0143485D02*
X0095873Y0143485D01*
X0095873Y0145083D02*
X0103473Y0145083D01*
X0103473Y0146682D02*
X0095873Y0146682D01*
X0095873Y0148280D02*
X0103473Y0148280D01*
X0103473Y0149879D02*
X0095873Y0149879D01*
X0095873Y0151477D02*
X0103473Y0151477D01*
X0103473Y0153076D02*
X0095873Y0153076D01*
X0095873Y0154674D02*
X0103473Y0154674D01*
X0109873Y0153687D02*
X0111357Y0155171D01*
X0111357Y0153791D01*
X0112057Y0152100D01*
X0112473Y0151684D01*
X0112473Y0128376D01*
X0112960Y0127200D01*
X0118746Y0121414D01*
X0119923Y0120927D01*
X0135660Y0120927D01*
X0136699Y0119888D01*
X0138537Y0119127D01*
X0140526Y0119127D01*
X0141473Y0119519D01*
X0141473Y0118076D01*
X0141221Y0118204D01*
X0140562Y0118418D01*
X0139878Y0118527D01*
X0139532Y0118527D01*
X0139532Y0114127D01*
X0139531Y0114127D01*
X0139531Y0114127D01*
X0135131Y0114127D01*
X0135131Y0114473D01*
X0135240Y0115157D01*
X0135454Y0115816D01*
X0135768Y0116433D01*
X0136175Y0116993D01*
X0136665Y0117483D01*
X0137225Y0117890D01*
X0137842Y0118204D01*
X0138501Y0118418D01*
X0139185Y0118527D01*
X0139531Y0118527D01*
X0139531Y0114127D01*
X0135131Y0114127D01*
X0135131Y0113780D01*
X0135240Y0113096D01*
X0135454Y0112438D01*
X0135569Y0112213D01*
X0123627Y0112213D01*
X0122451Y0111725D01*
X0121551Y0110825D01*
X0119960Y0109235D01*
X0119473Y0108059D01*
X0119473Y0095497D01*
X0119148Y0095362D01*
X0118473Y0094687D01*
X0118108Y0093805D01*
X0118108Y0088913D01*
X0118473Y0088031D01*
X0118492Y0088013D01*
X0118473Y0087994D01*
X0118108Y0087112D01*
X0118108Y0082220D01*
X0118473Y0081338D01*
X0119148Y0080663D01*
X0119473Y0080528D01*
X0119473Y0075338D01*
X0105348Y0061213D01*
X0104275Y0061213D01*
X0104486Y0061300D01*
X0108486Y0065300D01*
X0109386Y0066200D01*
X0109873Y0067376D01*
X0109873Y0153687D01*
X0109873Y0153076D02*
X0111653Y0153076D01*
X0111357Y0154674D02*
X0110860Y0154674D01*
X0109873Y0151477D02*
X0112473Y0151477D01*
X0112473Y0149879D02*
X0109873Y0149879D01*
X0109873Y0148280D02*
X0112473Y0148280D01*
X0112473Y0146682D02*
X0109873Y0146682D01*
X0109873Y0145083D02*
X0112473Y0145083D01*
X0112473Y0143485D02*
X0109873Y0143485D01*
X0109873Y0141886D02*
X0112473Y0141886D01*
X0112473Y0140288D02*
X0109873Y0140288D01*
X0109873Y0138689D02*
X0112473Y0138689D01*
X0112473Y0137091D02*
X0109873Y0137091D01*
X0109873Y0135492D02*
X0112473Y0135492D01*
X0112473Y0133894D02*
X0109873Y0133894D01*
X0109873Y0132295D02*
X0112473Y0132295D01*
X0112473Y0130696D02*
X0109873Y0130696D01*
X0109873Y0129098D02*
X0112473Y0129098D01*
X0112836Y0127499D02*
X0109873Y0127499D01*
X0109873Y0125901D02*
X0114259Y0125901D01*
X0115858Y0124302D02*
X0109873Y0124302D01*
X0109873Y0122704D02*
X0117456Y0122704D01*
X0119491Y0121105D02*
X0109873Y0121105D01*
X0109873Y0119507D02*
X0137619Y0119507D01*
X0137262Y0117908D02*
X0109873Y0117908D01*
X0109873Y0116310D02*
X0135706Y0116310D01*
X0135169Y0114711D02*
X0109873Y0114711D01*
X0109873Y0113113D02*
X0135237Y0113113D01*
X0139531Y0114711D02*
X0139532Y0114711D01*
X0139531Y0116310D02*
X0139532Y0116310D01*
X0139531Y0117908D02*
X0139532Y0117908D01*
X0141444Y0119507D02*
X0141473Y0119507D01*
X0149531Y0119127D02*
X0157205Y0126800D01*
X0170280Y0126800D01*
X0170280Y0116800D02*
X0157205Y0116800D01*
X0149531Y0109127D01*
X0122240Y0111514D02*
X0109873Y0111514D01*
X0109873Y0109916D02*
X0120642Y0109916D01*
X0121551Y0110825D02*
X0121551Y0110825D01*
X0119580Y0108317D02*
X0109873Y0108317D01*
X0109873Y0106719D02*
X0119473Y0106719D01*
X0119473Y0105120D02*
X0109873Y0105120D01*
X0109873Y0103522D02*
X0119473Y0103522D01*
X0119473Y0101923D02*
X0109873Y0101923D01*
X0109873Y0100325D02*
X0119473Y0100325D01*
X0119473Y0098726D02*
X0109873Y0098726D01*
X0109873Y0097128D02*
X0119473Y0097128D01*
X0119473Y0095529D02*
X0109873Y0095529D01*
X0109873Y0093931D02*
X0118160Y0093931D01*
X0118108Y0092332D02*
X0109873Y0092332D01*
X0109873Y0090734D02*
X0118108Y0090734D01*
X0118108Y0089135D02*
X0109873Y0089135D01*
X0109873Y0087537D02*
X0118284Y0087537D01*
X0118108Y0085938D02*
X0109873Y0085938D01*
X0109873Y0084340D02*
X0118108Y0084340D01*
X0118108Y0082741D02*
X0109873Y0082741D01*
X0109873Y0081143D02*
X0118669Y0081143D01*
X0119473Y0079544D02*
X0109873Y0079544D01*
X0109873Y0077946D02*
X0119473Y0077946D01*
X0119473Y0076347D02*
X0109873Y0076347D01*
X0109873Y0074749D02*
X0118884Y0074749D01*
X0117285Y0073150D02*
X0109873Y0073150D01*
X0109873Y0071552D02*
X0115687Y0071552D01*
X0114088Y0069953D02*
X0109873Y0069953D01*
X0109873Y0068355D02*
X0112490Y0068355D01*
X0110891Y0066756D02*
X0109616Y0066756D01*
X0109293Y0065158D02*
X0108344Y0065158D01*
X0107694Y0063559D02*
X0106745Y0063559D01*
X0106096Y0061960D02*
X0105147Y0061960D01*
X0106673Y0058013D02*
X0070673Y0058013D01*
X0071154Y0053968D02*
X0158192Y0053968D01*
X0156594Y0055566D02*
X0153042Y0055566D01*
X0149531Y0059127D02*
X0157559Y0059127D01*
X0164673Y0052013D01*
X0181327Y0052013D01*
X0182327Y0051013D01*
X0178288Y0047574D02*
X0174786Y0047574D01*
X0174778Y0045975D02*
X0185420Y0045975D01*
X0185420Y0044377D02*
X0174170Y0044377D01*
X0172457Y0042778D02*
X0185420Y0042778D01*
X0185420Y0041180D02*
X0173213Y0041180D01*
X0174725Y0039581D02*
X0185420Y0039581D01*
X0185420Y0037983D02*
X0175387Y0037983D01*
X0175451Y0036384D02*
X0185420Y0036384D01*
X0185420Y0034786D02*
X0175043Y0034786D01*
X0173981Y0033187D02*
X0185420Y0033187D01*
X0185420Y0031589D02*
X0172233Y0031589D01*
X0174403Y0029990D02*
X0185420Y0029990D01*
X0185420Y0028392D02*
X0175218Y0028392D01*
X0175451Y0026793D02*
X0184363Y0026793D01*
X0192620Y0037983D02*
X0208696Y0037983D01*
X0208361Y0039581D02*
X0192620Y0039581D01*
X0212142Y0039581D02*
X0212511Y0039581D01*
X0212511Y0037983D02*
X0212142Y0037983D01*
X0212142Y0042778D02*
X0212511Y0042778D01*
X0212511Y0044377D02*
X0212142Y0044377D01*
X0208442Y0052369D02*
X0207943Y0052369D01*
X0194673Y0056013D02*
X0189366Y0056013D01*
X0189020Y0055666D01*
X0170280Y0046800D02*
X0164461Y0046800D01*
X0155673Y0038013D01*
X0138673Y0038013D01*
X0133673Y0043013D01*
X0133673Y0058013D01*
X0139531Y0063871D01*
X0139531Y0064127D01*
X0139531Y0064127D01*
X0135131Y0064127D01*
X0135131Y0064473D01*
X0135240Y0065157D01*
X0135454Y0065816D01*
X0135768Y0066433D01*
X0136175Y0066993D01*
X0136665Y0067483D01*
X0137225Y0067890D01*
X0137842Y0068204D01*
X0138501Y0068418D01*
X0139185Y0068527D01*
X0139531Y0068527D01*
X0139531Y0064127D01*
X0139532Y0064127D01*
X0143931Y0064127D01*
X0143931Y0064473D01*
X0143823Y0065157D01*
X0143609Y0065816D01*
X0143295Y0066433D01*
X0142888Y0066993D01*
X0142398Y0067483D01*
X0141838Y0067890D01*
X0141221Y0068204D01*
X0140562Y0068418D01*
X0139878Y0068527D01*
X0139532Y0068527D01*
X0139532Y0064127D01*
X0139532Y0064127D01*
X0143931Y0064127D01*
X0143931Y0063780D01*
X0143823Y0063096D01*
X0143609Y0062438D01*
X0143295Y0061821D01*
X0142888Y0061260D01*
X0142398Y0060771D01*
X0141838Y0060364D01*
X0141221Y0060049D01*
X0140562Y0059835D01*
X0139878Y0059727D01*
X0139532Y0059727D01*
X0139532Y0064127D01*
X0139531Y0064127D01*
X0135131Y0064127D01*
X0135131Y0063780D01*
X0135240Y0063096D01*
X0135454Y0062438D01*
X0135768Y0061821D01*
X0136175Y0061260D01*
X0136665Y0060771D01*
X0137225Y0060364D01*
X0137842Y0060049D01*
X0138501Y0059835D01*
X0139185Y0059727D01*
X0139531Y0059727D01*
X0139531Y0064127D01*
X0139531Y0063559D02*
X0139532Y0063559D01*
X0139531Y0061960D02*
X0139532Y0061960D01*
X0139531Y0060362D02*
X0139532Y0060362D01*
X0141834Y0060362D02*
X0144631Y0060362D01*
X0144531Y0058763D02*
X0111950Y0058763D01*
X0110351Y0057165D02*
X0144932Y0057165D01*
X0146021Y0055566D02*
X0108753Y0055566D01*
X0106673Y0058013D02*
X0122673Y0074013D01*
X0122673Y0084666D01*
X0127239Y0084340D02*
X0134531Y0084340D01*
X0134693Y0082741D02*
X0127239Y0082741D01*
X0126678Y0081143D02*
X0135445Y0081143D01*
X0137529Y0079544D02*
X0125873Y0079544D01*
X0125873Y0077946D02*
X0136279Y0077946D01*
X0136699Y0078366D02*
X0135293Y0076959D01*
X0134531Y0075121D01*
X0134531Y0073132D01*
X0135293Y0071294D01*
X0136699Y0069888D01*
X0138537Y0069127D01*
X0140526Y0069127D01*
X0142364Y0069888D01*
X0143770Y0071294D01*
X0144531Y0073132D01*
X0144531Y0075121D01*
X0143770Y0076959D01*
X0142364Y0078366D01*
X0140526Y0079127D01*
X0138537Y0079127D01*
X0136699Y0078366D01*
X0135039Y0076347D02*
X0125873Y0076347D01*
X0125873Y0074749D02*
X0134531Y0074749D01*
X0134531Y0073150D02*
X0125780Y0073150D01*
X0124738Y0071552D02*
X0135186Y0071552D01*
X0136634Y0069953D02*
X0123139Y0069953D01*
X0121541Y0068355D02*
X0138305Y0068355D01*
X0139531Y0068355D02*
X0139532Y0068355D01*
X0140758Y0068355D02*
X0144531Y0068355D01*
X0144531Y0069953D02*
X0142429Y0069953D01*
X0143877Y0071552D02*
X0145124Y0071552D01*
X0144531Y0073150D02*
X0146484Y0073150D01*
X0147036Y0074749D02*
X0144531Y0074749D01*
X0144024Y0076347D02*
X0145271Y0076347D01*
X0144609Y0077946D02*
X0142784Y0077946D01*
X0141534Y0079544D02*
X0144531Y0079544D01*
X0144955Y0081143D02*
X0143618Y0081143D01*
X0134870Y0085938D02*
X0127239Y0085938D01*
X0127063Y0087537D02*
X0133124Y0087537D01*
X0152027Y0074749D02*
X0155473Y0074749D01*
X0155473Y0076347D02*
X0153792Y0076347D01*
X0152579Y0073150D02*
X0155473Y0073150D01*
X0155473Y0071552D02*
X0153939Y0071552D01*
X0154531Y0069953D02*
X0156207Y0069953D01*
X0157806Y0068355D02*
X0154531Y0068355D01*
X0153961Y0066756D02*
X0159404Y0066756D01*
X0161003Y0065158D02*
X0152633Y0065158D01*
X0151897Y0063559D02*
X0166207Y0063559D01*
X0168449Y0061960D02*
X0159080Y0061960D01*
X0160849Y0060362D02*
X0166528Y0060362D01*
X0165495Y0058763D02*
X0162448Y0058763D01*
X0164046Y0057165D02*
X0165108Y0057165D01*
X0159791Y0052369D02*
X0076342Y0052369D01*
X0076290Y0052421D02*
X0075880Y0052658D01*
X0075422Y0052781D01*
X0073204Y0052781D01*
X0073204Y0049197D01*
X0076985Y0049197D01*
X0076985Y0051218D01*
X0076862Y0051676D01*
X0076625Y0052086D01*
X0076290Y0052421D01*
X0076985Y0050771D02*
X0161389Y0050771D01*
X0163168Y0049172D02*
X0073204Y0049172D01*
X0073020Y0049013D02*
X0074571Y0047461D01*
X0074571Y0039910D01*
X0078552Y0039910D01*
X0078552Y0040302D01*
X0078399Y0041071D01*
X0078099Y0041796D01*
X0077663Y0042448D01*
X0077109Y0043003D01*
X0076457Y0043438D01*
X0075732Y0043738D01*
X0074963Y0043891D01*
X0074571Y0043891D01*
X0074571Y0039910D01*
X0070590Y0039910D01*
X0070590Y0039518D01*
X0070743Y0038749D01*
X0071043Y0038024D01*
X0071479Y0037372D01*
X0072033Y0036818D01*
X0072685Y0036382D01*
X0074571Y0036384D02*
X0074571Y0036384D01*
X0074571Y0037983D02*
X0074571Y0037983D01*
X0074571Y0039581D02*
X0074571Y0039581D01*
X0074571Y0039910D02*
X0074571Y0039910D01*
X0074571Y0039910D01*
X0070590Y0039910D01*
X0070590Y0040302D01*
X0070743Y0041071D01*
X0071043Y0041796D01*
X0071479Y0042448D01*
X0072033Y0043003D01*
X0072685Y0043438D01*
X0073410Y0043738D01*
X0074179Y0043891D01*
X0074571Y0043891D01*
X0074571Y0039910D01*
X0074571Y0041180D02*
X0074571Y0041180D01*
X0074571Y0042778D02*
X0074571Y0042778D01*
X0077333Y0042778D02*
X0168103Y0042778D01*
X0167883Y0042890D02*
X0168525Y0042563D01*
X0169209Y0042341D01*
X0169920Y0042228D01*
X0170194Y0042228D01*
X0170194Y0046714D01*
X0165708Y0046714D01*
X0165708Y0046440D01*
X0165820Y0045729D01*
X0166043Y0045045D01*
X0166370Y0044404D01*
X0166792Y0043822D01*
X0167301Y0043313D01*
X0167883Y0042890D01*
X0167346Y0041180D02*
X0129419Y0041180D01*
X0131017Y0039581D02*
X0164151Y0039581D01*
X0162552Y0037983D02*
X0131854Y0037983D01*
X0133393Y0036384D02*
X0160954Y0036384D01*
X0159355Y0034786D02*
X0134991Y0034786D01*
X0136590Y0033187D02*
X0157757Y0033187D01*
X0170194Y0042778D02*
X0170365Y0042778D01*
X0170365Y0044377D02*
X0170194Y0044377D01*
X0170194Y0045975D02*
X0170365Y0045975D01*
X0166389Y0044377D02*
X0067771Y0044377D01*
X0068181Y0042778D02*
X0071809Y0042778D01*
X0070788Y0041180D02*
X0069004Y0041180D01*
X0069152Y0039581D02*
X0070590Y0039581D01*
X0071071Y0037983D02*
X0068731Y0037983D01*
X0076460Y0036384D02*
X0123492Y0036384D01*
X0123492Y0037983D02*
X0078071Y0037983D01*
X0078552Y0039581D02*
X0124329Y0039581D01*
X0125928Y0041180D02*
X0078354Y0041180D01*
X0076646Y0045975D02*
X0165781Y0045975D01*
X0165773Y0047574D02*
X0076985Y0047574D01*
X0073204Y0047574D02*
X0072835Y0047574D01*
X0072835Y0045975D02*
X0073204Y0045975D01*
X0073204Y0050771D02*
X0072835Y0050771D01*
X0072835Y0052369D02*
X0073204Y0052369D01*
X0077761Y0067780D02*
X0081381Y0067780D01*
X0084725Y0069165D01*
X0087285Y0071724D01*
X0088670Y0075069D01*
X0088670Y0078689D01*
X0087285Y0082033D01*
X0084725Y0084593D01*
X0081381Y0085978D01*
X0077761Y0085978D01*
X0074417Y0084593D01*
X0071857Y0082033D01*
X0070472Y0078689D01*
X0070472Y0075069D01*
X0071857Y0071724D01*
X0074417Y0069165D01*
X0077761Y0067780D01*
X0076373Y0068355D02*
X0043399Y0068355D01*
X0046143Y0069953D02*
X0073628Y0069953D01*
X0072030Y0071552D02*
X0047742Y0071552D01*
X0048505Y0073150D02*
X0071266Y0073150D01*
X0070604Y0074749D02*
X0049167Y0074749D01*
X0049300Y0076347D02*
X0070472Y0076347D01*
X0070472Y0077946D02*
X0049300Y0077946D01*
X0048946Y0079544D02*
X0070826Y0079544D01*
X0071488Y0081143D02*
X0048284Y0081143D01*
X0047207Y0082741D02*
X0072565Y0082741D01*
X0074164Y0084340D02*
X0045608Y0084340D01*
X0042107Y0085938D02*
X0077665Y0085938D01*
X0081477Y0085938D02*
X0103473Y0085938D01*
X0103473Y0084340D02*
X0084978Y0084340D01*
X0086577Y0082741D02*
X0103473Y0082741D01*
X0103473Y0081143D02*
X0087654Y0081143D01*
X0088316Y0079544D02*
X0103473Y0079544D01*
X0103473Y0077946D02*
X0088670Y0077946D01*
X0088670Y0076347D02*
X0103473Y0076347D01*
X0103473Y0074749D02*
X0088537Y0074749D01*
X0087875Y0073150D02*
X0103473Y0073150D01*
X0103473Y0071552D02*
X0087112Y0071552D01*
X0085513Y0069953D02*
X0103473Y0069953D01*
X0102490Y0068355D02*
X0082769Y0068355D01*
X0113548Y0060362D02*
X0137228Y0060362D01*
X0135697Y0061960D02*
X0115147Y0061960D01*
X0116745Y0063559D02*
X0135167Y0063559D01*
X0135240Y0065158D02*
X0118344Y0065158D01*
X0119942Y0066756D02*
X0136003Y0066756D01*
X0139531Y0066756D02*
X0139532Y0066756D01*
X0139531Y0065158D02*
X0139532Y0065158D01*
X0143060Y0066756D02*
X0145102Y0066756D01*
X0143823Y0065158D02*
X0146430Y0065158D01*
X0147166Y0063559D02*
X0143896Y0063559D01*
X0143366Y0061960D02*
X0145294Y0061960D01*
X0103473Y0087537D02*
X0030681Y0087537D01*
X0028020Y0092013D02*
X0035673Y0092013D01*
X0040673Y0092013D01*
X0045673Y0097013D01*
X0045673Y0102666D01*
X0046020Y0103013D01*
X0050388Y0103522D02*
X0053533Y0103522D01*
X0053533Y0105120D02*
X0050388Y0105120D01*
X0049841Y0106719D02*
X0053533Y0106719D01*
X0053533Y0108317D02*
X0032449Y0108317D01*
X0033604Y0106719D02*
X0035505Y0106719D01*
X0039327Y0103013D02*
X0026673Y0103013D01*
X0017673Y0095666D02*
X0021327Y0092013D01*
X0023989Y0087537D02*
X0025358Y0087537D01*
X0042089Y0089135D02*
X0103473Y0089135D01*
X0103473Y0090734D02*
X0043920Y0090734D01*
X0045518Y0092332D02*
X0103473Y0092332D01*
X0103473Y0093931D02*
X0047117Y0093931D01*
X0048522Y0095529D02*
X0103473Y0095529D01*
X0103473Y0097128D02*
X0061023Y0097128D01*
X0063160Y0098726D02*
X0083051Y0098726D01*
X0082010Y0100325D02*
X0063994Y0100325D01*
X0064270Y0101923D02*
X0081692Y0101923D01*
X0081692Y0103522D02*
X0064270Y0103522D01*
X0064270Y0105120D02*
X0086276Y0105120D01*
X0086645Y0105120D02*
X0103473Y0105120D01*
X0103473Y0103522D02*
X0091229Y0103522D01*
X0091229Y0104844D02*
X0086645Y0104844D01*
X0086645Y0097291D01*
X0086836Y0097291D01*
X0087577Y0097409D01*
X0088291Y0097641D01*
X0088960Y0097981D01*
X0089567Y0098423D01*
X0090098Y0098953D01*
X0090539Y0099561D01*
X0090880Y0100229D01*
X0091112Y0100943D01*
X0091229Y0101685D01*
X0091229Y0104844D01*
X0091229Y0106719D02*
X0103473Y0106719D01*
X0103473Y0108317D02*
X0091229Y0108317D01*
X0096489Y0109916D02*
X0103473Y0109916D01*
X0103473Y0111514D02*
X0097854Y0111514D01*
X0086645Y0103522D02*
X0086276Y0103522D01*
X0086276Y0101923D02*
X0086645Y0101923D01*
X0086645Y0100325D02*
X0086276Y0100325D01*
X0086276Y0098726D02*
X0086645Y0098726D01*
X0089871Y0098726D02*
X0103473Y0098726D01*
X0103473Y0100325D02*
X0090911Y0100325D01*
X0091229Y0101923D02*
X0103473Y0101923D01*
X0081692Y0106719D02*
X0064270Y0106719D01*
X0064270Y0108317D02*
X0081692Y0108317D01*
X0056780Y0097128D02*
X0048873Y0097128D01*
X0049139Y0098726D02*
X0054643Y0098726D01*
X0053809Y0100325D02*
X0050370Y0100325D01*
X0050388Y0101923D02*
X0053533Y0101923D01*
X0065470Y0137091D02*
X0067506Y0137091D01*
X0069481Y0146682D02*
X0041342Y0146682D01*
X0042941Y0148280D02*
X0069481Y0148280D01*
X0069481Y0149879D02*
X0044539Y0149879D01*
X0046138Y0151477D02*
X0069481Y0151477D01*
X0069481Y0153076D02*
X0047736Y0153076D01*
X0049335Y0154674D02*
X0069481Y0154674D01*
X0069481Y0156273D02*
X0050673Y0156273D01*
X0050673Y0157871D02*
X0069481Y0157871D01*
X0069481Y0159470D02*
X0050673Y0159470D01*
X0050673Y0161068D02*
X0069481Y0161068D01*
X0069481Y0162667D02*
X0050673Y0162667D01*
X0050673Y0164265D02*
X0069473Y0164265D01*
X0069999Y0165864D02*
X0050673Y0165864D01*
X0052123Y0167462D02*
X0071597Y0167462D01*
X0073196Y0169061D02*
X0053721Y0169061D01*
X0055320Y0170659D02*
X0074794Y0170659D01*
X0076393Y0172258D02*
X0056918Y0172258D01*
X0058517Y0173856D02*
X0077991Y0173856D01*
X0060115Y0175455D02*
X0165239Y0175455D01*
X0165108Y0167462D02*
X0161073Y0167462D01*
X0161073Y0165864D02*
X0165108Y0165864D01*
X0165732Y0164265D02*
X0161073Y0164265D01*
X0161073Y0162667D02*
X0167099Y0162667D01*
X0167234Y0161068D02*
X0161062Y0161068D01*
X0160114Y0159470D02*
X0165788Y0159470D01*
X0165125Y0157871D02*
X0129340Y0157871D01*
X0127742Y0159470D02*
X0141073Y0159470D01*
X0140125Y0161068D02*
X0127628Y0161068D01*
X0129405Y0162667D02*
X0140114Y0162667D01*
X0140114Y0164265D02*
X0129947Y0164265D01*
X0129805Y0165864D02*
X0138592Y0165864D01*
X0138246Y0167462D02*
X0128857Y0167462D01*
X0125957Y0167462D02*
X0125957Y0167462D01*
X0125957Y0165864D02*
X0125957Y0165864D01*
X0125957Y0164706D02*
X0125957Y0164705D01*
X0121957Y0164705D01*
X0121957Y0164312D01*
X0128673Y0154013D02*
X0150673Y0154013D01*
X0157886Y0146800D01*
X0170280Y0146800D01*
X0168057Y0151477D02*
X0157734Y0151477D01*
X0156136Y0153076D02*
X0166690Y0153076D01*
X0165562Y0154674D02*
X0154537Y0154674D01*
X0152939Y0156273D02*
X0165108Y0156273D01*
X0170280Y0156800D02*
X0171067Y0156013D01*
X0182327Y0156013D01*
X0178296Y0159470D02*
X0174771Y0159470D01*
X0173325Y0161068D02*
X0205092Y0161068D01*
X0203494Y0162667D02*
X0173460Y0162667D01*
X0174827Y0164265D02*
X0201895Y0164265D01*
X0200297Y0165864D02*
X0175451Y0165864D01*
X0175451Y0167462D02*
X0198698Y0167462D01*
X0153030Y0159470D02*
X0152735Y0159470D01*
X0146584Y0159470D02*
X0145355Y0159470D01*
X0150941Y0143485D02*
X0151676Y0143485D01*
X0151410Y0141886D02*
X0152473Y0141886D01*
X0152473Y0140288D02*
X0151410Y0140288D01*
X0151003Y0138689D02*
X0152473Y0138689D01*
X0152473Y0137091D02*
X0150279Y0137091D01*
X0151371Y0135492D02*
X0148680Y0135492D01*
X0147974Y0133894D02*
X0143931Y0133894D01*
X0149531Y0129127D02*
X0155673Y0135269D01*
X0044571Y0042778D02*
X0044571Y0042778D01*
X0044571Y0041180D02*
X0044571Y0041180D01*
X0041809Y0042778D02*
X0015673Y0042778D01*
X0015673Y0041180D02*
X0040788Y0041180D01*
X0040590Y0039581D02*
X0015673Y0039581D01*
X0015673Y0037983D02*
X0041071Y0037983D01*
X0042682Y0036384D02*
X0015673Y0036384D01*
X0015673Y0034786D02*
X0123987Y0034786D01*
X0125586Y0033187D02*
X0015673Y0033187D01*
X0015673Y0031589D02*
X0026976Y0031589D01*
X0026542Y0031409D02*
X0029018Y0032435D01*
X0031698Y0032435D01*
X0034174Y0031409D01*
X0036070Y0029514D01*
X0037095Y0027038D01*
X0037095Y0024358D01*
X0036070Y0021881D01*
X0034174Y0019986D01*
X0031698Y0018961D01*
X0029018Y0018961D01*
X0026542Y0019986D01*
X0024647Y0021881D01*
X0023621Y0024358D01*
X0023621Y0027038D01*
X0024647Y0029514D01*
X0026542Y0031409D01*
X0025123Y0029990D02*
X0015673Y0029990D01*
X0015673Y0028392D02*
X0024182Y0028392D01*
X0023621Y0026793D02*
X0015673Y0026793D01*
X0015673Y0025195D02*
X0023621Y0025195D01*
X0023937Y0023596D02*
X0015673Y0023596D01*
X0015673Y0021998D02*
X0024599Y0021998D01*
X0026129Y0020399D02*
X0015673Y0020399D01*
X0015673Y0018801D02*
X0126496Y0018801D01*
X0128095Y0020399D02*
X0034587Y0020399D01*
X0036118Y0021998D02*
X0129693Y0021998D01*
X0131292Y0023596D02*
X0036780Y0023596D01*
X0037095Y0025195D02*
X0133074Y0025195D01*
X0132801Y0026793D02*
X0037095Y0026793D01*
X0036534Y0028392D02*
X0131203Y0028392D01*
X0129604Y0029990D02*
X0035593Y0029990D01*
X0033740Y0031589D02*
X0128006Y0031589D01*
X0124076Y0017202D02*
X0015673Y0017202D01*
X0015673Y0015604D02*
X0122492Y0015604D01*
X0122492Y0014005D02*
X0015673Y0014005D01*
X0015673Y0012407D02*
X0122492Y0012407D01*
X0130854Y0012407D02*
X0167372Y0012407D01*
X0165839Y0014005D02*
X0131883Y0014005D01*
X0133481Y0015604D02*
X0165177Y0015604D01*
X0165108Y0017202D02*
X0135080Y0017202D01*
D24*
X0126673Y0013887D03*
X0127673Y0037013D03*
X0194673Y0056013D03*
X0205673Y0056013D03*
X0203173Y0047513D03*
X0251673Y0086013D03*
X0257673Y0115013D03*
X0296673Y0118013D03*
X0309673Y0142013D03*
X0100673Y0158013D03*
X0092673Y0162013D03*
X0087673Y0166013D03*
X0059673Y0143013D03*
X0093673Y0113013D03*
X0035673Y0092013D03*
D25*
X0127673Y0037013D02*
X0135673Y0029013D01*
X0158673Y0029013D01*
X0166461Y0036800D01*
X0170280Y0036800D01*
X0184673Y0022013D02*
X0189020Y0026359D01*
X0189020Y0051013D01*
X0189020Y0055666D01*
X0182327Y0062359D01*
X0182327Y0066013D01*
X0171067Y0066013D01*
X0170280Y0066800D01*
X0127886Y0036800D02*
X0127673Y0037013D01*
X0134799Y0022013D02*
X0126673Y0013887D01*
X0134799Y0022013D02*
X0184673Y0022013D01*
X0291185Y0101091D02*
X0291185Y0111013D01*
X0296343Y0111013D01*
X0291185Y0111013D02*
X0291185Y0132524D01*
X0293673Y0135013D01*
X0300343Y0135013D01*
X0300673Y0135343D01*
X0256343Y0121013D02*
X0250673Y0121013D01*
X0250673Y0127824D01*
X0249846Y0128650D01*
X0250673Y0121013D02*
X0250673Y0110343D01*
M02*
